<?xml version="1.0" standalone="no"?>
<!DOCTYPE svg PUBLIC "-//W3C//DTD SVG 20010904//EN"
 "http://www.w3.org/TR/2001/REC-SVG-20010904/DTD/svg10.dtd">
<svg version="1.0" xmlns="http://www.w3.org/2000/svg"
 width="9307.000000pt" height="3831.000000pt" viewBox="0 0 9307.000000 3831.000000"
 preserveAspectRatio="xMidYMid meet">

<g transform="translate(0.000000,3831.000000) scale(0.100000,-0.100000)"
fill="#000000" stroke="none">
<path d="M2355 38293 c-367 -43 -617 -115 -911 -259 -510 -249 -922 -663
-1174 -1178 -94 -192 -140 -313 -185 -490 -40 -159 -61 -282 -75 -441 -14
-166 -14 -30993 0 -31230 76 -1276 598 -2440 1496 -3340 621 -622 1376 -1067
2223 -1311 l154 -44 25205 0 25205 0 121 36 c1288 381 2356 1356 2864 2614
212 526 322 1091 322 1665 1 1168 340 2306 977 3274 830 1262 2092 2159 3544
2520 304 75 576 122 929 158 154 16 994 18 12725 23 11703 6 12569 7 12695 23
679 85 1209 241 1765 519 945 474 1709 1218 2224 2165 315 581 504 1200 588
1934 16 133 17 858 20 9224 3 6361 1 9138 -7 9275 -17 308 -51 564 -111 840
-337 1536 -1362 2832 -2784 3521 -517 251 -1031 400 -1650 481 l-170 22
-42980 2 c-23639 0 -42993 -1 -43010 -3z m3839 -3713 c1391 -218 2429 -1373
2493 -2772 l6 -138 -1471 0 -1472 0 0 1472 0 1471 158 -6 c86 -4 215 -16 286
-27z m-946 -1942 l2 -1468 1465 0 1465 0 0 -98 c0 -53 -7 -156 -15 -227 -96
-817 -504 -1532 -1155 -2024 -814 -615 -1889 -760 -2845 -384 -967 380 -1660
1247 -1826 2288 -27 168 -37 549 -19 721 114 1114 816 2047 1850 2457 314 125
724 207 1010 203 l65 -1 3 -1467z"/>
<path d="M63525 8063 c-1277 -85 -2441 -763 -3149 -1833 -264 -399 -437 -786
-556 -1245 -94 -359 -124 -611 -124 -1025 0 -317 10 -444 55 -710 100 -583
347 -1177 697 -1670 507 -714 1235 -1251 2069 -1526 l162 -54 10393 2 10393 3
121 42 c504 172 901 388 1309 712 152 120 492 459 617 616 829 1036 1111 2367
773 3650 -139 532 -410 1067 -762 1505 -193 241 -490 529 -738 717 -44 33
-139 99 -210 146 -546 358 -1097 560 -1785 654 -117 16 -722 17 -9670 18
-5250 1 -9567 0 -9595 -2z m6993 -3256 l672 -672 -705 -705 -705 -705 -140
140 c-77 77 -140 144 -140 150 0 5 251 261 557 567 l558 558 -530 530 -530
530 140 140 c77 77 142 140 145 140 3 0 308 -303 678 -673z m2610 0 l672 -672
-703 -703 -702 -702 -145 145 -145 145 560 560 560 560 -530 530 -530 530 140
140 c77 77 142 140 145 140 3 0 308 -303 678 -673z"/>
</g>
</svg>
