<svg width="21" height="21" viewBox="0 0 21 21" fill="none" xmlns="http://www.w3.org/2000/svg">
<path d="M6.24535 20.8589C5.67286 20.8589 5.18278 20.655 4.77509 20.2473C4.36741 19.8397 4.16357 19.3496 4.16357 18.7771C4.16357 18.2046 4.36741 17.7145 4.77509 17.3068C5.18278 16.8991 5.67286 16.6953 6.24535 16.6953C6.81784 16.6953 7.30793 16.8991 7.71561 17.3068C8.1233 17.7145 8.32714 18.2046 8.32714 18.7771C8.32714 19.3496 8.1233 19.8397 7.71561 20.2473C7.30793 20.655 6.81784 20.8589 6.24535 20.8589ZM16.6543 20.8589C16.0818 20.8589 15.5917 20.655 15.184 20.2473C14.7763 19.8397 14.5725 19.3496 14.5725 18.7771C14.5725 18.2046 14.7763 17.7145 15.184 17.3068C15.5917 16.8991 16.0818 16.6953 16.6543 16.6953C17.2268 16.6953 17.7169 16.8991 18.1245 17.3068C18.5322 17.7145 18.7361 18.2046 18.7361 18.7771C18.7361 19.3496 18.5322 19.8397 18.1245 20.2473C17.7169 20.655 17.2268 20.8589 16.6543 20.8589ZM6.24535 15.6544C5.46468 15.6544 4.86617 15.3118 4.44981 14.6265C4.03346 13.9413 4.02478 13.2603 4.42379 12.5838L5.829 10.0336L2.08178 2.1228H0V0.0410156H3.40892L7.83271 9.40905H15.145L19.1784 2.1228L21 3.11165L16.9665 10.3979C16.7757 10.7449 16.5242 11.0138 16.2119 11.2046C15.8996 11.3954 15.544 11.4908 15.145 11.4908H7.39034L6.24535 13.5726H18.7361V15.6544H6.24535Z" fill="white"/>
</svg>
