<svg width="35" height="37" viewBox="0 0 35 37" fill="none" xmlns="http://www.w3.org/2000/svg">
<path d="M16.9113 14.029V8.95566H11.8379V5.57339H16.9113V0.5H20.2936V5.57339H25.367V8.95566H20.2936V14.029H16.9113ZM10.1468 36.0138C9.21667 36.0138 8.42042 35.6826 7.75806 35.0202C7.09571 34.3579 6.76453 33.5616 6.76453 32.6315C6.76453 31.7014 7.09571 30.9051 7.75806 30.2428C8.42042 29.5804 9.21667 29.2492 10.1468 29.2492C11.0769 29.2492 11.8732 29.5804 12.5355 30.2428C13.1979 30.9051 13.5291 31.7014 13.5291 32.6315C13.5291 33.5616 13.1979 34.3579 12.5355 35.0202C11.8732 35.6826 11.0769 36.0138 10.1468 36.0138ZM27.0581 36.0138C26.128 36.0138 25.3317 35.6826 24.6694 35.0202C24.007 34.3579 23.6758 33.5616 23.6758 32.6315C23.6758 31.7014 24.007 30.9051 24.6694 30.2428C25.3317 29.5804 26.128 29.2492 27.0581 29.2492C27.9882 29.2492 28.7845 29.5804 29.4468 30.2428C30.1092 30.9051 30.4404 31.7014 30.4404 32.6315C30.4404 33.5616 30.1092 34.3579 29.4468 35.0202C28.7845 35.6826 27.9882 36.0138 27.0581 36.0138ZM10.1468 27.5581C8.87844 27.5581 7.90604 27.0014 7.22959 25.8881C6.55313 24.7748 6.53904 23.6685 7.18731 22.5693L9.47034 18.426L3.38226 5.57339H0V2.19113H5.53846L12.7258 17.4113H24.606L31.1591 5.57339L34.1186 7.17997L27.5654 19.0179C27.2554 19.5816 26.8467 20.0185 26.3394 20.3285C25.832 20.6386 25.2542 20.7936 24.606 20.7936H12.007L10.1468 24.1758H30.4404V27.5581H10.1468Z" fill="white"/>
</svg>
