<svg width="22" height="30" viewBox="0 0 22 30" fill="none" xmlns="http://www.w3.org/2000/svg">
<path d="M8.19687 29.2686C5.97375 29.2686 4.08894 28.4954 2.54243 26.9488C0.995913 25.4023 0.222656 23.5175 0.222656 21.2944V6.07091C0.222656 4.47607 0.790517 3.11079 1.92624 1.97507C3.06196 0.839345 4.42724 0.271484 6.02208 0.271484C7.61693 0.271484 8.98221 0.839345 10.1179 1.97507C11.2536 3.11079 11.8215 4.47607 11.8215 6.07091V17.6698H9.64672V6.07091C9.64672 5.05601 9.29634 4.19818 8.59558 3.49742C7.89481 2.79665 7.03698 2.44627 6.02208 2.44627C5.00718 2.44627 4.14935 2.79665 3.44859 3.49742C2.74782 4.19818 2.39744 5.05601 2.39744 6.07091V21.2944C2.39744 22.8892 2.9653 24.2545 4.10102 25.3903C5.23674 26.526 6.60203 27.0938 8.19687 27.0938C8.89763 27.0938 9.55611 26.9791 10.1723 26.7495C10.7885 26.5199 11.3382 26.1998 11.8215 25.789V28.3987C11.2657 28.6645 10.6858 28.8759 10.0817 29.033C9.47757 29.1901 8.8493 29.2686 8.19687 29.2686ZM14.7212 27.8188V23.4692H10.3717V20.5695H14.7212V16.2199H17.6209V20.5695H21.9705V23.4692H17.6209V27.8188H14.7212ZM8.19687 21.2944V23.4692C7.18197 23.4692 6.32414 23.1188 5.62337 22.418C4.92261 21.7173 4.57223 20.8594 4.57223 19.8446V6.07091H6.74701V19.8446C6.74701 20.2553 6.88596 20.5997 7.16384 20.8776C7.44173 21.1555 7.78608 21.2944 8.19687 21.2944ZM13.9963 13.3202V6.07091H16.1711V13.3202H13.9963Z" fill="#989797"/>
</svg>
