<svg width="27" height="35" viewBox="0 0 27 35" fill="none" xmlns="http://www.w3.org/2000/svg">
<path d="M9.94141 34.546C7.32777 34.546 5.11186 33.6369 3.29368 31.8187C1.4755 30.0005 0.566406 27.7846 0.566406 25.171V7.27326C0.566406 5.39826 1.23402 3.79315 2.56925 2.45792C3.90447 1.12269 5.50959 0.455078 7.38459 0.455078C9.25959 0.455078 10.8647 1.12269 12.1999 2.45792C13.5352 3.79315 14.2028 5.39826 14.2028 7.27326V20.9096H11.646V7.27326C11.646 6.08008 11.234 5.07156 10.4102 4.24769C9.58629 3.42383 8.57777 3.0119 7.38459 3.0119C6.19141 3.0119 5.18288 3.42383 4.35902 4.24769C3.53516 5.07156 3.12322 6.08008 3.12322 7.27326V25.171C3.12322 27.046 3.79084 28.6511 5.12607 29.9863C6.46129 31.3216 8.06641 31.9892 9.94141 31.9892C10.7653 31.9892 11.5394 31.8542 12.2639 31.5843C12.9883 31.3145 13.6346 30.938 14.2028 30.4551V33.5233C13.5494 33.8358 12.8675 34.0843 12.1573 34.269C11.4471 34.4537 10.7085 34.546 9.94141 34.546ZM17.6119 32.8414V27.7278H12.4982V24.3187H17.6119V19.2051H21.021V24.3187H26.1346V27.7278H21.021V32.8414H17.6119ZM9.94141 25.171V27.7278C8.74822 27.7278 7.7397 27.3159 6.91584 26.492C6.09197 25.6681 5.68004 24.6596 5.68004 23.4664V7.27326H8.23686V23.4664C8.23686 23.9494 8.40021 24.3542 8.72692 24.6809C9.05362 25.0076 9.45845 25.171 9.94141 25.171ZM16.7596 15.796V7.27326H19.3164V15.796H16.7596Z" fill="#414141"/>
</svg>
