<svg width="432" height="431" viewBox="0 0 432 431" fill="none" xmlns="http://www.w3.org/2000/svg">
<g clip-path="url(#clip0_1274_3497)">
<path d="M8.42252 115.976C6.20032 115.976 4.38281 114.158 4.38281 111.936V85.2624C4.38281 83.0402 6.20032 81.2227 8.42252 81.2227C10.6447 81.2227 12.4622 83.0402 12.4622 85.2624V111.938C12.4622 114.158 10.6447 115.976 8.42252 115.976Z" fill="#343534"/>
<path d="M8.42252 155.721C6.20032 155.721 4.38281 153.903 4.38281 151.681V125.007C4.38281 122.785 6.20032 120.968 8.42252 120.968C10.6447 120.968 12.4622 122.785 12.4622 125.007V151.683C12.4622 153.903 10.6447 155.721 8.42252 155.721Z" fill="#343534"/>
<path d="M201.846 431H33.733C19.7452 431 8.40625 419.661 8.40625 405.673V25.3267C8.40625 11.339 19.7452 0 33.733 0H201.845C215.833 0 227.172 11.339 227.172 25.3267V405.672C227.173 419.661 215.834 431 201.846 431Z" fill="#343534"/>
<path d="M219.347 25.3439V405.664C219.347 415.301 211.511 423.136 201.874 423.136H33.7301C24.0932 423.136 16.2578 415.301 16.2578 405.664V25.3439C16.2578 15.7056 24.0932 7.87012 33.7301 7.87012H201.874C211.511 7.87012 219.347 15.7041 219.347 25.3439Z" fill="white"/>
<path opacity="0.32" d="M219.345 25.3439V31.3603H16.2578V25.3439C16.2578 15.7056 24.0932 7.87012 33.7301 7.87012H201.874C211.51 7.87012 219.345 15.7041 219.345 25.3439Z" fill="#6994DA"/>
<path d="M117.795 26.4684C121.949 26.4684 125.316 23.101 125.316 18.9471C125.316 14.7932 121.949 11.4258 117.795 11.4258C113.641 11.4258 110.273 14.7932 110.273 18.9471C110.273 23.101 113.641 26.4684 117.795 26.4684Z" fill="#343534"/>
<path d="M42.633 14.9297H29.0938V18.3003H42.633V14.9297Z" fill="#343534"/>
<path d="M42.633 21.2656H29.0938V24.6362H42.633V21.2656Z" fill="#343534"/>
<path d="M227.274 147.816C225.052 147.816 223.234 145.998 223.234 143.776V117.102C223.234 114.88 225.052 113.062 227.274 113.062C229.496 113.062 231.314 114.88 231.314 117.102V143.777C231.314 145.998 229.496 147.816 227.274 147.816Z" fill="#343534"/>
<path d="M187.359 262.947H54.8321C52.2665 262.947 50.1875 260.866 50.1875 258.304V125.775C50.1875 123.212 52.268 121.132 54.8321 121.132H187.358C189.924 121.132 192.001 123.212 192.001 125.775V258.304C192.003 260.866 189.925 262.947 187.359 262.947Z" fill="#C3C3C3"/>
<path d="M182.194 257.788H49.6665C47.1039 257.788 45.0234 255.71 45.0234 253.148V120.619C45.0234 118.053 47.1039 115.976 49.6665 115.976H182.192C184.758 115.976 186.839 118.053 186.839 120.619V253.148C186.839 255.71 184.758 257.788 182.194 257.788Z" fill="#F8FBFF"/>
<path d="M132.303 169.037C131.868 169.037 131.516 168.685 131.516 168.25V156.48C131.516 150.693 126.808 145.984 121.02 145.984C115.236 145.984 110.528 150.691 110.528 156.48V168.25C110.528 168.685 110.176 169.037 109.741 169.037C109.305 169.037 108.953 168.685 108.953 168.25V156.48C108.953 149.823 114.366 144.41 121.02 144.41C127.676 144.41 133.089 149.823 133.089 156.48V168.25C133.091 168.685 132.737 169.037 132.303 169.037Z" fill="#4A4A4A"/>
<path d="M135.622 162.577H87.8291L82.2188 229.359H130.012L135.622 162.577Z" fill="#12797C"/>
<path d="M144.003 162.577H135.618L130.008 229.359H137.45H142.172H149.613L144.003 162.577Z" fill="#094446"/>
<path d="M130.008 229.361L139.811 220.577L149.613 229.361H130.008Z" fill="#0E5E61"/>
<path d="M98.4531 169.148C98.4531 168.067 99.3297 167.19 100.411 167.19C101.492 167.19 102.369 168.067 102.369 169.148C102.369 170.228 101.492 171.106 100.411 171.106C99.3297 171.106 98.4531 170.228 98.4531 169.148Z" fill="#094446"/>
<path d="M121.016 169.148C121.016 168.067 121.892 167.19 122.973 167.19C124.053 167.19 124.931 168.067 124.931 169.148C124.931 170.228 124.053 171.106 122.973 171.106C121.891 171.106 121.016 170.228 121.016 169.148Z" fill="#094446"/>
<path d="M122.959 169.037C122.524 169.037 122.172 168.685 122.172 168.25V156.48C122.172 150.693 117.464 145.984 111.676 145.984C105.892 145.984 101.184 150.691 101.184 156.48V168.25C101.184 168.685 100.832 169.037 100.397 169.037C99.9615 169.037 99.6094 168.685 99.6094 168.25V156.48C99.6094 149.823 105.022 144.41 111.676 144.41C118.332 144.41 123.745 149.823 123.745 156.48V168.25C123.747 168.685 123.395 169.037 122.959 169.037Z" fill="#4A4A4A"/>
<path d="M337.252 431C337.076 431 336.898 430.982 336.718 430.946C335.322 430.651 334.426 429.282 334.72 427.883L378.629 218.977C378.924 217.582 380.289 216.692 381.69 216.978C383.087 217.273 383.982 218.642 383.689 220.039L339.778 428.946C339.522 430.164 338.448 431 337.252 431Z" fill="#094446"/>
<path d="M286.541 431C286.366 431 286.187 430.982 286.008 430.946C284.611 430.651 283.715 429.282 284.009 427.883L327.92 218.977C328.215 217.582 329.578 216.692 330.981 216.978C332.377 217.273 333.273 218.642 332.979 220.039L289.068 428.946C288.813 430.164 287.739 431 286.541 431Z" fill="#094446"/>
<path d="M374.405 254.2H323.702C322.274 254.2 321.117 253.043 321.117 251.616C321.117 250.188 322.274 249.031 323.702 249.031H374.405C375.832 249.031 376.989 250.188 376.989 251.616C376.989 253.043 375.832 254.2 374.405 254.2Z" fill="#094446"/>
<path d="M366.803 290.385H316.1C314.673 290.385 313.516 289.228 313.516 287.8C313.516 286.373 314.673 285.216 316.1 285.216H366.803C368.231 285.216 369.388 286.373 369.388 287.8C369.389 289.228 368.232 290.385 366.803 290.385Z" fill="#094446"/>
<path d="M359.2 326.552H308.499C307.071 326.552 305.914 325.395 305.914 323.967C305.914 322.54 307.071 321.383 308.499 321.383H359.2C360.628 321.383 361.785 322.54 361.785 323.967C361.786 325.395 360.629 326.552 359.2 326.552Z" fill="#094446"/>
<path d="M351.597 362.713H300.874C299.446 362.713 298.289 361.556 298.289 360.128C298.289 358.701 299.446 357.544 300.874 357.544H351.597C353.025 357.544 354.182 358.701 354.182 360.128C354.182 361.556 353.025 362.713 351.597 362.713Z" fill="#094446"/>
<path d="M343.996 398.903H293.272C291.845 398.903 290.688 397.746 290.688 396.319C290.688 394.892 291.845 393.734 293.272 393.734H343.996C345.423 393.734 346.58 394.892 346.58 396.319C346.58 397.746 345.423 398.903 343.996 398.903Z" fill="#094446"/>
<path d="M374.33 431C374.505 431 374.684 430.982 374.863 430.946C376.26 430.651 377.156 429.282 376.862 427.883L332.951 218.977C332.656 217.582 331.291 216.692 329.89 216.978C328.494 217.273 327.598 218.642 327.892 220.039L371.803 428.946C372.058 430.164 373.132 431 374.33 431Z" fill="#094446"/>
<path d="M425.047 431C425.223 431 425.401 430.982 425.581 430.946C426.977 430.651 427.873 429.282 427.579 427.883L383.67 218.977C383.375 217.582 382.012 216.692 380.609 216.978C379.212 217.273 378.317 218.642 378.61 220.039L422.521 428.946C422.776 430.164 423.849 431 425.047 431Z" fill="#094446"/>
<path d="M337.171 254.2H387.874C389.301 254.2 390.458 253.043 390.458 251.616C390.458 250.188 389.301 249.031 387.874 249.031H337.171C335.743 249.031 334.586 250.188 334.586 251.616C334.586 253.043 335.743 254.2 337.171 254.2Z" fill="#094446"/>
<path d="M344.78 290.385H395.483C396.91 290.385 398.068 289.228 398.068 287.8C398.068 286.373 396.91 285.216 395.483 285.216H344.78C343.352 285.216 342.195 286.373 342.195 287.8C342.195 289.228 343.352 290.385 344.78 290.385Z" fill="#094446"/>
<path d="M352.397 326.552H403.099C404.526 326.552 405.683 325.395 405.683 323.967C405.683 322.54 404.526 321.383 403.099 321.383H352.397C350.97 321.383 349.812 322.54 349.812 323.967C349.812 325.395 350.97 326.552 352.397 326.552Z" fill="#094446"/>
<path d="M359.983 362.713H410.707C412.134 362.713 413.291 361.556 413.291 360.128C413.291 358.701 412.134 357.544 410.707 357.544H359.983C358.556 357.544 357.398 358.701 357.398 360.128C357.397 361.556 358.554 362.713 359.983 362.713Z" fill="#094446"/>
<path d="M367.577 398.903H418.3C419.728 398.903 420.885 397.746 420.885 396.319C420.885 394.892 419.728 393.734 418.3 393.734H367.577C366.149 393.734 364.992 394.892 364.992 396.319C364.994 397.746 366.151 398.903 367.577 398.903Z" fill="#094446"/>
<path d="M387.483 222.735H324.113C323.473 222.735 322.953 222.217 322.953 221.575V215.502C322.953 214.862 323.472 214.342 324.113 214.342H387.482C388.122 214.342 388.642 214.86 388.642 215.502V221.575C388.643 222.215 388.123 222.735 387.483 222.735Z" fill="#094446"/>
<path d="M321.743 99.3758L322.62 105.115L320.25 105.899C320.25 105.899 313.1 111.096 310.752 103.982C309.837 101.212 312.889 98.7754 315.37 100.315C315.405 100.337 315.44 100.359 315.475 100.381C315.56 100.435 315.658 100.331 315.595 100.251L314.09 98.3531C313.835 98.0302 313.881 97.5612 314.195 97.2953C314.485 97.0514 314.908 97.0557 315.193 97.3056L317.112 98.993C317.541 99.37 318.101 99.5643 318.671 99.5351L321.743 99.3758Z" fill="#F2BD96"/>
<path d="M319.562 99.491L321.221 106.467L346.762 99.003C353.804 94.0706 362.709 85.8217 362.709 85.8217L356.629 75.1592L343.219 90.3348L319.562 99.491Z" fill="#CBCBCB"/>
<path d="M357.568 201.16L357.82 209.76L365.346 209.539L365.094 200.939L357.568 201.16Z" fill="#A7A7A7"/>
<path d="M365.8 214.16L347.921 214.684C347.652 214.692 347.489 214.462 347.392 214.125C347.028 212.849 347.842 211.533 349.023 211.312C351.198 210.905 354.434 209.166 357.495 206.589C357.568 206.527 357.656 206.492 357.748 206.489L365.092 206.275C365.323 206.267 365.521 206.457 365.551 206.711L366.347 213.45C366.39 213.821 366.136 214.151 365.8 214.16Z" fill="#343534"/>
<path d="M404.595 195.508L409.219 202.764L415.568 198.718L410.944 191.462L404.595 195.508Z" fill="#A7A7A7"/>
<path d="M418.358 202.423L403.275 212.035C403.048 212.18 402.79 212.066 402.534 211.825C401.567 210.916 401.592 209.369 402.492 208.574C404.151 207.11 406.04 203.959 407.346 200.176C407.377 200.087 407.436 200.011 407.513 199.961L413.709 196.012C413.904 195.888 414.171 195.95 414.327 196.153L418.463 201.531C418.69 201.829 418.642 202.242 418.358 202.423Z" fill="#343534"/>
<path d="M358.064 126.454C358.064 126.454 349.479 158.136 349.539 164.99C349.615 173.446 356.213 203.911 356.213 203.911L365.977 203.708C365.977 203.708 363.229 173.902 363.384 169.827C363.54 165.752 373.06 143.47 373.06 143.47C373.06 143.47 378.164 163.131 380.019 168.296C381.875 173.461 405.805 198.741 405.805 198.741L413.848 194.188C413.848 194.188 394.771 167.929 394.108 164.642C393.444 161.355 388.318 125.406 388.318 125.406L358.064 126.454Z" fill="#343534"/>
<path d="M357.453 127.141C357.453 127.141 355.78 104.557 354.936 88.7502L354.511 80.7818C354.292 76.6939 357.42 73.2021 361.508 72.98C363.587 72.8675 368.959 72.5826 374.148 72.3079C380.719 71.9602 386.316 77.0182 386.636 83.5884C387.411 99.5734 388.525 122.108 388.93 125.376C389.742 131.947 357.453 127.141 357.453 127.141Z" fill="#CBCBCB"/>
<path d="M366.086 72.786C366.012 72.13 365.959 71.6596 365.959 71.6596C365.959 71.6596 362.718 71.2738 362.401 71.138C361.769 70.8677 360.746 68.8266 360.603 66.3619C360.461 63.8972 360.591 61.3901 360.652 60.3542C360.714 59.3183 360.965 55.1428 364.806 53.5488C368.647 51.9548 373.748 53.8366 375.141 57.6586C376.535 61.4821 375.993 64.4553 375.28 65.6314C374.567 66.809 374.008 68.8734 373.933 69.6726C373.904 69.9867 373.949 70.9933 374.015 72.1022C374.138 74.1813 372.637 76.0017 370.573 76.2807C368.362 76.5817 366.339 75.0038 366.086 72.786Z" fill="#F2BD96"/>
<path d="M373.14 62.2554C372.845 62.6966 372.468 63.712 372.468 63.712C371.847 63.0078 370.979 58.315 371.546 57.0659C371.293 57.9133 364.48 56.686 362.712 56.2214C362.346 56.125 361.859 56.2769 361.643 56.6641C361.408 57.0834 360.835 59.1069 360.711 59.6314C360.628 58.8732 360.648 58.1368 360.63 57.3785C360.613 56.6597 358.321 53.9451 359.296 52.5645C360.715 50.56 369.153 51.5403 370.171 51.7448C371.29 51.9698 374.794 53.3008 375.064 54.8919C376.333 55.545 377.219 56.3208 377.08 58.7431C377.013 59.9105 376.896 61.0837 376.789 62.2525C376.683 63.4111 376.288 64.3914 375.905 65.4843C375.577 66.4178 375.17 67.3178 374.814 68.2368C374.751 68.399 374.25 69.7446 373.94 69.6394C373.888 69.6219 373.527 68.4399 373.439 68.1375C373.3 67.6568 373.319 67.1703 373.315 66.6808C373.314 66.4982 373.271 66.2849 373.357 66.114C373.49 65.848 373.813 65.886 374.06 65.8217C374.842 65.6157 375.239 64.8385 375.357 64.0948C375.485 63.2913 375.441 62.2291 374.557 61.8741C374.098 61.69 373.512 61.8025 373.191 62.194C373.17 62.2101 373.154 62.232 373.14 62.2554Z" fill="#343534"/>
<path d="M349.539 94.4768H308.176L284.211 44.0498H315.706L349.539 94.4768Z" fill="#094446"/>
<path d="M308.167 94.4768H266.806L252.266 44.0498H284.202L308.167 94.4768Z" fill="#EDEEF1"/>
<path d="M266.819 94.4768H225.457L220.344 44.0498H252.279L266.819 94.4768Z" fill="#094446"/>
<path d="M225.447 94.4768H184.086L188.397 44.0498H220.334L225.447 94.4768Z" fill="#EDEEF1"/>
<path d="M184.088 94.4768H142.727L156.463 44.0498H188.399L184.088 94.4768Z" fill="#094446"/>
<path d="M142.729 94.4768H101.367L124.53 44.0498H156.465L142.729 94.4768Z" fill="#EDEEF1"/>
<path d="M101.363 94.4768H60L92.2709 44.0498H124.526L101.363 94.4768Z" fill="#094446"/>
<path d="M328.868 126.272C317.446 126.272 308.188 117.014 308.188 105.591V94.4775H349.549V105.591C349.549 117.014 340.289 126.272 328.868 126.272Z" fill="#0E5E61"/>
<path d="M287.485 126.272C276.063 126.272 266.805 117.014 266.805 105.591V94.4775H308.166V105.591C308.166 117.014 298.908 126.272 287.485 126.272Z" fill="#D7D8DB"/>
<path d="M246.134 126.272C234.712 126.272 225.453 117.014 225.453 105.591V94.4775H266.815V105.591C266.815 117.014 257.556 126.272 246.134 126.272Z" fill="#0E5E61"/>
<path d="M204.767 126.272C193.344 126.272 184.086 117.014 184.086 105.591V94.4775H225.447V105.591C225.447 117.014 216.189 126.272 204.767 126.272Z" fill="#D7D8DB"/>
<path d="M163.407 126.272C151.985 126.272 142.727 117.014 142.727 105.591V94.4775H184.088V105.591C184.088 117.014 174.828 126.272 163.407 126.272Z" fill="#0E5E61"/>
<path d="M122.048 126.272C110.626 126.272 101.367 117.014 101.367 105.591V94.4775H142.729V105.591C142.729 117.014 133.469 126.272 122.048 126.272Z" fill="#D7D8DB"/>
<path d="M80.6807 126.272C69.2585 126.272 60 117.014 60 105.591V94.4775H101.361V105.591C101.361 117.014 92.1015 126.272 80.6807 126.272Z" fill="#0E5E61"/>
<path d="M326.368 103.775L326.198 109.578L323.726 109.923C323.726 109.923 315.758 113.749 314.728 106.329C314.326 103.439 317.768 101.59 319.93 103.551C319.961 103.579 319.99 103.607 320.021 103.636C320.095 103.705 320.209 103.618 320.161 103.529L319.022 101.39C318.827 101.027 318.957 100.574 319.315 100.369C319.644 100.181 320.06 100.261 320.296 100.558L321.879 102.562C322.233 103.011 322.749 103.301 323.315 103.376L326.368 103.775Z" fill="#F2BD96"/>
<path d="M324.297 103.132L324.672 110.292L351.14 107.544C358.955 103.958 375.821 88.2394 375.821 88.2394L364.396 83.25L349.216 98.3788L324.297 103.132Z" fill="#CBCBCB"/>
<path d="M47.8451 298.361L43.6655 291.07V289.352H45.0587C45.616 289.352 46.1036 289.275 46.5216 289.12C46.955 288.95 47.3111 288.71 47.5897 288.4C47.8838 288.09 48.085 287.719 48.1934 287.285H43.6655V285.567H48.1702C48.0773 285.165 47.9148 284.809 47.6826 284.499C47.4659 284.189 47.1717 283.95 46.8002 283.779C46.4442 283.594 46.0107 283.501 45.4999 283.501H43.6655V281.782H54.1377V283.501H50.4922C50.7553 283.795 50.972 284.112 51.1423 284.453C51.3281 284.793 51.4519 285.165 51.5138 285.567H54.1377V287.285H51.5603C51.4055 288.431 50.9643 289.329 50.2367 289.979C49.5092 290.614 48.5727 291.047 47.4272 291.279L51.9782 298.361H47.8451Z" fill="#343434"/>
<path d="M61.5943 294.972L67.677 290.328C68.4354 289.74 68.9694 289.229 69.2789 288.796C69.604 288.363 69.7665 287.898 69.7665 287.403C69.7665 286.892 69.5962 286.49 69.2557 286.196C68.9307 285.902 68.4973 285.755 67.9556 285.755C67.4139 285.755 66.8954 285.925 66.4001 286.266C65.9203 286.591 65.3631 287.117 64.7285 287.844L61.6871 285.314C62.1205 284.756 62.5616 284.261 63.0105 283.828C63.4593 283.394 63.9391 283.031 64.4499 282.737C64.9761 282.443 65.5488 282.218 66.1679 282.063C66.8025 281.909 67.5145 281.831 68.3039 281.831C69.1861 281.831 69.9909 281.963 70.7184 282.226C71.4613 282.473 72.0959 282.822 72.6221 283.271C73.1484 283.719 73.5585 284.269 73.8526 284.919C74.1467 285.554 74.2937 286.25 74.2937 287.008V287.055C74.2937 287.705 74.2086 288.285 74.0383 288.796C73.8836 289.307 73.6437 289.787 73.3186 290.236C72.9936 290.669 72.5989 291.087 72.1346 291.489C71.6702 291.892 71.1363 292.31 70.5326 292.743L67.7467 294.693H74.4562V298.361H61.5943V294.972ZM83.813 294.693C84.2619 294.693 84.6721 294.585 85.0435 294.368C85.415 294.151 85.7245 293.85 85.9722 293.463C86.2353 293.06 86.4365 292.596 86.5758 292.07C86.7151 291.528 86.7848 290.932 86.7848 290.282V290.236C86.7848 289.585 86.7074 288.99 86.5526 288.448C86.4133 287.906 86.2121 287.442 85.949 287.055C85.6858 286.652 85.3685 286.343 84.9971 286.126C84.6256 285.894 84.2155 285.778 83.7666 285.778C83.3178 285.778 82.9076 285.886 82.5361 286.103C82.1801 286.32 81.8706 286.621 81.6075 287.008C81.3443 287.395 81.1431 287.86 81.0038 288.401C80.8645 288.943 80.7949 289.539 80.7949 290.189V290.236C80.7949 290.886 80.8645 291.489 81.0038 292.046C81.1586 292.588 81.3676 293.06 81.6307 293.463C81.8938 293.85 82.2111 294.151 82.5826 294.368C82.954 294.585 83.3642 294.693 83.813 294.693ZM83.7666 298.686C82.6058 298.686 81.561 298.47 80.6324 298.036C79.7037 297.587 78.9144 296.984 78.2643 296.225C77.6297 295.452 77.1344 294.554 76.7784 293.532C76.4379 292.511 76.2677 291.427 76.2677 290.282V290.236C76.2677 289.09 76.4457 288.007 76.8016 286.985C77.1576 285.948 77.6607 285.051 78.3107 284.292C78.9608 283.518 79.7501 282.907 80.6788 282.458C81.6075 282.009 82.6522 281.785 83.813 281.785C84.9739 281.785 86.0109 282.009 86.9241 282.458C87.8527 282.891 88.6421 283.495 89.2921 284.269C89.9422 285.027 90.4375 285.917 90.778 286.939C91.134 287.96 91.312 289.044 91.312 290.189V290.236C91.312 291.381 91.134 292.472 90.778 293.509C90.4375 294.531 89.9345 295.428 89.2689 296.202C88.6189 296.961 87.8295 297.564 86.9008 298.013C85.9722 298.462 84.9274 298.686 83.7666 298.686ZM100.772 294.693C101.221 294.693 101.631 294.585 102.002 294.368C102.374 294.151 102.683 293.85 102.931 293.463C103.194 293.06 103.395 292.596 103.535 292.07C103.674 291.528 103.744 290.932 103.744 290.282V290.236C103.744 289.585 103.666 288.99 103.512 288.448C103.372 287.906 103.171 287.442 102.908 287.055C102.645 286.652 102.328 286.343 101.956 286.126C101.585 285.894 101.174 285.778 100.726 285.778C100.277 285.778 99.8665 285.886 99.4951 286.103C99.1391 286.32 98.8295 286.621 98.5664 287.008C98.3033 287.395 98.1021 287.86 97.9628 288.401C97.8235 288.943 97.7538 289.539 97.7538 290.189V290.236C97.7538 290.886 97.8235 291.489 97.9628 292.046C98.1176 292.588 98.3265 293.06 98.5896 293.463C98.8528 293.85 99.1701 294.151 99.5415 294.368C99.913 294.585 100.323 294.693 100.772 294.693ZM100.726 298.686C99.5647 298.686 98.52 298.47 97.5913 298.036C96.6627 297.587 95.8733 296.984 95.2232 296.225C94.5887 295.452 94.0934 294.554 93.7374 293.532C93.3969 292.511 93.2266 291.427 93.2266 290.282V290.236C93.2266 289.09 93.4046 288.007 93.7606 286.985C94.1166 285.948 94.6196 285.051 95.2697 284.292C95.9197 283.518 96.7091 282.907 97.6378 282.458C98.5664 282.009 99.6112 281.785 100.772 281.785C101.933 281.785 102.97 282.009 103.883 282.458C104.812 282.891 105.601 283.495 106.251 284.269C106.901 285.027 107.396 285.917 107.737 286.939C108.093 287.96 108.271 289.044 108.271 290.189V290.236C108.271 291.381 108.093 292.472 107.737 293.509C107.396 294.531 106.893 295.428 106.228 296.202C105.578 296.961 104.788 297.564 103.86 298.013C102.931 298.462 101.886 298.686 100.726 298.686Z" fill="#343434"/>
<rect x="93.6022" y="354.102" width="47.4813" height="47.4813" rx="5.72532" fill="#094446" stroke="#094446" stroke-width="0.407565"/>
<path d="M117.295 375.82V373.236H114.711V371.512H117.295V368.928H119.018V371.512H121.603V373.236H119.018V375.82H117.295ZM113.849 387.02C113.375 387.02 112.97 386.852 112.632 386.514C112.295 386.177 112.126 385.771 112.126 385.297C112.126 384.823 112.295 384.418 112.632 384.08C112.97 383.743 113.375 383.574 113.849 383.574C114.323 383.574 114.729 383.743 115.066 384.08C115.403 384.418 115.572 384.823 115.572 385.297C115.572 385.771 115.403 386.177 115.066 386.514C114.729 386.852 114.323 387.02 113.849 387.02ZM122.465 387.02C121.991 387.02 121.585 386.852 121.248 386.514C120.91 386.177 120.741 385.771 120.741 385.297C120.741 384.823 120.91 384.418 121.248 384.08C121.585 383.743 121.991 383.574 122.465 383.574C122.938 383.574 123.344 383.743 123.682 384.08C124.019 384.418 124.188 384.823 124.188 385.297C124.188 385.771 124.019 386.177 123.682 386.514C123.344 386.852 122.938 387.02 122.465 387.02ZM113.849 382.713C113.203 382.713 112.707 382.429 112.363 381.862C112.018 381.295 112.011 380.731 112.341 380.171L113.504 378.06L110.403 371.512H108.68V369.789H111.501L115.163 377.543H121.215L124.554 371.512L126.062 372.331L122.723 378.362C122.565 378.649 122.357 378.872 122.098 379.029C121.84 379.187 121.546 379.266 121.215 379.266H114.797L113.849 380.99H124.188V382.713H113.849Z" fill="white"/>
<path d="M120.462 290.424V288.288L118.688 290.424H120.462ZM120.462 291.954H116.861L116.521 290.498L120.377 285.909H122.46V290.413H123.405V291.954H122.46V293.398H120.462V291.954ZM127.596 291.72C127.801 291.72 127.989 291.67 128.159 291.571C128.329 291.472 128.471 291.334 128.584 291.157C128.704 290.973 128.796 290.76 128.86 290.519C128.924 290.271 128.956 289.999 128.956 289.701V289.68C128.956 289.383 128.92 289.11 128.85 288.862C128.786 288.614 128.694 288.402 128.573 288.225C128.453 288.04 128.308 287.899 128.138 287.8C127.968 287.693 127.78 287.64 127.575 287.64C127.369 287.64 127.182 287.69 127.012 287.789C126.849 287.888 126.707 288.026 126.587 288.203C126.466 288.38 126.374 288.593 126.31 288.841C126.247 289.089 126.215 289.361 126.215 289.659V289.68C126.215 289.978 126.247 290.254 126.31 290.509C126.381 290.757 126.477 290.973 126.597 291.157C126.718 291.334 126.863 291.472 127.033 291.571C127.203 291.67 127.391 291.72 127.596 291.72ZM127.575 293.547C127.043 293.547 126.565 293.448 126.14 293.25C125.715 293.044 125.354 292.768 125.057 292.421C124.766 292.067 124.54 291.656 124.377 291.189C124.221 290.721 124.143 290.225 124.143 289.701V289.68C124.143 289.156 124.225 288.66 124.387 288.193C124.55 287.718 124.781 287.307 125.078 286.96C125.376 286.606 125.737 286.326 126.162 286.121C126.587 285.916 127.065 285.813 127.596 285.813C128.127 285.813 128.602 285.916 129.02 286.121C129.445 286.319 129.806 286.596 130.103 286.95C130.401 287.297 130.627 287.704 130.783 288.171C130.946 288.639 131.027 289.135 131.027 289.659V289.68C131.027 290.204 130.946 290.703 130.783 291.178C130.627 291.645 130.397 292.056 130.093 292.41C129.795 292.757 129.434 293.034 129.009 293.239C128.584 293.444 128.106 293.547 127.575 293.547ZM138.735 292.336C138.919 292.336 139.068 292.258 139.181 292.102C139.294 291.946 139.351 291.752 139.351 291.518V291.497C139.351 291.256 139.291 291.058 139.17 290.902C139.057 290.746 138.908 290.668 138.724 290.668C138.533 290.668 138.381 290.746 138.267 290.902C138.161 291.051 138.108 291.245 138.108 291.486V291.507C138.108 291.741 138.168 291.939 138.289 292.102C138.409 292.258 138.558 292.336 138.735 292.336ZM133.763 288.692C133.947 288.692 134.096 288.614 134.209 288.458C134.322 288.302 134.379 288.108 134.379 287.874V287.853C134.379 287.619 134.319 287.424 134.198 287.268C134.085 287.105 133.936 287.024 133.752 287.024C133.568 287.024 133.419 287.102 133.306 287.258C133.193 287.414 133.136 287.608 133.136 287.842V287.863C133.136 288.104 133.196 288.302 133.317 288.458C133.437 288.614 133.586 288.692 133.763 288.692ZM138.724 293.505C138.434 293.505 138.172 293.452 137.938 293.345C137.704 293.239 137.502 293.097 137.332 292.92C137.17 292.736 137.042 292.524 136.95 292.283C136.858 292.042 136.812 291.787 136.812 291.518V291.497C136.812 291.221 136.858 290.962 136.95 290.721C137.042 290.48 137.17 290.271 137.332 290.094C137.502 289.91 137.704 289.765 137.938 289.659C138.179 289.553 138.444 289.499 138.735 289.499C139.025 289.499 139.287 289.553 139.521 289.659C139.755 289.758 139.953 289.9 140.116 290.084C140.286 290.261 140.417 290.47 140.509 290.711C140.601 290.951 140.647 291.21 140.647 291.486V291.507C140.647 291.777 140.601 292.035 140.509 292.283C140.417 292.524 140.286 292.736 140.116 292.92C139.946 293.097 139.741 293.239 139.5 293.345C139.266 293.452 139.008 293.505 138.724 293.505ZM138.395 285.962H139.829L134.092 293.398H132.658L138.395 285.962ZM133.752 289.861C133.462 289.861 133.2 289.811 132.966 289.712C132.732 289.606 132.53 289.464 132.36 289.287C132.198 289.103 132.07 288.89 131.978 288.65C131.886 288.409 131.84 288.15 131.84 287.874V287.853C131.84 287.576 131.886 287.318 131.978 287.077C132.07 286.836 132.198 286.627 132.36 286.45C132.53 286.266 132.732 286.121 132.966 286.015C133.207 285.909 133.472 285.855 133.763 285.855C134.053 285.855 134.315 285.909 134.549 286.015C134.783 286.121 134.981 286.266 135.144 286.45C135.314 286.627 135.445 286.836 135.537 287.077C135.629 287.318 135.675 287.573 135.675 287.842V287.863C135.675 288.14 135.629 288.398 135.537 288.639C135.445 288.88 135.314 289.092 135.144 289.276C134.974 289.453 134.769 289.595 134.528 289.701C134.294 289.808 134.036 289.861 133.752 289.861ZM147.529 291.571C148.145 291.571 148.641 291.408 149.016 291.082C149.392 290.757 149.579 290.293 149.579 289.691V289.669C149.579 289.074 149.392 288.614 149.016 288.288C148.641 287.955 148.145 287.789 147.529 287.789H146.69V291.571H147.529ZM144.629 285.962H147.497C148.163 285.962 148.754 286.054 149.271 286.238C149.795 286.415 150.235 286.666 150.589 286.992C150.95 287.318 151.223 287.708 151.407 288.161C151.598 288.607 151.694 289.099 151.694 289.638V289.659C151.694 290.197 151.598 290.696 151.407 291.157C151.215 291.61 150.939 292.003 150.578 292.336C150.217 292.669 149.771 292.931 149.239 293.122C148.715 293.306 148.12 293.398 147.455 293.398H144.629V285.962ZM152.678 287.651H154.696V293.398H152.678V287.651ZM152.635 285.643H154.739V287.13H152.635V285.643ZM158.105 293.526C157.616 293.526 157.141 293.459 156.681 293.324C156.221 293.182 155.789 292.966 155.385 292.676L156.139 291.454C156.472 291.674 156.808 291.84 157.148 291.954C157.496 292.06 157.818 292.113 158.115 292.113C158.455 292.113 158.625 292.01 158.625 291.805V291.784C158.625 291.67 158.547 291.582 158.391 291.518C158.236 291.454 158.005 291.38 157.701 291.295C157.418 291.224 157.152 291.143 156.904 291.051C156.656 290.951 156.44 290.835 156.256 290.7C156.072 290.558 155.927 290.388 155.82 290.19C155.714 289.992 155.661 289.747 155.661 289.457V289.436C155.661 289.131 155.718 288.862 155.831 288.628C155.951 288.387 156.114 288.189 156.32 288.033C156.525 287.87 156.766 287.746 157.042 287.661C157.326 287.576 157.634 287.534 157.967 287.534C158.391 287.534 158.809 287.594 159.22 287.715C159.631 287.828 160.003 287.991 160.336 288.203L159.645 289.478C159.348 289.315 159.047 289.188 158.742 289.096C158.438 288.997 158.172 288.947 157.945 288.947C157.789 288.947 157.673 288.975 157.595 289.032C157.517 289.082 157.478 289.145 157.478 289.223V289.244C157.478 289.358 157.556 289.45 157.712 289.521C157.874 289.584 158.108 289.662 158.413 289.754C158.696 289.832 158.962 289.921 159.21 290.02C159.457 290.112 159.673 290.229 159.858 290.371C160.042 290.505 160.187 290.672 160.293 290.87C160.399 291.068 160.453 291.306 160.453 291.582V291.603C160.453 291.922 160.396 292.201 160.283 292.442C160.169 292.676 160.01 292.874 159.804 293.037C159.599 293.2 159.351 293.321 159.061 293.398C158.77 293.483 158.452 293.526 158.105 293.526ZM164.051 293.537C163.619 293.537 163.218 293.459 162.85 293.303C162.482 293.14 162.163 292.924 161.894 292.655C161.632 292.386 161.423 292.07 161.267 291.709C161.118 291.341 161.044 290.955 161.044 290.551V290.53C161.044 290.126 161.118 289.744 161.267 289.383C161.423 289.014 161.635 288.696 161.905 288.426C162.174 288.15 162.496 287.934 162.871 287.778C163.254 287.615 163.672 287.534 164.125 287.534C164.72 287.534 165.216 287.651 165.612 287.885C166.009 288.118 166.331 288.43 166.579 288.819L165.209 289.839C165.067 289.648 164.915 289.499 164.752 289.393C164.589 289.287 164.383 289.234 164.136 289.234C163.973 289.234 163.82 289.269 163.679 289.34C163.544 289.404 163.427 289.496 163.328 289.616C163.229 289.73 163.151 289.864 163.094 290.02C163.038 290.169 163.009 290.332 163.009 290.509V290.53C163.009 290.714 163.038 290.888 163.094 291.051C163.151 291.206 163.229 291.344 163.328 291.465C163.427 291.578 163.548 291.67 163.689 291.741C163.831 291.805 163.987 291.837 164.157 291.837C164.398 291.837 164.599 291.784 164.762 291.677C164.932 291.571 165.099 291.426 165.262 291.242L166.611 292.219C166.342 292.616 166.005 292.935 165.602 293.175C165.198 293.416 164.681 293.537 164.051 293.537ZM170.28 291.826C170.464 291.826 170.63 291.794 170.779 291.73C170.928 291.66 171.052 291.568 171.151 291.454C171.257 291.334 171.339 291.196 171.395 291.04C171.452 290.884 171.48 290.721 171.48 290.551V290.53C171.48 290.353 171.448 290.186 171.385 290.031C171.328 289.875 171.243 289.74 171.13 289.627C171.023 289.507 170.896 289.411 170.747 289.34C170.599 289.269 170.436 289.234 170.259 289.234C170.074 289.234 169.908 289.269 169.759 289.34C169.61 289.404 169.483 289.496 169.377 289.616C169.278 289.73 169.2 289.864 169.143 290.02C169.086 290.176 169.058 290.339 169.058 290.509V290.53C169.058 290.707 169.086 290.873 169.143 291.029C169.207 291.185 169.292 291.323 169.398 291.444C169.511 291.557 169.642 291.649 169.791 291.72C169.94 291.791 170.103 291.826 170.28 291.826ZM170.259 293.537C169.798 293.537 169.373 293.459 168.984 293.303C168.601 293.147 168.268 292.935 167.985 292.665C167.702 292.389 167.482 292.07 167.326 291.709C167.171 291.348 167.093 290.962 167.093 290.551V290.53C167.093 290.119 167.171 289.733 167.326 289.372C167.489 289.004 167.712 288.685 167.996 288.416C168.279 288.14 168.615 287.924 169.005 287.768C169.394 287.605 169.819 287.523 170.28 287.523C170.74 287.523 171.162 287.605 171.544 287.768C171.934 287.924 172.27 288.136 172.553 288.405C172.837 288.674 173.056 288.989 173.212 289.351C173.368 289.712 173.446 290.098 173.446 290.509V290.53C173.446 290.941 173.364 291.33 173.201 291.699C173.046 292.06 172.826 292.379 172.543 292.655C172.259 292.924 171.923 293.14 171.533 293.303C171.144 293.459 170.719 293.537 170.259 293.537ZM176.211 293.526C175.594 293.526 175.113 293.338 174.766 292.963C174.426 292.587 174.256 292.07 174.256 291.412V287.651H176.274V290.764C176.274 291.082 176.349 291.323 176.497 291.486C176.646 291.649 176.845 291.73 177.092 291.73C177.333 291.73 177.532 291.649 177.687 291.486C177.85 291.323 177.932 291.082 177.932 290.764V287.651H179.95V293.398H177.932V292.612C177.748 292.853 177.517 293.066 177.241 293.25C176.965 293.434 176.621 293.526 176.211 293.526ZM181.032 287.651H183.05V288.458C183.142 288.338 183.245 288.221 183.358 288.108C183.472 287.994 183.599 287.895 183.741 287.81C183.882 287.725 184.038 287.658 184.208 287.608C184.378 287.552 184.566 287.523 184.771 287.523C185.388 287.523 185.866 287.711 186.206 288.086C186.553 288.462 186.726 288.979 186.726 289.638V293.398H184.708V290.286C184.708 289.967 184.633 289.726 184.484 289.563C184.336 289.4 184.141 289.319 183.9 289.319C183.652 289.319 183.447 289.4 183.284 289.563C183.128 289.726 183.05 289.967 183.05 290.286V293.398H181.032V287.651ZM190.049 293.515C189.44 293.515 188.966 293.37 188.626 293.08C188.286 292.789 188.116 292.301 188.116 291.614V289.276H187.436V287.651H188.116V286.195H190.134V287.651H191.473V289.276H190.134V291.221C190.134 291.426 190.18 291.575 190.272 291.667C190.364 291.752 190.503 291.794 190.687 291.794C190.821 291.794 190.952 291.777 191.08 291.741C191.207 291.706 191.331 291.66 191.452 291.603V293.186C191.267 293.285 191.058 293.363 190.825 293.42C190.591 293.483 190.333 293.515 190.049 293.515Z" fill="#FF5454"/>
<path d="M47.2523 306.833H49.4299L51.2039 309.712L52.9778 306.833H55.1554V314.269H53.1053V309.998L51.2039 312.909H51.1614L49.2706 310.02V314.269H47.2523V306.833ZM56.2725 312.197H58.3758V314.269H56.2725V312.197ZM62.9135 310.402C63.2675 310.402 63.5402 310.324 63.7314 310.168C63.9226 310.005 64.0182 309.789 64.0182 309.52V309.499C64.0182 309.202 63.919 308.982 63.7208 308.84C63.5225 308.692 63.2498 308.617 62.9028 308.617H61.5538V310.402H62.9135ZM59.493 306.833H63.0091C63.5827 306.833 64.0678 306.904 64.4643 307.045C64.8609 307.187 65.1831 307.385 65.431 307.64C65.87 308.065 66.0896 308.642 66.0896 309.372V309.393C66.0896 309.966 65.9515 310.441 65.6753 310.816C65.3991 311.192 65.0273 311.478 64.5599 311.677L66.3339 314.269H63.9545L62.4567 312.017H62.4354H61.5538V314.269H59.493V306.833ZM66.9261 312.197H69.0293V314.269H66.9261V312.197ZM73.1846 310.529C73.5528 310.529 73.8396 310.444 74.045 310.275C74.2575 310.097 74.3637 309.86 74.3637 309.563V309.542C74.3637 309.223 74.2575 308.982 74.045 308.819C73.8396 308.649 73.5493 308.564 73.174 308.564H72.2073V310.529H73.1846ZM70.1466 306.833H73.3333C73.8007 306.833 74.2256 306.893 74.608 307.013C74.9904 307.127 75.3162 307.297 75.5853 307.523C75.8544 307.743 76.0597 308.015 76.2014 308.341C76.3501 308.667 76.4244 309.035 76.4244 309.446V309.467C76.4244 309.906 76.343 310.292 76.1801 310.625C76.0243 310.958 75.8048 311.238 75.5215 311.464C75.2383 311.691 74.8984 311.861 74.5018 311.974C74.1123 312.087 73.6874 312.144 73.2271 312.144H72.2073V314.269H70.1466V306.833Z" fill="#B9B9B9"/>
<path d="M82.5869 314.269L80.6748 310.933V310.147H81.3122C81.5671 310.147 81.7902 310.112 81.9814 310.041C82.1797 309.963 82.3426 309.853 82.47 309.712C82.6046 309.57 82.6966 309.4 82.7462 309.202H80.6748V308.416H82.7356C82.6931 308.231 82.6187 308.069 82.5125 307.927C82.4134 307.785 82.2788 307.676 82.1089 307.598C81.946 307.513 81.7477 307.47 81.514 307.47H80.6748V306.684H85.4655V307.47H83.7978C83.9182 307.605 84.0174 307.75 84.0953 307.906C84.1802 308.062 84.2369 308.231 84.2652 308.416H85.4655V309.202H84.2865C84.2156 309.726 84.0138 310.136 83.681 310.434C83.3481 310.724 82.9197 310.922 82.3957 311.029L84.4777 314.269H82.5869ZM89.9935 308.564H86.5519V306.833H92.2773V308.384L88.995 314.269H86.7218L89.9935 308.564ZM96.4759 312.59C96.6813 312.59 96.869 312.541 97.0389 312.441C97.2089 312.342 97.3505 312.204 97.4638 312.027C97.5842 311.843 97.6763 311.631 97.74 311.39C97.8038 311.142 97.8356 310.869 97.8356 310.572V310.551C97.8356 310.253 97.8002 309.981 97.7294 309.733C97.6657 309.485 97.5736 309.272 97.4532 309.095C97.3328 308.911 97.1877 308.77 97.0177 308.671C96.8477 308.564 96.6601 308.511 96.4547 308.511C96.2493 308.511 96.0617 308.561 95.8917 308.66C95.7288 308.759 95.5872 308.897 95.4668 309.074C95.3464 309.251 95.2544 309.464 95.1906 309.712C95.1269 309.959 95.095 310.232 95.095 310.529V310.551C95.095 310.848 95.1269 311.124 95.1906 311.379C95.2615 311.627 95.3571 311.843 95.4774 312.027C95.5978 312.204 95.743 312.342 95.913 312.441C96.0829 312.541 96.2706 312.59 96.4759 312.59ZM96.4547 314.417C95.9236 314.417 95.4456 314.318 95.0207 314.12C94.5958 313.914 94.2346 313.638 93.9372 313.291C93.6468 312.937 93.4202 312.526 93.2574 312.059C93.1016 311.592 93.0237 311.096 93.0237 310.572V310.551C93.0237 310.027 93.1051 309.531 93.268 309.064C93.4309 308.589 93.661 308.178 93.9584 307.831C94.2559 307.477 94.617 307.198 95.0419 306.992C95.4668 306.787 95.9448 306.684 96.4759 306.684C97.0071 306.684 97.4815 306.787 97.8994 306.992C98.3243 307.19 98.6854 307.467 98.9828 307.821C99.2803 308.168 99.5069 308.575 99.6627 309.042C99.8256 309.51 99.907 310.005 99.907 310.529V310.551C99.907 311.075 99.8256 311.574 99.6627 312.048C99.5069 312.516 99.2767 312.927 98.9722 313.281C98.6748 313.628 98.3136 313.904 97.8887 314.109C97.4638 314.315 96.9858 314.417 96.4547 314.417ZM104.235 312.59C104.441 312.59 104.628 312.541 104.798 312.441C104.968 312.342 105.11 312.204 105.223 312.027C105.344 311.843 105.436 311.631 105.499 311.39C105.563 311.142 105.595 310.869 105.595 310.572V310.551C105.595 310.253 105.56 309.981 105.489 309.733C105.425 309.485 105.333 309.272 105.213 309.095C105.092 308.911 104.947 308.77 104.777 308.671C104.607 308.564 104.419 308.511 104.214 308.511C104.009 308.511 103.821 308.561 103.651 308.66C103.488 308.759 103.347 308.897 103.226 309.074C103.106 309.251 103.014 309.464 102.95 309.712C102.886 309.959 102.854 310.232 102.854 310.529V310.551C102.854 310.848 102.886 311.124 102.95 311.379C103.021 311.627 103.116 311.843 103.237 312.027C103.357 312.204 103.502 312.342 103.672 312.441C103.842 312.541 104.03 312.59 104.235 312.59ZM104.214 314.417C103.683 314.417 103.205 314.318 102.78 314.12C102.355 313.914 101.994 313.638 101.697 313.291C101.406 312.937 101.18 312.526 101.017 312.059C100.861 311.592 100.783 311.096 100.783 310.572V310.551C100.783 310.027 100.864 309.531 101.027 309.064C101.19 308.589 101.42 308.178 101.718 307.831C102.015 307.477 102.376 307.198 102.801 306.992C103.226 306.787 103.704 306.684 104.235 306.684C104.766 306.684 105.241 306.787 105.659 306.992C106.084 307.19 106.445 307.467 106.742 307.821C107.04 308.168 107.266 308.575 107.422 309.042C107.585 309.51 107.666 310.005 107.666 310.529V310.551C107.666 311.075 107.585 311.574 107.422 312.048C107.266 312.516 107.036 312.927 106.732 313.281C106.434 313.628 106.073 313.904 105.648 314.109C105.223 314.315 104.745 314.417 104.214 314.417Z" fill="#B9B9B9"/>
<line x1="44.5625" y1="311.217" x2="109.597" y2="311.217" stroke="#B9B9B9" stroke-width="0.663902"/>
<path d="M110.652 185.106C109.211 185.106 107.803 185.533 106.605 186.333C105.407 187.134 104.473 188.272 103.922 189.603C103.37 190.934 103.226 192.398 103.507 193.811C103.788 195.225 104.482 196.522 105.501 197.541C106.52 198.56 107.817 199.254 109.231 199.535C110.644 199.816 112.108 199.672 113.439 199.12C114.77 198.569 115.908 197.635 116.709 196.437C117.509 195.239 117.936 193.831 117.936 192.39L110.652 192.39L110.652 185.106Z" fill="white"/>
<path d="M119.195 191.136C119.195 190.179 119.007 189.232 118.641 188.348C118.275 187.465 117.738 186.662 117.062 185.985C116.385 185.309 115.582 184.772 114.698 184.406C113.815 184.04 112.867 183.852 111.911 183.852L111.911 191.136L119.195 191.136Z" fill="white"/>
</g>
<defs>
<clipPath id="clip0_1274_3497">
<rect width="431" height="431" fill="white" transform="translate(0.5)"/>
</clipPath>
</defs>
</svg>
