<svg width="583" height="584" viewBox="0 0 583 584" fill="none" xmlns="http://www.w3.org/2000/svg">
<path d="M138.494 269.205C138.687 268.644 138.831 268.071 138.994 267.501C139.127 267.047 139.283 266.601 139.396 266.136L149.358 265.461L149.369 264.613L149.644 253.235L139.748 252.155C139.136 248.96 138.054 245.924 136.581 243.109C136.094 242.176 135.561 241.27 134.991 240.387L141.553 233.124L141.535 233.106L141.541 233.101L132.792 224.292L124.984 230.279C123.403 229.233 121.744 228.356 120.041 227.586C119.759 227.458 119.487 227.31 119.199 227.188C119.092 227.142 118.98 227.111 118.873 227.067C116.981 226.283 115.011 225.639 112.961 225.182L112.279 215.612H112.274L112.272 215.603L99.607 215.342L98.4653 224.88C98.2444 224.92 98.0325 224.987 97.8131 225.031C93.6359 225.859 89.7234 227.379 86.2144 229.489L78.9298 223.388L78.6806 223.179L69.5196 231.618L75.7343 239.141C75.7029 239.188 75.6764 239.237 75.645 239.283C75.6694 239.232 75.6799 239.185 75.7064 239.135C73.9527 241.587 72.6058 244.217 71.5956 246.943C71.5045 247.188 71.3922 247.425 71.3067 247.672C71.2274 247.895 71.1765 248.126 71.1065 248.351C70.8507 249.133 70.6014 249.917 70.405 250.725L60.4566 251.398V251.402H60.4477L60.4285 252.664L60.1655 263.595L70.0701 264.677C70.0792 264.717 70.0911 264.756 70.1 264.796C70.0861 264.758 70.0651 264.73 70.0526 264.689C70.8665 268.949 72.5148 272.924 74.8142 276.476L68.2515 283.737L69.9228 285.393L77.0181 292.536L84.8412 286.545C84.9306 286.601 85.0149 286.656 85.1026 286.712C85.0079 286.67 84.908 286.624 84.8115 286.58C88.5188 289.032 92.6029 290.715 96.8401 291.657L96.7661 301.272H96.7875V301.274L110.962 301.567L111.349 291.978C113.5 291.59 115.578 291.022 117.573 290.275C118.641 289.879 119.685 289.432 120.696 288.942C121.689 288.458 122.655 287.938 123.59 287.375L131.12 293.681L132.637 292.26L140.292 285.21L134.105 277.717C135.992 275.08 137.437 272.239 138.459 269.289C138.47 269.262 138.484 269.235 138.494 269.205ZM105.282 242.569C114.39 242.757 121.598 250.017 121.389 258.783C121.177 267.555 113.629 274.514 104.517 274.324C95.4139 274.138 88.201 266.876 88.4132 258.104C88.6237 249.338 96.1768 242.38 105.282 242.569ZM139.745 252.155H139.739C139.736 252.144 139.734 252.137 139.732 252.125C139.736 252.137 139.739 252.144 139.745 252.155ZM124.982 230.279L124.969 230.29C124.94 230.273 124.911 230.26 124.886 230.243C124.918 230.258 124.949 230.264 124.982 230.279ZM111.351 291.949C111.408 291.938 111.458 291.924 111.511 291.912C111.455 291.933 111.409 291.957 111.349 291.977L111.351 291.949ZM134.105 277.714L134.082 277.688C134.116 277.642 134.144 277.591 134.176 277.544C134.147 277.602 134.133 277.656 134.105 277.714Z" fill="#F6F6F6"/>
<path d="M475.281 410.881C475.474 410.32 475.617 409.747 475.78 409.177C475.914 408.722 476.07 408.277 476.182 407.812L486.145 407.137L486.155 406.288L486.431 394.911L476.535 393.831C475.923 390.635 474.841 387.6 473.368 384.785C472.88 383.852 472.347 382.946 471.777 382.063L478.339 374.8L478.322 374.782L478.327 374.777L469.578 365.968L461.771 371.955C460.189 370.908 458.53 370.031 456.828 369.262C456.545 369.134 456.273 368.986 455.986 368.864C455.878 368.818 455.766 368.786 455.659 368.742C453.767 367.959 451.798 367.315 449.748 366.857L449.065 357.288H449.06L449.059 357.279L436.393 357.018L435.252 366.556C435.031 366.596 434.819 366.663 434.599 366.707C430.422 367.534 426.51 369.055 423.001 371.164L415.716 365.063L415.467 364.855L406.306 373.293L412.521 380.817C412.489 380.864 412.463 380.913 412.432 380.959C412.456 380.908 412.467 380.861 412.493 380.811C410.739 383.263 409.392 385.894 408.382 388.619C408.291 388.864 408.179 389.101 408.093 389.348C408.014 389.571 407.963 389.802 407.893 390.027C407.637 390.809 407.388 391.593 407.192 392.401L397.243 393.075V393.078H397.234L397.215 394.341L396.952 405.271L406.856 406.353C406.866 406.394 406.877 406.432 406.886 406.472C406.872 406.434 406.851 406.406 406.839 406.365C407.653 410.625 409.301 414.6 411.601 418.152L405.038 425.414L406.709 427.069L413.804 434.212L421.628 428.221C421.717 428.277 421.801 428.332 421.889 428.388C421.794 428.346 421.694 428.3 421.598 428.256C425.305 430.708 429.389 432.391 433.626 433.333L433.553 442.948H433.574V442.95L447.748 443.243L448.136 433.654C450.286 433.266 452.364 432.698 454.36 431.951C455.428 431.555 456.471 431.108 457.483 430.618C458.476 430.134 459.442 429.613 460.376 429.051L467.907 435.357L469.424 433.936L477.078 426.886L470.892 419.393C472.778 416.756 474.224 413.915 475.246 410.965C475.256 410.937 475.27 410.911 475.281 410.881ZM442.068 384.245C451.177 384.432 458.384 391.692 458.175 400.459C457.963 409.231 450.416 416.189 441.303 416C432.2 415.814 424.987 408.552 425.2 399.78C425.41 391.014 432.963 384.055 442.068 384.245ZM476.531 393.83H476.526C476.522 393.82 476.521 393.813 476.519 393.801C476.522 393.813 476.526 393.82 476.531 393.83ZM461.769 371.955L461.755 371.966C461.726 371.948 461.697 371.936 461.672 371.918C461.704 371.934 461.735 371.939 461.769 371.955ZM448.138 433.624C448.194 433.614 448.245 433.6 448.297 433.587C448.241 433.608 448.196 433.633 448.136 433.652L448.138 433.624ZM470.892 419.39L470.868 419.364C470.902 419.318 470.93 419.267 470.962 419.22C470.933 419.278 470.919 419.332 470.892 419.39Z" fill="#F6F6F6"/>
<path d="M79.3971 405.431C76.9578 401.268 176.749 394.231 301.107 394.248C425.467 394.13 525.287 401.17 522.789 405.434C520.109 409.777 420.188 409.739 301.079 409.774C181.961 409.639 82.0176 409.673 79.3971 405.431Z" fill="#F6F6F6"/>
<path d="M507.629 133.726V403.464H500.693V133.712C500.693 125.502 494.935 118.808 487.835 118.808H114.353C107.268 118.808 101.496 125.502 101.496 133.712V403.464H94.5586V133.726C94.5586 121.275 103.108 111.127 113.771 110.775C113.96 110.761 114.163 110.761 114.353 110.761H487.836C498.769 110.761 507.629 121.044 507.629 133.726Z" fill="#E3E0E1"/>
<path d="M500.693 133.712V404.371H101.495V133.712C101.495 125.502 107.267 118.809 114.353 118.809H487.835C494.935 118.809 500.693 125.502 500.693 133.712Z" fill="white"/>
<path d="M437.286 281.004H336.083C334.439 281.004 333.107 282.337 333.107 283.981V361.892C333.107 363.536 334.439 364.869 336.083 364.869H437.286C438.93 364.869 440.263 363.536 440.263 361.892V283.981C440.263 282.337 438.93 281.004 437.286 281.004Z" fill="#F6F6F6"/>
<path d="M263.248 281.004H162.045C160.401 281.004 159.068 282.337 159.068 283.981V361.892C159.068 363.536 160.401 364.869 162.045 364.869H263.248C264.892 364.869 266.225 363.536 266.225 361.892V283.981C266.225 282.337 264.892 281.004 263.248 281.004Z" fill="#F6F6F6"/>
<path d="M313.63 281.004H285.702C284.058 281.004 282.725 282.337 282.725 283.981V361.892C282.725 363.536 284.058 364.869 285.702 364.869H313.63C315.273 364.869 316.606 363.536 316.606 361.892V283.981C316.606 282.337 315.273 281.004 313.63 281.004Z" fill="#F6F6F6"/>
<path d="M404.839 317.937H390.936V304.035H382.433V317.937H368.531V326.44H382.433V340.343H390.936V326.44H404.839V317.937Z" fill="#EFE4E8"/>
<path d="M229.153 317.937H215.25V304.035H206.747V317.937H192.845V326.44H206.747V340.343H215.25V326.44H229.153V317.937Z" fill="#EFE4E8"/>
<path d="M422.976 154.8H150.759C145.599 154.8 141.417 159.542 141.417 165.391C141.417 171.241 145.599 175.983 150.759 175.983H422.976C428.136 175.983 432.319 171.241 432.319 165.391C432.319 159.542 428.136 154.8 422.976 154.8Z" fill="#F6F6F6"/>
<path d="M449.093 162.491C447.491 162.491 446.192 163.79 446.192 165.391C446.192 166.993 447.491 168.292 449.093 168.292C450.695 168.292 451.993 166.993 451.993 165.391C451.993 163.79 450.695 162.491 449.093 162.491Z" fill="#F6F6F6"/>
<path d="M460.844 162.491C459.242 162.491 457.943 163.79 457.943 165.391C457.943 166.993 459.242 168.292 460.844 168.292C462.446 168.292 463.744 166.993 463.744 165.391C463.744 163.79 462.446 162.491 460.844 162.491Z" fill="#F6F6F6"/>
<path d="M472.595 162.491C470.993 162.491 469.695 163.79 469.695 165.391C469.695 166.993 470.993 168.292 472.595 168.292C474.197 168.292 475.495 166.993 475.495 165.391C475.495 163.79 474.197 162.491 472.595 162.491Z" fill="#DBC6CE"/>
<path d="M261.259 242.361L228.53 264.439L230.455 242.405L261.259 242.361Z" fill="#094446"/>
<path d="M434.54 200.304H226.471C222.521 200.304 219.32 203.505 219.32 207.455V241.728C219.32 245.677 222.521 248.879 226.471 248.879H434.54C438.489 248.879 441.691 245.678 441.691 241.728V207.455C441.691 203.505 438.489 200.304 434.54 200.304Z" fill="#094446"/>
<path d="M255.878 216.74C259.546 216.74 262.313 218.805 263.191 222.142H259.062C258.426 220.825 257.261 220.166 255.834 220.166C253.528 220.166 251.946 221.879 251.946 224.602C251.946 227.326 253.528 229.039 255.834 229.039C257.261 229.039 258.426 228.38 259.062 227.063H263.191C262.313 230.4 259.546 232.443 255.878 232.443C251.332 232.443 248.125 229.214 248.125 224.602C248.125 219.991 251.332 216.74 255.878 216.74Z" fill="white"/>
<path d="M272.788 232.487C268.417 232.487 264.859 229.215 264.859 224.581C264.859 219.947 268.417 216.696 272.788 216.696C277.18 216.696 280.672 219.947 280.672 224.581C280.672 229.215 277.158 232.487 272.788 232.487ZM272.788 229.06C275.248 229.06 276.851 227.282 276.851 224.581C276.851 221.836 275.248 220.101 272.788 220.101C270.284 220.101 268.703 221.836 268.703 224.581C268.703 227.282 270.284 229.06 272.788 229.06Z" fill="white"/>
<path d="M282.756 216.915H287.193L291.52 227.589L295.802 216.915H300.217V232.333H296.462V223.086L293.013 232.333H289.983L286.513 223.065V232.333H282.756V216.915Z" fill="white"/>
<path d="M302.917 216.915H306.673V232.333H302.917V216.915Z" fill="white"/>
<path d="M323.188 216.915V232.333H319.432L313.151 222.823V232.333H309.395V216.915H313.151L319.432 226.469V216.915H323.188Z" fill="white"/>
<path d="M340.295 221.791H336.144C335.573 220.759 334.519 220.21 333.113 220.21C330.698 220.21 329.094 221.923 329.094 224.602C329.094 227.458 330.719 229.127 333.421 229.127C335.288 229.127 336.583 228.139 337.154 226.404H332.389V223.636H340.558V227.129C339.769 229.786 337.198 232.443 333.135 232.443C328.524 232.443 325.272 229.215 325.272 224.602C325.272 219.991 328.501 216.74 333.113 216.74C336.803 216.74 339.483 218.629 340.295 221.791Z" fill="white"/>
<path d="M352.877 232.487C349.561 232.487 346.969 230.84 346.86 227.721H350.857C350.967 228.907 351.714 229.478 352.768 229.478C353.866 229.478 354.569 228.929 354.569 228.029C354.569 225.174 346.86 226.711 346.904 221.242C346.904 218.321 349.298 216.696 352.527 216.696C355.887 216.696 358.149 218.365 358.303 221.308H354.24C354.173 220.32 353.47 219.727 352.461 219.705C351.56 219.683 350.879 220.145 350.879 221.11C350.879 223.79 358.5 222.582 358.5 227.744C358.5 230.335 356.48 232.487 352.877 232.487Z" fill="white"/>
<path d="M368.097 232.487C363.726 232.487 360.168 229.215 360.168 224.581C360.168 219.947 363.726 216.696 368.097 216.696C372.489 216.696 375.981 219.947 375.981 224.581C375.981 229.215 372.467 232.487 368.097 232.487ZM368.097 229.06C370.557 229.06 372.16 227.282 372.16 224.581C372.16 221.836 370.557 220.101 368.097 220.101C365.593 220.101 364.011 221.836 364.011 224.581C364.011 227.282 365.593 229.06 368.097 229.06Z" fill="white"/>
<path d="M385.357 232.487C380.986 232.487 377.429 229.215 377.429 224.581C377.429 219.947 380.986 216.696 385.357 216.696C389.75 216.696 393.241 219.947 393.241 224.581C393.242 229.215 389.728 232.487 385.357 232.487ZM385.357 229.06C387.818 229.06 389.421 227.282 389.421 224.581C389.421 221.836 387.818 220.101 385.357 220.101C382.854 220.101 381.272 221.836 381.272 224.581C381.272 227.282 382.854 229.06 385.357 229.06Z" fill="white"/>
<path d="M409.119 216.915V232.333H405.364L399.083 222.823V232.333H395.327V216.915H399.083L405.364 226.469V216.915H409.119Z" fill="white"/>
<path d="M231.076 326.164C231.076 326.164 267.041 384.709 267.297 391.136C267.552 397.563 267.811 408.946 266.259 411.016C264.706 413.085 231.076 425.044 231.076 425.044L217.391 416.707L236.768 393.166L217.391 334.701L231.076 326.164Z" fill="#F2BD96"/>
<path d="M194.986 277.545C194.986 277.545 208.412 282.479 210.999 284.512C213.586 286.545 235.805 322.025 240.814 330.303C245.822 338.581 222.357 354.151 214.779 350.804C203.132 345.66 197.514 305.468 196.833 303.14C196.153 300.812 194.986 277.545 194.986 277.545Z" fill="#094446"/>
<path opacity="0.25" d="M217.245 351.275L209.053 311.453C209.519 312.557 217.09 330.303 222.54 332.373C225.851 333.632 233.577 330.786 238.958 327.199C239.717 328.475 240.355 329.527 240.821 330.303C245.356 337.822 226.437 351.344 217.245 351.275Z" fill="#0C595B"/>
<path d="M105.739 435.308C105.739 435.308 140.599 283.888 150.235 280.633C159.87 277.378 192.537 274.943 196.333 278.048C200.129 281.152 248.729 417.599 243.395 425.043C238.061 432.487 227.196 442.576 189.168 446.844C151.14 451.112 105.739 435.308 105.739 435.308Z" fill="#094446"/>
<path opacity="0.25" d="M166.388 339.753C172.633 342.086 173.75 345.813 177.316 346.081C180.882 346.349 187.319 344.84 186.51 346.574C185.7 348.308 179.751 351.414 174.283 350.393C168.815 349.371 163.591 338.707 166.388 339.753Z" fill="#063536"/>
<path opacity="0.25" d="M169.119 315.956C172.011 318.625 179.657 321.896 186.611 318.404C193.566 314.911 196.541 306.892 198.352 310.513C200.162 314.135 205.595 328.751 199.128 331.209C192.66 333.666 195.118 341.557 184.511 342.074C173.905 342.592 165.187 334.123 164.825 330.079C164.463 326.035 165.627 312.732 169.119 315.956Z" fill="#063536"/>
<path opacity="0.25" d="M243.39 425.037C238.061 432.488 227.196 442.577 189.168 446.837C151.14 451.114 105.748 435.316 105.748 435.316C105.748 435.316 124.512 353.793 138.309 309.091L152.123 332.115L145.225 369.625C145.225 369.625 179.217 408.809 201.068 408.809C218.59 408.809 214.83 344.722 212.657 319.301C227.852 361.933 246.788 420.312 243.39 425.037Z" fill="#063536"/>
<path d="M208.147 306.794C208.147 306.794 227.778 356.431 227.778 363.222C227.778 365.55 209.859 320.213 208.147 306.794Z" fill="#063536"/>
<path opacity="0.25" d="M187.495 286.773C186.202 295.896 181.407 303.657 171.905 301.622C163.454 299.811 161.271 282.417 160.874 278.433C168.687 276.709 178.083 277.183 185.24 276.614C186.585 279.598 188.219 281.547 187.495 286.773Z" fill="#0A494B"/>
<path d="M162.633 228.952C162.633 228.952 157.172 234.481 159.304 245.025C161.436 255.57 162.486 273.567 176.357 266.361C190.229 259.155 175.356 229.576 162.633 228.952Z" fill="#1B2E36"/>
<path d="M168.479 253.183L164.825 275.958C164.825 275.958 166.388 289.904 175.476 291.226C180.255 291.922 183.34 287.104 183.582 282.772C184.051 274.419 183.6 263.261 183.6 263.261L168.479 253.183Z" fill="#F2BD96"/>
<path d="M165.184 273.715C165.184 273.715 162.652 276.882 162.07 277.982C161.488 279.081 166.151 291.075 171.706 294.409C174.831 296.285 179.516 294.968 182.313 292.857C185.74 290.27 185.74 279.47 185.74 279.47L183.789 275.439C183.789 275.439 183.937 286.972 176.754 289.559C169.572 292.145 165.184 273.715 165.184 273.715Z" fill="#F7B89F"/>
<path d="M183.684 280.668C179.182 279.961 173.577 275.408 171.698 270.355C170.025 265.785 169.749 256.782 169.714 254.006L183.598 263.267C183.598 263.267 183.977 272.666 183.684 280.668Z" fill="#E5A577"/>
<path d="M199.674 230.905C192.42 217.476 164.074 227.057 162.003 238.123C161.405 241.321 161.537 243.088 162.012 244.025C160.992 244.575 160.217 245.559 160.291 247.315C160.65 255.819 168.3 255.098 168.3 255.098C168.3 255.098 171.369 268.776 177.549 271.531C184.732 274.734 195.136 278.993 201.073 270.257C205.859 263.215 202.994 237.052 199.674 230.905Z" fill="#F2BD96"/>
<path d="M163.169 247.347C162.665 245.326 167.049 247.251 166.726 248.485C166.403 249.72 164.863 251.207 164.825 250.754C164.786 250.302 165.837 248.337 165.837 248.337C165.837 248.337 163.533 248.805 163.169 247.347Z" fill="#1B2E36"/>
<path d="M205.752 226.507C202.255 217.691 196.061 216.661 196.061 216.661C196.061 216.661 195.965 212.623 189.531 210.617C174.31 205.872 170.408 215.94 170.408 215.94C170.408 215.94 169.168 210.603 165.157 210.661C161.147 210.718 165.777 216.91 165.777 216.91C165.777 216.91 159.698 211.961 158.803 216.361C158.324 218.717 159.871 220.995 162.591 222.155C147.688 231.81 159.455 243.969 162.012 244.025C169.243 242.602 168.132 250.473 169.133 250.976C171.883 252.358 175.151 246.011 171.451 236.562C176.862 238.663 182.918 241.329 187.99 236.313C190.072 240.667 209.249 235.324 205.752 226.507Z" fill="#1B2E36"/>
<path d="M188.931 268.699C188.891 269.872 190.298 270.873 192.072 270.934C193.847 270.995 195.319 270.094 195.359 268.92C195.4 267.747 193.994 266.746 192.218 266.685C190.444 266.624 188.972 267.525 188.931 268.699Z" fill="#EF8984"/>
<path d="M192.779 260.812C192.947 260.79 193.109 260.744 193.265 260.676C194.254 260.239 194.535 259.022 194.547 258.972C194.58 258.82 194.54 258.662 194.439 258.545C192.342 256.104 192.104 251.907 191.834 251.907C191.556 251.905 191.363 256.273 193.522 258.973C193.417 259.246 193.203 259.634 192.866 259.782C192.551 259.917 192.134 259.843 191.628 259.554C191.394 259.419 191.094 259.501 190.96 259.735C190.826 259.969 190.907 260.268 191.142 260.403C191.734 260.741 192.283 260.878 192.779 260.812Z" fill="#1B2E36"/>
<path d="M199.37 264.438C199.37 264.438 194.169 267.685 187.582 265.628C186.519 268.392 194.763 274.121 199.37 264.438Z" fill="#EAEFEE"/>
<path d="M184.632 248.907C184.835 250.423 184.164 251.756 183.129 251.894C182.095 252.032 181.098 250.922 180.896 249.406C180.695 247.902 181.365 246.556 182.399 246.418C182.857 246.357 183.311 246.535 183.695 246.903C183.344 247.046 183.127 247.397 183.178 247.773C183.239 248.232 183.652 248.548 184.111 248.487C184.263 248.466 184.399 248.412 184.506 248.314C184.566 248.497 184.606 248.707 184.632 248.907Z" fill="#1B2E36"/>
<path d="M185.052 244.201C185.052 244.201 176.734 244.889 175.793 244.185C174.854 243.483 177.211 241.421 180.976 241.857C184.742 242.292 185.994 244.047 185.052 244.201Z" fill="#1B2E36"/>
<path d="M198.202 247.097C198.404 248.613 197.733 249.946 196.698 250.085C195.665 250.222 194.667 249.112 194.465 247.596C194.264 246.092 194.934 244.746 195.968 244.609C196.427 244.547 196.88 244.726 197.265 245.093C196.913 245.236 196.697 245.588 196.747 245.963C196.808 246.422 197.221 246.738 197.679 246.677C197.832 246.656 197.968 246.602 198.075 246.504C198.135 246.687 198.175 246.897 198.202 247.097Z" fill="#1B2E36"/>
<path d="M200.773 242.104C200.773 242.104 192.454 242.791 191.514 242.088C190.574 241.385 192.931 239.324 196.696 239.759C200.462 240.194 201.714 241.95 200.773 242.104Z" fill="#1B2E36"/>
<path d="M71.448 432.707C71.448 432.707 69.6695 437.629 71.8386 441.939C74.0078 446.25 102.993 470.398 106.462 472.841C109.932 475.283 403.629 458.718 405.685 458.372C407.742 458.026 410.179 449.823 410.179 449.823L130.605 449.828L71.448 432.707Z" fill="#EFE4E8"/>
<path d="M99.8097 455.267L109.619 462.536L122.122 462.007C122.122 462.007 110.892 462.792 109.79 464.295C108.689 465.798 108.448 470.442 109.18 471.673C109.912 472.905 118.557 472.976 118.557 472.976C118.557 472.976 107.705 473.491 106.909 473.08C105.42 472.311 93.1427 461.933 94.1486 462.782C95.1547 463.632 105.658 471.045 106.219 470.536C106.78 470.027 107.766 464.645 107.544 463.975C107.321 463.305 99.8097 455.267 99.8097 455.267Z" fill="#DBC6CE"/>
<path d="M71.448 432.708L337.411 422.398L410.179 449.824L109.206 462.554L71.448 432.708Z" fill="#0A494B"/>
<path d="M182.854 410.294L121.233 381.585C121.233 381.585 125.8 372.289 135.005 354.316C132.74 353.493 107.446 335.46 102.247 334.701C86.892 368.891 79.6022 391.163 90.6059 402.608C106.694 419.342 165.076 427.694 181.868 419.735C191.936 416.082 182.854 410.294 182.854 410.294Z" fill="#F2BD96"/>
<path d="M109.389 386.903C108.898 386.658 122.01 379.276 121.197 382.378C120.384 385.48 116.796 389.828 117.082 388.017C117.367 386.206 118.642 383.691 118.642 383.691C118.642 383.691 112.235 388.326 109.389 386.903Z" fill="#E5A577"/>
<path d="M99.5564 340.737C100.436 338.771 101.333 336.754 102.247 334.701C107.438 335.46 132.738 353.5 134.997 354.31C132.186 359.812 129.806 364.52 127.84 368.366C113.543 367.003 103.799 349.878 99.5564 340.737Z" fill="#E5A577"/>
<path d="M154.147 279.55C154.147 279.55 143.508 282.573 140.016 285.031C136.524 287.489 92.2792 331.337 94.09 338.063C95.9008 344.789 132.25 359.763 135.994 359.535C139.738 359.307 151.55 333.924 154.708 326.163C157.866 318.402 155.729 281.734 154.147 279.55Z" fill="#094446"/>
<path opacity="0.25" d="M153.037 330.079C148.57 340.203 139.24 359.346 135.998 359.536C132.255 359.76 95.9005 344.79 94.0895 338.064C93.7619 336.874 94.883 334.529 96.9697 331.459C105.283 340.91 121.891 348.757 127.599 346.946C132.497 345.394 144.587 336.564 153.037 330.079Z" fill="#0C595B"/>
<path d="M157.475 309.921L154.156 327.489C154.156 327.489 137.536 355.651 135.967 357.465C134.398 359.28 121.233 354.473 121.233 354.473C121.233 354.473 132.176 363.157 135.967 361.863C139.757 360.57 153.77 334.183 156.335 329.268C158.901 324.353 157.475 309.921 157.475 309.921Z" fill="#063536"/>
<path opacity="0.5" d="M181.873 419.742C165.075 427.692 106.696 419.345 90.6056 402.599C87.4669 399.322 85.8112 395.148 85.4146 390.078C96.2451 396.632 130.91 416.534 151.657 415.672C166.317 415.068 172.405 410.36 174.94 406.6L182.856 410.291C182.856 410.291 191.927 416.086 181.873 419.742Z" fill="#E5A577"/>
<path d="M180.477 407.555C180.477 407.555 186.544 396.554 187.478 396.315C187.478 396.315 189.581 396.658 189.69 399.584C189.748 401.164 187.657 407.555 187.657 407.555H180.477Z" fill="#ED8883"/>
<path d="M182.236 403.612C186.53 403.26 205.385 408.397 205.385 408.397C205.385 408.397 204.789 410.205 203.984 411.673C203.577 412.416 195.956 411.297 194.985 411.216C195.663 411.5 196.528 411.831 196.528 411.831C196.528 411.831 196.603 414.898 195.681 415.616C194.795 416.306 193.099 416.507 191.807 416.31C193.148 416.833 194.336 417.14 194.336 417.14C194.336 417.14 194.779 420.027 192.949 421.215C192.152 421.732 191.697 421.987 190.027 421.649C191.786 422.154 192.391 422.403 192.391 422.403C192.391 422.403 191.302 425.543 190.616 425.967C187.951 427.615 178.955 426.143 178.955 426.143C176.455 423.866 173.708 417.546 175.179 414.603C178.11 408.743 180.542 403.753 182.236 403.612Z" fill="#E5A577"/>
<path d="M186.431 409.696C186.427 409.629 186.917 409.516 187.719 409.503C188.52 409.483 189.629 409.563 190.827 409.79C193.231 410.243 195.045 411.072 194.985 411.217C194.93 411.363 193.068 410.788 190.722 410.347C188.379 409.878 186.442 409.858 186.431 409.696Z" fill="#ED8883"/>
<path d="M183.804 415.221C183.807 415.063 185.642 415.022 187.864 415.348C190.084 415.664 191.84 416.156 191.807 416.31C191.775 416.463 189.984 416.222 187.784 415.91C185.585 415.586 183.799 415.376 183.804 415.221Z" fill="#ED8883"/>
<path d="M183.804 420.648C183.829 420.494 185.375 420.622 187.256 420.935C189.138 421.248 190.642 421.626 190.616 421.781C190.59 421.935 189.045 421.807 187.163 421.494C185.282 421.182 183.778 420.803 183.804 420.648Z" fill="#ED8883"/>
<path d="M179.162 444.338L128.062 428.509L271.562 426.277L306.72 434.592L179.162 444.338Z" fill="#1B2E36"/>
<path d="M179.219 441.582L127.595 428.337L266.793 425.042L301.312 436.023L179.219 441.582Z" fill="#395B64"/>
<path d="M189.499 364.153L177.685 439.419C177.152 442.816 179.106 445.326 182.166 445.174L305.306 439.066C308.365 438.914 311.495 436.151 312.482 432.731L327.936 359.912C328.66 357.444 328.301 355.206 326.939 353.653C325.949 352.521 324.419 352.042 322.767 352.123L198.298 355.671C196.646 355.753 194.866 356.396 193.341 357.654C191.25 359.377 189.873 361.701 189.499 364.153Z" fill="#E7E7E7"/>
<path opacity="0.25" d="M320.343 395.631L312.479 432.728C311.496 436.142 308.357 438.919 305.304 439.057L182.166 445.179C179.114 445.317 177.147 442.817 177.682 439.419L183.305 403.547C250.599 450.664 300.941 414.498 320.343 395.631Z" fill="#B7B7B7"/>
<path d="M255.335 374.058C253.517 373.944 251.707 374.372 250.133 375.288C248.559 376.203 247.292 377.565 246.492 379.2C245.692 380.836 245.395 382.672 245.638 384.476C245.881 386.281 246.654 387.973 247.859 389.338C249.064 390.703 250.647 391.68 252.407 392.146C254.167 392.612 256.026 392.545 257.748 391.954C259.471 391.364 260.979 390.275 262.083 388.827C263.187 387.379 263.837 385.636 263.95 383.819L254.762 383.246L255.335 374.058Z" fill="#373737"/>
<path d="M265.63 382.335C265.705 381.128 265.542 379.919 265.15 378.775C264.758 377.631 264.144 376.576 263.344 375.67C262.544 374.763 261.573 374.023 260.487 373.492C259.401 372.961 258.221 372.649 257.015 372.573L256.442 381.762L265.63 382.335Z" fill="#B7B7B7"/>
</svg>
