<svg width="464" height="463" viewBox="0 0 464 463" fill="none" xmlns="http://www.w3.org/2000/svg">
<path d="M9.00371 124.586C6.61651 124.586 4.66406 122.634 4.66406 120.246V91.5922C4.66406 89.205 6.61651 87.2526 9.00371 87.2526C11.3909 87.2526 13.3434 89.205 13.3434 91.5922V120.248C13.3434 122.634 11.3909 124.586 9.00371 124.586Z" fill="#343534"/>
<path d="M9.00371 167.283C6.61651 167.283 4.66406 165.331 4.66406 162.943V134.289C4.66406 131.902 6.61651 129.949 9.00371 129.949C11.3909 129.949 13.3434 131.902 13.3434 134.289V162.945C13.3434 165.331 11.3909 167.283 9.00371 167.283Z" fill="#343534"/>
<path d="M216.802 463H36.2071C21.1808 463 9 450.819 9 435.793V27.2071C9 12.1808 21.1808 0 36.2071 0H216.801C231.827 0 244.008 12.1808 244.008 27.2071V435.791C244.009 450.819 231.829 463 216.802 463Z" fill="#343534"/>
<path d="M235.588 27.2253V435.783C235.588 446.135 227.17 454.552 216.818 454.552H36.19C25.8376 454.552 17.4204 446.135 17.4204 435.783V27.2253C17.4204 16.8714 25.8376 8.45422 36.19 8.45422H216.818C227.17 8.45422 235.588 16.8698 235.588 27.2253Z" fill="white"/>
<path opacity="0.32" d="M235.59 27.2253V33.6885H17.4243V27.2253C17.4243 16.8714 25.8415 8.45422 36.1939 8.45422H216.822C227.173 8.45422 235.59 16.8698 235.59 27.2253Z" fill="#6994DA"/>
<path d="M126.508 28.4338C130.97 28.4338 134.588 24.8164 134.588 20.354C134.588 15.8917 130.97 12.2743 126.508 12.2743C122.046 12.2743 118.428 15.8917 118.428 20.354C118.428 24.8164 122.046 28.4338 126.508 28.4338Z" fill="#343534"/>
<path d="M45.7623 16.0382H31.2178V19.659H45.7623V16.0382Z" fill="#343534"/>
<path d="M45.7623 22.8446H31.2178V26.4654H45.7623V22.8446Z" fill="#343534"/>
<path d="M244.116 158.791C241.729 158.791 239.777 156.838 239.777 154.451V125.797C239.777 123.41 241.729 121.457 244.116 121.457C246.504 121.457 248.456 123.41 248.456 125.797V154.453C248.456 156.838 246.504 158.791 244.116 158.791Z" fill="#343534"/>
<path d="M201.221 282.469H58.8537C56.0976 282.469 53.8643 280.234 53.8643 277.481V135.112C53.8643 132.359 56.0992 130.124 58.8537 130.124H201.219C203.975 130.124 206.207 132.359 206.207 135.112V277.481C206.209 280.234 203.977 282.469 201.221 282.469Z" fill="#C3C3C3"/>
<path d="M195.681 276.927H53.314C50.5611 276.927 48.3262 274.695 48.3262 271.942V129.574C48.3262 126.818 50.5611 124.586 53.314 124.586H195.679C198.435 124.586 200.67 126.818 200.67 129.574V271.942C200.67 274.695 198.435 276.927 195.681 276.927Z" fill="#F8FBFF"/>
<path d="M142.088 181.587C141.621 181.587 141.243 181.209 141.243 180.741V168.097C141.243 161.88 136.186 156.822 129.967 156.822C123.754 156.822 118.697 161.879 118.697 168.097V180.741C118.697 181.209 118.319 181.587 117.851 181.587C117.383 181.587 117.005 181.209 117.005 180.741V168.097C117.005 160.946 122.82 155.131 129.967 155.131C137.118 155.131 142.933 160.946 142.933 168.097V180.741C142.934 181.209 142.555 181.587 142.088 181.587Z" fill="#4A4A4A"/>
<path d="M145.664 174.648H94.3232L88.2964 246.388H139.638L145.664 174.648Z" fill="#12797C"/>
<path d="M154.67 174.648H145.663L139.636 246.388H147.631H152.704H160.697L154.67 174.648Z" fill="#094446"/>
<path d="M139.636 246.388L150.168 236.952L160.697 246.388H139.636Z" fill="#0E5E61"/>
<path d="M105.731 181.705C105.731 180.543 106.673 179.602 107.835 179.602C108.996 179.602 109.938 180.543 109.938 181.705C109.938 182.865 108.996 183.808 107.835 183.808C106.673 183.808 105.731 182.865 105.731 181.705Z" fill="#094446"/>
<path d="M129.97 181.705C129.97 180.543 130.912 179.602 132.073 179.602C133.233 179.602 134.176 180.543 134.176 181.705C134.176 182.865 133.233 183.808 132.073 183.808C130.91 183.808 129.97 182.865 129.97 181.705Z" fill="#094446"/>
<path d="M132.073 181.587C131.605 181.587 131.227 181.209 131.227 180.741V168.097C131.227 161.88 126.17 156.822 119.952 156.822C113.738 156.822 108.681 161.879 108.681 168.097V180.741C108.681 181.209 108.303 181.587 107.835 181.587C107.368 181.587 106.989 181.209 106.989 180.741V168.097C106.989 160.946 112.804 155.131 119.952 155.131C127.102 155.131 132.917 160.946 132.917 168.097V180.741C132.919 181.209 132.541 181.587 132.073 181.587Z" fill="#4A4A4A"/>
<path d="M362.243 462.999C362.055 462.999 361.863 462.98 361.67 462.941C360.17 462.624 359.208 461.153 359.523 459.651L406.693 235.234C407.01 233.736 408.476 232.78 409.981 233.087C411.481 233.404 412.443 234.875 412.128 236.375L364.957 460.792C364.682 462.101 363.529 462.999 362.243 462.999Z" fill="#094446"/>
<path d="M307.772 462.999C307.584 462.999 307.392 462.98 307.199 462.941C305.699 462.624 304.737 461.153 305.052 459.651L352.223 235.234C352.54 233.736 354.005 232.78 355.511 233.087C357.012 233.404 357.974 234.875 357.658 236.375L310.487 460.792C310.213 462.101 309.059 462.999 307.772 462.999Z" fill="#094446"/>
<path d="M402.166 273.075H347.698C346.165 273.075 344.922 271.832 344.922 270.298C344.922 268.765 346.165 267.522 347.698 267.522H402.166C403.699 267.522 404.942 268.765 404.942 270.298C404.942 271.832 403.699 273.075 402.166 273.075Z" fill="#094446"/>
<path d="M393.987 311.945H339.52C337.986 311.945 336.743 310.702 336.743 309.169C336.743 307.635 337.986 306.392 339.52 306.392H393.987C395.521 306.392 396.764 307.635 396.764 309.169C396.765 310.702 395.522 311.945 393.987 311.945Z" fill="#094446"/>
<path d="M385.811 350.796H331.345C329.811 350.796 328.568 349.553 328.568 348.019C328.568 346.486 329.811 345.243 331.345 345.243H385.811C387.344 345.243 388.587 346.486 388.587 348.019C388.589 349.553 387.346 350.796 385.811 350.796Z" fill="#094446"/>
<path d="M377.664 389.644H323.174C321.64 389.644 320.397 388.401 320.397 386.868C320.397 385.335 321.64 384.092 323.174 384.092H377.664C379.197 384.092 380.44 385.335 380.44 386.868C380.44 388.401 379.197 389.644 377.664 389.644Z" fill="#094446"/>
<path d="M369.489 428.519H314.999C313.466 428.519 312.223 427.276 312.223 425.743C312.223 424.209 313.466 422.966 314.999 422.966H369.489C371.022 422.966 372.265 424.209 372.265 425.743C372.265 427.276 371.022 428.519 369.489 428.519Z" fill="#094446"/>
<path d="M402.078 462.999C402.267 462.999 402.458 462.98 402.651 462.941C404.152 462.624 405.114 461.153 404.798 459.651L357.627 235.234C357.31 233.736 355.844 232.78 354.339 233.087C352.839 233.404 351.877 234.875 352.192 236.375L399.363 460.792C399.638 462.101 400.792 462.999 402.078 462.999Z" fill="#094446"/>
<path d="M456.556 462.999C456.744 462.999 456.936 462.98 457.129 462.941C458.629 462.624 459.591 461.153 459.276 459.651L412.106 235.234C411.789 233.736 410.325 232.78 408.818 233.087C407.318 233.404 406.356 234.875 406.671 236.375L453.842 460.792C454.115 462.101 455.269 462.999 456.556 462.999Z" fill="#094446"/>
<path d="M362.163 273.075H416.631C418.164 273.075 419.407 271.832 419.407 270.298C419.407 268.765 418.164 267.522 416.631 267.522H362.163C360.63 267.522 359.387 268.765 359.387 270.298C359.387 271.832 360.63 273.075 362.163 273.075Z" fill="#094446"/>
<path d="M370.334 311.945H424.802C426.335 311.945 427.578 310.702 427.578 309.169C427.578 307.635 426.335 306.392 424.802 306.392H370.334C368.801 306.392 367.558 307.635 367.558 309.169C367.558 310.702 368.801 311.945 370.334 311.945Z" fill="#094446"/>
<path d="M378.513 350.796H432.979C434.512 350.796 435.755 349.553 435.755 348.019C435.755 346.486 434.512 345.243 432.979 345.243H378.513C376.979 345.243 375.736 346.486 375.736 348.019C375.736 349.553 376.979 350.796 378.513 350.796Z" fill="#094446"/>
<path d="M386.664 389.644H441.153C442.687 389.644 443.93 388.401 443.93 386.868C443.93 385.335 442.687 384.092 441.153 384.092H386.664C385.13 384.092 383.887 385.335 383.887 386.868C383.886 388.401 385.129 389.644 386.664 389.644Z" fill="#094446"/>
<path d="M394.835 428.519H449.324C450.858 428.519 452.101 427.276 452.101 425.743C452.101 424.209 450.858 422.966 449.324 422.966H394.835C393.301 422.966 392.058 424.209 392.058 425.743C392.06 427.276 393.303 428.519 394.835 428.519Z" fill="#094446"/>
<path d="M416.201 239.271H348.126C347.438 239.271 346.879 238.714 346.879 238.025V231.501C346.879 230.813 347.437 230.255 348.126 230.255H416.199C416.887 230.255 417.445 230.812 417.445 231.501V238.025C417.447 238.713 416.888 239.271 416.201 239.271Z" fill="#094446"/>
<path d="M345.599 106.756L346.541 112.921L343.995 113.764C343.995 113.764 336.314 119.347 333.792 111.705C332.809 108.729 336.088 106.111 338.753 107.765C338.791 107.789 338.828 107.812 338.866 107.836C338.957 107.894 339.062 107.783 338.995 107.696L337.378 105.657C337.104 105.311 337.154 104.807 337.491 104.521C337.802 104.259 338.257 104.264 338.563 104.532L340.624 106.345C341.085 106.75 341.687 106.959 342.299 106.927L345.599 106.756Z" fill="#F2BD96"/>
<path d="M343.26 106.878L345.041 114.372L372.479 106.354C380.044 101.055 389.61 92.1937 389.61 92.1937L383.078 80.7395L368.673 97.0418L343.26 106.878Z" fill="#CBCBCB"/>
<path d="M384.062 216.094L384.333 225.333L392.417 225.096L392.146 215.857L384.062 216.094Z" fill="#A7A7A7"/>
<path d="M392.915 230.06L373.709 230.623C373.42 230.631 373.245 230.384 373.141 230.022C372.75 228.652 373.624 227.238 374.892 227.001C377.229 226.563 380.706 224.695 383.994 221.926C384.072 221.86 384.167 221.823 384.265 221.82L392.155 221.589C392.403 221.581 392.615 221.785 392.648 222.058L393.504 229.297C393.549 229.695 393.276 230.05 392.915 230.06Z" fill="#343534"/>
<path d="M434.596 210.022L439.563 217.817L446.383 213.47L441.416 205.676L434.596 210.022Z" fill="#A7A7A7"/>
<path d="M449.375 217.452L433.172 227.777C432.929 227.933 432.651 227.81 432.376 227.551C431.337 226.575 431.364 224.913 432.331 224.059C434.113 222.487 436.143 219.101 437.546 215.038C437.579 214.942 437.642 214.861 437.725 214.807L444.381 210.565C444.59 210.431 444.877 210.497 445.045 210.715L449.488 216.493C449.731 216.813 449.68 217.257 449.375 217.452Z" fill="#343534"/>
<path d="M384.597 135.841C384.597 135.841 375.374 169.876 375.439 177.238C375.52 186.322 382.608 219.049 382.608 219.049L393.097 218.831C393.097 218.831 390.145 186.812 390.311 182.435C390.479 178.057 400.706 154.121 400.706 154.121C400.706 154.121 406.188 175.242 408.182 180.79C410.175 186.338 435.882 213.495 435.882 213.495L444.522 208.604C444.522 208.604 424.029 180.396 423.316 176.865C422.604 173.333 417.096 134.716 417.096 134.716L384.597 135.841Z" fill="#343534"/>
<path d="M383.953 136.58C383.953 136.58 382.156 112.319 381.249 95.3387L380.792 86.7787C380.557 82.3873 383.917 78.6362 388.308 78.3976C390.542 78.2767 396.313 77.9707 401.887 77.6756C408.945 77.3021 414.958 82.7357 415.302 89.7937C416.135 106.965 417.331 131.173 417.766 134.684C418.639 141.742 383.953 136.58 383.953 136.58Z" fill="#CBCBCB"/>
<path d="M393.237 78.1882C393.157 77.4835 393.101 76.9782 393.101 76.9782C393.101 76.9782 389.619 76.5638 389.279 76.4179C388.599 76.1275 387.501 73.9349 387.347 71.2872C387.195 68.6395 387.334 65.9462 387.4 64.8334C387.466 63.7207 387.736 59.2351 391.862 57.5227C395.988 55.8104 401.468 57.8319 402.965 61.9377C404.462 66.0451 403.88 69.239 403.114 70.5024C402.348 71.7674 401.747 73.9851 401.667 74.8437C401.635 75.1811 401.684 76.2625 401.755 77.4537C401.887 79.6871 400.275 81.6427 398.057 81.9425C395.682 82.2658 393.509 80.5707 393.237 78.1882Z" fill="#F2BD96"/>
<path d="M400.817 66.8775C400.5 67.3515 400.095 68.4423 400.095 68.4423C399.428 67.6858 398.496 62.6446 399.105 61.3026C398.833 62.2129 391.515 60.8946 389.616 60.3955C389.222 60.2919 388.699 60.4551 388.467 60.871C388.214 61.3215 387.599 63.4952 387.466 64.0587C387.376 63.2441 387.398 62.4531 387.379 61.6385C387.36 60.8663 384.898 57.9502 385.946 56.467C387.47 54.3137 396.534 55.3668 397.628 55.5866C398.83 55.8283 402.594 57.2581 402.884 58.9672C404.248 59.6688 405.199 60.5022 405.05 63.1044C404.978 64.3584 404.852 65.6187 404.738 66.8743C404.623 68.1189 404.2 69.1721 403.788 70.3461C403.435 71.349 402.999 72.3158 402.616 73.303C402.548 73.4772 402.01 74.9227 401.677 74.8097C401.621 74.7909 401.233 73.5211 401.139 73.1963C400.99 72.6799 401.01 72.1572 401.006 71.6315C401.004 71.4353 400.958 71.2061 401.051 71.0225C401.194 70.7369 401.541 70.7777 401.806 70.7086C402.646 70.4873 403.073 69.6523 403.2 68.8535C403.336 67.9902 403.289 66.8492 402.34 66.4678C401.847 66.2701 401.217 66.3909 400.872 66.8116C400.85 66.8288 400.833 66.8524 400.817 66.8775Z" fill="#343534"/>
<path d="M375.441 101.491H331.008L305.263 47.3198H339.097L375.441 101.491Z" fill="#094446"/>
<path d="M331.008 101.491H286.576L270.956 47.3198H305.264L331.008 101.491Z" fill="#EDEEF1"/>
<path d="M286.574 101.491H242.142L236.649 47.3198H270.955L286.574 101.491Z" fill="#094446"/>
<path d="M242.14 101.491H197.708L202.34 47.3198H236.647L242.14 101.491Z" fill="#EDEEF1"/>
<path d="M197.709 101.491H153.277L168.033 47.3198H202.341L197.709 101.491Z" fill="#094446"/>
<path d="M153.278 101.491H108.846L133.728 47.3198H168.034L153.278 101.491Z" fill="#EDEEF1"/>
<path d="M108.845 101.491H64.4106L99.0776 47.3198H133.727L108.845 101.491Z" fill="#094446"/>
<path d="M353.225 135.646C340.955 135.646 331.009 125.701 331.009 113.43V101.491H375.442V113.43C375.442 125.701 365.494 135.646 353.225 135.646Z" fill="#0E5E61"/>
<path d="M308.79 135.646C296.52 135.646 286.574 125.701 286.574 113.43V101.491H331.007V113.43C331.007 125.701 321.061 135.646 308.79 135.646Z" fill="#D7D8DB"/>
<path d="M264.359 135.646C252.089 135.646 242.143 125.701 242.143 113.43V101.491H286.575V113.43C286.575 125.701 276.63 135.646 264.359 135.646Z" fill="#0E5E61"/>
<path d="M219.924 135.646C207.654 135.646 197.708 125.701 197.708 113.43V101.491H242.14V113.43C242.14 125.701 232.194 135.646 219.924 135.646Z" fill="#D7D8DB"/>
<path d="M175.493 135.646C163.223 135.646 153.277 125.701 153.277 113.43V101.491H197.709V113.43C197.709 125.701 187.762 135.646 175.493 135.646Z" fill="#0E5E61"/>
<path d="M131.062 135.646C118.792 135.646 108.846 125.701 108.846 113.43V101.491H153.278V113.43C153.278 125.701 143.331 135.646 131.062 135.646Z" fill="#D7D8DB"/>
<path d="M86.6268 135.646C74.3565 135.646 64.4106 125.701 64.4106 113.43V101.491H108.843V113.43C108.843 125.701 98.8955 135.646 86.6268 135.646Z" fill="#0E5E61"/>
<path d="M350.552 111.479L350.37 117.713L347.714 118.084C347.714 118.084 339.154 122.194 338.048 114.223C337.616 111.118 341.314 109.133 343.637 111.239C343.67 111.269 343.701 111.299 343.734 111.33C343.814 111.404 343.937 111.311 343.885 111.216L342.661 108.918C342.452 108.527 342.592 108.04 342.976 107.821C343.329 107.618 343.777 107.705 344.029 108.023L345.731 110.177C346.11 110.658 346.664 110.971 347.273 111.051L350.552 111.479Z" fill="#F2BD96"/>
<path d="M348.326 110.788L348.73 118.481L377.162 115.528C385.558 111.677 403.676 94.7906 403.676 94.7906L391.402 89.4308L375.095 105.683L348.326 110.788Z" fill="#CBCBCB"/>
<path d="M51.3559 319.806L46.866 311.973V310.127H48.3626C48.9613 310.127 49.4851 310.044 49.9341 309.878C50.3997 309.695 50.7822 309.437 51.0815 309.105C51.3974 308.772 51.6136 308.373 51.73 307.907H46.866V306.062H51.7051C51.6053 305.629 51.4307 305.247 51.1813 304.914C50.9484 304.582 50.6325 304.324 50.2334 304.141C49.8509 303.941 49.3853 303.842 48.8365 303.842H46.866V301.996H58.1156V303.842H54.1995C54.4822 304.157 54.715 304.498 54.8979 304.864C55.0974 305.23 55.2305 305.629 55.297 306.062H58.1156V307.907H55.3469C55.1806 309.138 54.7066 310.102 53.9251 310.801C53.1435 311.483 52.1374 311.948 50.9069 312.198L55.7959 319.806H51.3559Z" fill="#343434"/>
<path d="M66.1429 316.164L72.6772 311.176C73.4919 310.544 74.0655 309.996 74.3981 309.53C74.7472 309.065 74.9218 308.566 74.9218 308.034C74.9218 307.485 74.7389 307.053 74.3731 306.737C74.024 306.421 73.5584 306.263 72.9765 306.263C72.3945 306.263 71.8375 306.446 71.3055 306.812C70.7901 307.161 70.1915 307.726 69.5098 308.508L66.2426 305.789C66.7082 305.191 67.182 304.658 67.6642 304.193C68.1464 303.727 68.6618 303.337 69.2105 303.021C69.7758 302.705 70.391 302.464 71.0561 302.297C71.7378 302.131 72.5026 302.048 73.3506 302.048C74.2983 302.048 75.1629 302.189 75.9444 302.472C76.7425 302.738 77.4242 303.112 77.9895 303.594C78.5548 304.077 78.9954 304.667 79.3113 305.365C79.6272 306.047 79.7852 306.795 79.7852 307.61V307.66C79.7852 308.358 79.6937 308.981 79.5108 309.53C79.3446 310.079 79.0869 310.594 78.7377 311.076C78.3885 311.542 77.9645 311.991 77.4657 312.423C76.9669 312.856 76.3933 313.304 75.7449 313.77L72.752 315.865H79.9598V319.806H66.1429V316.164ZM90.0113 315.865C90.4935 315.865 90.9341 315.749 91.3331 315.516C91.7322 315.283 92.0647 314.959 92.3307 314.543C92.6134 314.111 92.8295 313.612 92.9792 313.047C93.1288 312.465 93.2036 311.825 93.2036 311.126V311.076C93.2036 310.378 93.1205 309.738 92.9542 309.156C92.8046 308.574 92.5884 308.075 92.3058 307.66C92.0231 307.227 91.6823 306.895 91.2832 306.662C90.8842 306.413 90.4436 306.288 89.9614 306.288C89.4792 306.288 89.0386 306.404 88.6396 306.637C88.2571 306.87 87.9246 307.194 87.6419 307.61C87.3593 308.025 87.1431 308.524 86.9935 309.106C86.8439 309.688 86.769 310.328 86.769 311.027V311.076C86.769 311.775 86.8439 312.423 86.9935 313.022C87.1598 313.604 87.3842 314.111 87.6669 314.543C87.9495 314.959 88.2904 315.283 88.6894 315.516C89.0885 315.749 89.5291 315.865 90.0113 315.865ZM89.9614 320.155C88.7144 320.155 87.5921 319.922 86.5945 319.456C85.5968 318.974 84.7489 318.326 84.0505 317.511C83.3688 316.68 82.8368 315.715 82.4544 314.618C82.0886 313.521 81.9057 312.357 81.9057 311.126V311.076C81.9057 309.846 82.0969 308.682 82.4793 307.585C82.8617 306.471 83.4021 305.506 84.1004 304.692C84.7988 303.86 85.6467 303.204 86.6443 302.721C87.6419 302.239 88.7643 301.998 90.0113 301.998C91.2583 301.998 92.3723 302.239 93.3533 302.721C94.3509 303.187 95.1988 303.835 95.8972 304.667C96.5955 305.482 97.1276 306.438 97.4934 307.535C97.8758 308.632 98.067 309.796 98.067 311.027V311.076C98.067 312.307 97.8758 313.479 97.4934 314.593C97.1276 315.69 96.5872 316.655 95.8722 317.486C95.1739 318.301 94.3259 318.949 93.3283 319.431C92.3307 319.914 91.2084 320.155 89.9614 320.155ZM108.229 315.865C108.712 315.865 109.152 315.749 109.551 315.516C109.95 315.283 110.283 314.959 110.549 314.543C110.831 314.111 111.048 313.612 111.197 313.047C111.347 312.465 111.422 311.825 111.422 311.126V311.076C111.422 310.378 111.339 309.738 111.172 309.156C111.023 308.574 110.807 308.075 110.524 307.66C110.241 307.227 109.9 306.895 109.501 306.662C109.102 306.413 108.662 306.288 108.179 306.288C107.697 306.288 107.257 306.404 106.858 306.637C106.475 306.87 106.143 307.194 105.86 307.61C105.577 308.025 105.361 308.524 105.212 309.106C105.062 309.688 104.987 310.328 104.987 311.027V311.076C104.987 311.775 105.062 312.423 105.212 313.022C105.378 313.604 105.602 314.111 105.885 314.543C106.168 314.959 106.508 315.283 106.908 315.516C107.307 315.749 107.747 315.865 108.229 315.865ZM108.179 320.155C106.932 320.155 105.81 319.922 104.813 319.456C103.815 318.974 102.967 318.326 102.269 317.511C101.587 316.68 101.055 315.715 100.672 314.618C100.307 313.521 100.124 312.357 100.124 311.126V311.076C100.124 309.846 100.315 308.682 100.697 307.585C101.08 306.471 101.62 305.506 102.319 304.692C103.017 303.86 103.865 303.204 104.862 302.721C105.86 302.239 106.982 301.998 108.229 301.998C109.476 301.998 110.59 302.239 111.571 302.721C112.569 303.187 113.417 303.835 114.115 304.667C114.814 305.482 115.346 306.438 115.711 307.535C116.094 308.632 116.285 309.796 116.285 311.027V311.076C116.285 312.307 116.094 313.479 115.711 314.593C115.346 315.69 114.805 316.655 114.09 317.486C113.392 318.301 112.544 318.949 111.546 319.431C110.549 319.914 109.426 320.155 108.179 320.155Z" fill="#343434"/>
<rect x="100.521" y="380.393" width="51.0066" height="51.0066" rx="6.1504" fill="#094446" stroke="#094446" stroke-width="0.437825"/>
<path d="M125.975 403.723V400.947H123.199V399.096H125.975V396.319H127.827V399.096H130.603V400.947H127.827V403.723H125.975ZM122.273 415.755C121.764 415.755 121.329 415.574 120.966 415.211C120.604 414.849 120.422 414.413 120.422 413.904C120.422 413.395 120.604 412.959 120.966 412.597C121.329 412.234 121.764 412.053 122.273 412.053C122.782 412.053 123.218 412.234 123.581 412.597C123.943 412.959 124.124 413.395 124.124 413.904C124.124 414.413 123.943 414.849 123.581 415.211C123.218 415.574 122.782 415.755 122.273 415.755ZM131.529 415.755C131.02 415.755 130.584 415.574 130.221 415.211C129.859 414.849 129.678 414.413 129.678 413.904C129.678 413.395 129.859 412.959 130.221 412.597C130.584 412.234 131.02 412.053 131.529 412.053C132.038 412.053 132.473 412.234 132.836 412.597C133.198 412.959 133.38 413.395 133.38 413.904C133.38 414.413 133.198 414.849 132.836 415.211C132.473 415.574 132.038 415.755 131.529 415.755ZM122.273 411.127C121.579 411.127 121.047 410.823 120.677 410.214C120.307 409.604 120.299 408.999 120.654 408.397L121.903 406.13L118.571 399.096H116.72V397.245H119.751L123.685 405.574H130.187L133.773 399.096L135.393 399.975L131.806 406.454C131.637 406.762 131.413 407.001 131.135 407.171C130.858 407.341 130.541 407.425 130.187 407.425H123.291L122.273 409.276H133.38V411.127H122.273Z" fill="white"/>
<path d="M129.378 312.245V309.951L127.472 312.245H129.378ZM129.378 313.888H125.509L125.144 312.325L129.287 307.395H131.524V312.234H132.539V313.888H131.524V315.441H129.378V313.888ZM137.041 313.637C137.262 313.637 137.464 313.584 137.646 313.478C137.829 313.371 137.981 313.223 138.103 313.032C138.232 312.835 138.331 312.606 138.399 312.348C138.468 312.081 138.502 311.788 138.502 311.469V311.446C138.502 311.127 138.464 310.834 138.388 310.567C138.319 310.301 138.221 310.073 138.091 309.883C137.962 309.685 137.806 309.533 137.623 309.426C137.441 309.312 137.239 309.255 137.018 309.255C136.798 309.255 136.596 309.308 136.414 309.415C136.239 309.521 136.086 309.669 135.957 309.86C135.828 310.05 135.729 310.278 135.66 310.544C135.592 310.811 135.558 311.104 135.558 311.423V311.446C135.558 311.766 135.592 312.062 135.66 312.336C135.736 312.603 135.839 312.835 135.968 313.032C136.098 313.223 136.254 313.371 136.436 313.478C136.619 313.584 136.821 313.637 137.041 313.637ZM137.018 315.6C136.448 315.6 135.934 315.494 135.478 315.281C135.021 315.06 134.633 314.763 134.314 314.391C134.002 314.01 133.758 313.569 133.583 313.067C133.416 312.565 133.332 312.032 133.332 311.469V311.446C133.332 310.883 133.42 310.35 133.595 309.848C133.77 309.339 134.017 308.897 134.336 308.524C134.656 308.144 135.044 307.843 135.501 307.623C135.957 307.402 136.471 307.292 137.041 307.292C137.612 307.292 138.122 307.402 138.571 307.623C139.027 307.836 139.415 308.133 139.735 308.513C140.054 308.886 140.298 309.323 140.465 309.825C140.64 310.328 140.728 310.86 140.728 311.423V311.446C140.728 312.009 140.64 312.546 140.465 313.055C140.298 313.557 140.05 313.999 139.723 314.379C139.404 314.752 139.016 315.049 138.559 315.269C138.103 315.49 137.589 315.6 137.018 315.6ZM149.007 314.299C149.205 314.299 149.365 314.216 149.487 314.048C149.608 313.881 149.669 313.672 149.669 313.42V313.398C149.669 313.139 149.604 312.926 149.475 312.759C149.353 312.591 149.194 312.507 148.996 312.507C148.79 312.507 148.627 312.591 148.505 312.759C148.391 312.918 148.334 313.128 148.334 313.386V313.409C148.334 313.66 148.399 313.873 148.528 314.048C148.657 314.216 148.817 314.299 149.007 314.299ZM143.666 310.385C143.864 310.385 144.024 310.301 144.145 310.134C144.267 309.966 144.328 309.757 144.328 309.506V309.483C144.328 309.232 144.263 309.023 144.134 308.855C144.012 308.68 143.852 308.593 143.655 308.593C143.457 308.593 143.297 308.677 143.175 308.844C143.054 309.011 142.993 309.221 142.993 309.472V309.494C142.993 309.753 143.057 309.966 143.187 310.134C143.316 310.301 143.476 310.385 143.666 310.385ZM148.996 315.555C148.684 315.555 148.402 315.498 148.151 315.383C147.9 315.269 147.683 315.117 147.501 314.927C147.326 314.729 147.189 314.501 147.09 314.242C146.991 313.984 146.941 313.71 146.941 313.42V313.398C146.941 313.101 146.991 312.823 147.09 312.565C147.189 312.306 147.326 312.081 147.501 311.891C147.683 311.693 147.9 311.537 148.151 311.423C148.41 311.309 148.695 311.252 149.007 311.252C149.319 311.252 149.601 311.309 149.852 311.423C150.103 311.53 150.316 311.682 150.491 311.88C150.673 312.07 150.814 312.294 150.913 312.553C151.012 312.812 151.061 313.09 151.061 313.386V313.409C151.061 313.698 151.012 313.976 150.913 314.242C150.814 314.501 150.673 314.729 150.491 314.927C150.308 315.117 150.088 315.269 149.829 315.383C149.578 315.498 149.3 315.555 148.996 315.555ZM148.642 307.452H150.183L144.02 315.441H142.479L148.642 307.452ZM143.655 311.64C143.343 311.64 143.061 311.587 142.81 311.48C142.559 311.366 142.342 311.214 142.16 311.024C141.985 310.826 141.848 310.598 141.749 310.339C141.65 310.08 141.6 309.803 141.6 309.506V309.483C141.6 309.186 141.65 308.909 141.749 308.65C141.848 308.391 141.985 308.167 142.16 307.977C142.342 307.779 142.559 307.623 142.81 307.509C143.069 307.395 143.354 307.337 143.666 307.337C143.978 307.337 144.259 307.395 144.511 307.509C144.762 307.623 144.975 307.779 145.15 307.977C145.332 308.167 145.473 308.391 145.572 308.65C145.671 308.909 145.72 309.183 145.72 309.472V309.494C145.72 309.791 145.671 310.069 145.572 310.328C145.473 310.586 145.332 310.815 145.15 311.012C144.967 311.203 144.746 311.355 144.488 311.469C144.237 311.583 143.959 311.64 143.655 311.64ZM158.454 313.478C159.116 313.478 159.649 313.303 160.052 312.953C160.455 312.603 160.657 312.104 160.657 311.457V311.435C160.657 310.796 160.455 310.301 160.052 309.951C159.649 309.593 159.116 309.415 158.454 309.415H157.553V313.478H158.454ZM155.339 307.452H158.42C159.135 307.452 159.77 307.551 160.326 307.748C160.889 307.939 161.361 308.209 161.741 308.559C162.129 308.909 162.422 309.327 162.62 309.814C162.825 310.293 162.928 310.822 162.928 311.4V311.423C162.928 312.002 162.825 312.538 162.62 313.032C162.414 313.519 162.118 313.942 161.73 314.299C161.342 314.657 160.862 314.938 160.292 315.144C159.729 315.342 159.09 315.441 158.374 315.441H155.339V307.452ZM163.985 309.266H166.154V315.441H163.985V309.266ZM163.94 307.109H166.199V308.707H163.94V307.109ZM169.815 315.578C169.29 315.578 168.78 315.505 168.286 315.361C167.791 315.208 167.327 314.976 166.893 314.664L167.704 313.352C168.061 313.588 168.423 313.767 168.788 313.888C169.161 314.003 169.507 314.06 169.827 314.06C170.192 314.06 170.374 313.949 170.374 313.729V313.706C170.374 313.584 170.291 313.489 170.123 313.42C169.956 313.352 169.709 313.272 169.381 313.181C169.077 313.105 168.792 313.017 168.525 312.918C168.259 312.812 168.027 312.686 167.829 312.542C167.631 312.39 167.475 312.207 167.361 311.994C167.247 311.781 167.19 311.518 167.19 311.206V311.184C167.19 310.856 167.251 310.567 167.373 310.316C167.502 310.058 167.677 309.844 167.898 309.677C168.118 309.502 168.377 309.369 168.674 309.278C168.978 309.186 169.309 309.141 169.667 309.141C170.123 309.141 170.572 309.205 171.013 309.335C171.455 309.456 171.854 309.631 172.212 309.86L171.47 311.229C171.15 311.054 170.827 310.917 170.5 310.818C170.173 310.712 169.887 310.659 169.644 310.659C169.477 310.659 169.351 310.689 169.267 310.75C169.184 310.803 169.142 310.872 169.142 310.955V310.978C169.142 311.1 169.225 311.199 169.393 311.275C169.568 311.343 169.819 311.427 170.146 311.526C170.45 311.61 170.736 311.705 171.002 311.811C171.268 311.91 171.5 312.036 171.698 312.188C171.896 312.332 172.052 312.511 172.166 312.724C172.28 312.937 172.337 313.192 172.337 313.489V313.512C172.337 313.854 172.276 314.155 172.155 314.413C172.033 314.664 171.862 314.878 171.641 315.053C171.42 315.228 171.154 315.357 170.842 315.441C170.53 315.532 170.188 315.578 169.815 315.578ZM176.203 315.589C175.738 315.589 175.309 315.505 174.913 315.338C174.517 315.163 174.175 314.931 173.886 314.642C173.604 314.353 173.38 314.014 173.212 313.626C173.053 313.23 172.973 312.816 172.973 312.382V312.359C172.973 311.925 173.053 311.515 173.212 311.127C173.38 310.731 173.608 310.388 173.897 310.099C174.186 309.803 174.532 309.571 174.936 309.403C175.347 309.228 175.795 309.141 176.282 309.141C176.922 309.141 177.454 309.266 177.88 309.517C178.306 309.768 178.652 310.103 178.919 310.522L177.446 311.617C177.294 311.412 177.131 311.252 176.956 311.138C176.781 311.024 176.56 310.967 176.294 310.967C176.119 310.967 175.955 311.005 175.803 311.081C175.658 311.149 175.533 311.248 175.426 311.378C175.32 311.499 175.236 311.644 175.175 311.811C175.114 311.971 175.084 312.146 175.084 312.336V312.359C175.084 312.557 175.114 312.743 175.175 312.918C175.236 313.086 175.32 313.234 175.426 313.363C175.533 313.485 175.662 313.584 175.814 313.66C175.967 313.729 176.134 313.763 176.317 313.763C176.575 313.763 176.792 313.706 176.967 313.592C177.15 313.478 177.329 313.322 177.504 313.124L178.953 314.174C178.664 314.6 178.302 314.942 177.869 315.201C177.435 315.46 176.88 315.589 176.203 315.589ZM182.894 313.751C183.092 313.751 183.271 313.717 183.431 313.649C183.59 313.573 183.724 313.474 183.83 313.352C183.944 313.223 184.032 313.074 184.093 312.907C184.153 312.74 184.184 312.565 184.184 312.382V312.359C184.184 312.169 184.15 311.99 184.081 311.823C184.02 311.655 183.929 311.511 183.807 311.389C183.693 311.26 183.556 311.157 183.396 311.081C183.237 311.005 183.062 310.967 182.871 310.967C182.674 310.967 182.495 311.005 182.335 311.081C182.175 311.149 182.038 311.248 181.924 311.378C181.818 311.499 181.734 311.644 181.673 311.811C181.612 311.979 181.582 312.154 181.582 312.336V312.359C181.582 312.549 181.612 312.728 181.673 312.896C181.742 313.063 181.833 313.211 181.947 313.341C182.069 313.462 182.209 313.561 182.369 313.637C182.529 313.713 182.704 313.751 182.894 313.751ZM182.871 315.589C182.377 315.589 181.92 315.505 181.502 315.338C181.091 315.17 180.733 314.942 180.429 314.653C180.125 314.356 179.889 314.014 179.721 313.626C179.554 313.238 179.47 312.823 179.47 312.382V312.359C179.47 311.918 179.554 311.503 179.721 311.115C179.896 310.719 180.136 310.377 180.44 310.088C180.745 309.791 181.106 309.559 181.525 309.392C181.943 309.217 182.4 309.129 182.894 309.129C183.389 309.129 183.841 309.217 184.252 309.392C184.671 309.559 185.032 309.787 185.337 310.077C185.641 310.366 185.877 310.704 186.044 311.092C186.212 311.48 186.295 311.895 186.295 312.336V312.359C186.295 312.8 186.208 313.219 186.033 313.615C185.865 314.003 185.629 314.345 185.325 314.642C185.021 314.931 184.659 315.163 184.241 315.338C183.822 315.505 183.366 315.589 182.871 315.589ZM189.265 315.578C188.603 315.578 188.086 315.376 187.713 314.973C187.348 314.569 187.165 314.014 187.165 313.306V309.266H189.334V312.61C189.334 312.953 189.414 313.211 189.574 313.386C189.733 313.561 189.946 313.649 190.213 313.649C190.471 313.649 190.684 313.561 190.852 313.386C191.027 313.211 191.114 312.953 191.114 312.61V309.266H193.283V315.441H191.114V314.596C190.916 314.855 190.669 315.083 190.372 315.281C190.076 315.479 189.707 315.578 189.265 315.578ZM194.444 309.266H196.613V310.134C196.712 310.004 196.822 309.879 196.944 309.757C197.066 309.635 197.202 309.529 197.355 309.437C197.507 309.346 197.674 309.274 197.857 309.221C198.039 309.16 198.241 309.129 198.462 309.129C199.124 309.129 199.637 309.331 200.002 309.734C200.375 310.137 200.562 310.693 200.562 311.4V315.441H198.393V312.097C198.393 311.754 198.313 311.496 198.154 311.321C197.994 311.146 197.785 311.058 197.526 311.058C197.26 311.058 197.039 311.146 196.864 311.321C196.697 311.496 196.613 311.754 196.613 312.097V315.441H194.444V309.266ZM204.131 315.566C203.477 315.566 202.967 315.41 202.602 315.098C202.237 314.786 202.054 314.261 202.054 313.523V311.012H201.324V309.266H202.054V307.703H204.223V309.266H205.661V311.012H204.223V313.101C204.223 313.322 204.272 313.481 204.371 313.58C204.47 313.672 204.618 313.717 204.816 313.717C204.961 313.717 205.102 313.698 205.238 313.66C205.375 313.622 205.509 313.573 205.638 313.512V315.212C205.44 315.319 205.216 315.403 204.965 315.463C204.713 315.532 204.436 315.566 204.131 315.566Z" fill="#FF5454"/>
<path d="M50.7309 329.871H53.0702L54.9759 332.964L56.8815 329.871H59.2208V337.859H57.0184V333.272L54.9759 336.399H54.9302L52.899 333.295V337.859H50.7309V329.871ZM60.4208 335.634H62.6802V337.859H60.4208V335.634ZM67.5548 333.705C67.9352 333.705 68.2281 333.622 68.4335 333.454C68.6389 333.279 68.7416 333.047 68.7416 332.758V332.736C68.7416 332.416 68.6351 332.18 68.4221 332.028C68.2091 331.868 67.9162 331.788 67.5434 331.788H66.0942V333.705H67.5548ZM63.8804 329.871H67.6575C68.2737 329.871 68.7948 329.947 69.2208 330.1C69.6469 330.252 69.993 330.465 70.2592 330.739C70.7309 331.195 70.9667 331.815 70.9667 332.599V332.621C70.9667 333.238 70.8184 333.747 70.5217 334.151C70.225 334.554 69.8256 334.862 69.3235 335.075L71.2292 337.859H68.6731L67.0641 335.44H67.0413H66.0942V337.859H63.8804V329.871ZM71.8654 335.634H74.1248V337.859H71.8654V335.634ZM78.5885 333.842C78.9841 333.842 79.2922 333.751 79.5128 333.569C79.7411 333.378 79.8552 333.124 79.8552 332.804V332.781C79.8552 332.439 79.7411 332.18 79.5128 332.005C79.2922 331.823 78.9803 331.731 78.5771 331.731H77.5387V333.842H78.5885ZM75.325 329.871H78.7483C79.2504 329.871 79.7068 329.936 80.1176 330.065C80.5284 330.187 80.8784 330.37 81.1675 330.613C81.4565 330.849 81.6772 331.142 81.8293 331.492C81.9891 331.842 82.0689 332.237 82.0689 332.678V332.701C82.0689 333.173 81.9815 333.588 81.8065 333.945C81.6391 334.303 81.4033 334.603 81.099 334.847C80.7947 335.09 80.4295 335.273 80.0035 335.394C79.5851 335.516 79.1287 335.577 78.6342 335.577H77.5387V337.859H75.325V329.871Z" fill="#B9B9B9"/>
<path d="M88.6854 337.859L86.6314 334.276V333.432H87.316C87.5899 333.432 87.8295 333.394 88.0349 333.318C88.2479 333.234 88.4229 333.116 88.5598 332.964C88.7044 332.812 88.8033 332.629 88.8565 332.416H86.6314V331.572H88.8451C88.7995 331.374 88.7196 331.199 88.6055 331.047C88.499 330.895 88.3544 330.777 88.1719 330.693C87.9969 330.602 87.7839 330.556 87.5328 330.556H86.6314V329.712H91.7778V330.556H89.9862C90.1156 330.701 90.2221 330.857 90.3057 331.024C90.397 331.191 90.4579 331.374 90.4883 331.572H91.7778V332.416H90.5111C90.4351 332.979 90.2183 333.42 89.8607 333.74C89.5032 334.052 89.0429 334.265 88.48 334.379L90.7165 337.859H88.6854ZM96.6419 331.731H92.9447V329.871H99.0953V331.537L95.5693 337.859H93.1273L96.6419 331.731ZM103.606 336.056C103.826 336.056 104.028 336.003 104.21 335.896C104.393 335.79 104.545 335.642 104.667 335.451C104.796 335.254 104.895 335.025 104.964 334.767C105.032 334.5 105.066 334.208 105.066 333.888V333.865C105.066 333.546 105.028 333.253 104.952 332.987C104.884 332.72 104.785 332.492 104.655 332.302C104.526 332.104 104.37 331.952 104.188 331.845C104.005 331.731 103.803 331.674 103.583 331.674C103.362 331.674 103.161 331.728 102.978 331.834C102.803 331.941 102.651 332.089 102.522 332.279C102.392 332.469 102.293 332.698 102.225 332.964C102.156 333.23 102.122 333.523 102.122 333.842V333.865C102.122 334.185 102.156 334.481 102.225 334.755C102.301 335.022 102.404 335.254 102.533 335.451C102.662 335.642 102.818 335.79 103.001 335.896C103.183 336.003 103.385 336.056 103.606 336.056ZM103.583 338.019C103.012 338.019 102.499 337.912 102.042 337.699C101.586 337.479 101.198 337.182 100.878 336.809C100.566 336.429 100.323 335.988 100.148 335.486C99.9807 334.984 99.897 334.451 99.897 333.888V333.865C99.897 333.302 99.9845 332.77 100.16 332.268C100.334 331.758 100.582 331.317 100.901 330.944C101.221 330.564 101.609 330.263 102.065 330.043C102.522 329.822 103.035 329.712 103.606 329.712C104.176 329.712 104.686 329.822 105.135 330.043C105.591 330.256 105.979 330.552 106.299 330.933C106.618 331.305 106.862 331.743 107.029 332.245C107.204 332.747 107.291 333.279 107.291 333.842V333.865C107.291 334.428 107.204 334.965 107.029 335.474C106.862 335.976 106.614 336.418 106.287 336.798C105.968 337.171 105.58 337.467 105.123 337.688C104.667 337.909 104.153 338.019 103.583 338.019ZM111.941 336.056C112.162 336.056 112.363 336.003 112.546 335.896C112.728 335.79 112.881 335.642 113.002 335.451C113.132 335.254 113.231 335.025 113.299 334.767C113.367 334.5 113.402 334.208 113.402 333.888V333.865C113.402 333.546 113.364 333.253 113.288 332.987C113.219 332.72 113.12 332.492 112.991 332.302C112.862 332.104 112.706 331.952 112.523 331.845C112.34 331.731 112.139 331.674 111.918 331.674C111.698 331.674 111.496 331.728 111.313 331.834C111.139 331.941 110.986 332.089 110.857 332.279C110.728 332.469 110.629 332.698 110.56 332.964C110.492 333.23 110.458 333.523 110.458 333.842V333.865C110.458 334.185 110.492 334.481 110.56 334.755C110.636 335.022 110.739 335.254 110.868 335.451C110.998 335.642 111.154 335.79 111.336 335.896C111.519 336.003 111.72 336.056 111.941 336.056ZM111.918 338.019C111.348 338.019 110.834 337.912 110.378 337.699C109.921 337.479 109.533 337.182 109.214 336.809C108.902 336.429 108.659 335.988 108.484 335.486C108.316 334.984 108.232 334.451 108.232 333.888V333.865C108.232 333.302 108.32 332.77 108.495 332.268C108.67 331.758 108.917 331.317 109.237 330.944C109.556 330.564 109.944 330.263 110.401 330.043C110.857 329.822 111.371 329.712 111.941 329.712C112.512 329.712 113.021 329.822 113.47 330.043C113.927 330.256 114.315 330.552 114.634 330.933C114.954 331.305 115.197 331.743 115.364 332.245C115.539 332.747 115.627 333.279 115.627 333.842V333.865C115.627 334.428 115.539 334.965 115.364 335.474C115.197 335.976 114.95 336.418 114.623 336.798C114.303 337.171 113.915 337.467 113.459 337.688C113.002 337.909 112.489 338.019 111.918 338.019Z" fill="#B9B9B9"/>
<line x1="47.8291" y1="334.324" x2="117.693" y2="334.324" stroke="#B9B9B9" stroke-width="0.713194"/>
<path d="M118.825 198.849C117.278 198.849 115.765 199.308 114.478 200.168C113.191 201.028 112.188 202.25 111.596 203.68C111.003 205.11 110.848 206.683 111.15 208.201C111.452 209.719 112.198 211.114 113.292 212.208C114.386 213.302 115.781 214.048 117.299 214.35C118.817 214.652 120.39 214.497 121.82 213.904C123.25 213.312 124.472 212.309 125.332 211.022C126.192 209.735 126.651 208.222 126.651 206.675L118.825 206.675L118.825 198.849Z" fill="white"/>
<path d="M128 205.325C128 204.298 127.798 203.28 127.404 202.331C127.011 201.381 126.435 200.519 125.708 199.792C124.981 199.065 124.119 198.489 123.169 198.096C122.22 197.702 121.202 197.5 120.175 197.5L120.175 205.325L128 205.325Z" fill="white"/>
</svg>
