<svg width="642" height="537" viewBox="0 0 642 537" fill="none" xmlns="http://www.w3.org/2000/svg">
<path d="M320.503 475.04C473.528 475.04 597.579 466.671 597.579 456.347C597.579 446.023 473.528 437.654 320.503 437.654C167.478 437.654 43.4272 446.023 43.4272 456.347C43.4272 466.671 167.478 475.04 320.503 475.04Z" fill="#DADADA"/>
<path d="M204.175 64.5029H82.8307C79.1235 64.5029 76.1182 67.5082 76.1182 71.2154V441.696C76.1182 445.403 79.1235 448.408 82.8307 448.408H204.175C207.882 448.408 210.887 445.403 210.887 441.696V71.2154C210.887 67.5082 207.882 64.5029 204.175 64.5029Z" fill="#094446"/>
<path d="M218.79 61.9622H97.4454C93.7382 61.9622 90.7329 64.9674 90.7329 68.6747V441.696C90.7329 445.403 93.7382 448.409 97.4454 448.409H218.79C222.497 448.409 225.502 445.403 225.502 441.696V68.6747C225.502 64.9674 222.497 61.9622 218.79 61.9622Z" fill="white"/>
<path d="M224.472 61.9622H103.128C99.4203 61.9622 96.415 64.9674 96.415 68.6747V441.696C96.415 445.403 99.4203 448.409 103.128 448.409H224.472C228.179 448.409 231.184 445.403 231.184 441.696V68.6747C231.184 64.9674 228.179 61.9622 224.472 61.9622Z" fill="#107477"/>
<path d="M103.723 76.0892H225.502V415.933H103.723V76.0892Z" fill="#F7F7F7"/>
<path d="M84.0143 138.275H81.2085C80.6381 138.275 80.1758 138.738 80.1758 139.308V204.68C80.1758 205.25 80.6381 205.712 81.2085 205.712H84.0143C84.5846 205.712 85.047 205.25 85.047 204.68V139.308C85.047 138.738 84.5846 138.275 84.0143 138.275Z" fill="white"/>
<path d="M103.939 223.442H225.718V435.939H103.939V223.442Z" fill="white"/>
<path d="M124.069 223.445H139.291V249.626H124.069V223.445ZM124.069 309.295H139.291V435.939H124.069V309.295ZM169.531 269.109H225.708V279.46H169.531V269.109Z" fill="#D0D3D8"/>
<path d="M103.939 359.834L225.719 400.628V377.491L103.953 346.368L103.939 359.834ZM103.953 339.304L116.304 343.363V317.384L103.953 311.295V339.304ZM103.953 420.084L116.304 424.55V375.432L103.953 370.561V420.084ZM162.174 309.298C162.174 309.298 160.956 313.73 149.184 315.76L151.62 331.591H183.282L179.223 309.298L162.174 309.298ZM151.214 337.274V349.858L186.53 357.977L184.906 337.274H151.214ZM196.678 357.977L225.719 366.907V337.274H193.025L196.678 357.977ZM187.155 309.297L192.484 331.591H225.718V312.301L224.443 309.297H187.155ZM183.282 285.315L187.156 303.74H223.959L217.664 285.315H183.282ZM143.907 435.943H188.559V395.729L143.907 381.115V435.943ZM198.649 435.943H225.719V408.529L198.649 398.976V435.943ZM134.709 245.822C122.616 245.822 111.696 249.8 103.939 256.19V302.738C111.696 309.127 122.616 313.105 134.709 313.105C158.248 313.105 177.331 298.041 177.331 279.466C177.331 260.886 158.248 245.822 134.709 245.822Z" fill="#D0D3D8"/>
<path d="M134.716 303.74C151.702 303.74 165.473 292.871 165.473 279.464C165.473 266.056 151.702 255.188 134.716 255.188C117.729 255.188 103.959 266.056 103.959 279.464C103.959 292.871 117.729 303.74 134.716 303.74Z" fill="white"/>
<path d="M151.219 174.795C151.284 174.794 151.35 174.792 151.414 174.792H151.023C151.087 174.792 151.153 174.794 151.219 174.795ZM151.023 237.622H151.414C151.414 237.622 151.346 237.55 151.219 237.414C151.091 237.55 151.023 237.622 151.023 237.622Z" fill="#CBCBCB"/>
<path d="M151.217 174.795C143.444 174.903 128.272 181.444 130.856 200.089C133.303 217.739 149.268 235.323 151.217 237.414C153.166 235.323 169.132 217.739 171.578 200.089C174.163 181.444 158.99 174.903 151.217 174.795ZM151.264 202.738C149.635 202.738 148.042 202.255 146.688 201.35C145.333 200.445 144.277 199.158 143.654 197.653C143.03 196.148 142.867 194.492 143.185 192.894C143.503 191.296 144.287 189.828 145.439 188.676C146.591 187.524 148.059 186.74 149.657 186.422C151.255 186.104 152.911 186.267 154.416 186.89C155.922 187.514 157.208 188.57 158.113 189.924C159.018 191.279 159.502 192.871 159.502 194.501C159.502 196.685 158.634 198.781 157.089 200.325C155.544 201.87 153.449 202.738 151.264 202.738L151.264 202.738Z" fill="#094446"/>
<path d="M151.263 185.918C149.566 185.918 147.907 186.422 146.495 187.365C145.084 188.308 143.984 189.648 143.335 191.216C142.685 192.784 142.515 194.51 142.847 196.174C143.178 197.839 143.995 199.368 145.195 200.568C146.395 201.768 147.924 202.586 149.589 202.917C151.254 203.248 152.979 203.078 154.547 202.428C156.116 201.779 157.456 200.679 158.399 199.268C159.342 197.856 159.845 196.197 159.845 194.5C159.842 192.225 158.937 190.043 157.329 188.435C155.72 186.826 153.538 185.921 151.263 185.918ZM151.263 202.394C149.702 202.394 148.176 201.931 146.878 201.063C145.58 200.196 144.568 198.963 143.971 197.521C143.374 196.079 143.217 194.492 143.522 192.96C143.826 191.429 144.578 190.023 145.682 188.919C146.786 187.815 148.192 187.063 149.723 186.759C151.254 186.454 152.842 186.611 154.284 187.208C155.726 187.805 156.959 188.817 157.826 190.115C158.694 191.413 159.156 192.939 159.157 194.5C159.154 196.593 158.322 198.599 156.842 200.079C155.362 201.559 153.356 202.391 151.263 202.394Z" fill="white"/>
<path d="M151.221 174.453H151.211C146.399 174.519 139.538 176.92 135.061 182.134C131.037 186.819 129.507 192.877 130.514 200.139C132.979 217.926 149.131 235.684 150.964 237.651L151.216 237.921L151.468 237.651C153.301 235.684 169.453 217.922 171.918 200.139C172.924 192.877 171.395 186.819 167.371 182.134C162.893 176.92 156.033 174.519 151.221 174.453ZM171.236 200.044C168.888 216.982 153.924 233.956 151.216 236.909C148.508 233.957 133.544 216.985 131.196 200.044C130.217 192.986 131.694 187.111 135.583 182.582C139.919 177.534 146.558 175.207 151.216 175.141C155.874 175.207 162.512 177.534 166.848 182.582C170.738 187.111 172.214 192.986 171.236 200.044Z" fill="white"/>
<path d="M152.031 249.628C156.515 249.628 160.15 247.703 160.15 245.329C160.15 242.955 156.515 241.031 152.031 241.031C147.547 241.031 143.913 242.955 143.913 245.329C143.913 247.703 147.547 249.628 152.031 249.628Z" fill="#094446"/>
<path d="M152.026 240.685C147.28 240.685 143.563 242.725 143.563 245.328C143.563 247.931 147.28 249.97 152.026 249.97C156.771 249.97 160.489 247.931 160.489 245.328C160.489 242.725 156.771 240.685 152.026 240.685ZM152.026 249.282C147.812 249.282 144.251 247.471 144.251 245.328C144.251 243.184 147.812 241.374 152.026 241.374C156.24 241.374 159.8 243.184 159.8 245.328C159.8 247.471 156.24 249.282 152.026 249.282ZM209.997 75.6067V129.029H254.444V137.353C254.439 138.643 254.772 139.91 255.411 141.03C256.05 142.15 256.972 143.083 258.084 143.735C260.1 144.904 262.746 145.704 265.468 144.466C268.043 143.294 269.62 140.64 269.62 137.81V129.029L226.998 75.6067H209.997Z" fill="white"/>
<path d="M194.778 75.6067V129.029H239.226V137.353C239.221 138.643 239.555 139.91 240.193 141.03C240.832 142.15 241.754 143.083 242.866 143.735C244.882 144.904 247.527 145.704 250.25 144.466C252.825 143.294 254.402 140.64 254.402 137.81V129.029L211.78 75.6067H194.778Z" fill="#094446"/>
<path d="M179.558 75.6067V129.029H224.005V137.353C224 138.643 224.334 139.91 224.973 141.03C225.612 142.15 226.533 143.083 227.645 143.735C229.662 144.904 232.307 145.704 235.029 144.466C237.605 143.294 239.182 140.64 239.182 137.81V129.029L196.559 75.6067H179.558Z" fill="white"/>
<path d="M164.491 75.4048V128.988H208.737V137.351C208.733 138.63 209.062 139.887 209.693 140.999C210.324 142.111 211.235 143.039 212.335 143.691C214.331 144.862 216.951 145.665 219.647 144.425C222.198 143.253 223.757 140.616 223.757 137.808V128.988L181.39 75.4048H164.491Z" fill="#094446"/>
<path d="M149.108 75.6067V129.029H193.555V137.353C193.55 138.643 193.884 139.91 194.523 141.03C195.161 142.15 196.083 143.083 197.195 143.735C199.212 144.904 201.857 145.704 204.579 144.466C207.155 143.294 208.732 140.64 208.732 137.81V129.029L166.109 75.6067H149.108Z" fill="white"/>
<path d="M133.887 75.6067V129.029H178.334V137.353C178.33 138.643 178.663 139.91 179.302 141.03C179.941 142.15 180.862 143.083 181.974 143.735C183.991 144.904 186.636 145.704 189.358 144.466C191.934 143.294 193.511 140.64 193.511 137.81V129.029L150.888 75.6067H133.887Z" fill="#094446"/>
<path d="M118.667 75.6067V129.029H163.114V137.353C163.109 138.643 163.443 139.91 164.082 141.03C164.721 142.15 165.642 143.083 166.754 143.735C168.771 144.904 171.416 145.704 174.138 144.466C176.714 143.294 178.291 140.64 178.291 137.81V129.029L135.668 75.6067H118.667Z" fill="white"/>
<path d="M103.447 75.6067V131.084H147.894V137.353C147.889 138.643 148.223 139.91 148.862 141.03C149.5 142.15 150.422 143.083 151.534 143.735C153.551 144.904 156.196 145.704 158.918 144.466C161.494 143.294 163.071 140.64 163.071 137.81V129.029L120.448 75.6067H103.447Z" fill="#094446"/>
<path d="M544.514 439.475C560.581 423.407 560.581 397.357 544.514 381.29C528.447 365.223 502.396 365.223 486.329 381.29C470.262 397.357 470.262 423.407 486.329 439.475C502.396 455.542 528.447 455.542 544.514 439.475Z" fill="#A9A9A9"/>
<path d="M538.8 432.925C551.251 420.475 551.251 400.29 538.8 387.839C526.35 375.389 506.165 375.389 493.715 387.839C481.265 400.29 481.265 420.475 493.715 432.925C506.165 445.375 526.35 445.375 538.8 432.925Z" fill="#D2D4D8"/>
<path d="M519.374 423.442C526.585 421.259 530.661 413.644 528.477 406.433C526.294 399.222 518.679 395.146 511.468 397.329C504.257 399.513 500.182 407.128 502.365 414.339C504.548 421.55 512.163 425.625 519.374 423.442Z" fill="#094446"/>
<path d="M482.954 255.378C470.349 253.795 465.898 262.596 465.898 262.596L471.748 280.962L485.245 280.082C485.874 280.043 486.477 279.815 486.974 279.428C487.471 279.04 487.839 278.511 488.029 277.91C488.807 275.397 489.505 270.165 487.777 260.044C487.579 258.852 487.003 257.756 486.135 256.916C485.267 256.076 484.152 255.537 482.954 255.378Z" fill="#0D6467"/>
<path d="M488.846 332.676L486.146 365.118L513.81 356.683C513.546 356.123 512.529 353.884 509.098 346.216C503.36 333.39 488.846 332.676 488.846 332.676ZM513.81 356.683C513.987 357.06 513.823 356.679 513.823 356.679L513.81 356.683Z" fill="#12797C"/>
<path d="M513.826 356.679C491.082 358.741 482.638 367.48 482.638 367.48L464.445 406.157L553.317 387.747C553.317 387.747 536.571 354.618 513.826 356.679Z" fill="#12797C"/>
<mask id="mask0_924_2583" style="mask-type:luminance" maskUnits="userSpaceOnUse" x="464" y="356" width="90" height="51">
<path d="M553.318 387.745C553.318 387.745 536.571 354.616 513.827 356.677C491.082 358.739 482.638 367.478 482.638 367.478L464.446 406.155L553.318 387.745Z" fill="white"/>
</mask>
<g mask="url(#mask0_924_2583)">
<path d="M554.899 383.886C552.338 381.507 548.462 381.405 544.969 381.549C528.083 382.247 511.422 385.495 494.667 387.701C493.322 387.877 491.93 388.045 490.628 387.667C489.324 387.289 488.123 386.219 488.029 384.866C487.928 383.412 489.08 382.174 490.294 381.367C491.508 380.56 492.905 379.944 493.798 378.792C494.69 377.64 494.782 375.676 493.522 374.944C492.964 374.62 492.23 374.583 491.799 374.104C490.87 373.071 492.252 371.623 493.341 370.759C496.898 367.936 498.526 362.9 497.295 358.529C497.171 358.087 497.005 357.629 496.652 357.335C496.128 356.898 495.364 356.951 494.689 357.049C486.44 358.253 478.965 362.871 473.118 368.812C467.27 374.753 462.898 381.975 458.991 389.339C457.372 392.391 455.802 395.538 455.215 398.943C454.627 402.347 455.144 406.095 457.34 408.762C460.336 412.402 465.548 413.183 470.261 413.326C479.932 413.619 489.576 412.321 499.137 410.836C517.147 408.038 535.627 404.332 550.694 394.076C552.74 392.683 554.853 390.96 555.339 388.534C555.639 387.04 555.267 385.502 554.896 384.024L554.899 383.886Z" fill="#094446"/>
</g>
<path d="M296.266 454.467C318.988 454.467 337.409 436.047 337.409 413.324C337.409 390.602 318.988 372.181 296.266 372.181C273.543 372.181 255.123 390.602 255.123 413.324C255.123 436.047 273.543 454.467 296.266 454.467Z" fill="#A9A9A9"/>
<path d="M319.645 435.867C332.095 423.417 332.095 403.232 319.645 390.782C307.195 378.332 287.009 378.332 274.559 390.782C262.109 403.232 262.109 423.417 274.559 435.867C287.009 448.317 307.195 448.317 319.645 435.867Z" fill="#D2D4D8"/>
<path d="M296.266 426.966C303.8 426.966 309.907 420.858 309.907 413.324C309.907 405.79 303.8 399.682 296.266 399.682C288.732 399.682 282.624 405.79 282.624 413.324C282.624 420.858 288.732 426.966 296.266 426.966Z" fill="#094446"/>
<path d="M482.324 305.71C478.724 291.449 478.273 269.032 467.247 260.701C456.221 252.37 452.171 267.007 452.171 267.007C460.947 271.283 467.472 309.986 471.073 327.088C474.673 344.189 464.322 390.768 423.818 397.069C383.315 403.369 365.088 366.016 370.183 345.314C355.7 344.414 346.862 329.636 346.862 329.636C346.862 329.636 334.936 330.688 289.707 330.913C252.317 343.68 247.894 392.076 247.561 409.955C247.544 410.829 247.701 411.697 248.022 412.51C248.344 413.322 248.824 414.063 249.434 414.688C250.045 415.313 250.773 415.811 251.578 416.153C252.382 416.494 253.246 416.672 254.12 416.677L341.236 417.095C341.236 417.095 415.493 429.471 455.096 411.549C494.7 393.626 494.25 338.564 492 328.663C489.749 318.762 485.305 317.524 482.324 305.71Z" fill="#094446"/>
<mask id="mask1_924_2583" style="mask-type:luminance" maskUnits="userSpaceOnUse" x="247" y="258" width="246" height="164">
<path d="M452.173 267.011C452.173 267.011 456.223 252.374 467.249 260.706C478.275 269.037 478.726 291.453 482.325 305.715C485.307 317.528 489.751 318.766 492.001 328.667C494.251 338.568 494.701 393.63 455.098 411.553C415.494 429.476 341.238 417.1 341.238 417.1L254.122 416.681C253.248 416.676 252.383 416.498 251.579 416.157C250.775 415.816 250.046 415.318 249.436 414.692C248.825 414.067 248.345 413.326 248.024 412.514C247.702 411.701 247.545 410.833 247.562 409.959C247.896 392.081 252.318 343.684 289.708 330.917C334.937 330.692 346.863 329.641 346.863 329.641C346.863 329.641 355.702 344.418 370.184 345.318C365.09 366.02 383.317 403.373 423.82 397.073C464.324 390.773 474.675 344.193 471.074 327.092C467.474 309.99 460.948 271.287 452.173 267.011Z" fill="white"/>
</mask>
<g mask="url(#mask1_924_2583)">
<path d="M450.921 239.827L451.445 253.468C451.445 253.468 482.069 277.667 479.538 326.635C477.007 375.602 473.969 397.932 432.961 406.006C391.953 414.079 337.737 404.68 323.331 395.204C357.021 365.118 334.815 314.285 281.08 339.701C249.464 354.655 223.366 429.085 223.366 429.085L447.799 436.861L526.115 329.275L493.869 255.186L450.921 239.827Z" fill="#12797C"/>
</g>
<path d="M290.428 322.052H347.164C347.419 322.052 347.673 322.102 347.909 322.2C348.146 322.298 348.361 322.442 348.542 322.623C348.723 322.804 348.866 323.018 348.964 323.255C349.062 323.491 349.113 323.745 349.113 324.001V329.404C349.113 329.66 349.062 329.914 348.964 330.15C348.866 330.387 348.723 330.602 348.542 330.783C348.361 330.964 348.146 331.107 347.909 331.205C347.673 331.303 347.419 331.353 347.164 331.353H290.428C289.911 331.353 289.415 331.148 289.05 330.782C288.684 330.417 288.479 329.921 288.479 329.404V324.001C288.479 323.484 288.684 322.988 289.049 322.623C289.415 322.257 289.911 322.052 290.428 322.052Z" fill="#094446"/>
<path d="M340.333 318.367C340.333 318.367 347.421 343.853 370.18 345.315C379.437 338.34 388.925 318.367 388.925 318.367C388.925 318.367 354.847 311.45 347.084 308.412C339.321 305.374 340.333 318.367 340.333 318.367Z" fill="#094446"/>
<path d="M321.209 337.89C263.829 327.764 237.903 413.35 251.14 415.95C262.703 418.222 341.235 417.097 341.235 417.097C341.235 417.097 378.589 348.016 321.209 337.89Z" fill="#CDCDCD"/>
<path d="M296.123 374.166C271.423 374.166 251.4 393.624 251.4 417.626H340.846C340.846 393.624 320.823 374.166 296.123 374.166Z" fill="white"/>
<path d="M311.454 393.35H281.078C280.986 393.35 280.899 393.386 280.834 393.451C280.77 393.515 280.733 393.603 280.733 393.694C280.733 393.786 280.77 393.873 280.834 393.938C280.899 394.002 280.986 394.038 281.078 394.038H311.454C311.545 394.038 311.633 394.002 311.697 393.938C311.762 393.873 311.798 393.786 311.798 393.694C311.798 393.603 311.762 393.515 311.697 393.451C311.633 393.386 311.545 393.35 311.454 393.35ZM309.429 398.597H282.428C282.336 398.597 282.249 398.633 282.184 398.698C282.12 398.762 282.083 398.85 282.083 398.941C282.083 399.032 282.12 399.12 282.184 399.185C282.249 399.249 282.336 399.285 282.428 399.285H309.429C309.52 399.285 309.608 399.249 309.673 399.185C309.737 399.12 309.773 399.032 309.773 398.941C309.773 398.85 309.737 398.762 309.673 398.698C309.608 398.633 309.52 398.597 309.429 398.597H309.429ZM306.279 404.151H286.253C286.161 404.151 286.074 404.187 286.009 404.252C285.945 404.316 285.909 404.404 285.909 404.495C285.909 404.586 285.945 404.674 286.009 404.739C286.074 404.803 286.161 404.839 286.253 404.839H306.279C306.37 404.839 306.457 404.803 306.522 404.739C306.587 404.674 306.623 404.586 306.623 404.495C306.623 404.404 306.587 404.316 306.522 404.252C306.457 404.187 306.37 404.151 306.279 404.151Z" fill="#094446"/>
<path d="M455.661 263.468C454.828 263.468 454.013 263.715 453.319 264.178C452.626 264.642 452.086 265.3 451.767 266.07C451.448 266.841 451.364 267.688 451.527 268.506C451.69 269.324 452.091 270.075 452.681 270.665C453.27 271.254 454.021 271.656 454.839 271.818C455.657 271.981 456.505 271.897 457.275 271.578C458.045 271.259 458.704 270.719 459.167 270.026C459.63 269.332 459.877 268.517 459.877 267.683C459.877 267.13 459.768 266.582 459.557 266.07C459.345 265.559 459.034 265.094 458.643 264.702C458.251 264.311 457.786 264 457.275 263.788C456.763 263.577 456.215 263.468 455.661 263.468Z" fill="white"/>
<path d="M311.035 429.623C311.035 429.623 300.057 444.189 289.444 446.378C278.832 448.567 279.305 453.708 285.834 454.791C292.363 455.873 321.102 454.791 325.676 452.085C330.249 449.378 327.002 433.909 327.002 433.909L311.035 429.623Z" fill="#292929"/>
<mask id="mask2_924_2583" style="mask-type:luminance" maskUnits="userSpaceOnUse" x="281" y="429" width="48" height="27">
<path d="M311.043 429.627C311.043 429.627 300.065 444.192 289.452 446.381C278.839 448.57 279.313 453.712 285.842 454.794C292.37 455.877 321.11 454.794 325.683 452.088C330.257 449.382 327.01 433.913 327.01 433.913L311.043 429.627Z" fill="white"/>
</mask>
<g mask="url(#mask2_924_2583)">
<path d="M327.012 448.495C304.649 454.955 278.795 450.579 278.795 450.579L283.442 459.806L331.477 456.346C331.477 456.346 334.542 446.321 327.012 448.495Z" fill="white"/>
<path d="M309.116 439.134C308.165 439.134 307.235 439.416 306.444 439.944C305.653 440.473 305.037 441.224 304.673 442.103C304.309 442.982 304.213 443.949 304.399 444.882C304.585 445.815 305.043 446.671 305.715 447.344C306.388 448.017 307.245 448.475 308.178 448.66C309.111 448.846 310.078 448.751 310.957 448.387C311.835 448.023 312.586 447.406 313.115 446.615C313.643 445.824 313.925 444.894 313.925 443.943C313.924 442.668 313.417 441.446 312.515 440.544C311.614 439.642 310.391 439.135 309.116 439.134ZM309.116 448.064C308.301 448.064 307.504 447.822 306.826 447.37C306.149 446.917 305.621 446.273 305.309 445.52C304.997 444.767 304.915 443.939 305.074 443.139C305.233 442.34 305.626 441.606 306.202 441.029C306.779 440.453 307.513 440.06 308.312 439.901C309.112 439.742 309.94 439.824 310.693 440.136C311.446 440.448 312.09 440.976 312.543 441.654C312.995 442.331 313.237 443.128 313.237 443.943C313.236 445.036 312.801 446.083 312.029 446.856C311.256 447.628 310.209 448.063 309.116 448.064Z" fill="white"/>
</g>
<path d="M329.373 272.252L282.192 277.516C281.958 277.542 281.737 277.636 281.558 277.788C281.378 277.94 281.248 278.142 281.184 278.368C279.263 285.179 265.191 335.527 265.57 348.412C265.933 360.807 276.407 409.707 278.575 419.713C278.754 420.54 280.398 425.445 281.089 424.957C284.278 422.707 290.182 420.182 296.42 422.116C297.2 422.358 301.637 421.861 301.605 421.045C301.123 408.612 293.94 368.186 290.259 354.473C290.197 354.245 290.205 354.003 290.283 353.78C294.408 341.946 300.581 326.648 303.884 318.605C304.377 317.405 306.163 317.759 306.163 319.056V366.906C306.163 382.894 306.657 428.517 306.132 436.92C306.087 437.634 306.132 436.92 306.845 436.871C311.126 436.574 315.905 432.467 327.1 439.555C327.859 440.035 328.848 439.421 328.853 438.523C328.925 425.413 329.569 432.197 328.847 413.388C328.087 393.596 329.865 372.597 329.196 363.192C329.189 363.099 329.194 363.006 329.211 362.914C332.744 343.243 330.931 318.034 332.752 309.297C334.359 301.59 331.407 278.656 330.676 273.267C330.635 272.961 330.475 272.683 330.231 272.494C329.988 272.304 329.679 272.217 329.373 272.252Z" fill="#CBCBCB"/>
<mask id="mask3_924_2583" style="mask-type:luminance" maskUnits="userSpaceOnUse" x="265" y="272" width="69" height="168">
<path d="M282.184 277.514C281.95 277.539 281.729 277.634 281.55 277.786C281.371 277.938 281.241 278.14 281.177 278.366C279.255 285.176 265.183 335.524 265.562 348.41C265.926 360.805 276.399 409.705 278.567 419.711C278.746 420.537 280.391 425.443 281.082 424.955C284.27 422.705 290.174 420.18 296.413 422.114C297.193 422.356 301.629 421.859 301.597 421.043C301.115 408.61 293.933 368.184 290.251 354.47C290.189 354.242 290.197 354.001 290.275 353.778C294.4 341.944 300.574 326.646 303.876 318.603C304.369 317.403 306.155 317.757 306.155 319.054V366.904C306.155 382.891 306.649 428.515 306.124 436.918C306.079 437.632 306.124 436.918 306.837 436.868C311.118 436.572 321.735 436.688 327.093 439.553C327.273 439.651 327.475 439.701 327.68 439.697C327.884 439.694 328.085 439.638 328.262 439.534C328.438 439.43 328.585 439.282 328.687 439.104C328.789 438.927 328.844 438.726 328.845 438.521C328.917 425.411 329.561 432.195 328.839 413.386C328.079 393.594 329.858 372.595 329.188 363.19C329.182 363.097 329.187 363.003 329.203 362.912C332.736 343.241 330.924 318.032 332.745 309.295C334.351 301.587 331.4 278.653 330.669 273.265C330.627 272.959 330.467 272.681 330.223 272.492C329.98 272.302 329.672 272.215 329.365 272.25L282.184 277.514Z" fill="white"/>
</mask>
<g mask="url(#mask3_924_2583)">
<path d="M281.842 356.584C286.752 352.149 287.011 355.687 292.898 355.687C284.103 348.326 274.965 355.687 274.965 355.687C274.965 355.687 267.595 345.594 272.427 326.7C277.26 307.805 287.011 274.283 287.011 274.283L282.989 272.241L265.558 302.159L255.118 355.968L270.785 431.332L288.472 429.622L287.011 417.623C287.011 417.623 286.268 408.513 282.423 397.55C278.578 386.587 278.962 380.91 282.423 369.236C285.884 357.563 276.932 361.019 281.842 356.584ZM312.271 357.972C312.271 357.972 316.713 314.743 312.654 311.29C308.594 307.836 301.946 323.342 301.946 323.342L302.776 361.128L300.461 440.496L311.549 435.848C311.549 435.848 312.248 426.374 309.424 413.322C306.601 400.27 310.779 404.758 311.449 385.733C312.118 366.707 306.66 376.245 314.277 369.95C321.895 363.655 339.445 377.257 332.748 370.556C326.052 363.854 312.271 357.972 312.271 357.972Z" fill="#B0B0B0"/>
<path d="M293.45 269.006C292.559 271.804 271.641 337.647 272.083 347.288C272.525 356.9 289.118 426.736 289.825 429.704L290.494 429.544C290.321 428.818 273.209 356.804 272.771 347.256C272.334 337.738 293.888 269.899 294.106 269.214L293.45 269.006Z" fill="white"/>
<path d="M296.596 270.224C295.705 273.023 274.787 338.866 275.23 348.506C275.671 358.119 292.265 427.954 292.971 430.922L293.641 430.763C293.468 430.037 276.356 358.022 275.917 348.475C275.48 338.957 297.034 271.117 297.252 270.433L296.596 270.224Z" fill="white"/>
</g>
<path d="M300.193 419.112C300.193 419.112 291.971 409.64 280.441 421.376C280.201 421.624 280.052 421.945 280.016 422.288C279.981 422.631 280.062 422.976 280.247 423.268C281.098 424.664 278.799 430.103 273.888 436.39C264.132 448.88 255.533 458.263 265.175 459.715C274.817 461.167 308.033 444.756 306.845 436.869C305.658 428.983 300.193 419.112 300.193 419.112Z" fill="#292929"/>
<mask id="mask4_924_2583" style="mask-type:luminance" maskUnits="userSpaceOnUse" x="260" y="415" width="47" height="45">
<path d="M280.443 421.378C280.203 421.626 280.053 421.947 280.018 422.29C279.983 422.633 280.064 422.978 280.248 423.27C281.099 424.666 278.8 430.105 273.89 436.391C264.133 448.882 255.535 458.265 265.177 459.717C274.819 461.169 308.035 444.757 306.847 436.871C305.659 428.985 300.194 419.114 300.194 419.114C300.194 419.114 291.973 409.642 280.443 421.378Z" fill="white"/>
</mask>
<g mask="url(#mask4_924_2583)">
<path d="M307.654 434.768C297.215 431.552 277.751 443.626 270.444 448.497C269.473 444.966 269.289 441.265 269.903 437.655L258.266 445.207L255.831 465.754L298.453 453.035C298.453 453.035 318.093 437.984 307.654 434.768Z" fill="white"/>
<path d="M287.113 425.422C286.119 425.422 285.147 425.717 284.32 426.269C283.493 426.821 282.849 427.607 282.469 428.525C282.088 429.444 281.989 430.454 282.183 431.43C282.377 432.405 282.855 433.3 283.558 434.003C284.261 434.707 285.157 435.185 286.132 435.379C287.107 435.573 288.118 435.474 289.037 435.093C289.955 434.713 290.74 434.068 291.293 433.242C291.845 432.415 292.14 431.443 292.14 430.449C292.138 429.116 291.608 427.838 290.666 426.896C289.723 425.953 288.446 425.423 287.113 425.422ZM287.113 434.787C286.255 434.787 285.416 434.533 284.703 434.056C283.989 433.579 283.433 432.902 283.105 432.109C282.776 431.316 282.69 430.444 282.858 429.602C283.025 428.761 283.438 427.988 284.045 427.381C284.652 426.774 285.425 426.361 286.266 426.194C287.108 426.026 287.98 426.112 288.773 426.441C289.566 426.769 290.244 427.325 290.72 428.039C291.197 428.752 291.451 429.591 291.451 430.449C291.45 431.599 290.993 432.702 290.179 433.515C289.366 434.329 288.263 434.786 287.113 434.787Z" fill="white"/>
</g>
<path d="M283.487 443.77C272.032 449.466 263.798 456.199 265.096 458.809C266.394 461.419 276.732 458.916 288.187 453.22C299.642 447.523 307.876 440.79 306.578 438.181C305.28 435.571 294.942 438.073 283.487 443.77Z" fill="black"/>
<path d="M245.482 207.783C245.482 212.654 248.834 219.135 248.834 219.135L261.857 216.813V203.791L250.556 193.575C250.556 193.575 245.482 202.912 245.482 207.783Z" fill="#F2BD96"/>
<path d="M241.116 184.644L239.898 187.79L254.308 211.436L267.704 202.83L252.177 178.86L241.116 184.644Z" fill="#D9D9D9"/>
<path d="M243.753 186.473L256.46 206.059L263.746 201.188L251.771 182.11L243.753 186.473Z" fill="white"/>
<mask id="mask5_924_2583" style="mask-type:luminance" maskUnits="userSpaceOnUse" x="239" y="178" width="29" height="34">
<path d="M241.107 184.648L239.89 187.794L254.3 211.44L267.696 202.834L252.169 178.864L241.107 184.648Z" fill="white"/>
</mask>
<g mask="url(#mask5_924_2583)">
<path d="M255.314 208.638L239.899 183.079L236.898 188.587L252.641 213.199L268.739 204.421L267.705 201.323L255.314 208.638Z" fill="#727272"/>
</g>
<path d="M281.448 135.779L278.552 141.92L305.202 167.765C305.202 167.765 318.991 162.719 316.79 149.771C314.588 136.822 281.448 135.779 281.448 135.779Z" fill="black"/>
<path d="M302.457 160.243C302.457 160.243 295.703 155.246 295.703 147.482C292.923 149.799 285.043 148.409 285.159 141.92C285.275 135.431 278.554 141.92 278.554 141.92C278.554 141.92 282.594 155.883 273.456 158.735C278.09 162.863 277.979 168.765 281.414 173.335C283.476 176.076 289.568 175.019 291.654 174.106C292.208 178.903 292.226 185.807 292.226 185.807L307.15 180.03L305.205 165.442L302.457 160.243Z" fill="#F2BD96"/>
<mask id="mask6_924_2583" style="mask-type:luminance" maskUnits="userSpaceOnUse" x="273" y="139" width="35" height="47">
<path d="M278.551 141.916C278.551 141.916 282.591 155.878 273.452 158.73C278.087 162.858 277.975 168.761 281.411 173.33C283.472 176.071 289.564 175.014 291.65 174.101C292.205 178.898 292.222 185.802 292.222 185.802L307.146 180.025L305.201 165.437L302.454 160.238C302.454 160.238 295.7 155.241 295.7 147.477C292.92 149.795 285.039 148.404 285.155 141.915C285.271 135.426 278.551 141.915 278.551 141.915V141.916Z" fill="white"/>
</mask>
<g mask="url(#mask6_924_2583)">
<path d="M291.652 136.731H280.285L277.951 143.745C277.951 143.745 280.184 141.715 282.822 145.977C285.461 150.24 292.396 154.818 294.433 152.287C298.281 161.048 301.901 168.352 305.859 170.357C309.817 172.363 309.005 158.46 309.005 158.46L291.652 136.731ZM287.474 175.038C281.199 175.306 286.171 182.613 286.171 182.613C286.171 182.613 300.175 179.264 297.79 169.927C297.79 169.927 293.751 174.769 287.474 175.038Z" fill="#E6A577"/>
</g>
<path d="M284.619 149.345C284.531 149.367 284.456 149.422 284.408 149.499C284.361 149.576 284.346 149.668 284.366 149.756C284.386 149.844 284.44 149.921 284.516 149.969C284.593 150.018 284.685 150.035 284.773 150.016C284.813 150.007 288.816 149.121 289.952 151.316C289.973 151.356 290.002 151.392 290.036 151.421C290.071 151.45 290.111 151.472 290.154 151.486C290.197 151.499 290.242 151.505 290.287 151.501C290.332 151.497 290.376 151.484 290.416 151.463C290.456 151.443 290.492 151.414 290.521 151.38C290.55 151.345 290.572 151.305 290.586 151.262C290.6 151.219 290.605 151.174 290.601 151.129C290.597 151.083 290.585 151.04 290.564 150.999C289.182 148.331 284.805 149.302 284.619 149.345Z" fill="black"/>
<path d="M286.605 155.884C287.341 155.884 287.938 155.08 287.938 154.088C287.938 153.096 287.341 152.292 286.605 152.292C285.87 152.292 285.273 153.096 285.273 154.088C285.273 155.08 285.87 155.884 286.605 155.884Z" fill="black"/>
<path d="M303.582 126.828C287.309 121.585 283.507 131.173 280.118 138.212C280.118 138.212 266.821 142.296 271.166 145.686C275.512 149.075 295.587 146.642 300.28 143.948C313.489 150.379 317.487 152.204 317.487 152.204C317.487 152.204 324.352 133.519 303.582 126.828Z" fill="#CBCBCB"/>
<path d="M291.655 174.104C294.263 174.104 298.479 170.178 300.262 167.51C302.045 164.841 307.274 154.085 308.556 147.956C305.29 146.378 303.751 145.632 303.751 145.632C303.751 145.632 298.536 167.296 291.655 174.104Z" fill="black"/>
<mask id="mask7_924_2583" style="mask-type:luminance" maskUnits="userSpaceOnUse" x="270" y="125" width="49" height="28">
<path d="M280.113 138.213C280.113 138.213 266.817 142.297 271.162 145.686C275.507 149.076 295.582 146.643 300.275 143.948C313.485 150.379 317.482 152.204 317.482 152.204C317.482 152.204 324.348 133.52 303.578 126.828C287.305 121.586 283.503 131.174 280.113 138.213Z" fill="white"/>
</mask>
<g mask="url(#mask7_924_2583)">
<path d="M300.275 143.947C287.083 134.303 280.113 138.211 280.113 138.211L270.979 136.542L265.296 149.488C265.296 149.488 313.466 153.591 300.275 143.947ZM312.384 144.12C310.625 153.862 309.906 154.086 309.906 154.086L321.45 156.974L325.103 130.589L307.145 126.529C307.145 126.529 314.143 134.377 312.384 144.119L312.384 144.12Z" fill="#B0B0B0"/>
<path opacity="0.51" d="M305.752 134.647C305.752 134.647 308.864 134.086 311.976 139.035C315.088 143.984 312.111 128.017 305.752 134.647Z" fill="white"/>
<path opacity="0.51" d="M304.523 134.074C305.38 133.872 305.911 133.013 305.709 132.155C305.506 131.297 304.647 130.766 303.789 130.968C302.932 131.171 302.4 132.03 302.603 132.888C302.805 133.746 303.665 134.277 304.523 134.074Z" fill="white"/>
</g>
<path d="M289.481 166.654C286.051 168.424 281.999 167.44 281.959 167.429C281.87 167.407 281.777 167.421 281.698 167.468C281.62 167.515 281.563 167.591 281.541 167.679C281.519 167.768 281.533 167.862 281.58 167.94C281.627 168.018 281.703 168.075 281.791 168.097C282.744 168.311 283.719 168.415 284.696 168.409C286.185 168.409 288.047 168.168 289.796 167.266C289.876 167.223 289.935 167.15 289.962 167.064C289.988 166.978 289.98 166.885 289.939 166.805C289.897 166.725 289.826 166.664 289.741 166.636C289.655 166.607 289.562 166.614 289.481 166.654L289.481 166.654Z" fill="#D89D67"/>
<path d="M292.787 161.05C295.145 161.05 297.056 160.295 297.056 159.363C297.056 158.432 295.145 157.676 292.787 157.676C290.429 157.676 288.518 158.432 288.518 159.363C288.518 160.295 290.429 161.05 292.787 161.05Z" fill="#E6A577"/>
<path d="M325.883 184.389C323.127 180.971 320.472 179.83 316.291 179.03C315.033 178.795 313.632 178.584 312.053 178.353C311.444 175.511 309.618 176.323 297.793 178.353C285.972 180.382 284.697 185.806 284.697 185.806C284.697 185.806 284.519 185.846 284.19 185.923C282.07 186.429 279.96 186.974 277.861 187.559C274.861 188.395 271.435 189.447 268.821 190.53C262.935 192.966 258.876 216.713 258.876 216.713L257.861 215.495C257.861 215.495 255.832 215.901 247.916 219.555C245.48 240.46 256.846 254.465 263.544 257.915C270.116 261.301 276.104 242.404 276.327 241.698C276.242 242.088 274.89 248.53 274.302 259.644C273.692 271.116 281.405 272.326 281.405 272.326C281.405 272.326 279.782 272.935 281.405 277.603C290.742 285.315 328.899 276.385 328.899 276.385L332.471 203.788L332.727 198.617V198.612L332.756 198.04C332.756 198.04 332.959 195.605 328.29 187.892C327.566 186.673 326.761 185.503 325.883 184.389Z" fill="#CBCBCB"/>
<mask id="mask8_924_2583" style="mask-type:luminance" maskUnits="userSpaceOnUse" x="247" y="176" width="86" height="105">
<path d="M284.686 185.808C284.686 185.808 285.959 180.385 297.782 178.355C309.606 176.326 311.433 175.514 312.041 178.355C320.363 179.573 323.61 180.182 328.279 187.895C332.947 195.607 332.744 198.043 332.744 198.043L328.887 276.388C328.887 276.388 290.73 285.318 281.394 277.605C279.77 272.937 281.394 272.328 281.394 272.328C281.394 272.328 273.681 271.119 274.29 259.647C274.898 248.175 276.319 241.681 276.319 241.681C276.319 241.681 270.23 261.368 263.533 257.918C256.835 254.468 245.469 240.463 247.904 219.557C255.82 215.904 257.85 215.498 257.85 215.498L258.864 216.716C258.864 216.716 262.924 192.969 268.81 190.533C274.696 188.097 284.686 185.808 284.686 185.808Z" fill="white"/>
</mask>
<g mask="url(#mask8_924_2583)">
<path d="M316.11 176.516C316.11 176.516 302.061 177.273 300.104 181.062C300.104 181.062 309.587 176.461 328.849 181.062C348.111 185.662 316.11 176.516 316.11 176.516ZM259.492 213.491C259.492 213.491 254.206 227.067 255.248 236.809C256.291 246.552 262.122 247.161 260.295 238.839C258.468 230.517 259.492 213.491 259.492 213.491ZM312.66 272.246C298.655 276.629 290.74 271.72 293.784 269.113C296.828 266.506 301.903 265.225 293.784 264.34C285.666 263.456 286.477 261.977 281.878 256.458C277.279 250.939 291.957 249.596 283.433 236.809C274.908 224.023 285.666 216.107 279.982 211.439C274.299 206.771 278.359 223.414 277.141 236.809C275.923 250.205 267.703 258.141 267.703 258.141L257.857 272.246L288.101 287.957L335.018 281.868L333.227 265.834C333.227 265.834 326.665 267.863 312.66 272.246Z" fill="#B0B0B0"/>
</g>
<path d="M252.741 207.965C252.741 207.965 255.107 203.906 252.741 202.485C250.374 201.064 248.815 209.435 248.815 209.435L256.386 213.851C257.056 211.619 252.741 207.965 252.741 207.965V207.965Z" fill="#F2BD96"/>
<path d="M253.177 207.889C253.516 207.238 253.78 206.552 253.965 205.842C254.392 204.12 254.031 202.858 252.92 202.191C252.735 202.071 252.522 202 252.302 201.984C252.082 201.968 251.862 202.008 251.661 202.1C249.723 202.973 248.601 208.721 248.48 209.373C248.466 209.462 248.487 209.553 248.539 209.626C248.59 209.699 248.669 209.749 248.757 209.766C248.845 209.782 248.936 209.764 249.011 209.714C249.085 209.664 249.138 209.587 249.156 209.499C249.469 207.824 250.578 203.343 251.944 202.728C252.043 202.682 252.153 202.662 252.262 202.672C252.371 202.681 252.476 202.719 252.566 202.781C254.614 204.011 252.468 207.756 252.446 207.793L252.301 208.043L252.521 208.229C253.673 209.205 256.555 212.101 256.059 213.753C256.046 213.797 256.042 213.842 256.046 213.887C256.051 213.932 256.064 213.976 256.086 214.016C256.107 214.055 256.136 214.091 256.171 214.119C256.206 214.148 256.246 214.169 256.29 214.182C256.333 214.195 256.379 214.199 256.423 214.195C256.468 214.19 256.512 214.177 256.552 214.156C256.592 214.134 256.627 214.105 256.656 214.07C256.684 214.035 256.706 213.995 256.718 213.951C257.031 212.908 256.481 211.528 255.082 209.852C254.493 209.154 253.856 208.498 253.177 207.889Z" fill="#F2BD96"/>
<path d="M284.186 185.922C282.066 186.428 279.956 186.973 277.857 187.558L280.317 194.082L289.638 219.136C289.638 219.136 296.693 224.356 294.931 211.435C293.591 201.583 287.161 190.586 284.186 185.922ZM332.723 198.612L325.879 184.388C323.123 180.97 320.468 179.829 316.287 179.03C319.092 185.204 326.468 201.957 325.92 206.353C325.441 210.197 329.857 206.353 332.467 203.787C333.539 202.74 334.306 201.904 334.306 201.904L332.723 198.616V198.612Z" fill="#B0B0B0"/>
<path d="M280.735 186.786C272.431 184.976 272.431 189.204 272.431 189.204C272.431 189.204 286.137 217.865 286.948 233.561C287.76 249.257 292.902 238.838 292.902 238.838C292.902 238.838 287.514 188.263 280.735 186.786ZM328.846 184.037C321.492 179.778 318.611 179.384 318.611 179.384C318.611 179.384 332.316 208.045 333.128 223.741C333.94 239.437 339.082 229.018 339.082 229.018C339.082 229.018 337.727 189.181 328.846 184.037Z" fill="#787878"/>
<path d="M284.515 274.285L321.049 287.953L352.711 266.845V220.825L285.759 224.978L284.515 274.285Z" fill="#787878"/>
<mask id="mask9_924_2583" style="mask-type:luminance" maskUnits="userSpaceOnUse" x="284" y="220" width="69" height="68">
<path d="M285.751 224.979L284.506 274.286L321.04 287.955L352.703 266.846V220.826L285.751 224.979Z" fill="white"/>
</mask>
<g mask="url(#mask9_924_2583)">
<path d="M321.385 297.291L355.686 269.111L357.513 213.852L320.37 220.18L321.385 297.291Z" fill="#2D2D2D"/>
</g>
<path d="M289.444 213.852L283.432 216.24V224.18L320.236 236.807L354.876 219.761V211.436L334.579 198.65L289.444 213.852Z" fill="#707070"/>
<mask id="mask10_924_2583" style="mask-type:luminance" maskUnits="userSpaceOnUse" x="283" y="198" width="72" height="39">
<path d="M289.441 213.85L334.576 198.648L354.872 211.435V219.759L320.233 236.805L283.428 224.179V216.238L289.441 213.85Z" fill="white"/>
</mask>
<g mask="url(#mask10_924_2583)">
<path d="M281.707 215.679L280.991 227.978L319.148 241.03L358.321 222.701V209.711L320.366 228.628L281.707 215.679Z" fill="#292929"/>
</g>
<path d="M294.388 256.932C293.9 259.787 296.284 260.349 298.837 260.18C301.481 260.011 304.308 259.056 304.308 259.056L305.07 248.767L305.274 246.045L294.914 245.29C294.914 245.29 295.561 250.084 294.388 256.932Z" fill="white"/>
<path d="M298.862 259.994C298.851 260.056 298.842 260.118 298.834 260.181C301.478 260.012 304.305 259.057 304.305 259.057L305.067 248.768L299.389 248.353C299.389 248.353 300.035 253.147 298.862 259.994Z" fill="#D3D3D3"/>
<path d="M300.356 261.664C299.36 267.477 310.276 263.788 310.276 263.788L311.242 250.778L300.882 250.022C300.882 250.022 301.527 254.816 300.356 261.664Z" fill="white"/>
<path d="M300.241 256.897L292.905 254.39V269.11L311.5 275.421L312.661 258.485L303.754 257.65C302.557 257.538 301.378 257.285 300.241 256.897Z" fill="#292929"/>
<path d="M134 262C129.451 262 125.004 263.085 121.222 265.118C117.44 267.151 114.492 270.04 112.751 273.42C111.01 276.801 110.554 280.521 111.442 284.109C112.329 287.698 114.52 290.994 117.737 293.581C120.953 296.169 125.051 297.931 129.513 298.645C133.974 299.358 138.599 298.992 142.802 297.592C147.004 296.192 150.597 293.82 153.124 290.778C155.651 287.736 157 284.159 157 280.5L134 280.5L134 262Z" fill="#373737"/>
<path d="M160 277.5C160 275.071 159.405 272.665 158.249 270.42C157.093 268.176 155.399 266.136 153.263 264.419C151.128 262.701 148.592 261.338 145.802 260.408C143.011 259.479 140.02 259 137 259L137 277.5L160 277.5Z" fill="#B7B7B7"/>
</svg>
