<svg width="603" height="603" viewBox="0 0 603 603" fill="none" xmlns="http://www.w3.org/2000/svg">
<path d="M274.645 347.489C274.645 347.489 271.649 336.693 242.563 342.955C212.162 349.499 210.478 367.825 210.478 367.825C205.652 372.058 240.947 380.57 245.158 376.151C245.657 375.625 264.632 362.979 265.284 362.917C266.854 362.762 276.929 348.228 274.645 347.489Z" fill="#61757B"/>
<path d="M195.81 314.093C198.06 308.746 204.175 312.269 204.175 312.269C204.175 312.269 202.042 305.48 207.72 303.473C211.396 302.175 214.544 308.442 214.544 308.442C214.544 308.442 213.634 305.8 212.822 302.882C212.115 300.347 213.495 297.701 215.969 296.806C215.998 296.796 216.025 296.787 216.054 296.775C218.48 295.892 221.184 296.982 222.303 299.31C223.543 301.883 224.583 304.281 224.583 304.281C224.457 296.427 231.997 293.567 234.838 302.356C236.727 308.196 250.661 330.357 250.661 330.357L258.548 338.978C258.435 345.512 270.543 365.792 270.543 365.792L228.883 385.85C228.883 385.85 214.032 362.637 210.123 356.313C204.659 347.48 193.557 319.44 195.81 314.093Z" fill="#F2BD96"/>
<path d="M228.885 386.641C228.622 386.641 228.369 386.511 228.219 386.277C228.069 386.046 213.32 362.987 209.451 356.728C204.34 348.462 192.601 319.679 195.083 313.787C195.763 312.168 196.834 311.105 198.264 310.625C199.977 310.048 201.824 310.463 203.074 310.914C202.695 308.126 203.289 304.204 207.459 302.73C209.34 302.065 211.048 302.964 212.379 304.209C212.273 303.847 212.167 303.476 212.063 303.099C211.253 300.188 212.852 297.098 215.703 296.068L216.055 296.782L215.785 296.039C218.61 295.012 221.719 296.273 223.019 298.975C223.417 299.8 223.793 300.608 224.123 301.329C224.818 298.572 226.552 296.606 228.829 296.228C231.056 295.854 234.005 297.212 235.592 302.122C237.382 307.656 250.487 328.601 251.292 329.885L259.131 338.452C259.269 338.602 259.341 338.797 259.339 339C259.23 345.235 271.102 365.194 271.223 365.394C271.336 365.585 271.365 365.814 271.3 366.026C271.237 366.238 271.085 366.414 270.885 366.511L229.225 386.569C229.116 386.615 228.998 386.641 228.885 386.641ZM196.54 314.4C194.557 319.11 204.871 346.315 210.795 355.896C214.309 361.578 226.83 381.171 229.172 384.832L269.426 365.452C267.245 361.733 257.983 345.575 257.761 339.287L250.077 330.89C250.045 330.854 250.016 330.818 249.99 330.777C249.418 329.868 235.983 308.466 234.085 302.6C233.016 299.293 231.104 297.443 229.085 297.781C227.194 298.094 225.313 300.424 225.373 304.269C225.378 304.645 225.117 304.976 224.748 305.055C224.382 305.133 224.005 304.942 223.856 304.597C223.846 304.573 222.806 302.183 221.588 299.655C220.643 297.692 218.378 296.773 216.321 297.523L216.236 297.554C214.157 298.307 212.99 300.555 213.581 302.675C214.377 305.535 215.279 308.162 215.288 308.189C215.423 308.582 215.23 309.014 214.847 309.175C214.463 309.337 214.02 309.175 213.834 308.804C213.805 308.748 210.901 303.189 207.98 304.223C203.1 305.948 204.849 311.79 204.926 312.038C205.023 312.349 204.919 312.687 204.666 312.89C204.413 313.092 204.06 313.121 203.778 312.96C203.749 312.943 200.973 311.38 198.759 312.127C197.77 312.46 197.044 313.203 196.54 314.4Z" fill="#898989"/>
<path d="M224.582 304.285C224.582 304.285 228.718 316.224 232.662 322.049L224.582 304.285Z" fill="white"/>
<path d="M232.664 322.84C232.411 322.84 232.163 322.719 232.008 322.492C228.05 316.646 224.005 305.034 223.834 304.542C223.692 304.13 223.909 303.679 224.321 303.536C224.734 303.392 225.185 303.611 225.327 304.024C225.368 304.142 229.476 315.932 233.316 321.605C233.559 321.966 233.465 322.459 233.103 322.702C232.971 322.796 232.816 322.84 232.664 322.84Z" fill="#898989"/>
<path d="M214.542 308.442C214.542 308.442 217.055 316.826 222.897 325.014L214.542 308.442Z" fill="white"/>
<path d="M222.896 325.806C222.65 325.806 222.406 325.69 222.252 325.473C216.4 317.27 213.887 309.016 213.781 308.669C213.655 308.251 213.892 307.81 214.311 307.684C214.731 307.559 215.17 307.795 215.295 308.215C215.32 308.297 217.845 316.578 223.537 324.556C223.79 324.911 223.708 325.405 223.351 325.659C223.216 325.758 223.055 325.806 222.896 325.806Z" fill="#898989"/>
<path d="M204.173 312.271C204.173 312.271 206.93 321.545 211.874 328.13L204.173 312.271Z" fill="white"/>
<path d="M211.875 328.917C211.633 328.917 211.397 328.808 211.24 328.601C206.269 321.98 203.529 312.877 203.416 312.493C203.29 312.074 203.529 311.635 203.949 311.509C204.366 311.384 204.807 311.623 204.933 312.042C204.959 312.134 207.711 321.261 212.507 327.65C212.769 328 212.697 328.495 212.35 328.757C212.205 328.866 212.039 328.917 211.875 328.917Z" fill="#898989"/>
<path d="M372.535 333.694C372.535 333.694 348.095 337.438 337.959 340.621C327.822 343.808 288.856 395.921 288.856 395.921L274.642 347.488C262.461 371.57 228.315 379.522 210.478 367.826C210.478 367.826 237.063 454.2 273.021 462.698C314.963 472.609 366.578 400.408 366.578 400.408L372.535 333.694Z" fill="#9CB4BC"/>
<path d="M273.021 463.487C272.961 463.487 272.9 463.479 272.838 463.465C257.685 459.883 242.449 442.712 227.555 412.422C216.513 389.971 209.788 368.273 209.723 368.058C209.624 367.74 209.737 367.393 210.003 367.195C210.268 366.995 210.632 366.982 210.912 367.166C219.137 372.559 231.308 373.84 243.472 370.591C257.14 366.939 268.243 358.389 273.938 347.134C274.085 346.842 274.403 346.669 274.721 346.705C275.047 346.736 275.317 346.965 275.406 347.279L292.274 407.671C292.392 408.09 292.146 408.527 291.724 408.645C291.304 408.763 290.867 408.517 290.749 408.095L274.413 349.597C268.286 360.388 257.271 368.543 243.882 372.12C232.159 375.251 220.386 374.291 211.879 369.595C216.148 382.566 241.122 454.35 273.204 461.931C273.629 462.032 273.892 462.457 273.793 462.881C273.704 463.241 273.38 463.487 273.021 463.487Z" fill="#61757B"/>
<path d="M399.475 329.797C409.661 329.459 431.456 330.554 447.857 333.697C459.893 336.003 468.634 346.469 468.757 358.724L470.287 511.966C470.287 527.798 328.666 527.798 328.666 511.966L340.868 360.68C341.274 349.332 349.064 339.585 360.049 336.702C375.466 332.655 389.639 330.123 399.475 329.797Z" fill="#9CB4BC"/>
<path d="M328.667 512.752C328.645 512.752 328.624 512.752 328.602 512.75C328.168 512.714 327.842 512.333 327.878 511.899L340.081 360.613C340.114 360.179 340.495 359.846 340.932 359.889C341.366 359.926 341.692 360.307 341.656 360.741L329.453 512.026C329.422 512.439 329.075 512.752 328.667 512.752Z" fill="#61757B"/>
<path d="M423.995 423.594L407.714 413.227C407.714 413.227 402.021 399.997 389.706 393.14C375.168 385.045 368.697 392.216 368.697 392.216C368.697 392.216 341.331 375.397 336.48 379.676C331.629 383.955 342.896 392.534 345.296 394.464C347.693 396.391 355.323 402.19 355.323 402.19C355.323 402.19 345.933 407.86 353.909 414.908C353.909 414.908 347.959 421.65 356.309 427.836C356.309 427.836 353.014 433.119 361.389 439.537C369.763 445.955 384.264 447.222 388.27 445.789C392.277 444.356 395.49 442.525 395.49 442.525L407.147 452.27L423.995 423.594Z" fill="#F2BD96"/>
<path d="M407.147 453.058C406.964 453.058 406.783 452.993 406.641 452.874L395.398 443.477C394.347 444.044 391.701 445.402 388.539 446.533C384.031 448.142 369.262 446.562 360.909 440.163C353.683 434.628 354.645 429.789 355.323 428.074C352.791 426.053 351.372 423.762 351.109 421.258C350.808 418.392 352.11 416.062 352.846 415.001C350.711 412.932 349.73 410.754 349.932 408.52C350.207 405.481 352.617 403.216 353.982 402.164C351.913 400.589 346.698 396.607 344.8 395.08L344.418 394.777C340.207 391.421 334.594 386.486 334.491 382.357C334.459 381.072 334.951 379.969 335.957 379.082C340.868 374.752 364.038 388.459 368.596 391.226C370.401 389.685 377.217 385.28 390.092 392.449C401.761 398.947 407.504 410.838 408.341 412.688L424.42 422.927C424.779 423.156 424.892 423.626 424.678 423.995L407.827 452.672C407.709 452.872 407.509 453.009 407.28 453.05C407.237 453.055 407.191 453.058 407.147 453.058ZM395.49 441.733C395.671 441.733 395.852 441.796 395.997 441.917L406.937 451.063L422.927 423.851L407.29 413.894C407.157 413.81 407.051 413.684 406.988 413.539C406.933 413.409 401.248 400.471 389.32 393.831C375.569 386.178 369.53 392.478 369.281 392.75C369.026 393.028 368.604 393.088 368.283 392.89C357.894 386.506 340.217 377.432 337.002 380.268C336.355 380.838 336.051 381.508 336.071 382.316C336.167 386.185 343.118 391.718 345.403 393.537L345.788 393.845C348.15 395.744 355.721 401.499 355.798 401.557C356.006 401.716 356.121 401.967 356.109 402.227C356.095 402.488 355.953 402.726 355.731 402.862C355.692 402.886 351.806 405.283 351.505 408.665C351.336 410.546 352.323 412.447 354.431 414.311C354.759 414.601 354.79 415.1 354.501 415.428C354.481 415.452 352.339 417.944 352.682 421.106C352.921 423.31 354.298 425.361 356.78 427.199C357.11 427.445 357.2 427.903 356.98 428.253C356.867 428.441 354.223 433.048 361.872 438.906C370.155 445.255 384.443 446.319 388.006 445.043C391.894 443.653 395.068 441.854 395.099 441.837C395.22 441.767 395.355 441.733 395.49 441.733Z" fill="#898989"/>
<path d="M368.696 392.215C368.696 392.215 376.861 399.179 377.925 399.634C380.6 400.78 383.914 398.633 383.914 398.633" fill="#D1A483"/>
<path d="M379.661 400.764C378.981 400.764 378.286 400.65 377.616 400.363C376.526 399.895 370.124 394.471 368.187 392.819C367.855 392.534 367.816 392.037 368.098 391.704C368.38 391.371 368.88 391.333 369.213 391.615C373.146 394.97 377.599 398.617 378.241 398.911C380.489 399.871 383.455 397.99 383.487 397.971C383.853 397.734 384.343 397.838 384.579 398.207C384.816 398.574 384.712 399.061 384.345 399.3C384.227 399.372 382.049 400.764 379.661 400.764Z" fill="#898989"/>
<path d="M355.32 402.187C355.32 402.187 359.874 404.261 363.726 405.455L355.32 402.187Z" fill="white"/>
<path d="M363.727 406.248C363.65 406.248 363.57 406.236 363.493 406.212C359.636 405.018 355.181 402.992 354.993 402.907C354.595 402.726 354.419 402.256 354.602 401.86C354.783 401.462 355.254 401.289 355.649 401.47C355.695 401.491 360.203 403.539 363.961 404.704C364.378 404.834 364.612 405.276 364.482 405.693C364.376 406.028 364.065 406.248 363.727 406.248Z" fill="#898989"/>
<path d="M353.908 414.905C353.908 414.905 358.281 417.84 363.414 417.857L353.908 414.905Z" fill="white"/>
<path d="M363.414 418.648H363.412C358.1 418.629 353.655 415.686 353.467 415.561C353.105 415.317 353.009 414.828 353.25 414.464C353.491 414.099 353.983 414.003 354.347 414.246C354.388 414.275 358.595 417.049 363.416 417.066C363.853 417.069 364.205 417.423 364.205 417.86C364.203 418.296 363.848 418.648 363.414 418.648Z" fill="#898989"/>
<path d="M356.31 427.835C356.31 427.835 359.479 428.956 362.839 429.383L356.31 427.835Z" fill="white"/>
<path d="M362.837 430.172C362.804 430.172 362.77 430.17 362.736 430.165C359.333 429.733 356.175 428.623 356.043 428.578C355.63 428.43 355.416 427.979 355.56 427.569C355.707 427.157 356.158 426.942 356.568 427.087C356.6 427.097 359.704 428.187 362.934 428.597C363.368 428.652 363.674 429.048 363.619 429.482C363.571 429.88 363.23 430.172 362.837 430.172Z" fill="#898989"/>
<path d="M511.321 499.805C495.715 499.805 474.55 494.457 448.093 483.806C420.671 472.766 397.484 459.831 397.252 459.7C396.879 459.49 396.739 459.023 396.939 458.641L423.408 408.264C423.596 407.91 424.021 407.751 424.397 407.895L489.263 433.224L450.338 389.002C448.452 386.573 446.752 384.031 445.251 381.407C445.034 381.028 445.167 380.546 445.546 380.329C445.924 380.112 446.407 380.244 446.624 380.623C448.088 383.182 449.747 385.662 451.556 387.996L492.601 434.623C492.842 434.898 492.864 435.301 492.657 435.6C492.447 435.899 492.061 436.014 491.721 435.884L424.482 409.63L398.7 458.695C407.154 463.33 492.01 509.004 526.673 495.806C527.081 495.651 527.539 495.854 527.693 496.264C527.848 496.671 527.643 497.13 527.235 497.284C522.816 498.963 517.505 499.805 511.321 499.805Z" fill="#61757B"/>
<path d="M295.455 226.838C300.508 242.085 316.972 250.358 332.226 245.3C340.542 258.667 345.34 273.359 346.811 289.302C269.757 323.239 189.985 349.373 107.782 368.536C98.3317 354.452 92.8661 339.86 93.1966 324.534C108.443 319.481 116.714 303.012 111.658 287.763C106.602 272.51 90.1358 264.246 74.8871 269.302C67.5739 255.117 62.3495 240.519 60.2993 225.292C138.887 195.596 218.563 169.184 299.329 146.058C306.984 158.084 312.117 172.498 313.916 190.067C298.663 195.125 290.397 211.585 295.455 226.838Z" fill="#F1F0EC"/>
<path d="M295.453 226.838C300.507 242.084 316.971 250.357 332.224 245.299C340.541 258.666 345.338 273.358 346.81 289.301L301.5 308.536L295.453 310.701L241.958 162.928C299.876 145.066 299.327 146.057 299.327 146.057C306.983 158.084 312.116 172.498 313.915 190.067C298.661 195.125 290.395 211.584 295.453 226.838Z" fill="#094446"/>
<path d="M145.019 256.569C142.64 249.396 142.455 243.557 144.457 239.053C146.461 234.55 150.156 231.405 155.545 229.618C161.116 227.77 166.046 228.045 170.337 230.443C174.628 232.84 177.969 237.642 180.359 244.852C182.737 252.025 182.923 257.865 180.921 262.368C178.917 266.871 175.222 270.016 169.833 271.804C164.261 273.651 159.331 273.376 155.04 270.979C150.749 268.581 147.409 263.779 145.019 256.569ZM156.943 252.493C158.67 257.701 160.429 260.998 162.223 262.382C163.567 263.39 165.041 263.629 166.645 263.099C168.282 262.556 169.341 261.478 169.816 259.864C170.39 257.693 169.814 254.005 168.087 248.798C166.36 243.59 164.626 240.308 162.879 238.945C161.521 237.9 160.026 237.647 158.386 238.192C156.782 238.723 155.745 239.796 155.27 241.407C154.659 243.593 155.219 247.288 156.943 252.493ZM195.244 310.241L183.883 314.006L198.531 215.368L209.564 211.711L195.244 310.241ZM213.071 280.993C210.692 273.82 210.504 267.98 212.509 263.477C214.511 258.974 218.244 255.817 223.708 254.008C229.205 252.184 234.103 252.481 238.399 254.895C242.695 257.312 246.033 262.105 248.411 269.278C250.802 276.488 250.995 282.344 248.993 286.847C246.988 291.35 243.293 294.496 237.905 296.283C232.333 298.13 227.398 297.846 223.102 295.429C218.804 293.015 215.461 288.203 213.071 280.993ZM225.015 276.972C226.742 282.18 228.495 285.458 230.276 286.809C231.631 287.855 233.112 288.111 234.714 287.58C236.351 287.038 237.391 285.967 237.83 284.365C238.44 282.182 237.883 278.487 236.156 273.28C234.429 268.072 232.688 264.77 230.932 263.371C229.586 262.363 228.095 262.129 226.457 262.672C224.82 263.214 223.78 264.288 223.341 265.887C222.731 268.07 223.288 271.765 225.015 276.972Z" fill="#575757"/>
<path d="M436.645 334.119C436.645 334.119 427.539 293.933 434.631 272.215L389.215 284.676L388.284 334.363C397.512 339.968 415.356 341.69 436.645 334.119Z" fill="#F2BD96"/>
<path d="M409.506 339.951C399.887 339.951 392.434 337.807 387.875 335.038C387.634 334.891 387.489 334.628 387.494 334.348L388.425 284.659C388.432 284.309 388.668 284.003 389.006 283.911L434.422 271.451C434.701 271.373 435.003 271.458 435.203 271.668C435.403 271.877 435.473 272.181 435.382 272.459C428.44 293.721 437.323 333.545 437.415 333.943C437.504 334.334 437.287 334.729 436.908 334.862C426.607 338.528 417.337 339.951 409.506 339.951ZM389.086 333.916C397.142 338.572 413.961 341.174 435.724 333.605C434.542 328.152 427.552 293.926 433.457 273.356L390 285.279L389.086 333.916Z" fill="#898989"/>
<path d="M384.904 306.758C378.826 306.758 372.128 305.545 366.764 301.471C351.491 289.872 348.092 270.014 356.939 244.046C363.568 224.588 374.844 208.334 374.957 208.172C375.116 207.946 375.384 207.818 375.661 207.837L428.627 211.525C428.87 211.542 429.092 211.67 429.227 211.872C434.951 220.375 444.37 234.056 445.94 235.565C445.983 235.578 446.027 235.594 446.07 235.614C446.753 235.942 446.753 235.942 444.599 244.208C443.405 248.79 441.786 254.888 440.158 260.981C436.905 273.166 433.617 285.335 433.617 285.335C433.504 285.757 433.067 286.003 432.647 285.892C432.225 285.779 431.977 285.344 432.09 284.922C436.941 266.972 444.102 240.209 444.879 236.641C443.564 235.332 439.905 230.553 428.13 213.074L376.002 209.444C374.306 211.952 364.431 226.943 358.425 244.584C349.708 270.192 352.834 288.907 367.719 300.212C378.377 308.307 394.856 304.414 399.651 303.027C400.071 302.906 400.51 303.147 400.63 303.567C400.751 303.987 400.51 304.426 400.09 304.546C397.492 305.296 391.571 306.758 384.904 306.758Z" fill="#F2BD96"/>
<path d="M429.981 287.185C428.596 287.185 427.183 287.057 425.76 286.794C425.33 286.714 425.046 286.302 425.125 285.872C425.205 285.443 425.613 285.159 426.047 285.238C432.856 286.49 439.421 284.457 443.182 279.925C446.351 276.104 446.988 271.128 444.976 265.911C443.852 262.992 442.101 261.183 439.776 260.534C433.881 258.887 426.003 264.903 425.924 264.963C425.579 265.231 425.082 265.165 424.814 264.821C424.547 264.476 424.609 263.979 424.957 263.711C425.304 263.443 433.536 257.153 440.198 259.008C443.035 259.799 445.138 261.929 446.452 265.339C448.679 271.116 447.95 276.651 444.4 280.933C441.069 284.949 435.774 287.185 429.981 287.185Z" fill="#A87550"/>
<path d="M433.829 267.602C435.6 268.938 436.61 271.217 436.412 273.427C436.215 275.636 434.816 277.701 432.835 278.702" fill="white"/>
<path d="M388.287 315.713L372.739 334.512L388.287 358.849L403.844 338.948L388.287 315.713Z" fill="white"/>
<path d="M388.289 359.642C388.277 359.642 388.265 359.642 388.25 359.642C387.994 359.63 387.76 359.495 387.621 359.278L372.073 334.941C371.887 334.651 371.911 334.275 372.131 334.012L387.678 315.211C387.838 315.018 388.081 314.909 388.327 314.926C388.576 314.938 388.805 315.068 388.945 315.276L404.502 338.511C404.693 338.795 404.678 339.169 404.468 339.437L388.911 359.341C388.761 359.531 388.532 359.642 388.289 359.642ZM373.72 334.574L388.356 357.483L402.874 338.911L388.224 317.034L373.72 334.574Z" fill="#898989"/>
<path d="M403.847 338.949L415.497 363.219L444.146 333.747L433.948 318.925L403.847 338.949Z" fill="white"/>
<path d="M415.494 364.009C415.45 364.009 415.409 364.006 415.366 363.999C415.11 363.958 414.893 363.794 414.78 363.56L403.13 339.288C402.959 338.933 403.077 338.506 403.405 338.287L433.507 318.263C433.866 318.024 434.351 318.115 434.597 318.472L444.797 333.297C445.012 333.608 444.976 334.025 444.713 334.295L416.063 363.767C415.911 363.924 415.706 364.009 415.494 364.009ZM404.855 339.225L415.718 361.855L443.126 333.658L433.736 320.011L404.855 339.225Z" fill="#898989"/>
<path d="M261.07 349.437C259.14 341.372 260.894 312.985 252.804 311.335C236.453 308.002 241.376 345.448 241.376 345.448" fill="#F2BD96"/>
<path d="M261.069 350.228C260.712 350.228 260.386 349.984 260.299 349.622C259.706 347.14 259.458 342.924 259.173 338.042C258.558 327.536 257.716 313.146 252.644 312.111C250.106 311.592 248.063 312.096 246.399 313.647C238.997 320.546 242.125 345.1 242.156 345.348C242.214 345.782 241.908 346.178 241.476 346.236C241.04 346.291 240.646 345.987 240.589 345.556C240.451 344.514 237.325 319.945 245.321 312.492C247.357 310.594 249.928 309.945 252.96 310.562C259.224 311.841 260.034 325.712 260.75 337.951C261.033 342.758 261.274 346.909 261.836 349.256C261.937 349.68 261.677 350.107 261.25 350.208C261.192 350.22 261.132 350.228 261.069 350.228Z" fill="#F2BD96"/>
<path d="M165.557 432.143C161.867 431.993 159.163 431.072 157.451 429.376C155.738 427.683 154.937 425.45 155.048 422.678C155.164 419.813 156.143 417.603 157.979 416.055C159.814 414.506 162.588 413.807 166.298 413.959C169.988 414.108 172.692 415.032 174.405 416.725C176.119 418.419 176.918 420.652 176.807 423.426C176.691 426.291 175.714 428.501 173.876 430.049C172.041 431.595 169.267 432.295 165.557 432.143ZM198.771 418.436L198.532 424.28L155.95 400.558L156.182 394.88L198.771 418.436ZM165.753 425.985C168.432 426.094 170.244 425.86 171.187 425.278C171.879 424.837 172.243 424.205 172.277 423.38C172.311 422.536 172.002 421.868 171.346 421.371C170.454 420.734 168.666 420.36 165.987 420.252C163.307 420.143 161.505 420.37 160.581 420.932C159.87 421.371 159.496 422.013 159.462 422.857C159.428 423.682 159.74 424.34 160.396 424.837C161.288 425.493 163.073 425.877 165.753 425.985ZM188.469 405.237C184.779 405.088 182.075 404.166 180.362 402.471C178.65 400.777 177.849 398.525 177.962 395.715C178.078 392.885 179.057 390.698 180.905 389.149C182.752 387.601 185.519 386.901 189.209 387.053C192.919 387.205 195.633 388.126 197.345 389.82C199.06 391.513 199.861 393.746 199.747 396.518C199.629 399.386 198.65 401.593 196.802 403.139C194.957 404.69 192.181 405.387 188.469 405.237ZM188.693 399.079C191.373 399.188 193.175 398.951 194.098 398.37C194.81 397.931 195.184 397.299 195.218 396.474C195.251 395.63 194.94 394.972 194.287 394.494C193.394 393.838 191.607 393.457 188.927 393.348C186.247 393.24 184.438 393.467 183.495 394.029C182.801 394.47 182.436 395.112 182.403 395.956C182.369 396.8 182.68 397.458 183.336 397.936C184.229 398.587 186.013 398.971 188.693 399.079Z" fill="#094446"/>
<path d="M495.947 280.142C496.811 276.551 498.236 274.078 500.231 272.725C502.224 271.372 504.57 271.02 507.269 271.666C510.058 272.337 512.036 273.721 513.198 275.825C514.361 277.925 514.51 280.781 513.642 284.392C512.778 287.983 511.353 290.456 509.358 291.811C507.364 293.164 505.019 293.517 502.32 292.87C499.532 292.2 497.554 290.815 496.391 288.712C495.229 286.609 495.082 283.753 495.947 280.142ZM502.962 315.381L497.272 314.016L528.792 276.835L534.318 278.162L502.962 315.381ZM501.949 281.527C501.321 284.134 501.203 285.957 501.589 286.995C501.886 287.759 502.438 288.239 503.241 288.432C504.061 288.63 504.778 288.454 505.391 287.906C506.189 287.154 506.9 285.473 507.528 282.865C508.152 280.258 508.28 278.446 507.906 277.431C507.612 276.647 507.055 276.157 506.235 275.96C505.432 275.767 504.722 275.943 504.112 276.49C503.297 277.24 502.576 278.919 501.949 281.527ZM517.906 307.834C518.767 304.243 520.195 301.77 522.19 300.415C524.182 299.062 526.549 298.712 529.281 299.371C532.033 300.031 533.992 301.418 535.152 303.529C536.312 305.639 536.462 308.49 535.601 312.084C534.732 315.695 533.302 318.177 531.31 319.53C529.318 320.883 526.971 321.235 524.272 320.589C521.483 319.918 519.506 318.529 518.345 316.419C517.188 314.303 517.038 311.445 517.906 307.834ZM523.903 309.245C523.275 311.853 523.16 313.666 523.55 314.684C523.845 315.468 524.392 315.958 525.195 316.151C526.015 316.349 526.725 316.17 527.318 315.62C528.136 314.872 528.854 313.194 529.482 310.586C530.106 307.979 530.237 306.158 529.867 305.126C529.568 304.359 529.011 303.879 528.189 303.681C527.369 303.483 526.66 303.661 526.066 304.211C525.248 304.959 524.53 306.638 523.903 309.245Z" fill="#094446"/>
<path d="M319.371 146.642L352.806 79.1641L388.499 114.169L319.371 146.642Z" fill="#4285F4"/>
<path d="M333.85 156.894L364.25 143.008L364.663 157.818L333.85 156.894Z" fill="#D4DCE8"/>
<path d="M298.46 97.1821L308.393 131.821L331.635 93.9862L298.46 97.1821Z" fill="white"/>
<path d="M308.393 132.613C308.357 132.613 308.323 132.61 308.287 132.605C307.976 132.562 307.72 132.342 307.633 132.039L297.7 97.3998C297.635 97.1731 297.674 96.9295 297.807 96.7365C297.939 96.5411 298.151 96.4181 298.385 96.394L331.562 93.1981C331.859 93.174 332.151 93.3139 332.308 93.5672C332.467 93.8204 332.467 94.1436 332.31 94.3993L309.066 132.234C308.921 132.47 308.663 132.613 308.393 132.613ZM299.48 97.8774L308.656 129.877L330.13 94.9251L299.48 97.8774Z" fill="#898989"/>
<path d="M319.371 146.642L352.806 79.1641L388.499 114.169L319.371 146.642Z" fill="#04888C"/>
<path d="M333.85 156.894L364.25 143.008L364.663 157.818L333.85 156.894Z" fill="#E3E3E3"/>
<path d="M298.46 97.1821L308.393 131.821L331.635 93.9862L298.46 97.1821Z" fill="white"/>
<path d="M308.393 132.613C308.357 132.613 308.323 132.61 308.287 132.605C307.976 132.562 307.72 132.342 307.633 132.039L297.7 97.3998C297.635 97.1731 297.674 96.9295 297.807 96.7365C297.939 96.5411 298.151 96.4181 298.385 96.394L331.562 93.1981C331.859 93.174 332.151 93.3139 332.308 93.5672C332.467 93.8204 332.467 94.1436 332.31 94.3993L309.066 132.234C308.921 132.47 308.663 132.613 308.393 132.613ZM299.48 97.8774L308.656 129.877L330.13 94.9251L299.48 97.8774Z" fill="#898989"/>
<path d="M233.182 512.741C227.661 512.741 222.086 512.422 216.606 511.607C199.141 509.012 184.597 501.52 175.388 490.427C166.512 491.17 158.424 490.326 151.258 487.902C139.263 483.845 130.016 475.135 126.521 464.602C121.812 450.422 127.384 435.687 134.022 420.58C134.198 420.18 134.666 419.999 135.064 420.175C135.464 420.351 135.645 420.817 135.469 421.217C128.959 436.032 123.491 450.458 128.021 464.105C131.361 474.168 140.238 482.504 151.765 486.404C158.441 488.662 165.952 489.506 174.196 488.934C174.158 488.883 174.119 488.833 174.08 488.782C169.99 483.394 166.992 475.54 170.853 469.66C174.423 464.221 182.059 463.444 188.012 464.53C193.755 465.576 200.62 469.081 201.073 475.511C201.322 479.03 199.344 482.716 195.909 485.128C192.889 487.248 189.24 488.203 185.747 488.92C182.863 489.511 180.048 489.952 177.308 490.249C186.297 500.587 200.202 507.574 216.84 510.046C233.5 512.521 251.153 510.353 265.338 508.609C265.77 508.558 266.166 508.865 266.219 509.296C266.272 509.73 265.963 510.124 265.531 510.177C255.888 511.358 244.656 512.741 233.182 512.741ZM183.369 465.682C178.986 465.682 174.522 466.949 172.175 470.526C168.767 475.716 171.574 482.866 175.339 487.825C175.583 488.145 175.832 488.464 176.082 488.777C179.105 488.493 182.223 488.022 185.429 487.366C188.755 486.686 192.216 485.784 195 483.83C197.337 482.188 199.744 479.17 199.493 475.62C199.129 470.446 193.321 467.103 187.728 466.083C186.343 465.83 184.86 465.682 183.369 465.682Z" fill="#094446"/>
<path d="M399.874 303.787C389.859 306.681 376.154 307.607 367.242 300.842C330.613 273.024 375.607 208.626 375.607 208.626L428.572 212.314C428.572 212.314 445.212 237.032 445.721 236.335C446.228 235.638 432.856 285.13 432.856 285.13" fill="#F2BD96"/>
<path d="M430.355 285.141C430.355 285.141 429.629 262.987 426.419 267.186C426.419 267.186 394.588 262.975 410.642 235.066C410.642 235.066 381.462 244.265 373.066 231.667L360.183 240.818C360.183 240.818 349.592 231.544 350.704 217.468C351.816 203.389 367.622 206.725 367.622 206.725C367.622 206.725 364.78 196.722 373.673 189.807C382.564 182.892 395.656 195.736 395.656 195.736C395.656 195.736 395.41 184.004 407.265 184.621C419.12 185.239 441.598 209.938 444.068 230.686C444.068 230.686 467.158 231.139 469.628 247.934C472.097 264.729 451.726 279.835 451.726 279.835C451.726 279.835 468.624 294.676 432.936 305.667L430.355 285.141Z" fill="#353535"/>
<path d="M395.055 255.723C394.826 255.723 394.599 255.624 394.442 255.434C393.677 254.5 392.57 253.854 391.326 253.613C390.067 253.369 388.714 253.55 387.522 254.124C387.129 254.312 386.656 254.148 386.468 253.753C386.28 253.36 386.444 252.887 386.839 252.699C388.335 251.98 390.035 251.753 391.627 252.062C393.234 252.373 394.669 253.215 395.667 254.433C395.945 254.771 395.894 255.27 395.556 255.545C395.409 255.663 395.231 255.723 395.055 255.723Z" fill="#A87550"/>
<path d="M392.342 261.031C391.99 263.236 390.461 264.823 388.919 264.577C387.388 264.331 386.428 262.343 386.78 260.136C387.132 257.941 388.661 256.352 390.202 256.6C391.732 256.849 392.692 258.836 392.342 261.031Z" fill="#A87550"/>
<path d="M372.891 251.708C372.662 251.708 372.435 251.609 372.278 251.419C371.514 250.485 370.407 249.839 369.162 249.597C367.92 249.356 366.533 249.544 365.358 250.109C364.965 250.297 364.493 250.133 364.304 249.737C364.116 249.344 364.28 248.871 364.676 248.683C366.174 247.965 367.874 247.738 369.464 248.047C371.07 248.358 372.505 249.199 373.504 250.418C373.781 250.755 373.73 251.254 373.393 251.529C373.246 251.648 373.067 251.708 372.891 251.708Z" fill="#A87550"/>
<path d="M370.178 257.018C369.826 259.223 368.297 260.81 366.756 260.564C365.224 260.318 364.264 258.33 364.616 256.123C364.968 253.928 366.498 252.339 368.039 252.587C369.568 252.836 370.53 254.823 370.178 257.018Z" fill="#A87550"/>
<path d="M378.796 292.922C377.923 292.922 377.016 292.765 376.155 292.343C375.764 292.15 375.6 291.677 375.793 291.284C375.983 290.893 376.459 290.729 376.852 290.922C378.328 291.646 380.081 291.299 381.292 290.881C385.549 289.415 388.757 285.254 389.095 280.763C389.126 280.326 389.505 280.001 389.942 280.035C390.378 280.066 390.704 280.447 390.67 280.881C390.287 285.983 386.642 290.71 381.806 292.374C380.969 292.666 379.91 292.922 378.796 292.922Z" fill="#A87550"/>
<path d="M377.345 276.929C377.297 276.929 377.249 276.924 377.198 276.915C374.094 276.334 371.779 273.188 372.143 270.05C372.408 267.766 373.875 265.914 375.165 264.278C376.622 262.433 377.895 260.75 378.701 258.822C379.593 256.688 379.716 254.568 379.046 252.85C378.887 252.443 379.089 251.984 379.494 251.825C379.902 251.666 380.36 251.869 380.52 252.274C381.337 254.375 381.209 256.915 380.16 259.43C379.277 261.543 377.936 263.321 376.405 265.258C375.187 266.799 373.925 268.393 373.711 270.231C373.443 272.535 375.208 274.93 377.488 275.359C377.917 275.439 378.199 275.854 378.12 276.283C378.05 276.664 377.717 276.929 377.345 276.929Z" fill="#A87550"/>
<path d="M425.439 264.338C425.439 264.338 440.671 252.546 445.712 265.626C450.755 278.706 439.134 288.453 425.902 286.017" fill="#F2BD96"/>
<path d="M432.833 279.492C432.543 279.492 432.266 279.332 432.126 279.057C431.928 278.667 432.085 278.191 432.476 277.994C434.212 277.116 435.447 275.295 435.621 273.355C435.795 271.416 434.902 269.405 433.349 268.232C432.999 267.969 432.932 267.473 433.195 267.125C433.458 266.775 433.954 266.708 434.302 266.971C436.282 268.466 437.416 271.028 437.196 273.498C436.974 275.968 435.402 278.288 433.187 279.407C433.074 279.465 432.953 279.492 432.833 279.492Z" fill="#A87550"/>
<path d="M428.508 392.984C426.232 392.984 424.007 393.659 422.114 394.924C420.222 396.188 418.747 397.986 417.876 400.088C417.005 402.191 416.777 404.505 417.221 406.737C417.665 408.97 418.761 411.02 420.371 412.629C421.98 414.239 424.03 415.335 426.263 415.779C428.495 416.223 430.809 415.995 432.912 415.124C435.014 414.253 436.812 412.778 438.076 410.886C439.341 408.993 440.016 406.768 440.016 404.492L428.508 404.492L428.508 392.984Z" fill="#373737"/>
<path d="M442 402.508C442 400.997 441.702 399.5 441.124 398.104C440.546 396.708 439.698 395.439 438.629 394.371C437.561 393.302 436.292 392.454 434.896 391.876C433.5 391.298 432.003 391 430.492 391L430.492 402.508L442 402.508Z" fill="white"/>
<path d="M447.857 333.694C447.857 333.694 476.948 337.45 496.253 352.124C515.559 366.799 569.043 480.517 526.953 496.543C489.864 510.665 397.639 459.01 397.639 459.01L424.108 408.633L492.006 435.145L450.929 388.48C439.892 374.247 443.722 357.916 446.752 340.161L447.857 333.694Z" fill="#9CB4BC"/>
</svg>
