<svg width="35" height="35" viewBox="0 0 35 35" fill="none" xmlns="http://www.w3.org/2000/svg">
<g clip-path="url(#clip0_404_1386)">
<path d="M35 17.6052C35 26.3392 28.5921 33.5798 20.2271 34.8938V22.6977H24.2944L25.0688 17.6519H20.2271V14.3779C20.2271 12.9969 20.9037 11.6523 23.0708 11.6523H25.2715V7.35606C25.2715 7.35606 23.2735 7.01481 21.3646 7.01481C17.3775 7.01481 14.7729 9.43127 14.7729 13.8048V17.6504H10.341V22.6963H14.7729V34.8923C6.40938 33.5769 0 26.3377 0 17.6052C0 7.94085 7.83563 0.105225 17.5 0.105225C27.1644 0.105225 35 7.93939 35 17.6052Z" fill="#414141"/>
</g>
<defs>
<clipPath id="clip0_404_1386">
<rect width="35" height="35" fill="white"/>
</clipPath>
</defs>
</svg>
