<svg width="20" height="20" viewBox="0 0 20 20" fill="none" xmlns="http://www.w3.org/2000/svg">
<path d="M9.96094 0.136719C7.99858 0.136719 6.08029 0.718626 4.44864 1.80886C2.817 2.89909 1.54529 4.44867 0.794325 6.26166C0.0433615 8.07464 -0.153125 10.0696 0.229713 11.9943C0.612551 13.9189 1.55752 15.6868 2.94512 17.0744C4.33272 18.462 6.10062 19.407 8.02528 19.7898C9.94993 20.1727 11.9449 19.9762 13.7579 19.2252C15.5709 18.4742 17.1204 17.2025 18.2107 15.5709C19.3009 13.9392 19.8828 12.021 19.8828 10.0586C19.88 7.42802 18.8337 4.90601 16.9736 3.04591C15.1135 1.18581 12.5915 0.139564 9.96094 0.136719ZM9.96094 18.3268C8.32564 18.3268 6.72706 17.8419 5.36736 16.9334C4.00766 16.0248 2.9479 14.7335 2.32209 13.2227C1.69629 11.7119 1.53255 10.0494 1.85158 8.44554C2.17062 6.84166 2.95809 5.3684 4.11442 4.21207C5.27075 3.05574 6.74401 2.26827 8.34789 1.94924C9.95177 1.6302 11.6142 1.79394 13.1251 2.41975C14.6359 3.04555 15.9272 4.10531 16.8357 5.46501C17.7442 6.82471 18.2292 8.42329 18.2292 10.0586C18.2268 12.2507 17.3549 14.3524 15.8048 15.9025C14.2547 17.4525 12.1531 18.3244 9.96094 18.3268Z" fill="white"/>
<path d="M10.5523 4.16C10.0757 4.07156 9.58594 4.09088 9.11754 4.2166C8.64913 4.34231 8.21358 4.57135 7.8417 4.8875C7.46982 5.20365 7.17071 5.59919 6.96552 6.04612C6.76033 6.49306 6.65408 6.98046 6.6543 7.47385C6.6543 7.69709 6.74136 7.91118 6.89634 8.06903C7.05131 8.22689 7.2615 8.31557 7.48067 8.31557C7.69983 8.31557 7.91003 8.22689 8.065 8.06903C8.21997 7.91118 8.30704 7.69709 8.30704 7.47385C8.30683 7.2262 8.36027 6.98154 8.46355 6.75734C8.56682 6.53314 8.71739 6.33491 8.90452 6.17678C9.09165 6.01866 9.31072 5.90454 9.54612 5.84255C9.78152 5.78057 10.0274 5.77225 10.2664 5.81819C10.5928 5.88273 10.893 6.04493 11.1285 6.28407C11.364 6.52321 11.5242 6.82842 11.5886 7.16073C11.6536 7.50954 11.6087 7.87036 11.4603 8.19161C11.3118 8.51287 11.0675 8.7781 10.7622 8.94938C10.2566 9.24774 9.83879 9.67875 9.55232 10.1975C9.26585 10.7162 9.12119 11.3037 9.13341 11.8988V12.5242C9.13341 12.7474 9.22047 12.9615 9.37545 13.1194C9.53042 13.2772 9.74061 13.3659 9.95978 13.3659C10.1789 13.3659 10.3891 13.2772 10.5441 13.1194C10.6991 12.9615 10.7861 12.7474 10.7861 12.5242V11.8988C10.7758 11.6059 10.8414 11.3153 10.9763 11.0565C11.1112 10.7976 11.3107 10.5795 11.5547 10.4241C12.1534 10.0891 12.6355 9.57348 12.9348 8.94804C13.234 8.3226 13.3357 7.61808 13.2258 6.93138C13.1159 6.24468 12.7999 5.60952 12.3211 5.11324C11.8424 4.61697 11.2244 4.28395 10.5523 4.16Z" fill="white"/>
<path d="M10.9531 15.0195C10.9531 14.4716 10.5089 14.0273 9.96094 14.0273C9.41297 14.0273 8.96875 14.4716 8.96875 15.0195C8.96875 15.5675 9.41297 16.0117 9.96094 16.0117C10.5089 16.0117 10.9531 15.5675 10.9531 15.0195Z" fill="white"/>
</svg>
