<svg width="332" height="442" viewBox="0 0 332 442" fill="none" xmlns="http://www.w3.org/2000/svg">
<g clip-path="url(#clip0_924_2761)">
<path d="M331.375 122.454H46.3901V417.399H331.375V122.454Z" fill="#094446"/>
<path d="M267.878 122.455V159.314L264.877 157.573L261.38 159.594C261.349 159.608 261.316 159.615 261.282 159.615C261.249 159.615 261.215 159.608 261.184 159.594L257.687 157.573L254.19 159.594C254.159 159.608 254.126 159.615 254.092 159.615C254.059 159.615 254.025 159.608 253.994 159.594L250.497 157.573L249.448 158.181V123.686L231.746 58.6889H136.247L118.475 123.686V159.468L118.293 159.573C118.263 159.587 118.229 159.594 118.195 159.594C118.162 159.594 118.128 159.587 118.098 159.573L114.6 157.552L111.103 159.573C111.073 159.587 111.039 159.594 111.005 159.594C110.972 159.594 110.938 159.587 110.908 159.573L107.41 157.552L103.913 159.573C103.883 159.587 103.849 159.594 103.815 159.594C103.782 159.594 103.748 159.587 103.717 159.573L100.22 157.552L100.018 157.67V122.455L100.339 120.028L119.594 49.9391C120.1 48.0851 121.201 46.4485 122.728 45.281L126.882 42.1127C128.408 40.9515 130.273 40.3226 132.191 40.3221H235.789C237.708 40.3226 239.575 40.9514 241.104 42.1127L245.252 45.281C246.78 46.4481 247.883 48.0845 248.392 49.9391L267.556 120.028L267.878 122.455Z" fill="#094446"/>
<path d="M55.4774 135.444L61.156 128.929L47.3611 123.139C47.3166 123.12 47.2764 123.092 47.2427 123.058C47.209 123.023 47.1825 122.982 47.1647 122.937C47.147 122.893 47.1383 122.845 47.1392 122.797C47.1401 122.749 47.1506 122.701 47.1701 122.657C47.1885 122.613 47.2156 122.574 47.2497 122.54C47.2838 122.507 47.3242 122.481 47.3687 122.463C47.4132 122.445 47.4607 122.437 47.5086 122.437C47.5565 122.438 47.6037 122.449 47.6476 122.468L62.515 128.71L47.1392 122.797L99.3971 123.292C99.4453 123.28 99.4954 123.277 99.5446 123.285C99.5938 123.292 99.641 123.309 99.6837 123.334C99.7263 123.36 99.7635 123.393 99.7931 123.433C99.8227 123.472 99.8441 123.517 99.8562 123.565C99.8682 123.613 99.8707 123.663 99.8634 123.712C99.856 123.761 99.8391 123.808 99.8135 123.85C99.7879 123.892 99.7542 123.929 99.7143 123.958C99.6743 123.988 99.6289 124.009 99.5807 124.021L55.4774 135.444Z" fill="white"/>
<path d="M249.63 125.118L185.66 126.906L119.01 125.118C118.91 125.118 118.814 125.024 118.743 124.856C118.673 124.689 118.633 124.461 118.633 124.224C118.633 123.987 118.673 123.76 118.743 123.593C118.814 123.425 118.91 123.331 119.01 123.331V122.884H185.66H249.56C249.66 122.884 249.826 123.425 249.896 123.593C249.967 123.76 250.007 123.987 250.007 124.224C250.007 124.461 249.967 124.689 249.896 124.856C249.826 125.024 249.73 125.118 249.63 125.118Z" fill="white"/>
<path d="M321.057 417.358C320.939 417.358 320.825 417.275 320.741 417.126C320.657 416.978 320.61 416.777 320.61 416.568V135.738C320.61 135.529 320.657 135.328 320.741 135.18C320.623 135.18 320.825 135.032 320.741 135.18L316.072 130.026C316.072 130.026 330.698 123.317 330.701 123.526V416.626C330.701 416.836 321.457 416.978 321.373 417.126C321.289 417.275 321.176 417.358 321.057 417.358Z" fill="white"/>
<path d="M54.667 417.168C54.7636 417.168 54.8562 417.085 54.9245 416.937C54.9927 416.789 55.0311 416.588 55.0311 416.379V135.735C55.0311 135.525 54.9927 135.324 54.9245 135.176C55.021 135.176 54.8562 135.028 54.9245 135.176L58.7285 130.026C58.7285 130.026 46.8113 123.322 46.8094 123.53V416.437C46.8094 416.647 54.3413 416.789 54.4096 416.937C54.4778 417.085 54.5704 417.168 54.667 417.168Z" fill="white"/>
<rect x="249.713" y="244.691" width="122.722" height="44.777" rx="22.3885" transform="rotate(-180 249.713 244.691)" fill="white"/>
<path d="M164.303 221.181C164.303 219.476 163.967 217.789 163.315 216.214C162.663 214.64 161.707 213.209 160.502 212.004C159.297 210.799 157.866 209.843 156.291 209.191C154.717 208.539 153.029 208.203 151.325 208.203L151.325 221.181L164.303 221.181Z" fill="#AFAFAF"/>
<path d="M149.087 210.444C146.52 210.444 144.011 211.205 141.877 212.631C139.743 214.057 138.079 216.084 137.097 218.455C136.115 220.826 135.858 223.436 136.359 225.953C136.859 228.47 138.095 230.783 139.91 232.598C141.725 234.413 144.038 235.649 146.555 236.149C149.073 236.65 151.682 236.393 154.053 235.411C156.425 234.429 158.451 232.765 159.877 230.631C161.303 228.497 162.065 225.988 162.065 223.421L149.087 223.421L149.087 210.444Z" fill="#373737"/>
<path d="M180.664 219.979H177.877V217.723H186.024V219.979H183.237V227.01H180.664V219.979ZM187.007 219.833H189.528V220.841C189.643 220.691 189.771 220.545 189.913 220.403C190.054 220.262 190.214 220.138 190.391 220.032C190.567 219.926 190.762 219.842 190.974 219.78C191.187 219.709 191.421 219.674 191.677 219.674C192.447 219.674 193.044 219.908 193.469 220.377C193.902 220.846 194.119 221.491 194.119 222.314V227.01H191.598V223.123C191.598 222.725 191.505 222.424 191.319 222.221C191.133 222.017 190.89 221.916 190.59 221.916C190.28 221.916 190.023 222.017 189.82 222.221C189.625 222.424 189.528 222.725 189.528 223.123V227.01H187.007V219.833ZM200.006 222.831C199.962 222.433 199.83 222.119 199.608 221.889C199.387 221.65 199.104 221.531 198.759 221.531C198.423 221.531 198.149 221.65 197.937 221.889C197.725 222.119 197.583 222.433 197.512 222.831H200.006ZM198.972 227.183C198.406 227.183 197.888 227.094 197.419 226.918C196.951 226.732 196.544 226.48 196.199 226.161C195.863 225.834 195.597 225.44 195.403 224.98C195.217 224.521 195.124 224.012 195.124 223.455V223.428C195.124 222.906 195.213 222.42 195.389 221.969C195.566 221.509 195.814 221.111 196.132 220.775C196.46 220.43 196.844 220.16 197.287 219.965C197.729 219.771 198.215 219.674 198.746 219.674C199.365 219.674 199.9 219.78 200.351 219.992C200.811 220.204 201.187 220.492 201.479 220.854C201.78 221.208 202.001 221.624 202.142 222.101C202.293 222.57 202.368 223.07 202.368 223.601C202.368 223.68 202.368 223.764 202.368 223.853C202.368 223.941 202.364 224.03 202.355 224.118H197.552C197.649 224.516 197.831 224.812 198.096 225.007C198.37 225.202 198.706 225.299 199.104 225.299C199.405 225.299 199.679 225.241 199.927 225.126C200.183 225.011 200.44 224.826 200.696 224.569L202.089 225.723C201.744 226.166 201.316 226.519 200.803 226.785C200.298 227.05 199.688 227.183 198.972 227.183ZM203.449 219.833H205.97V220.841C206.085 220.691 206.213 220.545 206.354 220.403C206.496 220.262 206.655 220.138 206.832 220.032C207.009 219.926 207.204 219.842 207.416 219.78C207.628 219.709 207.862 219.674 208.119 219.674C208.888 219.674 209.486 219.908 209.91 220.377C210.343 220.846 210.56 221.491 210.56 222.314V227.01H208.039V223.123C208.039 222.725 207.947 222.424 207.761 222.221C207.575 222.017 207.332 221.916 207.031 221.916C206.721 221.916 206.465 222.017 206.262 222.221C206.067 222.424 205.97 222.725 205.97 223.123V227.01H203.449V219.833ZM211.858 219.833H214.378V220.841C214.493 220.691 214.622 220.545 214.763 220.403C214.905 220.262 215.064 220.138 215.241 220.032C215.418 219.926 215.612 219.842 215.824 219.78C216.037 219.709 216.271 219.674 216.528 219.674C217.297 219.674 217.894 219.908 218.319 220.377C218.752 220.846 218.969 221.491 218.969 222.314V227.01H216.448V223.123C216.448 222.725 216.355 222.424 216.169 222.221C215.984 222.017 215.74 221.916 215.44 221.916C215.13 221.916 214.874 222.017 214.67 222.221C214.476 222.424 214.378 222.725 214.378 223.123V227.01H211.858V219.833ZM223.119 227.156C222.358 227.156 221.765 226.975 221.341 226.612C220.916 226.25 220.704 225.639 220.704 224.781V221.863H219.855V219.833H220.704V218.015H223.225V219.833H224.896V221.863H223.225V224.291C223.225 224.547 223.282 224.733 223.397 224.848C223.512 224.954 223.685 225.007 223.915 225.007C224.083 225.007 224.246 224.985 224.406 224.941C224.565 224.896 224.72 224.839 224.87 224.768V226.745C224.64 226.869 224.379 226.966 224.087 227.037C223.795 227.117 223.472 227.156 223.119 227.156ZM225.874 224.423H228.501V227.01H225.874V224.423Z" fill="#272822"/>
<path d="M320.729 135.88L311.49 129.206L330.363 123.848C330.413 123.831 330.459 123.806 330.498 123.775C330.537 123.744 330.568 123.706 330.589 123.665C330.61 123.624 330.62 123.58 330.62 123.535C330.62 123.49 330.61 123.445 330.589 123.404C330.569 123.362 330.539 123.324 330.502 123.292C330.464 123.26 330.419 123.235 330.369 123.217C330.32 123.199 330.266 123.19 330.212 123.189C330.158 123.189 330.105 123.197 330.055 123.214L309.964 128.965L330.62 123.535L268.544 122.922C268.49 122.91 268.434 122.906 268.378 122.912C268.323 122.917 268.269 122.931 268.221 122.954C268.172 122.977 268.129 123.007 268.095 123.043C268.061 123.079 268.036 123.121 268.021 123.165C268.006 123.209 268.003 123.256 268.01 123.301C268.017 123.347 268.035 123.391 268.063 123.432C268.091 123.472 268.128 123.507 268.172 123.536C268.217 123.564 268.267 123.585 268.321 123.598L320.729 135.88Z" fill="white"/>
</g>
<path d="M53.92 377.809C53.8273 377.809 53.7383 377.772 53.6727 377.707C53.6072 377.641 53.5703 377.552 53.5703 377.46V159.633C53.5721 159.541 53.6095 159.453 53.6747 159.388C53.7399 159.322 53.8278 159.285 53.92 159.283C54.0128 159.283 54.1017 159.32 54.1673 159.386C54.2329 159.451 54.2697 159.54 54.2697 159.633V377.46C54.2697 377.552 54.2329 377.641 54.1673 377.707C54.1017 377.772 54.0128 377.809 53.92 377.809Z" fill="#C1C1C1"/>
<path d="M138.975 310.516H15.2272L1.04297 336.884V441.999H153.159V336.884L138.975 310.516ZM123.063 320.454C123.063 321.768 122.542 323.027 121.613 323.956C120.684 324.885 119.425 325.406 118.111 325.406H54.8841C54.2312 325.41 53.5839 325.285 52.9795 325.037C52.3751 324.79 51.8254 324.426 51.3621 323.966C50.8987 323.506 50.5308 322.959 50.2794 322.356C50.0281 321.754 49.8982 321.107 49.8973 320.454C49.8973 319.139 50.4197 317.878 51.3497 316.948C52.2797 316.018 53.541 315.495 54.8562 315.495H118.084C118.734 315.495 119.379 315.624 119.98 315.873C120.581 316.122 121.128 316.488 121.588 316.948C122.047 317.409 122.412 317.956 122.66 318.557C122.909 319.159 123.036 319.803 123.035 320.454H123.063Z" fill="#EBEBEB"/>
<path d="M33.3002 440.754C33.208 440.752 33.1201 440.715 33.0549 440.65C32.9897 440.585 32.9523 440.497 32.9505 440.404V336.786L15.2343 311.236C15.1819 311.159 15.1613 311.066 15.177 310.974C15.1927 310.883 15.2433 310.801 15.3182 310.746C15.3562 310.72 15.3991 310.701 15.4444 310.691C15.4897 310.682 15.5365 310.681 15.582 310.689C15.6276 310.698 15.671 310.715 15.7097 310.741C15.7485 310.766 15.7818 310.799 15.8078 310.837L33.6499 336.541V440.411C33.6481 440.503 33.6105 440.59 33.5451 440.654C33.4797 440.718 33.3918 440.754 33.3002 440.754Z" fill="#2A332C"/>
<path d="M2.5855 440.758C2.52711 440.757 2.46978 440.742 2.41857 440.714C2.36735 440.686 2.3238 440.646 2.29174 440.597C2.24113 440.52 2.22302 440.426 2.24136 440.336C2.2597 440.245 2.313 440.166 2.38966 440.115L14.8743 431.911V338.965C14.8743 338.872 14.9111 338.783 14.9767 338.718C15.0423 338.652 15.1312 338.615 15.224 338.615C15.3167 338.615 15.4057 338.652 15.4713 338.718C15.5368 338.783 15.5737 338.872 15.5737 338.965V432.295L2.77434 440.688C2.71905 440.729 2.65369 440.753 2.5855 440.758Z" fill="#2A332C"/>
<path d="M30.7006 440.756C30.6421 440.756 30.5846 440.741 30.5327 440.714L15.0616 432.412C14.98 432.368 14.9194 432.293 14.8932 432.203C14.8669 432.114 14.8772 432.018 14.9217 431.937C14.9662 431.855 15.0413 431.794 15.1305 431.768C15.2197 431.742 15.3157 431.752 15.3973 431.797L30.8614 440.106C30.9023 440.126 30.9386 440.155 30.9682 440.19C30.9978 440.225 31.0201 440.265 31.0338 440.309C31.0475 440.353 31.0523 440.399 31.0479 440.444C31.0435 440.49 31.0301 440.534 31.0083 440.574C30.9776 440.629 30.9329 440.675 30.8789 440.707C30.8248 440.739 30.7633 440.756 30.7006 440.756Z" fill="#2A332C"/>
<path d="M153.159 337.243L33.3067 337.033C33.214 337.033 33.125 336.997 33.0595 336.931C32.9939 336.865 32.957 336.776 32.957 336.684C32.957 336.591 32.9939 336.502 33.0595 336.436C33.125 336.371 33.214 336.334 33.3067 336.334L153.159 336.544C153.252 336.544 153.341 336.581 153.406 336.646C153.472 336.712 153.509 336.801 153.509 336.894C153.507 336.986 153.469 337.074 153.404 337.139C153.339 337.204 153.251 337.241 153.159 337.243Z" fill="#2A332C"/>
<path d="M89.0307 374.267C85.6948 374.267 82.4338 375.256 79.6601 377.109C76.8864 378.963 74.7246 381.597 73.448 384.679C72.1714 387.761 71.8373 391.152 72.4882 394.424C73.139 397.696 74.7454 400.701 77.1042 403.06C79.463 405.419 82.4684 407.025 85.7402 407.676C89.012 408.327 92.4034 407.993 95.4853 406.716C98.5673 405.44 101.202 403.278 103.055 400.504C104.908 397.73 105.897 394.469 105.897 391.133L89.0307 391.133L89.0307 374.267Z" fill="#373737"/>
<path d="M108.805 388.226C108.805 386.011 108.368 383.818 107.521 381.771C106.673 379.725 105.431 377.866 103.865 376.3C102.298 374.733 100.439 373.491 98.3926 372.643C96.3462 371.796 94.153 371.359 91.938 371.359L91.938 388.226L108.805 388.226Z" fill="#B7B7B7"/>
<defs>
<clipPath id="clip0_924_2761">
<rect width="330.125" height="418.252" fill="white" transform="translate(0.9375)"/>
</clipPath>
</defs>
</svg>
