<svg width="565" height="259" viewBox="0 0 565 259" fill="none" xmlns="http://www.w3.org/2000/svg">
<g filter="url(#filter0_d_13_2)">
<path fill-rule="evenodd" clip-rule="evenodd" d="M37.4157 0.00280762C18.9587 0.00280762 3.99638 14.9652 3.99638 33.4222L3.99638 83.1512C4.19311 83.1411 4.39116 83.1359 4.59041 83.1359C10.8526 83.1359 15.9291 88.2125 15.9291 94.4746C15.9291 100.737 10.8526 105.813 4.59041 105.813C4.39116 105.813 4.19311 105.808 3.99638 105.798L3.99638 112.807C4.19311 112.797 4.39116 112.792 4.59041 112.792C10.8526 112.792 15.9291 117.869 15.9291 124.131C15.9291 130.393 10.8526 135.47 4.59041 135.47C4.39116 135.47 4.19311 135.464 3.99638 135.454L3.99638 142.46C4.19311 142.45 4.39116 142.445 4.59041 142.445C10.8526 142.445 15.9291 147.521 15.9291 153.783C15.9291 160.045 10.8526 165.122 4.59041 165.122C4.39116 165.122 4.19311 165.117 3.99638 165.107L3.99638 214.842C3.99638 233.299 18.9588 248.261 37.4158 248.261L525.577 248.261C544.034 248.261 558.996 233.298 558.996 214.841V33.4222C558.996 14.9652 544.034 0.00280762 525.577 0.00280762L37.4157 0.00280762Z" fill="#F1F0EC"/>
</g>
<path d="M51.4805 211.586C47.3747 211.586 44.5102 208.474 44.5102 204.712V204.673C44.5102 200.911 47.4129 197.76 51.5187 197.76C55.6245 197.76 58.489 200.873 58.489 204.635V204.673C58.489 208.435 55.5863 211.586 51.4805 211.586ZM51.5187 209.428C54.1732 209.428 56.0256 207.309 56.0256 204.712V204.673C56.0256 202.076 54.135 199.918 51.4805 199.918C48.8261 199.918 46.9737 202.038 46.9737 204.635V204.673C46.9737 207.271 48.8643 209.428 51.5187 209.428ZM61.0597 211.357V201.274H63.3704V202.84C64.0197 201.885 64.9554 201.064 66.5213 201.064C68.7938 201.064 70.1115 202.592 70.1115 204.941V211.357H67.8008V205.628C67.8008 204.062 67.0178 203.165 65.6429 203.165C64.3061 203.165 63.3704 204.1 63.3704 205.666V211.357H61.0597ZM87.0871 211.357H84.7955V210.116C84.108 210.937 83.0577 211.567 81.5299 211.567C79.6202 211.567 77.9397 210.479 77.9397 208.455V208.416C77.9397 206.182 79.6775 205.113 82.0264 205.113C83.2486 205.113 84.0316 205.284 84.8146 205.533V205.342C84.8146 203.948 83.9361 203.184 82.332 203.184C81.2053 203.184 80.365 203.432 79.4484 203.814L78.8182 201.962C79.9258 201.465 81.0143 201.121 82.6566 201.121C85.6357 201.121 87.0871 202.687 87.0871 205.38V211.357ZM84.8527 207.71V207.137C84.2607 206.908 83.4396 206.736 82.542 206.736C81.0907 206.736 80.2313 207.328 80.2313 208.302V208.34C80.2313 209.295 81.0907 209.829 82.1792 209.829C83.7069 209.829 84.8527 208.97 84.8527 207.71ZM89.969 211.357V197.417H92.2798V211.357H89.969ZM95.4333 211.357V197.417H97.744V211.357H95.4333ZM111.282 211.586C108.208 211.586 105.935 209.237 105.935 206.373V206.335C105.935 203.451 108.227 201.064 111.321 201.064C114.414 201.064 116.687 203.413 116.687 206.297V206.335C116.687 209.199 114.395 211.586 111.282 211.586ZM111.321 209.581C113.192 209.581 114.376 208.111 114.376 206.373V206.335C114.376 204.559 113.097 203.088 111.282 203.088C109.43 203.088 108.246 204.54 108.246 206.297V206.335C108.246 208.092 109.525 209.581 111.321 209.581ZM119.04 211.357V201.274H121.351V203.547C121.981 202.038 123.146 201.007 124.922 201.083V203.528H124.788C122.764 203.528 121.351 204.845 121.351 207.519V211.357H119.04ZM130.812 211.567C128.444 211.567 126.133 209.677 126.133 206.335V206.297C126.133 202.955 128.406 201.064 130.812 201.064C132.473 201.064 133.524 201.904 134.249 202.84V197.417H136.56V211.357H134.249V209.677C133.505 210.727 132.454 211.567 130.812 211.567ZM131.366 209.562C132.913 209.562 134.288 208.264 134.288 206.335V206.297C134.288 204.349 132.913 203.069 131.366 203.069C129.781 203.069 128.463 204.291 128.463 206.297V206.335C128.463 208.283 129.8 209.562 131.366 209.562ZM144.064 211.586C141.142 211.586 138.888 209.467 138.888 206.354V206.316C138.888 203.432 140.932 201.064 143.815 201.064C147.024 201.064 148.647 203.585 148.647 206.488C148.647 206.698 148.628 206.908 148.609 207.137H141.199C141.447 208.779 142.612 209.696 144.102 209.696C145.229 209.696 146.031 209.276 146.833 208.493L148.189 209.696C147.234 210.842 145.916 211.586 144.064 211.586ZM141.18 205.609H146.355C146.202 204.12 145.324 202.955 143.796 202.955C142.383 202.955 141.39 204.043 141.18 205.609ZM150.967 211.357V201.274H153.278V203.547C153.908 202.038 155.073 201.007 156.849 201.083V203.528H156.716C154.691 203.528 153.278 204.845 153.278 207.519V211.357H150.967ZM162.313 211.548C160.88 211.548 159.295 211.033 158.035 210.04L159.066 208.474C160.155 209.295 161.339 209.715 162.37 209.715C163.363 209.715 163.936 209.295 163.936 208.626V208.588C163.936 207.805 162.866 207.538 161.682 207.175C160.193 206.755 158.531 206.144 158.531 204.215V204.177C158.531 202.267 160.116 201.102 162.122 201.102C163.382 201.102 164.757 201.541 165.826 202.248L164.91 203.89C163.936 203.298 162.905 202.936 162.064 202.936C161.167 202.936 160.651 203.356 160.651 203.948V203.986C160.651 204.712 161.74 205.017 162.924 205.399C164.394 205.857 166.056 206.526 166.056 208.34V208.378C166.056 210.498 164.413 211.548 162.313 211.548ZM178.923 211.586C175.848 211.586 173.576 209.237 173.576 206.373V206.335C173.576 203.451 175.868 201.064 178.961 201.064C182.055 201.064 184.327 203.413 184.327 206.297V206.335C184.327 209.199 182.036 211.586 178.923 211.586ZM178.961 209.581C180.833 209.581 182.017 208.111 182.017 206.373V206.335C182.017 204.559 180.737 203.088 178.923 203.088C177.071 203.088 175.887 204.54 175.887 206.297V206.335C175.887 208.092 177.166 209.581 178.961 209.581ZM189.292 211.434L185.148 201.274H187.63L190.342 208.684L193.073 201.274H195.498L191.373 211.434H189.292ZM201.503 211.586C198.581 211.586 196.328 209.467 196.328 206.354V206.316C196.328 203.432 198.371 201.064 201.255 201.064C204.463 201.064 206.086 203.585 206.086 206.488C206.086 206.698 206.067 206.908 206.048 207.137H198.639C198.887 208.779 200.052 209.696 201.541 209.696C202.668 209.696 203.47 209.276 204.272 208.493L205.628 209.696C204.673 210.842 203.356 211.586 201.503 211.586ZM198.62 205.609H203.795C203.642 204.12 202.764 202.955 201.236 202.955C199.823 202.955 198.83 204.043 198.62 205.609ZM208.407 211.357V201.274H210.718V203.547C211.348 202.038 212.513 201.007 214.289 201.083V203.528H214.155C212.131 203.528 210.718 204.845 210.718 207.519V211.357H208.407ZM225.687 211.357L222.078 205.055V204.215H222.498C223.173 204.215 223.74 204.151 224.198 204.024C224.669 203.897 225.038 203.687 225.306 203.394C225.573 203.101 225.732 202.7 225.783 202.191H222.078V200.969H225.764C225.675 200.498 225.496 200.116 225.229 199.823C224.962 199.517 224.599 199.294 224.141 199.154C223.695 199.014 223.148 198.944 222.498 198.944H222.078V197.722H229.984V198.944H226.375C226.668 199.186 226.91 199.473 227.101 199.804C227.292 200.135 227.413 200.523 227.463 200.969H229.984V202.191H227.502C227.413 203.12 227.056 203.846 226.432 204.368C225.821 204.877 225.006 205.202 223.988 205.342L227.635 211.357H225.687Z" fill="#9A9A9A"/>
<path d="M411.005 0.00250244L525.586 0.00250244C544.043 0.00250244 559.005 14.9649 559.005 33.4219V214.841C559.005 233.298 544.043 248.261 525.586 248.261H411.005L411.005 0.00250244Z" fill="#094446"/>
<g filter="url(#filter1_bd_13_2)">
<rect x="43.3835" y="17.908" width="233.935" height="56.637" rx="28.3185" fill="white"/>
</g>
<path d="M74.2851 50.1123C74.012 50.4057 73.7236 50.6687 73.4202 50.9014C73.1268 51.1239 72.8081 51.3212 72.4642 51.4932C72.1202 51.655 71.7409 51.7764 71.3261 51.8574C70.9214 51.9484 70.4713 51.9939 69.9756 51.9939C69.1966 51.9939 68.4784 51.8523 67.8208 51.569C67.1632 51.2858 66.5917 50.9014 66.1061 50.4158C65.6306 49.9201 65.2563 49.3384 64.9832 48.6707C64.7101 48.0031 64.5735 47.2848 64.5735 46.516C64.5735 45.7572 64.705 45.044 64.968 44.3764C65.2412 43.7087 65.6205 43.127 66.1061 42.6313C66.5917 42.1255 67.1683 41.731 67.836 41.4477C68.5037 41.1543 69.2421 41.0077 70.0514 41.0077C70.537 41.0077 70.9771 41.0481 71.3716 41.1291C71.7763 41.21 72.1455 41.3263 72.4793 41.4781C72.8132 41.6197 73.1217 41.7917 73.405 41.994C73.6882 42.1963 73.9563 42.4189 74.2092 42.6617L73.0104 44.0425C72.5856 43.648 72.1354 43.3293 71.6599 43.0865C71.1845 42.8438 70.6432 42.7224 70.0363 42.7224C69.5305 42.7224 69.06 42.8235 68.625 43.0259C68.2002 43.2181 67.8309 43.4861 67.5173 43.8301C67.2037 44.1639 66.9609 44.5585 66.7889 45.0137C66.617 45.4689 66.531 45.9596 66.531 46.4856C66.531 47.0117 66.617 47.5074 66.7889 47.9727C66.9609 48.4279 67.2037 48.8275 67.5173 49.1715C67.8309 49.5154 68.2002 49.7886 68.625 49.9909C69.06 50.1831 69.5305 50.2792 70.0363 50.2792C70.6837 50.2792 71.2401 50.1578 71.7054 49.915C72.1708 49.6621 72.6311 49.3232 73.0863 48.8983L74.2851 50.1123ZM83.9894 47.8058C83.9894 48.3824 83.8781 48.9236 83.6555 49.4294C83.4431 49.9353 83.1447 50.3804 82.7602 50.7648C82.3859 51.1391 81.9358 51.4375 81.4097 51.6601C80.8837 51.8826 80.3121 51.9939 79.695 51.9939C79.088 51.9939 78.5215 51.8877 77.9955 51.6753C77.4795 51.4527 77.0294 51.1543 76.645 50.78C76.2706 50.3956 75.9773 49.9555 75.7648 49.4598C75.5524 48.954 75.4462 48.4128 75.4462 47.8361C75.4462 47.2595 75.5524 46.7183 75.7648 46.2125C75.9874 45.6965 76.2858 45.2514 76.6601 44.8771C77.0445 44.4927 77.4947 44.1892 78.0106 43.9667C78.5367 43.7441 79.1083 43.6328 79.7254 43.6328C80.3424 43.6328 80.909 43.7441 81.4249 43.9667C81.9509 44.1791 82.4011 44.4775 82.7754 44.862C83.1598 45.2363 83.4583 45.6763 83.6707 46.1821C83.8831 46.6879 83.9894 47.2292 83.9894 47.8058ZM82.1533 47.8361C82.1533 47.4821 82.0926 47.1482 81.9712 46.8346C81.8498 46.521 81.6778 46.2479 81.4552 46.0152C81.2428 45.7724 80.9848 45.5853 80.6813 45.4538C80.388 45.3121 80.0592 45.2413 79.695 45.2413C79.3308 45.2413 78.997 45.3121 78.6935 45.4538C78.4001 45.5853 78.1472 45.7674 77.9348 46C77.7223 46.2327 77.5605 46.5058 77.4492 46.8195C77.3379 47.1229 77.2823 47.4517 77.2823 47.8058C77.2823 48.1599 77.343 48.4988 77.4644 48.8225C77.5858 49.1361 77.7527 49.4092 77.9651 49.6419C78.1877 49.8746 78.4456 50.0617 78.739 50.2033C79.0425 50.3349 79.3713 50.4006 79.7254 50.4006C80.0997 50.4006 80.4335 50.3349 80.7269 50.2033C81.0304 50.0617 81.2883 49.8746 81.5008 49.6419C81.7132 49.4092 81.8751 49.1411 81.9863 48.8376C82.0976 48.524 82.1533 48.1902 82.1533 47.8361ZM91.1248 48.3217V43.7997H92.9609V51.8118H91.1248V50.5675C90.8617 50.9519 90.533 51.2858 90.1384 51.569C89.7439 51.8422 89.2381 51.9787 88.621 51.9787C87.7105 51.9787 87.0074 51.7005 86.5117 51.1442C86.016 50.5878 85.7682 49.8392 85.7682 48.8983V43.7997H87.6043V48.3521C87.6043 48.9793 87.751 49.4649 88.0444 49.8088C88.3478 50.1426 88.7727 50.3096 89.319 50.3096C89.8552 50.3096 90.2902 50.1376 90.624 49.7936C90.9578 49.4396 91.1248 48.9489 91.1248 48.3217ZM103.554 47.8058C103.554 48.4735 103.448 49.0653 103.236 49.5812C103.033 50.0971 102.755 50.5372 102.401 50.9014C102.057 51.2554 101.658 51.5235 101.202 51.7056C100.757 51.8877 100.297 51.9787 99.8215 51.9787C99.1639 51.9787 98.6176 51.8371 98.1826 51.5539C97.7476 51.2706 97.3885 50.9418 97.1053 50.5675V54.2397H95.2692V43.7997H97.1053V45.1351C97.3986 44.7102 97.7628 44.3561 98.1978 44.0729C98.6328 43.7795 99.174 43.6328 99.8215 43.6328C100.297 43.6328 100.757 43.7239 101.202 43.906C101.647 44.0881 102.042 44.3612 102.386 44.7254C102.74 45.0795 103.023 45.5145 103.236 46.0304C103.448 46.5463 103.554 47.1381 103.554 47.8058ZM101.688 47.8058C101.688 47.4113 101.627 47.0572 101.506 46.7436C101.384 46.4199 101.218 46.1467 101.005 45.9242C100.803 45.7016 100.56 45.5296 100.277 45.4082C100.004 45.2868 99.7102 45.2261 99.3966 45.2261C99.083 45.2261 98.7846 45.2868 98.5013 45.4082C98.218 45.5296 97.9702 45.7067 97.7578 45.9393C97.5453 46.1619 97.3733 46.43 97.2418 46.7436C97.1204 47.0572 97.0597 47.4113 97.0597 47.8058C97.0597 48.2003 97.1204 48.5544 97.2418 48.868C97.3733 49.1816 97.5453 49.4547 97.7578 49.6874C97.9702 49.91 98.218 50.0819 98.5013 50.2033C98.7846 50.3247 99.083 50.3854 99.3966 50.3854C99.7102 50.3854 100.004 50.3247 100.277 50.2033C100.56 50.0819 100.803 49.91 101.005 49.6874C101.218 49.4649 101.384 49.1968 101.506 48.8832C101.627 48.5594 101.688 48.2003 101.688 47.8058ZM113.538 47.8058C113.538 48.3824 113.427 48.9236 113.204 49.4294C112.992 49.9353 112.693 50.3804 112.309 50.7648C111.935 51.1391 111.484 51.4375 110.958 51.6601C110.432 51.8826 109.861 51.9939 109.244 51.9939C108.637 51.9939 108.07 51.8877 107.544 51.6753C107.028 51.4527 106.578 51.1543 106.194 50.78C105.819 50.3956 105.526 49.9555 105.313 49.4598C105.101 48.954 104.995 48.4128 104.995 47.8361C104.995 47.2595 105.101 46.7183 105.313 46.2125C105.536 45.6965 105.834 45.2514 106.209 44.8771C106.593 44.4927 107.043 44.1892 107.559 43.9667C108.085 43.7441 108.657 43.6328 109.274 43.6328C109.891 43.6328 110.458 43.7441 110.973 43.9667C111.5 44.1791 111.95 44.4775 112.324 44.862C112.708 45.2363 113.007 45.6763 113.219 46.1821C113.432 46.6879 113.538 47.2292 113.538 47.8058ZM111.702 47.8361C111.702 47.4821 111.641 47.1482 111.52 46.8346C111.398 46.521 111.226 46.2479 111.004 46.0152C110.791 45.7724 110.533 45.5853 110.23 45.4538C109.937 45.3121 109.608 45.2413 109.244 45.2413C108.879 45.2413 108.546 45.3121 108.242 45.4538C107.949 45.5853 107.696 45.7674 107.483 46C107.271 46.2327 107.109 46.5058 106.998 46.8195C106.886 47.1229 106.831 47.4517 106.831 47.8058C106.831 48.1599 106.892 48.4988 107.013 48.8225C107.134 49.1361 107.301 49.4092 107.514 49.6419C107.736 49.8746 107.994 50.0617 108.288 50.2033C108.591 50.3349 108.92 50.4006 109.274 50.4006C109.648 50.4006 109.982 50.3349 110.275 50.2033C110.579 50.0617 110.837 49.8746 111.049 49.6419C111.262 49.4092 111.424 49.1411 111.535 48.8376C111.646 48.524 111.702 48.1902 111.702 47.8361ZM117.244 47.2899V51.8118H115.408V43.7997H117.244V45.044C117.375 44.8518 117.517 44.6748 117.669 44.5129C117.831 44.341 118.013 44.1892 118.215 44.0577C118.428 43.9262 118.655 43.825 118.898 43.7542C119.151 43.6733 119.434 43.6328 119.748 43.6328C120.658 43.6328 121.361 43.911 121.857 44.4674C122.353 45.0238 122.6 45.7724 122.6 46.7132V51.8118H120.764V47.2595C120.764 46.6323 120.613 46.1518 120.309 45.8179C120.016 45.474 119.596 45.302 119.05 45.302C118.514 45.302 118.079 45.479 117.745 45.8331C117.411 46.1771 117.244 46.6626 117.244 47.2899ZM126.79 45.8786H124.772V43.7997H126.79V45.8786ZM126.79 51.8118H124.772V49.7329H126.79V51.8118Z" fill="#9A9A9A"/>
<path d="M366.534 32.8278C363.394 32.8278 360.325 33.7589 357.714 35.5034C355.103 37.2479 353.068 39.7275 351.866 42.6285C350.665 45.5295 350.35 48.7216 350.963 51.8013C351.575 54.881 353.088 57.7099 355.308 59.9302C357.528 62.1506 360.357 63.6626 363.437 64.2752C366.516 64.8878 369.709 64.5734 372.61 63.3718C375.511 62.1701 377.99 60.1352 379.735 57.5244C381.479 54.9136 382.41 51.844 382.41 48.704L366.534 48.704L366.534 32.8278Z" fill="#373737"/>
<path d="M385.151 45.9652C385.151 43.8803 384.74 41.8158 383.942 39.8897C383.145 37.9635 381.975 36.2133 380.501 34.739C379.027 33.2648 377.277 32.0953 375.35 31.2975C373.424 30.4996 371.36 30.089 369.275 30.089L369.275 45.9652L385.151 45.9652Z" fill="#B7B7B7"/>
<defs>
<filter id="filter0_d_13_2" x="0.415738" y="0.00280762" width="564.548" height="259" filterUnits="userSpaceOnUse" color-interpolation-filters="sRGB">
<feFlood flood-opacity="0" result="BackgroundImageFix"/>
<feColorMatrix in="SourceAlpha" type="matrix" values="0 0 0 0 0 0 0 0 0 0 0 0 0 0 0 0 0 0 127 0" result="hardAlpha"/>
<feOffset dx="1.19355" dy="5.96774"/>
<feGaussianBlur stdDeviation="2.3871"/>
<feComposite in2="hardAlpha" operator="out"/>
<feColorMatrix type="matrix" values="0 0 0 0 0.45 0 0 0 0 0.45 0 0 0 0 0.45 0 0 0 0.25 0"/>
<feBlend mode="normal" in2="BackgroundImageFix" result="effect1_dropShadow_13_2"/>
<feBlend mode="normal" in="SourceGraphic" in2="effect1_dropShadow_13_2" result="shape"/>
</filter>
<filter id="filter1_bd_13_2" x="28.402" y="2.92644" width="263.899" height="86.6001" filterUnits="userSpaceOnUse" color-interpolation-filters="sRGB">
<feFlood flood-opacity="0" result="BackgroundImageFix"/>
<feGaussianBlur in="BackgroundImageFix" stdDeviation="7.49076"/>
<feComposite in2="SourceAlpha" operator="in" result="effect1_backgroundBlur_13_2"/>
<feColorMatrix in="SourceAlpha" type="matrix" values="0 0 0 0 0 0 0 0 0 0 0 0 0 0 0 0 0 0 127 0" result="hardAlpha"/>
<feOffset dx="1.19355" dy="1.19355"/>
<feGaussianBlur stdDeviation="2.3871"/>
<feComposite in2="hardAlpha" operator="out"/>
<feColorMatrix type="matrix" values="0 0 0 0 0 0 0 0 0 0 0 0 0 0 0 0 0 0 0.25 0"/>
<feBlend mode="normal" in2="effect1_backgroundBlur_13_2" result="effect2_dropShadow_13_2"/>
<feBlend mode="normal" in="SourceGraphic" in2="effect2_dropShadow_13_2" result="shape"/>
</filter>
</defs>
</svg>
