<svg width="583" height="1201" viewBox="0 0 583 1201" fill="none" xmlns="http://www.w3.org/2000/svg">
<path fill-rule="evenodd" clip-rule="evenodd" d="M206.331 81.5094H28.2784C12.6607 81.5094 0 94.1702 0 109.788V859.997H0.000204086C16.5366 859.997 29.942 873.403 29.942 889.939C29.942 906.476 16.5366 919.881 0.000204086 919.881H0V1172.72C0 1188.34 12.6606 1201 28.2783 1201H553.924C569.542 1201 582.202 1188.34 582.202 1172.72L582.202 919.881C565.666 919.881 552.26 906.476 552.26 889.939C552.26 873.403 565.666 859.997 582.202 859.997L582.202 109.788C582.202 94.1701 569.542 81.5094 553.924 81.5094H375.871C375.037 60.2183 366.213 39.9717 351.089 24.8477C335.179 8.93797 313.601 0 291.101 0C268.602 0 247.023 8.93796 231.114 24.8476C215.99 39.9717 207.166 60.2183 206.331 81.5094Z" fill="#EFEFEF"/>
<path d="M104.345 271.574V279H101.044V271.654L93.6455 260.37H97.5047L102.721 268.62L107.991 260.37H111.744L104.345 271.574ZM125.516 271.974C125.516 272.985 125.321 273.934 124.931 274.821C124.558 275.709 124.035 276.489 123.36 277.164C122.704 277.82 121.914 278.343 120.992 278.734C120.069 279.124 119.066 279.319 117.984 279.319C116.919 279.319 115.926 279.133 115.003 278.76C114.098 278.37 113.309 277.847 112.634 277.19C111.978 276.516 111.463 275.744 111.091 274.875C110.718 273.988 110.532 273.038 110.532 272.027C110.532 271.016 110.718 270.066 111.091 269.179C111.481 268.274 112.005 267.493 112.661 266.837C113.335 266.163 114.125 265.63 115.03 265.24C115.952 264.85 116.955 264.655 118.037 264.655C119.12 264.655 120.113 264.85 121.018 265.24C121.941 265.613 122.73 266.136 123.387 266.81C124.061 267.467 124.585 268.239 124.957 269.126C125.33 270.013 125.516 270.962 125.516 271.974ZM122.296 272.027C122.296 271.406 122.189 270.82 121.976 270.27C121.763 269.72 121.462 269.241 121.071 268.833C120.699 268.407 120.246 268.079 119.714 267.848C119.199 267.6 118.623 267.476 117.984 267.476C117.345 267.476 116.76 267.6 116.227 267.848C115.713 268.079 115.269 268.398 114.897 268.806C114.524 269.215 114.24 269.694 114.045 270.244C113.85 270.776 113.752 271.353 113.752 271.974C113.752 272.595 113.859 273.189 114.072 273.757C114.285 274.307 114.577 274.786 114.95 275.194C115.34 275.602 115.793 275.93 116.307 276.179C116.84 276.409 117.416 276.525 118.037 276.525C118.694 276.525 119.279 276.409 119.794 276.179C120.326 275.93 120.779 275.602 121.151 275.194C121.524 274.786 121.808 274.316 122.003 273.783C122.198 273.233 122.296 272.648 122.296 272.027ZM138.031 272.879V264.947H141.252V279H138.031V276.818C137.57 277.492 136.993 278.077 136.301 278.574C135.609 279.053 134.722 279.293 133.64 279.293C132.043 279.293 130.81 278.805 129.94 277.829C129.071 276.853 128.636 275.54 128.636 273.89V264.947H131.856V272.932C131.856 274.032 132.114 274.884 132.628 275.487C133.161 276.072 133.906 276.365 134.864 276.365C135.804 276.365 136.567 276.063 137.153 275.46C137.738 274.839 138.031 273.979 138.031 272.879ZM148.521 273.65V279H145.3V264.947H148.521V268.114C148.964 267.05 149.594 266.198 150.41 265.559C151.226 264.921 152.256 264.628 153.498 264.681V268.088H153.311C152.602 268.088 151.954 268.203 151.368 268.434C150.783 268.665 150.277 269.011 149.851 269.472C149.425 269.933 149.097 270.519 148.867 271.228C148.636 271.92 148.521 272.728 148.521 273.65ZM168.159 267.715V274.609C168.159 275.23 168.31 275.682 168.612 275.966C168.914 276.232 169.339 276.365 169.889 276.365C170.581 276.365 171.247 276.205 171.886 275.886V278.521C171.477 278.752 171.043 278.929 170.581 279.053C170.12 279.177 169.588 279.24 168.985 279.24C168.399 279.24 167.858 279.169 167.361 279.027C166.864 278.885 166.43 278.654 166.057 278.335C165.702 278.015 165.427 277.598 165.232 277.084C165.037 276.551 164.939 275.895 164.939 275.114V267.715H163.156V264.947H164.939V261.088H168.159V264.947H171.939V267.715H168.159ZM178.41 273.65V279H175.19V264.947H178.41V268.114C178.854 267.05 179.484 266.198 180.3 265.559C181.116 264.921 182.145 264.628 183.387 264.681V268.088H183.201C182.491 268.088 181.844 268.203 181.258 268.434C180.673 268.665 180.167 269.011 179.741 269.472C179.315 269.933 178.987 270.519 178.756 271.228C178.526 271.92 178.41 272.728 178.41 273.65ZM197.299 279H194.105V277.27C193.626 277.838 193.014 278.317 192.269 278.707C191.523 279.098 190.619 279.293 189.554 279.293C188.88 279.293 188.241 279.195 187.638 279C187.034 278.823 186.502 278.556 186.041 278.202C185.597 277.829 185.233 277.376 184.95 276.844C184.683 276.294 184.55 275.664 184.55 274.955V274.901C184.55 274.138 184.692 273.473 184.976 272.905C185.26 272.337 185.65 271.867 186.147 271.495C186.662 271.122 187.265 270.847 187.957 270.67C188.667 270.474 189.43 270.377 190.246 270.377C191.098 270.377 191.816 270.43 192.402 270.536C193.005 270.643 193.582 270.785 194.132 270.962V270.616C194.132 269.64 193.83 268.895 193.227 268.381C192.641 267.866 191.79 267.609 190.672 267.609C189.873 267.609 189.164 267.689 188.543 267.848C187.922 268.008 187.292 268.221 186.653 268.487L185.775 265.905C186.555 265.551 187.354 265.267 188.17 265.054C188.986 264.841 189.971 264.734 191.124 264.734C193.218 264.734 194.77 265.258 195.782 266.305C196.793 267.334 197.299 268.789 197.299 270.67V279ZM194.185 273.917V273.038C193.777 272.879 193.289 272.745 192.721 272.639C192.171 272.533 191.586 272.479 190.965 272.479C189.953 272.479 189.164 272.675 188.596 273.065C188.028 273.455 187.744 274.014 187.744 274.742V274.795C187.744 275.469 188.001 275.984 188.516 276.339C189.048 276.693 189.696 276.871 190.459 276.871C190.991 276.871 191.479 276.8 191.923 276.658C192.384 276.516 192.783 276.321 193.12 276.072C193.457 275.806 193.715 275.496 193.892 275.141C194.087 274.768 194.185 274.36 194.185 273.917ZM204.35 271.069V279H201.129V264.947H204.35V267.13C204.58 266.793 204.829 266.482 205.095 266.198C205.379 265.897 205.698 265.63 206.053 265.4C206.426 265.169 206.825 264.992 207.251 264.867C207.694 264.726 208.191 264.655 208.741 264.655C210.338 264.655 211.571 265.142 212.441 266.118C213.31 267.094 213.745 268.407 213.745 270.057V279H210.524V271.016C210.524 269.915 210.258 269.073 209.726 268.487C209.211 267.884 208.475 267.582 207.517 267.582C206.576 267.582 205.813 267.893 205.228 268.514C204.642 269.117 204.35 269.969 204.35 271.069ZM227.667 274.848C227.667 275.593 227.534 276.241 227.268 276.791C227.002 277.341 226.629 277.802 226.15 278.175C225.689 278.53 225.139 278.805 224.5 279C223.861 279.177 223.178 279.266 222.451 279.266C221.439 279.266 220.41 279.089 219.364 278.734C218.334 278.379 217.376 277.856 216.489 277.164L217.926 274.981C218.689 275.549 219.461 275.984 220.242 276.285C221.04 276.569 221.803 276.711 222.531 276.711C223.223 276.711 223.755 276.578 224.128 276.312C224.518 276.028 224.713 275.655 224.713 275.194V275.141C224.713 274.875 224.624 274.644 224.447 274.449C224.287 274.254 224.057 274.085 223.755 273.943C223.471 273.783 223.134 273.65 222.744 273.544C222.371 273.42 221.981 273.296 221.573 273.171C221.058 273.012 220.535 272.834 220.002 272.639C219.488 272.444 219.018 272.195 218.592 271.894C218.184 271.574 217.846 271.193 217.58 270.749C217.314 270.288 217.181 269.72 217.181 269.046V268.993C217.181 268.336 217.305 267.742 217.554 267.21C217.82 266.677 218.175 266.225 218.618 265.852C219.08 265.48 219.612 265.196 220.215 265.001C220.836 264.805 221.493 264.708 222.185 264.708C223.072 264.708 223.968 264.85 224.873 265.134C225.778 265.418 226.603 265.808 227.348 266.305L226.07 268.594C225.396 268.185 224.713 267.866 224.021 267.635C223.329 267.387 222.69 267.263 222.105 267.263C221.484 267.263 220.996 267.396 220.641 267.662C220.304 267.928 220.135 268.265 220.135 268.673V268.727C220.135 268.975 220.224 269.197 220.402 269.392C220.579 269.569 220.81 269.738 221.093 269.898C221.395 270.04 221.732 270.182 222.105 270.324C222.495 270.448 222.894 270.572 223.303 270.696C223.817 270.856 224.332 271.042 224.846 271.255C225.361 271.468 225.822 271.734 226.23 272.053C226.656 272.355 227.002 272.728 227.268 273.171C227.534 273.615 227.667 274.156 227.667 274.795V274.848ZM242.731 279H239.538V277.27C239.059 277.838 238.446 278.317 237.701 278.707C236.956 279.098 236.051 279.293 234.986 279.293C234.312 279.293 233.673 279.195 233.07 279C232.467 278.823 231.935 278.556 231.473 278.202C231.03 277.829 230.666 277.376 230.382 276.844C230.116 276.294 229.983 275.664 229.983 274.955V274.901C229.983 274.138 230.125 273.473 230.409 272.905C230.693 272.337 231.083 271.867 231.58 271.495C232.094 271.122 232.698 270.847 233.39 270.67C234.099 270.474 234.862 270.377 235.678 270.377C236.53 270.377 237.249 270.43 237.834 270.536C238.438 270.643 239.014 270.785 239.564 270.962V270.616C239.564 269.64 239.263 268.895 238.659 268.381C238.074 267.866 237.222 267.609 236.104 267.609C235.306 267.609 234.596 267.689 233.975 267.848C233.354 268.008 232.724 268.221 232.085 268.487L231.207 265.905C231.988 265.551 232.786 265.267 233.603 265.054C234.419 264.841 235.403 264.734 236.557 264.734C238.65 264.734 240.203 265.258 241.214 266.305C242.226 267.334 242.731 268.789 242.731 270.67V279ZM239.618 273.917V273.038C239.209 272.879 238.721 272.745 238.154 272.639C237.604 272.533 237.018 272.479 236.397 272.479C235.386 272.479 234.596 272.675 234.028 273.065C233.461 273.455 233.177 274.014 233.177 274.742V274.795C233.177 275.469 233.434 275.984 233.949 276.339C234.481 276.693 235.128 276.871 235.891 276.871C236.424 276.871 236.912 276.8 237.355 276.658C237.817 276.516 238.216 276.321 238.553 276.072C238.89 275.806 239.147 275.496 239.325 275.141C239.52 274.768 239.618 274.36 239.618 273.917ZM258.805 276.684C258.113 277.465 257.323 278.104 256.436 278.601C255.549 279.08 254.422 279.319 253.056 279.319C252.009 279.319 251.042 279.133 250.155 278.76C249.268 278.37 248.496 277.847 247.839 277.19C247.2 276.516 246.695 275.744 246.322 274.875C245.967 273.988 245.79 273.038 245.79 272.027C245.79 271.016 245.967 270.066 246.322 269.179C246.695 268.292 247.2 267.511 247.839 266.837C248.496 266.163 249.268 265.63 250.155 265.24C251.06 264.85 252.036 264.655 253.082 264.655C254.413 264.655 255.513 264.876 256.383 265.32C257.27 265.763 258.042 266.349 258.698 267.076L256.702 269.232C256.205 268.718 255.673 268.301 255.105 267.981C254.555 267.644 253.872 267.476 253.056 267.476C252.47 267.476 251.929 267.6 251.432 267.848C250.935 268.079 250.51 268.398 250.155 268.806C249.8 269.215 249.516 269.694 249.303 270.244C249.108 270.776 249.01 271.353 249.01 271.974C249.01 272.612 249.108 273.207 249.303 273.757C249.516 274.307 249.809 274.786 250.181 275.194C250.554 275.602 250.998 275.93 251.512 276.179C252.027 276.409 252.594 276.525 253.215 276.525C253.978 276.525 254.644 276.365 255.212 276.046C255.797 275.709 256.347 275.283 256.862 274.768L258.805 276.684ZM265.652 267.715V274.609C265.652 275.23 265.803 275.682 266.105 275.966C266.406 276.232 266.832 276.365 267.382 276.365C268.074 276.365 268.74 276.205 269.378 275.886V278.521C268.97 278.752 268.536 278.929 268.074 279.053C267.613 279.177 267.081 279.24 266.477 279.24C265.892 279.24 265.351 279.169 264.854 279.027C264.357 278.885 263.922 278.654 263.55 278.335C263.195 278.015 262.92 277.598 262.725 277.084C262.53 276.551 262.432 275.895 262.432 275.114V267.715H260.649V264.947H262.432V261.088H265.652V264.947H269.432V267.715H265.652ZM276.196 262.791H272.736V259.731H276.196V262.791ZM276.09 279H272.869V264.947H276.09V279ZM294.511 271.974C294.511 272.985 294.315 273.934 293.925 274.821C293.553 275.709 293.029 276.489 292.355 277.164C291.698 277.82 290.909 278.343 289.986 278.734C289.063 279.124 288.061 279.319 286.979 279.319C285.914 279.319 284.92 279.133 283.998 278.76C283.093 278.37 282.303 277.847 281.629 277.19C280.973 276.516 280.458 275.744 280.085 274.875C279.713 273.988 279.526 273.038 279.526 272.027C279.526 271.016 279.713 270.066 280.085 269.179C280.476 268.274 280.999 267.493 281.656 266.837C282.33 266.163 283.119 265.63 284.024 265.24C284.947 264.85 285.95 264.655 287.032 264.655C288.114 264.655 289.108 264.85 290.013 265.24C290.935 265.613 291.725 266.136 292.381 266.81C293.056 267.467 293.579 268.239 293.952 269.126C294.324 270.013 294.511 270.962 294.511 271.974ZM291.29 272.027C291.29 271.406 291.184 270.82 290.971 270.27C290.758 269.72 290.456 269.241 290.066 268.833C289.693 268.407 289.241 268.079 288.709 267.848C288.194 267.6 287.617 267.476 286.979 267.476C286.34 267.476 285.754 267.6 285.222 267.848C284.707 268.079 284.264 268.398 283.891 268.806C283.519 269.215 283.235 269.694 283.04 270.244C282.844 270.776 282.747 271.353 282.747 271.974C282.747 272.595 282.853 273.189 283.066 273.757C283.279 274.307 283.572 274.786 283.945 275.194C284.335 275.602 284.787 275.93 285.302 276.179C285.834 276.409 286.411 276.525 287.032 276.525C287.688 276.525 288.274 276.409 288.788 276.179C289.321 275.93 289.773 275.602 290.146 275.194C290.518 274.786 290.802 274.316 290.997 273.783C291.193 273.233 291.29 272.648 291.29 272.027ZM301.011 271.069V279H297.79V264.947H301.011V267.13C301.241 266.793 301.49 266.482 301.756 266.198C302.04 265.897 302.359 265.63 302.714 265.4C303.087 265.169 303.486 264.992 303.912 264.867C304.355 264.726 304.852 264.655 305.402 264.655C306.999 264.655 308.232 265.142 309.102 266.118C309.971 267.094 310.406 268.407 310.406 270.057V279H307.185V271.016C307.185 269.915 306.919 269.073 306.387 268.487C305.872 267.884 305.136 267.582 304.178 267.582C303.238 267.582 302.475 267.893 301.889 268.514C301.303 269.117 301.011 269.969 301.011 271.069ZM325.787 262.791H322.327V259.731H325.787V262.791ZM325.681 279H322.46V264.947H325.681V279ZM339.923 274.848C339.923 275.593 339.79 276.241 339.524 276.791C339.258 277.341 338.885 277.802 338.406 278.175C337.945 278.53 337.395 278.805 336.756 279C336.117 279.177 335.434 279.266 334.707 279.266C333.695 279.266 332.666 279.089 331.619 278.734C330.59 278.379 329.632 277.856 328.745 277.164L330.182 274.981C330.945 275.549 331.717 275.984 332.498 276.285C333.296 276.569 334.059 276.711 334.787 276.711C335.479 276.711 336.011 276.578 336.383 276.312C336.774 276.028 336.969 275.655 336.969 275.194V275.141C336.969 274.875 336.88 274.644 336.703 274.449C336.543 274.254 336.312 274.085 336.011 273.943C335.727 273.783 335.39 273.65 334.999 273.544C334.627 273.42 334.237 273.296 333.828 273.171C333.314 273.012 332.79 272.834 332.258 272.639C331.744 272.444 331.273 272.195 330.848 271.894C330.439 271.574 330.102 271.193 329.836 270.749C329.57 270.288 329.437 269.72 329.437 269.046V268.993C329.437 268.336 329.561 267.742 329.81 267.21C330.076 266.677 330.431 266.225 330.874 265.852C331.335 265.48 331.868 265.196 332.471 265.001C333.092 264.805 333.749 264.708 334.441 264.708C335.328 264.708 336.224 264.85 337.129 265.134C338.034 265.418 338.859 265.808 339.604 266.305L338.326 268.594C337.652 268.185 336.969 267.866 336.277 267.635C335.585 267.387 334.946 267.263 334.361 267.263C333.74 267.263 333.252 267.396 332.897 267.662C332.56 267.928 332.391 268.265 332.391 268.673V268.727C332.391 268.975 332.48 269.197 332.657 269.392C332.835 269.569 333.065 269.738 333.349 269.898C333.651 270.04 333.988 270.182 334.361 270.324C334.751 270.448 335.15 270.572 335.558 270.696C336.073 270.856 336.588 271.042 337.102 271.255C337.617 271.468 338.078 271.734 338.486 272.053C338.912 272.355 339.258 272.728 339.524 273.171C339.79 273.615 339.923 274.156 339.923 274.795V274.848ZM361.21 274.848C361.21 275.593 361.077 276.241 360.811 276.791C360.545 277.341 360.172 277.802 359.693 278.175C359.232 278.53 358.682 278.805 358.043 279C357.404 279.177 356.721 279.266 355.993 279.266C354.982 279.266 353.953 279.089 352.906 278.734C351.877 278.379 350.919 277.856 350.032 277.164L351.469 274.981C352.232 275.549 353.004 275.984 353.784 276.285C354.583 276.569 355.346 276.711 356.073 276.711C356.765 276.711 357.298 276.578 357.67 276.312C358.061 276.028 358.256 275.655 358.256 275.194V275.141C358.256 274.875 358.167 274.644 357.99 274.449C357.83 274.254 357.599 274.085 357.298 273.943C357.014 273.783 356.677 273.65 356.286 273.544C355.914 273.42 355.523 273.296 355.115 273.171C354.601 273.012 354.077 272.834 353.545 272.639C353.03 272.444 352.56 272.195 352.134 271.894C351.726 271.574 351.389 271.193 351.123 270.749C350.857 270.288 350.724 269.72 350.724 269.046V268.993C350.724 268.336 350.848 267.742 351.096 267.21C351.362 266.677 351.717 266.225 352.161 265.852C352.622 265.48 353.155 265.196 353.758 265.001C354.379 264.805 355.035 264.708 355.727 264.708C356.615 264.708 357.511 264.85 358.415 265.134C359.32 265.418 360.145 265.808 360.891 266.305L359.613 268.594C358.939 268.185 358.256 267.866 357.564 267.635C356.872 267.387 356.233 267.263 355.647 267.263C355.026 267.263 354.539 267.396 354.184 267.662C353.847 267.928 353.678 268.265 353.678 268.673V268.727C353.678 268.975 353.767 269.197 353.944 269.392C354.122 269.569 354.352 269.738 354.636 269.898C354.938 270.04 355.275 270.182 355.647 270.324C356.038 270.448 356.437 270.572 356.845 270.696C357.36 270.856 357.874 271.042 358.389 271.255C358.903 271.468 359.365 271.734 359.773 272.053C360.199 272.355 360.545 272.728 360.811 273.171C361.077 273.615 361.21 274.156 361.21 274.795V274.848ZM373.719 272.879V264.947H376.939V279H373.719V276.818C373.258 277.492 372.681 278.077 371.989 278.574C371.297 279.053 370.41 279.293 369.328 279.293C367.731 279.293 366.498 278.805 365.628 277.829C364.759 276.853 364.324 275.54 364.324 273.89V264.947H367.544V272.932C367.544 274.032 367.802 274.884 368.316 275.487C368.849 276.072 369.594 276.365 370.552 276.365C371.492 276.365 372.255 276.063 372.841 275.46C373.426 274.839 373.719 273.979 373.719 272.879ZM393.231 276.684C392.539 277.465 391.749 278.104 390.862 278.601C389.975 279.08 388.848 279.319 387.482 279.319C386.435 279.319 385.468 279.133 384.581 278.76C383.694 278.37 382.922 277.847 382.266 277.19C381.627 276.516 381.121 275.744 380.749 274.875C380.394 273.988 380.216 273.038 380.216 272.027C380.216 271.016 380.394 270.066 380.749 269.179C381.121 268.292 381.627 267.511 382.266 266.837C382.922 266.163 383.694 265.63 384.581 265.24C385.486 264.85 386.462 264.655 387.509 264.655C388.839 264.655 389.94 264.876 390.809 265.32C391.696 265.763 392.468 266.349 393.124 267.076L391.128 269.232C390.632 268.718 390.099 268.301 389.531 267.981C388.981 267.644 388.298 267.476 387.482 267.476C386.897 267.476 386.355 267.6 385.859 267.848C385.362 268.079 384.936 268.398 384.581 268.806C384.226 269.215 383.942 269.694 383.729 270.244C383.534 270.776 383.437 271.353 383.437 271.974C383.437 272.612 383.534 273.207 383.729 273.757C383.942 274.307 384.235 274.786 384.608 275.194C384.98 275.602 385.424 275.93 385.938 276.179C386.453 276.409 387.021 276.525 387.642 276.525C388.405 276.525 389.07 276.365 389.638 276.046C390.223 275.709 390.774 275.283 391.288 274.768L393.231 276.684ZM408.046 276.684C407.354 277.465 406.564 278.104 405.677 278.601C404.79 279.08 403.663 279.319 402.297 279.319C401.25 279.319 400.283 279.133 399.396 278.76C398.509 278.37 397.737 277.847 397.081 277.19C396.442 276.516 395.936 275.744 395.563 274.875C395.209 273.988 395.031 273.038 395.031 272.027C395.031 271.016 395.209 270.066 395.563 269.179C395.936 268.292 396.442 267.511 397.081 266.837C397.737 266.163 398.509 265.63 399.396 265.24C400.301 264.85 401.277 264.655 402.324 264.655C403.654 264.655 404.755 264.876 405.624 265.32C406.511 265.763 407.283 266.349 407.939 267.076L405.943 269.232C405.446 268.718 404.914 268.301 404.346 267.981C403.796 267.644 403.113 267.476 402.297 267.476C401.712 267.476 401.17 267.6 400.674 267.848C400.177 268.079 399.751 268.398 399.396 268.806C399.041 269.215 398.757 269.694 398.544 270.244C398.349 270.776 398.252 271.353 398.252 271.974C398.252 272.612 398.349 273.207 398.544 273.757C398.757 274.307 399.05 274.786 399.423 275.194C399.795 275.602 400.239 275.93 400.753 276.179C401.268 276.409 401.836 276.525 402.457 276.525C403.22 276.525 403.885 276.365 404.453 276.046C405.038 275.709 405.588 275.283 406.103 274.768L408.046 276.684ZM413.067 273.118C413.262 274.271 413.723 275.159 414.451 275.78C415.178 276.383 416.065 276.684 417.112 276.684C417.91 276.684 418.602 276.543 419.188 276.259C419.773 275.975 420.35 275.558 420.918 275.008L422.808 276.684C422.133 277.483 421.326 278.122 420.386 278.601C419.463 279.08 418.354 279.319 417.059 279.319C416.047 279.319 415.098 279.142 414.211 278.787C413.342 278.432 412.579 277.935 411.922 277.297C411.283 276.658 410.778 275.895 410.405 275.008C410.032 274.103 409.846 273.1 409.846 272C409.846 270.989 410.015 270.04 410.352 269.152C410.689 268.265 411.159 267.493 411.762 266.837C412.383 266.163 413.111 265.63 413.945 265.24C414.779 264.85 415.701 264.655 416.713 264.655C417.831 264.655 418.806 264.859 419.64 265.267C420.492 265.675 421.193 266.225 421.743 266.917C422.311 267.609 422.737 268.416 423.021 269.339C423.304 270.261 423.446 271.228 423.446 272.24C423.446 272.382 423.437 272.524 423.42 272.666C423.42 272.808 423.411 272.958 423.393 273.118H413.067ZM413.04 270.989H420.253C420.199 270.474 420.084 269.995 419.907 269.552C419.729 269.09 419.49 268.7 419.188 268.381C418.886 268.044 418.523 267.777 418.097 267.582C417.689 267.387 417.218 267.289 416.686 267.289C415.693 267.289 414.867 267.635 414.211 268.327C413.572 269.002 413.182 269.889 413.04 270.989ZM436.714 274.848C436.714 275.593 436.581 276.241 436.315 276.791C436.049 277.341 435.676 277.802 435.197 278.175C434.736 278.53 434.186 278.805 433.547 279C432.908 279.177 432.225 279.266 431.498 279.266C430.486 279.266 429.457 279.089 428.41 278.734C427.381 278.379 426.423 277.856 425.536 277.164L426.973 274.981C427.736 275.549 428.508 275.984 429.289 276.285C430.087 276.569 430.85 276.711 431.578 276.711C432.27 276.711 432.802 276.578 433.175 276.312C433.565 276.028 433.76 275.655 433.76 275.194V275.141C433.76 274.875 433.671 274.644 433.494 274.449C433.334 274.254 433.104 274.085 432.802 273.943C432.518 273.783 432.181 273.65 431.791 273.544C431.418 273.42 431.028 273.296 430.62 273.171C430.105 273.012 429.582 272.834 429.049 272.639C428.535 272.444 428.064 272.195 427.639 271.894C427.231 271.574 426.893 271.193 426.627 270.749C426.361 270.288 426.228 269.72 426.228 269.046V268.993C426.228 268.336 426.352 267.742 426.601 267.21C426.867 266.677 427.222 266.225 427.665 265.852C428.127 265.48 428.659 265.196 429.262 265.001C429.883 264.805 430.54 264.708 431.232 264.708C432.119 264.708 433.015 264.85 433.92 265.134C434.825 265.418 435.65 265.808 436.395 266.305L435.117 268.594C434.443 268.185 433.76 267.866 433.068 267.635C432.376 267.387 431.737 267.263 431.152 267.263C430.531 267.263 430.043 267.396 429.688 267.662C429.351 267.928 429.182 268.265 429.182 268.673V268.727C429.182 268.975 429.271 269.197 429.448 269.392C429.626 269.569 429.857 269.738 430.14 269.898C430.442 270.04 430.779 270.182 431.152 270.324C431.542 270.448 431.941 270.572 432.349 270.696C432.864 270.856 433.379 271.042 433.893 271.255C434.408 271.468 434.869 271.734 435.277 272.053C435.703 272.355 436.049 272.728 436.315 273.171C436.581 273.615 436.714 274.156 436.714 274.795V274.848ZM449.762 274.848C449.762 275.593 449.629 276.241 449.363 276.791C449.097 277.341 448.724 277.802 448.245 278.175C447.784 278.53 447.233 278.805 446.595 279C445.956 279.177 445.273 279.266 444.545 279.266C443.534 279.266 442.505 279.089 441.458 278.734C440.429 278.379 439.471 277.856 438.584 277.164L440.021 274.981C440.784 275.549 441.556 275.984 442.336 276.285C443.135 276.569 443.898 276.711 444.625 276.711C445.317 276.711 445.849 276.578 446.222 276.312C446.612 276.028 446.808 275.655 446.808 275.194V275.141C446.808 274.875 446.719 274.644 446.541 274.449C446.382 274.254 446.151 274.085 445.849 273.943C445.566 273.783 445.228 273.65 444.838 273.544C444.466 273.42 444.075 273.296 443.667 273.171C443.153 273.012 442.629 272.834 442.097 272.639C441.582 272.444 441.112 272.195 440.686 271.894C440.278 271.574 439.941 271.193 439.675 270.749C439.409 270.288 439.276 269.72 439.276 269.046V268.993C439.276 268.336 439.4 267.742 439.648 267.21C439.914 266.677 440.269 266.225 440.713 265.852C441.174 265.48 441.706 265.196 442.31 265.001C442.931 264.805 443.587 264.708 444.279 264.708C445.166 264.708 446.062 264.85 446.967 265.134C447.872 265.418 448.697 265.808 449.443 266.305L448.165 268.594C447.491 268.185 446.808 267.866 446.116 267.635C445.424 267.387 444.785 267.263 444.199 267.263C443.578 267.263 443.09 267.396 442.736 267.662C442.398 267.928 442.23 268.265 442.23 268.673V268.727C442.23 268.975 442.319 269.197 442.496 269.392C442.673 269.569 442.904 269.738 443.188 269.898C443.49 270.04 443.827 270.182 444.199 270.324C444.59 270.448 444.989 270.572 445.397 270.696C445.912 270.856 446.426 271.042 446.941 271.255C447.455 271.468 447.917 271.734 448.325 272.053C448.751 272.355 449.097 272.728 449.363 273.171C449.629 273.615 449.762 274.156 449.762 274.795V274.848ZM456.921 265.054H460.647V267.715H456.975V279H453.754V267.715H451.971V265.027H453.754V264.016C453.754 262.454 454.127 261.301 454.872 260.556C455.617 259.793 456.682 259.411 458.066 259.411C458.634 259.411 459.122 259.447 459.53 259.518C459.938 259.589 460.319 259.678 460.674 259.784V262.499C460.355 262.392 460.044 262.312 459.743 262.259C459.459 262.188 459.139 262.153 458.784 262.153C457.542 262.153 456.921 262.862 456.921 264.282V265.054ZM472.278 272.879V264.947H475.498V279H472.278V276.818C471.816 277.492 471.24 278.077 470.548 278.574C469.856 279.053 468.968 279.293 467.886 279.293C466.289 279.293 465.056 278.805 464.187 277.829C463.317 276.853 462.882 275.54 462.882 273.89V264.947H466.103V272.932C466.103 274.032 466.36 274.884 466.875 275.487C467.407 276.072 468.152 276.365 469.11 276.365C470.051 276.365 470.814 276.063 471.399 275.46C471.985 274.839 472.278 273.979 472.278 272.879ZM482.953 279H479.733V259.571H482.953V279Z" fill="#8E8E8E"/>
<path d="M137.273 214.765H129.817V208.728H151.619V214.765H144.162V233.584H137.273V214.765ZM154.252 207.663H160.999V217.002C161.614 216.197 162.383 215.487 163.307 214.871C164.23 214.256 165.378 213.948 166.751 213.948C168.81 213.948 170.408 214.575 171.545 215.83C172.704 217.084 173.284 218.813 173.284 221.014V233.584H166.538V223.18C166.538 222.115 166.289 221.31 165.792 220.765C165.295 220.221 164.644 219.949 163.839 219.949C163.011 219.949 162.324 220.221 161.78 220.765C161.259 221.31 160.999 222.115 160.999 223.18V233.584H154.252V207.663ZM184.675 229.785C185.669 229.785 186.474 229.501 187.09 228.932C187.705 228.364 188.013 227.595 188.013 226.624V225.737C187.681 225.595 187.279 225.476 186.806 225.382C186.356 225.287 185.882 225.24 185.385 225.24C184.391 225.24 183.622 225.464 183.077 225.914C182.556 226.34 182.296 226.908 182.296 227.619V227.69C182.296 228.352 182.521 228.873 182.971 229.252C183.42 229.607 183.989 229.785 184.675 229.785ZM182.261 234.01C181.337 234.01 180.485 233.88 179.704 233.619C178.923 233.359 178.236 232.98 177.644 232.483C177.076 231.986 176.627 231.371 176.295 230.637C175.964 229.903 175.798 229.051 175.798 228.08V228.009C175.798 227.015 175.976 226.139 176.331 225.382C176.709 224.624 177.218 223.997 177.857 223.5C178.52 223.003 179.313 222.624 180.237 222.363C181.16 222.103 182.19 221.973 183.326 221.973C184.225 221.973 185.078 222.056 185.882 222.221C186.711 222.363 187.397 222.529 187.942 222.718V222.399C187.942 221.405 187.622 220.635 186.983 220.091C186.368 219.546 185.409 219.274 184.107 219.274C183.089 219.274 182.166 219.369 181.337 219.558C180.509 219.748 179.668 220.008 178.816 220.339L177.431 215.581C178.52 215.131 179.668 214.776 180.876 214.516C182.107 214.232 183.551 214.09 185.208 214.09C186.936 214.09 188.392 214.291 189.575 214.694C190.783 215.096 191.765 215.676 192.522 216.433C193.256 217.144 193.777 218.008 194.085 219.026C194.416 220.02 194.582 221.192 194.582 222.541V233.584H187.906V231.596C187.244 232.329 186.451 232.921 185.527 233.371C184.628 233.797 183.539 234.01 182.261 234.01ZM198.013 214.374H204.76V217.073C205.068 216.67 205.411 216.28 205.79 215.901C206.168 215.522 206.594 215.191 207.068 214.907C207.541 214.623 208.062 214.398 208.63 214.232C209.198 214.043 209.826 213.948 210.512 213.948C212.572 213.948 214.169 214.575 215.306 215.83C216.466 217.084 217.046 218.813 217.046 221.014V233.584H210.299V223.18C210.299 222.115 210.051 221.31 209.553 220.765C209.056 220.221 208.405 219.949 207.6 219.949C206.772 219.949 206.085 220.221 205.541 220.765C205.02 221.31 204.76 222.115 204.76 223.18V233.584H198.013V214.374ZM220.518 207.663H227.265V220.801L232.484 214.374H240.119L233.443 222.079L240.296 233.584H232.875L229.004 227.05L227.265 229.074V233.584H220.518V207.663ZM259.324 224.281L249.879 208.728H257.727L262.84 217.783L267.988 208.728H275.694L266.249 224.174V233.584H259.324V224.281ZM287.293 228.329C287.908 228.329 288.465 228.222 288.962 228.009C289.459 227.772 289.873 227.465 290.204 227.086C290.56 226.684 290.832 226.222 291.021 225.701C291.21 225.18 291.305 224.636 291.305 224.068V223.997C291.305 223.405 291.199 222.849 290.986 222.328C290.796 221.807 290.512 221.357 290.133 220.979C289.778 220.576 289.352 220.257 288.855 220.02C288.358 219.783 287.814 219.665 287.222 219.665C286.606 219.665 286.05 219.783 285.553 220.02C285.056 220.233 284.63 220.541 284.275 220.943C283.943 221.322 283.683 221.772 283.493 222.292C283.304 222.813 283.209 223.358 283.209 223.926V223.997C283.209 224.589 283.304 225.145 283.493 225.666C283.706 226.186 283.99 226.648 284.346 227.05C284.724 227.429 285.162 227.737 285.659 227.974C286.156 228.21 286.701 228.329 287.293 228.329ZM287.222 234.046C285.683 234.046 284.263 233.785 282.961 233.264C281.682 232.744 280.57 232.033 279.623 231.134C278.676 230.211 277.942 229.145 277.421 227.938C276.901 226.731 276.64 225.441 276.64 224.068V223.997C276.64 222.624 276.901 221.334 277.421 220.126C277.966 218.895 278.712 217.83 279.658 216.931C280.605 216.007 281.73 215.285 283.032 214.765C284.334 214.22 285.754 213.948 287.293 213.948C288.831 213.948 290.24 214.22 291.518 214.765C292.82 215.285 293.945 215.996 294.892 216.895C295.838 217.795 296.572 218.848 297.093 220.055C297.614 221.263 297.874 222.553 297.874 223.926V223.997C297.874 225.37 297.602 226.672 297.058 227.903C296.537 229.11 295.803 230.175 294.856 231.098C293.909 231.998 292.785 232.72 291.483 233.264C290.181 233.785 288.76 234.046 287.222 234.046ZM307.115 234.01C305.056 234.01 303.446 233.383 302.286 232.128C301.15 230.874 300.582 229.145 300.582 226.944V214.374H307.328V224.778C307.328 225.843 307.577 226.648 308.074 227.192C308.571 227.737 309.234 228.009 310.062 228.009C310.867 228.009 311.53 227.737 312.051 227.192C312.595 226.648 312.868 225.843 312.868 224.778V214.374H319.614V233.584H312.868V230.956C312.252 231.761 311.483 232.471 310.56 233.087C309.636 233.702 308.488 234.01 307.115 234.01ZM343.161 227.477C345.22 227.477 346.877 226.932 348.132 225.843C349.387 224.754 350.014 223.204 350.014 221.192V221.121C350.014 219.132 349.387 217.593 348.132 216.504C346.877 215.392 345.22 214.836 343.161 214.836H340.356V227.477H343.161ZM333.467 208.728H343.054C345.28 208.728 347.256 209.036 348.984 209.651C350.736 210.243 352.204 211.084 353.387 212.172C354.595 213.261 355.506 214.563 356.121 216.078C356.761 217.57 357.08 219.215 357.08 221.014V221.085C357.08 222.884 356.761 224.553 356.121 226.092C355.482 227.607 354.559 228.921 353.352 230.033C352.145 231.146 350.653 232.022 348.878 232.661C347.126 233.276 345.138 233.584 342.912 233.584H333.467V208.728ZM372.514 222.399C372.395 221.334 372.04 220.493 371.449 219.878C370.857 219.239 370.099 218.919 369.176 218.919C368.276 218.919 367.543 219.239 366.975 219.878C366.406 220.493 366.028 221.334 365.838 222.399H372.514ZM369.744 234.046C368.229 234.046 366.844 233.809 365.59 233.335C364.335 232.838 363.246 232.164 362.323 231.311C361.423 230.436 360.713 229.382 360.192 228.151C359.695 226.92 359.447 225.559 359.447 224.068V223.997C359.447 222.6 359.683 221.298 360.157 220.091C360.63 218.86 361.293 217.795 362.145 216.895C363.021 215.972 364.051 215.25 365.235 214.729C366.418 214.208 367.72 213.948 369.141 213.948C370.798 213.948 372.23 214.232 373.437 214.8C374.668 215.368 375.674 216.138 376.455 217.108C377.26 218.055 377.852 219.168 378.231 220.446C378.633 221.701 378.834 223.038 378.834 224.458C378.834 224.671 378.834 224.896 378.834 225.133C378.834 225.37 378.822 225.606 378.799 225.843H365.945C366.205 226.908 366.69 227.701 367.401 228.222C368.134 228.743 369.034 229.003 370.099 229.003C370.904 229.003 371.638 228.85 372.301 228.542C372.987 228.234 373.674 227.737 374.36 227.05L378.089 230.14C377.165 231.323 376.017 232.27 374.644 232.98C373.295 233.691 371.662 234.046 369.744 234.046ZM389.645 229.785C390.64 229.785 391.445 229.501 392.06 228.932C392.676 228.364 392.983 227.595 392.983 226.624V225.737C392.652 225.595 392.249 225.476 391.776 225.382C391.326 225.287 390.853 225.24 390.356 225.24C389.361 225.24 388.592 225.464 388.048 225.914C387.527 226.34 387.266 226.908 387.266 227.619V227.69C387.266 228.352 387.491 228.873 387.941 229.252C388.391 229.607 388.959 229.785 389.645 229.785ZM387.231 234.01C386.308 234.01 385.455 233.88 384.674 233.619C383.893 233.359 383.207 232.98 382.615 232.483C382.047 231.986 381.597 231.371 381.265 230.637C380.934 229.903 380.768 229.051 380.768 228.08V228.009C380.768 227.015 380.946 226.139 381.301 225.382C381.68 224.624 382.189 223.997 382.828 223.5C383.491 223.003 384.284 222.624 385.207 222.363C386.13 222.103 387.16 221.973 388.296 221.973C389.196 221.973 390.048 222.056 390.853 222.221C391.681 222.363 392.368 222.529 392.912 222.718V222.399C392.912 221.405 392.593 220.635 391.954 220.091C391.338 219.546 390.379 219.274 389.077 219.274C388.059 219.274 387.136 219.369 386.308 219.558C385.479 219.748 384.639 220.008 383.787 220.339L382.402 215.581C383.491 215.131 384.639 214.776 385.846 214.516C387.077 214.232 388.521 214.09 390.178 214.09C391.906 214.09 393.362 214.291 394.546 214.694C395.753 215.096 396.735 215.676 397.493 216.433C398.227 217.144 398.747 218.008 399.055 219.026C399.387 220.02 399.552 221.192 399.552 222.541V233.584H392.877V231.596C392.214 232.329 391.421 232.921 390.498 233.371C389.598 233.797 388.509 234.01 387.231 234.01ZM402.984 214.374H409.73V218.244C410.275 216.942 411.02 215.901 411.967 215.12C412.914 214.338 414.192 213.983 415.802 214.054V221.156H415.234C413.459 221.156 412.097 221.677 411.15 222.718C410.204 223.76 409.73 225.393 409.73 227.619V233.584H402.984V214.374ZM427.096 236.922C429.535 236.638 430.718 235.525 430.647 233.584H427.913V226.66H434.944V232.306C434.944 233.631 434.766 234.744 434.411 235.643C434.08 236.543 433.595 237.265 432.955 237.809C432.316 238.378 431.547 238.792 430.647 239.052C429.748 239.336 428.742 239.49 427.629 239.514L427.096 236.922ZM427.913 214.374H434.944V221.298H427.913V214.374ZM437.712 234.401C438.848 233.619 439.83 232.826 440.659 232.022C441.487 231.193 442.162 230.341 442.683 229.465C443.227 228.565 443.63 227.619 443.89 226.624C444.15 225.63 444.281 224.553 444.281 223.393C444.281 222.233 444.15 221.156 443.89 220.162C443.63 219.168 443.227 218.233 442.683 217.357C442.162 216.457 441.487 215.605 440.659 214.8C439.83 213.972 438.848 213.167 437.712 212.386L440.517 208.196C442.174 209.071 443.641 210.018 444.92 211.036C446.222 212.054 447.311 213.179 448.186 214.409C449.062 215.64 449.725 217.002 450.175 218.493C450.648 219.961 450.885 221.594 450.885 223.393C450.885 225.192 450.648 226.837 450.175 228.329C449.725 229.796 449.062 231.146 448.186 232.377C447.311 233.608 446.222 234.732 444.92 235.75C443.641 236.768 442.174 237.715 440.517 238.591L437.712 234.401Z" fill="#1E1E1E"/>
<path d="M55.8382 371.306C55.8382 372.619 55.5987 373.852 55.1196 375.006C54.6405 376.141 53.9574 377.126 53.0702 377.96C52.2008 378.794 51.154 379.45 49.9297 379.929C48.7231 380.408 47.3924 380.648 45.9374 380.648H38.9909V362.017H45.9374C47.3924 362.017 48.7231 362.257 49.9297 362.736C51.154 363.197 52.2008 363.845 53.0702 364.679C53.9574 365.513 54.6405 366.498 55.1196 367.633C55.5987 368.769 55.8382 369.993 55.8382 371.306ZM52.4049 371.359C52.4049 370.437 52.2452 369.594 51.9258 368.831C51.6242 368.05 51.1894 367.376 50.6217 366.808C50.0716 366.24 49.3974 365.797 48.5989 365.477C47.8005 365.158 46.9133 364.998 45.9374 364.998H42.2646V377.667H45.9374C46.9133 377.667 47.8005 377.516 48.5989 377.215C49.3974 376.895 50.0716 376.46 50.6217 375.91C51.1894 375.343 51.6242 374.677 51.9258 373.914C52.2452 373.134 52.4049 372.282 52.4049 371.359ZM71.76 380.648H68.5662V378.918C68.0871 379.486 67.475 379.965 66.7297 380.355C65.9845 380.746 65.0796 380.941 64.015 380.941C63.3408 380.941 62.702 380.843 62.0987 380.648C61.4955 380.47 60.9632 380.204 60.5018 379.849C60.0583 379.477 59.6945 379.024 59.4106 378.492C59.1445 377.942 59.0114 377.312 59.0114 376.602V376.549C59.0114 375.786 59.1534 375.121 59.4372 374.553C59.7211 373.985 60.1115 373.515 60.6083 373.143C61.1229 372.77 61.7261 372.495 62.4181 372.317C63.1279 372.122 63.8908 372.025 64.707 372.025C65.5587 372.025 66.2773 372.078 66.8628 372.184C67.4661 372.291 68.0427 372.433 68.5928 372.61V372.264C68.5928 371.288 68.2912 370.543 67.6879 370.029C67.1024 369.514 66.2507 369.257 65.1328 369.257C64.3344 369.257 63.6247 369.337 63.0036 369.496C62.3826 369.656 61.7527 369.869 61.114 370.135L60.2357 367.553C61.0164 367.198 61.8148 366.915 62.631 366.702C63.4472 366.489 64.432 366.382 65.5853 366.382C67.679 366.382 69.2315 366.906 70.2429 367.953C71.2543 368.982 71.76 370.437 71.76 372.317V380.648ZM68.646 375.564V374.686C68.2379 374.526 67.75 374.393 67.1822 374.287C66.6322 374.18 66.0466 374.127 65.4256 374.127C64.4142 374.127 63.6247 374.322 63.0569 374.713C62.4891 375.103 62.2052 375.662 62.2052 376.39V376.443C62.2052 377.117 62.4625 377.632 62.977 377.986C63.5093 378.341 64.157 378.519 64.9199 378.519C65.4522 378.519 65.9402 378.448 66.3837 378.306C66.8451 378.164 67.2443 377.969 67.5814 377.72C67.9185 377.454 68.1758 377.144 68.3533 376.789C68.5484 376.416 68.646 376.008 68.646 375.564ZM79.8784 369.363V376.256C79.8784 376.877 80.0292 377.33 80.3308 377.614C80.6325 377.88 81.0583 378.013 81.6083 378.013C82.3003 378.013 82.9657 377.853 83.6045 377.534V380.169C83.1964 380.4 82.7616 380.577 82.3003 380.701C81.839 380.825 81.3067 380.887 80.7034 380.887C80.1179 380.887 79.5767 380.816 79.0799 380.675C78.5831 380.533 78.1484 380.302 77.7758 379.983C77.4209 379.663 77.1459 379.246 76.9507 378.732C76.7555 378.199 76.658 377.543 76.658 376.762V369.363H74.8747V366.595H76.658V362.736H79.8784V366.595H83.6577V369.363H79.8784ZM89.4999 374.766C89.6951 375.919 90.1564 376.806 90.8839 377.428C91.6113 378.031 92.4985 378.332 93.5454 378.332C94.3438 378.332 95.0358 378.19 95.6213 377.907C96.2068 377.623 96.7835 377.206 97.3513 376.656L99.241 378.332C98.5667 379.131 97.7594 379.77 96.819 380.249C95.8963 380.728 94.7874 380.967 93.4921 380.967C92.4808 380.967 91.5315 380.79 90.6443 380.435C89.7749 380.08 89.0119 379.583 88.3554 378.945C87.7167 378.306 87.211 377.543 86.8384 376.656C86.4658 375.751 86.2795 374.748 86.2795 373.648C86.2795 372.637 86.448 371.688 86.7852 370.8C87.1223 369.913 87.5925 369.141 88.1957 368.485C88.8168 367.811 89.5442 367.278 90.3782 366.888C91.2121 366.498 92.1348 366.302 93.1461 366.302C94.264 366.302 95.2398 366.507 96.0738 366.915C96.9255 367.323 97.6263 367.873 98.1764 368.565C98.7441 369.257 99.17 370.064 99.4539 370.987C99.7378 371.909 99.8797 372.876 99.8797 373.888C99.8797 374.03 99.8708 374.172 99.8531 374.314C99.8531 374.456 99.8442 374.606 99.8265 374.766H89.4999ZM89.4733 372.637H96.6859C96.6327 372.122 96.5174 371.643 96.3399 371.2C96.1625 370.738 95.923 370.348 95.6213 370.029C95.3197 369.691 94.9559 369.425 94.5301 369.23C94.122 369.035 93.6518 368.937 93.1195 368.937C92.1259 368.937 91.3008 369.283 90.6443 369.975C90.0056 370.65 89.6152 371.537 89.4733 372.637Z" fill="#B9B9B9"/>
<path d="M55.8382 371.306C55.8382 372.619 55.5987 373.852 55.1196 375.006C54.6405 376.141 53.9574 377.126 53.0702 377.96C52.2008 378.794 51.154 379.45 49.9297 379.929C48.7231 380.408 47.3924 380.648 45.9374 380.648H38.9909V362.017H45.9374C47.3924 362.017 48.7231 362.257 49.9297 362.736C51.154 363.197 52.2008 363.845 53.0702 364.679C53.9574 365.513 54.6405 366.498 55.1196 367.633C55.5987 368.769 55.8382 369.993 55.8382 371.306ZM52.4049 371.359C52.4049 370.437 52.2452 369.594 51.9258 368.831C51.6242 368.05 51.1894 367.376 50.6217 366.808C50.0716 366.24 49.3974 365.797 48.5989 365.477C47.8005 365.158 46.9133 364.998 45.9374 364.998H42.2646V377.667H45.9374C46.9133 377.667 47.8005 377.516 48.5989 377.215C49.3974 376.895 50.0716 376.46 50.6217 375.91C51.1894 375.343 51.6242 374.677 51.9258 373.914C52.2452 373.134 52.4049 372.282 52.4049 371.359ZM71.76 380.648H68.5662V378.918C68.0871 379.486 67.475 379.965 66.7297 380.355C65.9845 380.746 65.0796 380.941 64.015 380.941C63.3408 380.941 62.702 380.843 62.0987 380.648C61.4955 380.47 60.9632 380.204 60.5018 379.849C60.0583 379.477 59.6945 379.024 59.4106 378.492C59.1445 377.942 59.0114 377.312 59.0114 376.602V376.549C59.0114 375.786 59.1534 375.121 59.4372 374.553C59.7211 373.985 60.1115 373.515 60.6083 373.143C61.1229 372.77 61.7261 372.495 62.4181 372.317C63.1279 372.122 63.8908 372.025 64.707 372.025C65.5587 372.025 66.2773 372.078 66.8628 372.184C67.4661 372.291 68.0427 372.433 68.5928 372.61V372.264C68.5928 371.288 68.2912 370.543 67.6879 370.029C67.1024 369.514 66.2507 369.257 65.1328 369.257C64.3344 369.257 63.6247 369.337 63.0036 369.496C62.3826 369.656 61.7527 369.869 61.114 370.135L60.2357 367.553C61.0164 367.198 61.8148 366.915 62.631 366.702C63.4472 366.489 64.432 366.382 65.5853 366.382C67.679 366.382 69.2315 366.906 70.2429 367.953C71.2543 368.982 71.76 370.437 71.76 372.317V380.648ZM68.646 375.564V374.686C68.2379 374.526 67.75 374.393 67.1822 374.287C66.6322 374.18 66.0466 374.127 65.4256 374.127C64.4142 374.127 63.6247 374.322 63.0569 374.713C62.4891 375.103 62.2052 375.662 62.2052 376.39V376.443C62.2052 377.117 62.4625 377.632 62.977 377.986C63.5093 378.341 64.157 378.519 64.9199 378.519C65.4522 378.519 65.9402 378.448 66.3837 378.306C66.8451 378.164 67.2443 377.969 67.5814 377.72C67.9185 377.454 68.1758 377.144 68.3533 376.789C68.5484 376.416 68.646 376.008 68.646 375.564ZM79.8784 369.363V376.256C79.8784 376.877 80.0292 377.33 80.3308 377.614C80.6325 377.88 81.0583 378.013 81.6083 378.013C82.3003 378.013 82.9657 377.853 83.6045 377.534V380.169C83.1964 380.4 82.7616 380.577 82.3003 380.701C81.839 380.825 81.3067 380.887 80.7034 380.887C80.1179 380.887 79.5767 380.816 79.0799 380.675C78.5831 380.533 78.1484 380.302 77.7758 379.983C77.4209 379.663 77.1459 379.246 76.9507 378.732C76.7555 378.199 76.658 377.543 76.658 376.762V369.363H74.8747V366.595H76.658V362.736H79.8784V366.595H83.6577V369.363H79.8784ZM89.4999 374.766C89.6951 375.919 90.1564 376.806 90.8839 377.428C91.6113 378.031 92.4985 378.332 93.5454 378.332C94.3438 378.332 95.0358 378.19 95.6213 377.907C96.2068 377.623 96.7835 377.206 97.3513 376.656L99.241 378.332C98.5667 379.131 97.7594 379.77 96.819 380.249C95.8963 380.728 94.7874 380.967 93.4921 380.967C92.4808 380.967 91.5315 380.79 90.6443 380.435C89.7749 380.08 89.0119 379.583 88.3554 378.945C87.7167 378.306 87.211 377.543 86.8384 376.656C86.4658 375.751 86.2795 374.748 86.2795 373.648C86.2795 372.637 86.448 371.688 86.7852 370.8C87.1223 369.913 87.5925 369.141 88.1957 368.485C88.8168 367.811 89.5442 367.278 90.3782 366.888C91.2121 366.498 92.1348 366.302 93.1461 366.302C94.264 366.302 95.2398 366.507 96.0738 366.915C96.9255 367.323 97.6263 367.873 98.1764 368.565C98.7441 369.257 99.17 370.064 99.4539 370.987C99.7378 371.909 99.8797 372.876 99.8797 373.888C99.8797 374.03 99.8708 374.172 99.8531 374.314C99.8531 374.456 99.8442 374.606 99.8265 374.766H89.4999ZM89.4733 372.637H96.6859C96.6327 372.122 96.5174 371.643 96.3399 371.2C96.1625 370.738 95.923 370.348 95.6213 370.029C95.3197 369.691 94.9559 369.425 94.5301 369.23C94.122 369.035 93.6518 368.937 93.1195 368.937C92.1259 368.937 91.3008 369.283 90.6443 369.975C90.0056 370.65 89.6152 371.537 89.4733 372.637Z" fill="#979797"/>
<path d="M46.869 433.252V448.849H43.5687V433.252H37.6602V430.218H52.7775V433.252H46.869ZM59.4281 432.64H55.9681V429.579H59.4281V432.64ZM59.3216 448.849H56.1012V434.796H59.3216V448.849ZM75.7466 436.978C76.3144 436.233 76.9798 435.639 77.7427 435.195C78.5234 434.734 79.4461 434.503 80.5107 434.503C82.0543 434.503 83.2609 434.973 84.1303 435.914C84.9997 436.837 85.4344 438.158 85.4344 439.879V448.849H82.214V440.864C82.214 439.746 81.9656 438.895 81.4688 438.309C80.972 437.724 80.2711 437.431 79.3662 437.431C78.4791 437.431 77.7516 437.733 77.1838 438.336C76.6338 438.921 76.3587 439.782 76.3587 440.917V448.849H73.1383V440.838C73.1383 439.738 72.8899 438.895 72.3931 438.309C71.8963 437.724 71.1954 437.431 70.2905 437.431C69.3856 437.431 68.6581 437.741 68.1081 438.362C67.5581 438.983 67.283 439.844 67.283 440.944V448.849H64.0626V434.796H67.283V436.925C67.5137 436.606 67.7621 436.304 68.0283 436.02C68.2944 435.736 68.596 435.479 68.9332 435.248C69.288 435.018 69.6784 434.84 70.1042 434.716C70.5478 434.574 71.0358 434.503 71.5681 434.503C72.5794 434.503 73.4311 434.734 74.1231 435.195C74.8328 435.639 75.374 436.233 75.7466 436.978ZM92.3329 442.967C92.5281 444.12 92.9894 445.007 93.7169 445.628C94.4444 446.232 95.3315 446.533 96.3784 446.533C97.1768 446.533 97.8688 446.391 98.4544 446.107C99.0399 445.823 99.6165 445.407 100.184 444.856L102.074 446.533C101.4 447.332 100.592 447.97 99.652 448.45C98.7294 448.929 97.6204 449.168 96.3252 449.168C95.3138 449.168 94.3645 448.991 93.4774 448.636C92.6079 448.281 91.845 447.784 91.1885 447.145C90.5497 446.507 90.044 445.744 89.6714 444.856C89.2988 443.952 89.1125 442.949 89.1125 441.849C89.1125 440.838 89.2811 439.888 89.6182 439.001C89.9553 438.114 90.4255 437.342 91.0288 436.686C91.6498 436.011 92.3773 435.479 93.2112 435.089C94.0451 434.698 94.9678 434.503 95.9792 434.503C97.097 434.503 98.0729 434.707 98.9068 435.115C99.7585 435.524 100.459 436.074 101.009 436.766C101.577 437.458 102.003 438.265 102.287 439.187C102.571 440.11 102.713 441.077 102.713 442.089C102.713 442.23 102.704 442.372 102.686 442.514C102.686 442.656 102.677 442.807 102.66 442.967H92.3329ZM92.3063 440.838H99.519C99.4657 440.323 99.3504 439.844 99.173 439.4C98.9955 438.939 98.756 438.549 98.4544 438.229C98.1527 437.892 97.789 437.626 97.3631 437.431C96.955 437.236 96.4848 437.138 95.9525 437.138C94.9589 437.138 94.1339 437.484 93.4774 438.176C92.8386 438.85 92.4482 439.738 92.3063 440.838Z" fill="#B9B9B9"/>
<path d="M46.869 433.252V448.849H43.5687V433.252H37.6602V430.218H52.7775V433.252H46.869ZM59.4281 432.64H55.9681V429.579H59.4281V432.64ZM59.3216 448.849H56.1012V434.796H59.3216V448.849ZM75.7466 436.978C76.3144 436.233 76.9798 435.639 77.7427 435.195C78.5234 434.734 79.4461 434.503 80.5107 434.503C82.0543 434.503 83.2609 434.973 84.1303 435.914C84.9997 436.837 85.4344 438.158 85.4344 439.879V448.849H82.214V440.864C82.214 439.746 81.9656 438.895 81.4688 438.309C80.972 437.724 80.2711 437.431 79.3662 437.431C78.4791 437.431 77.7516 437.733 77.1838 438.336C76.6338 438.921 76.3587 439.782 76.3587 440.917V448.849H73.1383V440.838C73.1383 439.738 72.8899 438.895 72.3931 438.309C71.8963 437.724 71.1954 437.431 70.2905 437.431C69.3856 437.431 68.6581 437.741 68.1081 438.362C67.5581 438.983 67.283 439.844 67.283 440.944V448.849H64.0626V434.796H67.283V436.925C67.5137 436.606 67.7621 436.304 68.0283 436.02C68.2944 435.736 68.596 435.479 68.9332 435.248C69.288 435.018 69.6784 434.84 70.1042 434.716C70.5478 434.574 71.0358 434.503 71.5681 434.503C72.5794 434.503 73.4311 434.734 74.1231 435.195C74.8328 435.639 75.374 436.233 75.7466 436.978ZM92.3329 442.967C92.5281 444.12 92.9894 445.007 93.7169 445.628C94.4444 446.232 95.3315 446.533 96.3784 446.533C97.1768 446.533 97.8688 446.391 98.4544 446.107C99.0399 445.823 99.6165 445.407 100.184 444.856L102.074 446.533C101.4 447.332 100.592 447.97 99.652 448.45C98.7294 448.929 97.6204 449.168 96.3252 449.168C95.3138 449.168 94.3645 448.991 93.4774 448.636C92.6079 448.281 91.845 447.784 91.1885 447.145C90.5497 446.507 90.044 445.744 89.6714 444.856C89.2988 443.952 89.1125 442.949 89.1125 441.849C89.1125 440.838 89.2811 439.888 89.6182 439.001C89.9553 438.114 90.4255 437.342 91.0288 436.686C91.6498 436.011 92.3773 435.479 93.2112 435.089C94.0451 434.698 94.9678 434.503 95.9792 434.503C97.097 434.503 98.0729 434.707 98.9068 435.115C99.7585 435.524 100.459 436.074 101.009 436.766C101.577 437.458 102.003 438.265 102.287 439.187C102.571 440.11 102.713 441.077 102.713 442.089C102.713 442.23 102.704 442.372 102.686 442.514C102.686 442.656 102.677 442.807 102.66 442.967H92.3329ZM92.3063 440.838H99.519C99.4657 440.323 99.3504 439.844 99.173 439.4C98.9955 438.939 98.756 438.549 98.4544 438.229C98.1527 437.892 97.789 437.626 97.3631 437.431C96.955 437.236 96.4848 437.138 95.9525 437.138C94.9589 437.138 94.1339 437.484 93.4774 438.176C92.8386 438.85 92.4482 439.738 92.3063 440.838Z" fill="#979797"/>
<path d="M46.869 503.117V518.713H43.5687V503.117H37.6602V500.082H52.7775V503.117H46.869ZM67.5802 511.687C67.5802 512.698 67.385 513.647 66.9946 514.534C66.622 515.422 66.0986 516.202 65.4244 516.876C64.7679 517.533 63.9783 518.056 63.0556 518.447C62.133 518.837 61.1305 519.032 60.0481 519.032C58.9835 519.032 57.9899 518.846 57.0673 518.473C56.1624 518.083 55.3728 517.56 54.6985 516.903C54.042 516.229 53.5275 515.457 53.1549 514.588C52.7823 513.7 52.596 512.751 52.596 511.74C52.596 510.728 52.7823 509.779 53.1549 508.892C53.5452 507.987 54.0686 507.206 54.7251 506.55C55.3994 505.876 56.189 505.343 57.0939 504.953C58.0165 504.563 59.019 504.367 60.1014 504.367C61.1837 504.367 62.1773 504.563 63.0822 504.953C64.0049 505.326 64.7945 505.849 65.451 506.523C66.1252 507.18 66.6486 507.952 67.0213 508.839C67.3939 509.726 67.5802 510.675 67.5802 511.687ZM64.3598 511.74C64.3598 511.119 64.2533 510.533 64.0404 509.983C63.8275 509.433 63.5258 508.954 63.1355 508.546C62.7629 508.12 62.3104 507.792 61.7781 507.561C61.2636 507.313 60.6869 507.189 60.0481 507.189C59.4094 507.189 58.8239 507.313 58.2916 507.561C57.777 507.792 57.3334 508.111 56.9608 508.519C56.5882 508.927 56.3043 509.407 56.1091 509.957C55.9139 510.489 55.8164 511.066 55.8164 511.687C55.8164 512.308 55.9228 512.902 56.1357 513.47C56.3487 514.02 56.6414 514.499 57.014 514.907C57.4044 515.315 57.8568 515.643 58.3714 515.892C58.9037 516.122 59.4804 516.238 60.1014 516.238C60.7579 516.238 61.3434 516.122 61.858 515.892C62.3903 515.643 62.8427 515.315 63.2153 514.907C63.5879 514.499 63.8718 514.029 64.067 513.496C64.2622 512.946 64.3598 512.361 64.3598 511.74Z" fill="#B9B9B9"/>
<path d="M46.869 503.117V518.713H43.5687V503.117H37.6602V500.082H52.7775V503.117H46.869ZM67.5802 511.687C67.5802 512.698 67.385 513.647 66.9946 514.534C66.622 515.422 66.0986 516.202 65.4244 516.876C64.7679 517.533 63.9783 518.056 63.0556 518.447C62.133 518.837 61.1305 519.032 60.0481 519.032C58.9835 519.032 57.9899 518.846 57.0673 518.473C56.1624 518.083 55.3728 517.56 54.6985 516.903C54.042 516.229 53.5275 515.457 53.1549 514.588C52.7823 513.7 52.596 512.751 52.596 511.74C52.596 510.728 52.7823 509.779 53.1549 508.892C53.5452 507.987 54.0686 507.206 54.7251 506.55C55.3994 505.876 56.189 505.343 57.0939 504.953C58.0165 504.563 59.019 504.367 60.1014 504.367C61.1837 504.367 62.1773 504.563 63.0822 504.953C64.0049 505.326 64.7945 505.849 65.451 506.523C66.1252 507.18 66.6486 507.952 67.0213 508.839C67.3939 509.726 67.5802 510.675 67.5802 511.687ZM64.3598 511.74C64.3598 511.119 64.2533 510.533 64.0404 509.983C63.8275 509.433 63.5258 508.954 63.1355 508.546C62.7629 508.12 62.3104 507.792 61.7781 507.561C61.2636 507.313 60.6869 507.189 60.0481 507.189C59.4094 507.189 58.8239 507.313 58.2916 507.561C57.777 507.792 57.3334 508.111 56.9608 508.519C56.5882 508.927 56.3043 509.407 56.1091 509.957C55.9139 510.489 55.8164 511.066 55.8164 511.687C55.8164 512.308 55.9228 512.902 56.1357 513.47C56.3487 514.02 56.6414 514.499 57.014 514.907C57.4044 515.315 57.8568 515.643 58.3714 515.892C58.9037 516.122 59.4804 516.238 60.1014 516.238C60.7579 516.238 61.3434 516.122 61.858 515.892C62.3903 515.643 62.8427 515.315 63.2153 514.907C63.5879 514.499 63.8718 514.029 64.067 513.496C64.2622 512.946 64.3598 512.361 64.3598 511.74Z" fill="#979797"/>
<path d="M45.3346 616.868H38.3482V611.212H58.7752V616.868H51.7887V634.5H45.3346V616.868ZM70.4909 629.576C71.0676 629.576 71.5888 629.476 72.0546 629.277C72.5203 629.055 72.9085 628.767 73.219 628.412C73.5516 628.035 73.8067 627.602 73.9841 627.114C74.1616 626.626 74.2503 626.116 74.2503 625.584V625.517C74.2503 624.963 74.1505 624.442 73.9509 623.954C73.7734 623.466 73.5073 623.044 73.1524 622.69C72.8197 622.313 72.4205 622.013 71.9548 621.791C71.489 621.57 70.9789 621.459 70.4244 621.459C69.8477 621.459 69.3265 621.57 68.8608 621.791C68.395 621.991 67.9958 622.279 67.6631 622.656C67.3526 623.011 67.1086 623.433 66.9312 623.921C66.7537 624.408 66.665 624.919 66.665 625.451V625.517C66.665 626.072 66.7537 626.593 66.9312 627.081C67.1308 627.569 67.3969 628.002 67.7296 628.379C68.0845 628.733 68.4948 629.022 68.9606 629.244C69.4263 629.465 69.9365 629.576 70.4909 629.576ZM70.4244 634.932C68.9827 634.932 67.652 634.689 66.4321 634.201C65.2345 633.713 64.1921 633.047 63.3049 632.204C62.4177 631.339 61.7302 630.341 61.2422 629.21C60.7543 628.079 60.5103 626.87 60.5103 625.584V625.517C60.5103 624.231 60.7543 623.022 61.2422 621.891C61.7524 620.738 62.451 619.74 63.3382 618.897C64.2253 618.032 65.2788 617.356 66.4987 616.868C67.7185 616.357 69.0493 616.102 70.4909 616.102C71.9326 616.102 73.2522 616.357 74.4499 616.868C75.6698 617.356 76.7233 618.021 77.6104 618.864C78.4976 619.707 79.1851 620.693 79.6731 621.825C80.161 622.956 80.405 624.165 80.405 625.451V625.517C80.405 626.804 80.1499 628.024 79.6398 629.177C79.1519 630.308 78.4643 631.306 77.5772 632.171C76.69 633.014 75.6365 633.69 74.4166 634.201C73.1968 634.689 71.866 634.932 70.4244 634.932ZM90.2276 634.866C88.3202 634.866 86.8342 634.411 85.7696 633.502C84.705 632.593 84.1727 631.062 84.1727 628.911V621.592H82.0435V616.502H84.1727V611.944H90.4937V616.502H94.6856V621.592H90.4937V627.68C90.4937 628.323 90.6379 628.789 90.9262 629.077C91.2145 629.343 91.647 629.476 92.2237 629.476C92.6451 629.476 93.0554 629.421 93.4546 629.31C93.8539 629.199 94.242 629.055 94.619 628.878V633.835C94.0424 634.145 93.3881 634.389 92.6562 634.567C91.9243 634.766 91.1147 634.866 90.2276 634.866ZM104.821 630.94C105.753 630.94 106.507 630.674 107.084 630.142C107.66 629.61 107.949 628.889 107.949 627.979V627.148C107.638 627.015 107.261 626.904 106.817 626.815C106.396 626.726 105.952 626.682 105.487 626.682C104.555 626.682 103.834 626.893 103.324 627.314C102.836 627.713 102.592 628.245 102.592 628.911V628.977C102.592 629.598 102.803 630.086 103.224 630.441C103.646 630.774 104.178 630.94 104.821 630.94ZM102.559 634.899C101.694 634.899 100.896 634.777 100.164 634.533C99.4318 634.289 98.7886 633.934 98.2342 633.469C97.7019 633.003 97.2805 632.426 96.9699 631.739C96.6594 631.051 96.5042 630.253 96.5042 629.343V629.277C96.5042 628.345 96.6705 627.525 97.0032 626.815C97.3581 626.105 97.8349 625.517 98.4338 625.052C99.0548 624.586 99.7978 624.231 100.663 623.987C101.528 623.743 102.493 623.621 103.557 623.621C104.4 623.621 105.198 623.699 105.952 623.854C106.729 623.987 107.372 624.142 107.882 624.32V624.02C107.882 623.089 107.583 622.368 106.984 621.858C106.407 621.348 105.509 621.093 104.289 621.093C103.335 621.093 102.47 621.181 101.694 621.359C100.918 621.536 100.13 621.78 99.332 622.091L98.0345 617.633C99.0548 617.211 100.13 616.879 101.262 616.635C102.415 616.369 103.768 616.235 105.32 616.235C106.939 616.235 108.303 616.424 109.412 616.801C110.544 617.178 111.464 617.721 112.174 618.431C112.861 619.097 113.349 619.906 113.638 620.86C113.948 621.791 114.103 622.889 114.103 624.153V634.5H107.849V632.637C107.228 633.325 106.485 633.879 105.62 634.3C104.777 634.7 103.757 634.899 102.559 634.899ZM117.451 610.214H123.772V634.5H117.451V610.214Z" fill="#B9B9B9"/>
<path d="M45.3346 616.868H38.3482V611.212H58.7752V616.868H51.7887V634.5H45.3346V616.868ZM70.4909 629.576C71.0676 629.576 71.5888 629.476 72.0546 629.277C72.5203 629.055 72.9085 628.767 73.219 628.412C73.5516 628.035 73.8067 627.602 73.9841 627.114C74.1616 626.626 74.2503 626.116 74.2503 625.584V625.517C74.2503 624.963 74.1505 624.442 73.9509 623.954C73.7734 623.466 73.5073 623.044 73.1524 622.69C72.8197 622.313 72.4205 622.013 71.9548 621.791C71.489 621.57 70.9789 621.459 70.4244 621.459C69.8477 621.459 69.3265 621.57 68.8608 621.791C68.395 621.991 67.9958 622.279 67.6631 622.656C67.3526 623.011 67.1086 623.433 66.9312 623.921C66.7537 624.408 66.665 624.919 66.665 625.451V625.517C66.665 626.072 66.7537 626.593 66.9312 627.081C67.1308 627.569 67.3969 628.002 67.7296 628.379C68.0845 628.733 68.4948 629.022 68.9606 629.244C69.4263 629.465 69.9365 629.576 70.4909 629.576ZM70.4244 634.932C68.9827 634.932 67.652 634.689 66.4321 634.201C65.2345 633.713 64.1921 633.047 63.3049 632.204C62.4177 631.339 61.7302 630.341 61.2422 629.21C60.7543 628.079 60.5103 626.87 60.5103 625.584V625.517C60.5103 624.231 60.7543 623.022 61.2422 621.891C61.7524 620.738 62.451 619.74 63.3382 618.897C64.2253 618.032 65.2788 617.356 66.4987 616.868C67.7185 616.357 69.0493 616.102 70.4909 616.102C71.9326 616.102 73.2522 616.357 74.4499 616.868C75.6698 617.356 76.7233 618.021 77.6104 618.864C78.4976 619.707 79.1851 620.693 79.6731 621.825C80.161 622.956 80.405 624.165 80.405 625.451V625.517C80.405 626.804 80.1499 628.024 79.6398 629.177C79.1519 630.308 78.4643 631.306 77.5772 632.171C76.69 633.014 75.6365 633.69 74.4166 634.201C73.1968 634.689 71.866 634.932 70.4244 634.932ZM90.2276 634.866C88.3202 634.866 86.8342 634.411 85.7696 633.502C84.705 632.593 84.1727 631.062 84.1727 628.911V621.592H82.0435V616.502H84.1727V611.944H90.4937V616.502H94.6856V621.592H90.4937V627.68C90.4937 628.323 90.6379 628.789 90.9262 629.077C91.2145 629.343 91.647 629.476 92.2237 629.476C92.6451 629.476 93.0554 629.421 93.4546 629.31C93.8539 629.199 94.242 629.055 94.619 628.878V633.835C94.0424 634.145 93.3881 634.389 92.6562 634.567C91.9243 634.766 91.1147 634.866 90.2276 634.866ZM104.821 630.94C105.753 630.94 106.507 630.674 107.084 630.142C107.66 629.61 107.949 628.889 107.949 627.979V627.148C107.638 627.015 107.261 626.904 106.817 626.815C106.396 626.726 105.952 626.682 105.487 626.682C104.555 626.682 103.834 626.893 103.324 627.314C102.836 627.713 102.592 628.245 102.592 628.911V628.977C102.592 629.598 102.803 630.086 103.224 630.441C103.646 630.774 104.178 630.94 104.821 630.94ZM102.559 634.899C101.694 634.899 100.896 634.777 100.164 634.533C99.4318 634.289 98.7886 633.934 98.2342 633.469C97.7019 633.003 97.2805 632.426 96.9699 631.739C96.6594 631.051 96.5042 630.253 96.5042 629.343V629.277C96.5042 628.345 96.6705 627.525 97.0032 626.815C97.3581 626.105 97.8349 625.517 98.4338 625.052C99.0548 624.586 99.7978 624.231 100.663 623.987C101.528 623.743 102.493 623.621 103.557 623.621C104.4 623.621 105.198 623.699 105.952 623.854C106.729 623.987 107.372 624.142 107.882 624.32V624.02C107.882 623.089 107.583 622.368 106.984 621.858C106.407 621.348 105.509 621.093 104.289 621.093C103.335 621.093 102.47 621.181 101.694 621.359C100.918 621.536 100.13 621.78 99.332 622.091L98.0345 617.633C99.0548 617.211 100.13 616.879 101.262 616.635C102.415 616.369 103.768 616.235 105.32 616.235C106.939 616.235 108.303 616.424 109.412 616.801C110.544 617.178 111.464 617.721 112.174 618.431C112.861 619.097 113.349 619.906 113.638 620.86C113.948 621.791 114.103 622.889 114.103 624.153V634.5H107.849V632.637C107.228 633.325 106.485 633.879 105.62 634.3C104.777 634.7 103.757 634.899 102.559 634.899ZM117.451 610.214H123.772V634.5H117.451V610.214Z" fill="#343434"/>
<path d="M18.2981 568.895L563.905 568.895" stroke="#B8B8B8" stroke-width="1.66343" stroke-linecap="round"/>
<path d="M36.5956 889.938L543.943 889.938" stroke="#B8B8B8" stroke-width="1.66343" stroke-linecap="round" stroke-dasharray="8.32 8.32"/>
<rect x="36.5956" y="701.969" width="507.348" height="123.094" rx="24.9515" fill="white"/>
</svg>
