<svg width="30" height="30" viewBox="0 0 30 30" fill="none" xmlns="http://www.w3.org/2000/svg">
<mask id="path-1-inside-1_1850_2050" fill="white">
<path d="M15.3471 14.726C13.3577 14.726 11.6547 14.0176 10.238 12.601C8.82133 11.1843 8.11299 9.48127 8.11299 7.4919C8.11299 5.50252 8.82133 3.7995 10.238 2.38283C11.6547 0.96615 13.3577 0.257812 15.3471 0.257812C17.3365 0.257812 19.0395 0.96615 20.4562 2.38283C21.8728 3.7995 22.5812 5.50252 22.5812 7.4919C22.5812 9.48127 21.8728 11.1843 20.4562 12.601C19.0395 14.0176 17.3365 14.726 15.3471 14.726ZM26.1982 29.1942H4.49595C3.50126 29.1942 2.64975 28.84 1.94141 28.1316C1.23308 27.4233 0.878906 26.5718 0.878906 25.5771V24.1303C0.878906 23.1055 1.14265 22.1635 1.67013 21.3045C2.19762 20.4454 2.89842 19.7898 3.77254 19.3377C5.64135 18.4033 7.54029 17.7025 9.46938 17.2353C11.3985 16.7681 13.3577 16.5345 15.3471 16.5345C17.3365 16.5345 19.2957 16.7681 21.2248 17.2353C23.1539 17.7025 25.0528 18.4033 26.9216 19.3377C27.7957 19.7898 28.4965 20.4454 29.024 21.3045C29.5515 22.1635 29.8152 23.1055 29.8152 24.1303V25.5771C29.8152 26.5718 29.4611 27.4233 28.7527 28.1316C28.0444 28.84 27.1929 29.1942 26.1982 29.1942ZM4.49595 25.5771H26.1982V24.1303C26.1982 23.7987 26.1153 23.4973 25.9495 23.226C25.7838 22.9548 25.5652 22.7438 25.2939 22.5931C23.6663 21.7792 22.0235 21.1688 20.3657 20.7619C18.7079 20.355 17.035 20.1515 15.3471 20.1515C13.6591 20.1515 11.9862 20.355 10.3284 20.7619C8.67062 21.1688 7.02788 21.7792 5.40021 22.5931C5.12893 22.7438 4.9104 22.9548 4.74462 23.226C4.57884 23.4973 4.49595 23.7987 4.49595 24.1303V25.5771ZM15.3471 11.1089C16.3418 11.1089 17.1933 10.7548 17.9016 10.0464C18.61 9.3381 18.9641 8.48658 18.9641 7.4919C18.9641 6.49721 18.61 5.6457 17.9016 4.93736C17.1933 4.22902 16.3418 3.87486 15.3471 3.87486C14.3524 3.87486 13.5009 4.22902 12.7925 4.93736C12.0842 5.6457 11.73 6.49721 11.73 7.4919C11.73 8.48658 12.0842 9.3381 12.7925 10.0464C13.5009 10.7548 14.3524 11.1089 15.3471 11.1089Z"/>
</mask>
<path d="M3.77254 19.3377L1.97522 15.7431L1.9506 15.7554L1.92615 15.768L3.77254 19.3377ZM26.9216 19.3377L28.768 15.768L28.7436 15.7554L28.7189 15.7431L26.9216 19.3377ZM4.49595 25.5771H0.477012V29.596H4.49595V25.5771ZM26.1982 25.5771V29.596H30.2171V25.5771H26.1982ZM25.2939 22.5931L27.2457 19.0799L27.1694 19.0375L27.0913 18.9984L25.2939 22.5931ZM5.40021 22.5931L3.60289 18.9984L3.52478 19.0375L3.44844 19.0799L5.40021 22.5931ZM15.3471 10.707C14.4321 10.707 13.7488 10.4281 13.0798 9.75915L7.39619 15.4428C9.56055 17.6071 12.2833 18.7449 15.3471 18.7449V10.707ZM13.0798 9.75915C12.4108 9.09016 12.1319 8.40691 12.1319 7.4919H4.09406C4.09406 10.5556 5.23183 13.2784 7.39619 15.4428L13.0798 9.75915ZM12.1319 7.4919C12.1319 6.57689 12.4108 5.89363 13.0798 5.22464L7.39619 -0.458992C5.23183 1.70537 4.09406 4.42816 4.09406 7.4919H12.1319ZM13.0798 5.22464C13.7488 4.55565 14.4321 4.27675 15.3471 4.27675V-3.76112C12.2833 -3.76112 9.56055 -2.62335 7.39619 -0.458992L13.0798 5.22464ZM15.3471 4.27675C16.2621 4.27675 16.9453 4.55565 17.6143 5.22464L23.298 -0.458992C21.1336 -2.62335 18.4108 -3.76112 15.3471 -3.76112V4.27675ZM17.6143 5.22464C18.2833 5.89363 18.5622 6.57689 18.5622 7.4919H26.6001C26.6001 4.42816 25.4623 1.70537 23.298 -0.458992L17.6143 5.22464ZM18.5622 7.4919C18.5622 8.40691 18.2833 9.09016 17.6143 9.75915L23.298 15.4428C25.4623 13.2784 26.6001 10.5556 26.6001 7.4919H18.5622ZM17.6143 9.75915C16.9453 10.4281 16.2621 10.707 15.3471 10.707V18.7449C18.4108 18.7449 21.1336 17.6071 23.298 15.4428L17.6143 9.75915ZM26.1982 25.1752H4.49595V33.2131H26.1982V25.1752ZM4.49595 25.1752C4.48669 25.1752 4.50116 25.1745 4.53395 25.1808C4.56744 25.1872 4.60943 25.1989 4.65471 25.2178C4.69995 25.2366 4.73642 25.2575 4.76203 25.2749C4.78702 25.2919 4.79347 25.3001 4.78323 25.2898L-0.900405 30.9735C0.555618 32.4295 2.4269 33.2131 4.49595 33.2131V25.1752ZM4.78323 25.2898C4.77299 25.2796 4.78112 25.286 4.79814 25.311C4.81558 25.3366 4.83647 25.3731 4.85529 25.4183C4.87413 25.4636 4.88585 25.5056 4.89228 25.5391C4.89857 25.5719 4.89784 25.5864 4.89784 25.5771H-3.14003C-3.14003 27.6462 -2.35643 29.5174 -0.900405 30.9735L4.78323 25.2898ZM4.89784 25.5771V24.1303H-3.14003V25.5771H4.89784ZM4.89784 24.1303C4.89784 23.8348 4.9627 23.6228 5.09496 23.4074L-1.75469 19.2015C-2.67741 20.7042 -3.14003 22.3761 -3.14003 24.1303H4.89784ZM5.09496 23.4074C5.2494 23.1559 5.41107 23.0149 5.61893 22.9074L1.92615 15.768C0.38577 16.5648 -0.854162 17.7349 -1.75469 19.2015L5.09496 23.4074ZM5.56986 22.9324C7.18177 22.1264 8.79596 21.5335 10.4154 21.1413L8.52339 13.3293C6.28462 13.8715 4.10092 14.6802 1.97522 15.7431L5.56986 22.9324ZM10.4154 21.1413C12.034 20.7493 13.6757 20.5534 15.3471 20.5534V12.5156C13.0397 12.5156 10.7629 12.7869 8.52339 13.3293L10.4154 21.1413ZM15.3471 20.5534C17.0185 20.5534 18.6601 20.7493 20.2788 21.1413L22.1708 13.3293C19.9312 12.7869 17.6544 12.5156 15.3471 12.5156V20.5534ZM20.2788 21.1413C21.8982 21.5335 23.5124 22.1264 25.1243 22.9324L28.7189 15.7431C26.5932 14.6802 24.4095 13.8715 22.1708 13.3293L20.2788 21.1413ZM25.0752 22.9074C25.2831 23.0149 25.4448 23.1559 25.5992 23.4074L32.4488 19.2015C31.5483 17.7349 30.3084 16.5648 28.768 15.768L25.0752 22.9074ZM25.5992 23.4074C25.7315 23.6228 25.7963 23.8348 25.7963 24.1303H33.8342C33.8342 22.3761 33.3716 20.7042 32.4488 19.2015L25.5992 23.4074ZM25.7963 24.1303V25.5771H33.8342V24.1303H25.7963ZM25.7963 25.5771C25.7963 25.5864 25.7956 25.5719 25.8019 25.5391C25.8083 25.5056 25.82 25.4636 25.8389 25.4184C25.8577 25.3731 25.8786 25.3366 25.896 25.311C25.913 25.286 25.9212 25.2796 25.9109 25.2898L31.5946 30.9735C33.0506 29.5174 33.8342 27.6462 33.8342 25.5771H25.7963ZM25.9109 25.2898C25.9007 25.3001 25.9071 25.2919 25.9321 25.2749C25.9577 25.2575 25.9942 25.2366 26.0394 25.2178C26.0847 25.1989 26.1267 25.1872 26.1602 25.1808C26.193 25.1745 26.2075 25.1752 26.1982 25.1752V33.2131C28.2673 33.2131 30.1385 32.4295 31.5946 30.9735L25.9109 25.2898ZM4.49595 29.596H26.1982V21.5582H4.49595V29.596ZM30.2171 25.5771V24.1303H22.1793V25.5771H30.2171ZM30.2171 24.1303C30.2171 23.0925 29.9472 22.0604 29.3788 21.1304L22.5202 25.3217C22.2834 24.9342 22.1793 24.505 22.1793 24.1303H30.2171ZM29.3788 21.1304C28.8604 20.2821 28.1389 19.5761 27.2457 19.0799L23.3422 26.1062C22.9915 25.9114 22.7071 25.6274 22.5202 25.3217L29.3788 21.1304ZM27.0913 18.9984C25.2137 18.0596 23.2904 17.3416 21.3238 16.8588L19.4077 24.665C20.7567 24.9961 22.1188 25.4988 23.4966 26.1877L27.0913 18.9984ZM21.3238 16.8588C19.356 16.3758 17.3615 16.1326 15.3471 16.1326V24.1705C16.7085 24.1705 18.0598 24.3342 19.4077 24.665L21.3238 16.8588ZM15.3471 16.1326C13.3326 16.1326 11.3382 16.3758 9.3704 16.8588L11.2865 24.665C12.6343 24.3342 13.9856 24.1705 15.3471 24.1705V16.1326ZM9.3704 16.8588C7.40378 17.3416 5.48044 18.0596 3.60289 18.9984L7.19753 26.1877C8.57532 25.4988 9.93746 24.9961 11.2865 24.665L9.3704 16.8588ZM3.44844 19.0799C2.55521 19.5761 1.83373 20.2821 1.31534 21.1304L8.17391 25.3217C7.98707 25.6274 7.70265 25.9114 7.35198 26.1062L3.44844 19.0799ZM1.31534 21.1304C0.74697 22.0604 0.477012 23.0925 0.477012 24.1303H8.51489C8.51489 24.505 8.41071 24.9342 8.17391 25.3217L1.31534 21.1304ZM0.477012 24.1303V25.5771H8.51489V24.1303H0.477012ZM15.3471 15.1279C17.4161 15.1279 19.2874 14.3443 20.7434 12.8883L15.0598 7.20462C15.0496 7.21486 15.056 7.20673 15.081 7.18971C15.1066 7.17227 15.1431 7.15137 15.1883 7.13256C15.2336 7.11372 15.2756 7.10199 15.3091 7.09557C15.3419 7.08928 15.3563 7.09 15.3471 7.09V15.1279ZM20.7434 12.8883C22.1995 11.4322 22.9831 9.56094 22.9831 7.4919H14.9452C14.9452 7.50116 14.9445 7.48669 14.9507 7.4539C14.9572 7.4204 14.9689 7.37842 14.9877 7.33314C15.0066 7.28789 15.0274 7.25142 15.0449 7.22582C15.0619 7.20083 15.07 7.19437 15.0598 7.20462L20.7434 12.8883ZM22.9831 7.4919C22.9831 5.42285 22.1995 3.55157 20.7434 2.09554L15.0598 7.77918C15.07 7.78942 15.0619 7.78297 15.0449 7.75798C15.0274 7.73237 15.0066 7.6959 14.9877 7.65066C14.9689 7.60538 14.9572 7.56339 14.9507 7.5299C14.9445 7.49711 14.9452 7.48264 14.9452 7.4919H22.9831ZM20.7434 2.09554C19.2874 0.639523 17.4161 -0.144081 15.3471 -0.144081V7.89379C15.3563 7.89379 15.3419 7.89452 15.3091 7.88823C15.2756 7.8818 15.2336 7.87008 15.1883 7.85124C15.1431 7.83242 15.1066 7.81153 15.081 7.79409C15.056 7.77707 15.0496 7.76893 15.0598 7.77918L20.7434 2.09554ZM15.3471 -0.144081C13.278 -0.144081 11.4067 0.639523 9.95072 2.09554L15.6344 7.77918C15.6446 7.76893 15.6381 7.77707 15.6132 7.79409C15.5876 7.81153 15.5511 7.83242 15.5058 7.85124C15.4606 7.87007 15.4186 7.8818 15.3851 7.88823C15.3523 7.89452 15.3378 7.89379 15.3471 7.89379V-0.144081ZM9.95072 2.09554C8.4947 3.55157 7.7111 5.42285 7.7111 7.4919H15.749C15.749 7.48264 15.7497 7.49711 15.7434 7.5299C15.737 7.56339 15.7253 7.60538 15.7064 7.65066C15.6876 7.6959 15.6667 7.73238 15.6493 7.75798C15.6322 7.78297 15.6241 7.78942 15.6344 7.77918L9.95072 2.09554ZM7.7111 7.4919C7.7111 9.56095 8.4947 11.4322 9.95072 12.8883L15.6344 7.20462C15.6241 7.19437 15.6322 7.20083 15.6493 7.22581C15.6667 7.25142 15.6876 7.28789 15.7064 7.33313C15.7253 7.37842 15.737 7.4204 15.7434 7.45389C15.7497 7.48669 15.749 7.50116 15.749 7.4919H7.7111ZM9.95072 12.8883C11.4067 14.3443 13.278 15.1279 15.3471 15.1279V7.09C15.3378 7.09 15.3523 7.08928 15.3851 7.09557C15.4186 7.10199 15.4606 7.11372 15.5058 7.13256C15.5511 7.15137 15.5876 7.17227 15.6132 7.18971C15.6381 7.20673 15.6446 7.21486 15.6344 7.20462L9.95072 12.8883Z" fill="#7D7D7D" mask="url(#path-1-inside-1_1850_2050)"/>
</svg>
