<svg width="353" height="770" viewBox="0 0 353 770" fill="none" xmlns="http://www.w3.org/2000/svg">
<g filter="url(#filter0_d_32_21)">
<path fill-rule="evenodd" clip-rule="evenodd" d="M352.137 50.5379C352.137 25.388 331.749 5 306.599 5L238.837 5C238.851 5.26815 238.858 5.53812 238.858 5.80972C238.858 14.3427 231.941 21.2601 223.408 21.2601C214.875 21.2601 207.957 14.3427 207.957 5.80972C207.957 5.53812 207.964 5.26815 207.978 4.99999L198.429 4.99999C198.442 5.26815 198.449 5.53812 198.449 5.80972C198.449 14.3427 191.532 21.2601 182.999 21.2601C174.466 21.2601 167.549 14.3427 167.549 5.80972C167.549 5.53812 167.556 5.26815 167.57 4.99999L158.022 4.99999C158.036 5.26815 158.043 5.53812 158.043 5.80972C158.043 14.3427 151.125 21.2601 142.592 21.2601C134.059 21.2601 127.142 14.3427 127.142 5.80972C127.142 5.53812 127.149 5.26815 127.163 4.99999L59.3934 4.99999C34.2435 4.99999 13.8555 25.3879 13.8555 50.5378L13.8555 715.716C13.8555 740.866 34.2435 761.254 59.3934 761.254L306.599 761.254C331.749 761.254 352.137 740.866 352.137 715.716L352.137 50.5379Z" fill="#F1F0EC"/>
</g>
<path d="M64.3558 69.7031C64.3558 64.1084 68.5973 60.2052 73.7236 60.2052L73.7756 60.2052C78.9019 60.2052 83.1955 64.1605 83.1955 69.7551C83.1955 75.3498 78.9539 79.253 73.8277 79.253L73.7756 79.253C68.6494 79.253 64.3558 75.2978 64.3558 69.7031ZM67.2962 69.7551C67.2962 73.3722 70.1846 75.8963 73.7236 75.8963L73.7756 75.8963C77.3146 75.8963 80.255 73.3201 80.255 69.7031C80.255 66.0861 77.3666 63.562 73.8277 63.562L73.7756 63.562C70.2367 63.562 67.2962 66.1381 67.2962 69.7551ZM64.6681 82.7558L78.4075 82.7558L78.4075 85.9044L76.2737 85.9044C77.5748 86.7892 78.6937 88.0642 78.6937 90.198C78.6937 93.2946 76.612 95.0901 73.4113 95.0901L64.6681 95.0901L64.6681 91.9414L72.4746 91.9414C74.6083 91.9414 75.8313 90.8746 75.8313 89.001C75.8313 87.1795 74.5563 85.9044 72.4225 85.9044L64.6681 85.9044L64.6681 82.7558ZM64.6681 118.221L64.6681 115.099L66.3595 115.099C65.2405 114.162 64.3818 112.731 64.3818 110.649C64.3818 108.047 65.8651 105.757 68.6233 105.757L68.6754 105.757C71.7199 105.757 73.1771 108.125 73.1771 111.326C73.1771 112.991 72.9429 114.058 72.6047 115.125L72.8649 115.125C74.7645 115.125 75.8053 113.928 75.8053 111.742C75.8053 110.207 75.467 109.062 74.9466 107.813L77.4707 106.954C78.1473 108.463 78.6157 109.946 78.6157 112.184C78.6157 116.244 76.4819 118.221 72.8128 118.221L64.6681 118.221ZM69.6382 115.177L70.4188 115.177C70.7311 114.37 70.9653 113.251 70.9653 112.028C70.9653 110.05 70.1586 108.879 68.8315 108.879L68.7795 108.879C67.4784 108.879 66.7498 110.05 66.7498 111.534C66.7498 113.615 67.9208 115.177 69.6382 115.177ZM64.6681 122.148L83.6639 122.148L83.6639 125.297L64.6681 125.297L64.6681 122.148ZM64.6681 129.594L83.6639 129.594L83.6639 132.743L64.6681 132.743L64.6681 129.594ZM64.3558 151.19C64.3558 147.001 67.5565 143.904 71.4597 143.904L71.5117 143.904C75.441 143.904 78.6937 147.027 78.6937 151.242C78.6937 155.458 75.4931 158.554 71.5638 158.554L71.5117 158.554C67.6085 158.554 64.3558 155.432 64.3558 151.19ZM67.0881 151.242C67.0881 153.792 69.0917 155.406 71.4597 155.406L71.5117 155.406C73.9318 155.406 75.9354 153.662 75.9354 151.19C75.9354 148.666 73.9578 147.053 71.5638 147.053L71.5117 147.053C69.1178 147.053 67.0881 148.796 67.0881 151.242ZM64.6681 161.761L78.4075 161.761L78.4075 164.91L75.3109 164.91C77.3666 165.768 78.7718 167.356 78.6677 169.776L75.3369 169.776L75.3369 169.593C75.3369 166.835 73.5414 164.91 69.8984 164.91L64.6681 164.91L64.6681 161.761ZM64.3818 177.802C64.3818 174.575 66.958 171.426 71.5117 171.426L71.5638 171.426C76.1176 171.426 78.6937 174.523 78.6937 177.802C78.6937 180.066 77.5488 181.497 76.2737 182.486L83.6639 182.486L83.6639 185.634L64.6681 185.634L64.6681 182.486L66.958 182.486C65.5268 181.471 64.3818 180.04 64.3818 177.802ZM67.1141 178.556C67.1141 180.664 68.8836 182.538 71.5117 182.538L71.5638 182.538C74.218 182.538 75.9614 180.664 75.9614 178.556C75.9614 176.397 74.2961 174.601 71.5638 174.601L71.5117 174.601C68.8575 174.601 67.1141 176.423 67.1141 178.556ZM64.3558 195.859C64.3558 191.877 67.2442 188.807 71.4857 188.807L71.5378 188.807C75.467 188.807 78.6937 191.591 78.6937 195.52C78.6937 199.892 75.2589 202.104 71.3036 202.104C71.0173 202.104 70.7311 202.078 70.4188 202.052L70.4188 191.955C68.181 192.294 66.9319 193.881 66.9319 195.911C66.9319 197.446 67.5044 198.539 68.5713 199.632L66.9319 201.479C65.3706 200.178 64.3558 198.383 64.3558 195.859ZM72.5006 191.929L72.5006 198.981C74.5303 198.773 76.1176 197.576 76.1176 195.494C76.1176 193.569 74.6343 192.216 72.5006 191.929ZM64.6681 205.266L78.4075 205.266L78.4075 208.415L75.3109 208.415C77.3666 209.273 78.7718 210.861 78.6677 213.281L75.3369 213.281L75.3369 213.098C75.3369 210.34 73.5414 208.415 69.8984 208.415L64.6681 208.415L64.6681 205.266ZM64.4078 220.725C64.4078 218.773 65.1104 216.614 66.4635 214.896L68.5973 216.301C67.4784 217.785 66.9059 219.398 66.9059 220.803C66.9059 222.156 67.4784 222.937 68.3891 222.937L68.4412 222.937C69.5081 222.937 69.8724 221.48 70.3668 219.866C70.9393 217.837 71.772 215.573 74.4001 215.573L74.4522 215.573C77.0544 215.573 78.6417 217.733 78.6417 220.465C78.6417 222.182 78.0432 224.056 77.0804 225.513L74.8425 224.264C75.6492 222.937 76.1436 221.532 76.1436 220.387C76.1436 219.164 75.5711 218.461 74.7645 218.461L74.7124 218.461C73.7236 218.461 73.3072 219.944 72.7868 221.558C72.1623 223.561 71.2515 225.825 68.7795 225.825L68.7274 225.825C65.839 225.825 64.4078 223.587 64.4078 220.725ZM64.3558 243.359C64.3558 239.169 67.5565 236.073 71.4597 236.073L71.5117 236.073C75.441 236.073 78.6937 239.195 78.6937 243.411C78.6937 247.626 75.4931 250.723 71.5638 250.723L71.5117 250.723C67.6085 250.723 64.3558 247.6 64.3558 243.359ZM67.0881 243.411C67.0881 245.961 69.0917 247.574 71.4597 247.574L71.5117 247.574C73.9318 247.574 75.9354 245.831 75.9354 243.359C75.9354 240.835 73.9578 239.221 71.5638 239.221L71.5117 239.221C69.1178 239.221 67.0881 240.965 67.0881 243.411ZM64.564 257.487L78.4075 251.841L78.4075 255.223L68.3111 258.918L78.4075 262.64L78.4075 265.944L64.564 260.324L64.564 257.487ZM64.3558 274.127C64.3558 270.146 67.2442 267.075 71.4857 267.075L71.5378 267.075C75.467 267.075 78.6937 269.859 78.6937 273.789C78.6937 278.16 75.2589 280.372 71.3036 280.372C71.0173 280.372 70.7311 280.346 70.4188 280.32L70.4188 270.224C68.181 270.562 66.9319 272.149 66.9319 274.179C66.9319 275.714 67.5044 276.807 68.5713 277.9L66.9319 279.748C65.3706 278.446 64.3558 276.651 64.3558 274.127ZM72.5006 270.198L72.5006 277.25C74.5303 277.041 76.1176 275.844 76.1176 273.763C76.1176 271.837 74.6343 270.484 72.5006 270.198ZM64.6681 283.534L78.4075 283.534L78.4075 286.683L75.3109 286.683C77.3666 287.541 78.7718 289.129 78.6677 291.549L75.3369 291.549L75.3369 291.367C75.3369 288.608 73.5414 286.683 69.8984 286.683L64.6681 286.683L64.6681 283.534ZM64.668 307.081L73.2552 302.163L74.4001 302.163L74.4001 302.735C74.4001 303.655 74.4869 304.427 74.6604 305.051C74.8338 305.693 75.1201 306.196 75.5191 306.56C75.9181 306.925 76.4645 307.142 77.1584 307.211L77.1584 302.163L78.8238 302.163L78.8238 307.185C79.4657 307.064 79.9861 306.821 80.3851 306.456C80.8015 306.092 81.1051 305.598 81.2959 304.973C81.4867 304.366 81.5821 303.62 81.5821 302.735L81.5821 302.163L83.2475 302.163L83.2475 312.936L81.5821 312.936L81.5821 308.018C81.2525 308.417 80.8622 308.746 80.4111 309.006C79.9601 309.267 79.431 309.431 78.8238 309.501L78.8238 312.936L77.1584 312.936L77.1584 309.553C75.8921 309.431 74.9032 308.946 74.192 308.096C73.4981 307.263 73.0557 306.153 72.8649 304.765L64.668 309.735L64.668 307.081Z" fill="#9A9A9A"/>
<path d="M352.137 559.6L352.137 715.729C352.137 740.879 331.749 761.267 306.599 761.267L59.3934 761.267C34.2435 761.267 13.8555 740.879 13.8555 715.729L13.8555 559.6L352.137 559.6Z" fill="#094446"/>
<g filter="url(#filter1_bd_32_21)">
<rect x="327.74" y="58.6699" width="318.765" height="77.1747" rx="38.5873" transform="rotate(90 327.74 58.6699)" fill="white"/>
</g>
<path d="M284.656 100.777C284.256 100.405 283.898 100.012 283.581 99.5988C283.277 99.1991 283.008 98.7648 282.774 98.2962C282.554 97.8275 282.388 97.3106 282.278 96.7454C282.154 96.194 282.092 95.5806 282.092 94.9051C282.092 93.8437 282.285 92.865 282.671 91.969C283.057 91.073 283.581 90.2942 284.242 89.6325C284.918 88.9846 285.71 88.4746 286.62 88.1024C287.53 87.7302 288.509 87.5442 289.556 87.5442C290.59 87.5442 291.562 87.7234 292.472 88.0818C293.381 88.4539 294.174 88.9709 294.849 89.6325C295.539 90.2942 296.076 91.0799 296.462 91.9897C296.862 92.8995 297.062 93.9058 297.062 95.0085C297.062 95.6702 297.007 96.2698 296.896 96.8074C296.786 97.3588 296.628 97.8619 296.421 98.3168C296.228 98.7717 295.994 99.1922 295.718 99.5781C295.442 99.9641 295.139 100.329 294.808 100.674L292.927 99.0405C293.464 98.4616 293.898 97.8482 294.229 97.2003C294.56 96.5524 294.725 95.8149 294.725 94.9879C294.725 94.2986 294.588 93.6576 294.312 93.0649C294.05 92.4859 293.685 91.9828 293.216 91.5555C292.761 91.1282 292.224 90.7973 291.603 90.563C290.983 90.3287 290.314 90.2115 289.598 90.2115C288.881 90.2115 288.205 90.3287 287.571 90.563C286.951 90.7973 286.406 91.1282 285.938 91.5555C285.469 91.9828 285.097 92.4859 284.821 93.0649C284.559 93.6576 284.428 94.2986 284.428 94.9879C284.428 95.8701 284.594 96.6282 284.925 97.2623C285.269 97.8964 285.731 98.5236 286.31 99.1439L284.656 100.777ZM287.799 114.001C287.013 114.001 286.275 113.849 285.586 113.546C284.897 113.256 284.29 112.85 283.767 112.326C283.257 111.816 282.85 111.202 282.547 110.486C282.243 109.769 282.092 108.99 282.092 108.149C282.092 107.322 282.237 106.55 282.526 105.833C282.829 105.13 283.236 104.517 283.746 103.993C284.27 103.483 284.869 103.083 285.545 102.794C286.234 102.504 286.972 102.359 287.757 102.359C288.543 102.359 289.28 102.504 289.97 102.794C290.673 103.097 291.279 103.504 291.789 104.014C292.313 104.537 292.727 105.151 293.03 105.854C293.333 106.571 293.485 107.35 293.485 108.19C293.485 109.031 293.333 109.803 293.03 110.506C292.74 111.223 292.334 111.836 291.81 112.346C291.3 112.87 290.7 113.277 290.011 113.566C289.322 113.856 288.584 114.001 287.799 114.001ZM287.757 111.499C288.24 111.499 288.695 111.416 289.122 111.251C289.549 111.085 289.921 110.851 290.239 110.548C290.569 110.258 290.824 109.907 291.004 109.493C291.197 109.093 291.293 108.645 291.293 108.149C291.293 107.653 291.197 107.198 291.004 106.784C290.824 106.385 290.576 106.04 290.259 105.751C289.942 105.461 289.57 105.24 289.143 105.089C288.729 104.937 288.281 104.861 287.799 104.861C287.316 104.861 286.854 104.944 286.413 105.11C285.986 105.275 285.614 105.502 285.297 105.792C284.98 106.095 284.725 106.447 284.532 106.846C284.352 107.26 284.263 107.708 284.263 108.19C284.263 108.7 284.352 109.155 284.532 109.555C284.725 109.969 284.98 110.32 285.297 110.61C285.614 110.899 285.979 111.12 286.393 111.271C286.82 111.423 287.275 111.499 287.757 111.499ZM287.096 123.723L293.257 123.723L293.257 126.225L282.34 126.225L282.34 123.723L284.035 123.723C283.512 123.365 283.057 122.917 282.671 122.379C282.299 121.842 282.112 121.153 282.112 120.312C282.112 119.071 282.492 118.113 283.25 117.438C284.008 116.762 285.028 116.424 286.31 116.424L293.257 116.424L293.257 118.926L287.054 118.926C286.2 118.926 285.538 119.126 285.069 119.526C284.614 119.94 284.387 120.519 284.387 121.263C284.387 121.993 284.621 122.586 285.09 123.041C285.572 123.496 286.241 123.723 287.096 123.723ZM287.799 140.66C286.889 140.66 286.082 140.516 285.379 140.226C284.676 139.95 284.077 139.571 283.581 139.089C283.098 138.62 282.733 138.076 282.485 137.455C282.237 136.849 282.112 136.222 282.112 135.574C282.112 134.678 282.305 133.933 282.691 133.341C283.077 132.748 283.525 132.259 284.035 131.873L279.032 131.873L279.032 129.371L293.257 129.371L293.257 131.873L291.438 131.873C292.017 132.272 292.499 132.769 292.885 133.361C293.285 133.954 293.485 134.692 293.485 135.574C293.485 136.222 293.361 136.849 293.113 137.455C292.864 138.062 292.492 138.599 291.996 139.068C291.514 139.551 290.921 139.937 290.218 140.226C289.515 140.516 288.708 140.66 287.799 140.66ZM287.799 138.117C288.336 138.117 288.819 138.034 289.246 137.869C289.687 137.703 290.059 137.476 290.363 137.187C290.666 136.911 290.9 136.58 291.066 136.194C291.231 135.822 291.314 135.422 291.314 134.995C291.314 134.567 291.231 134.161 291.066 133.775C290.9 133.389 290.659 133.051 290.342 132.762C290.039 132.472 289.673 132.238 289.246 132.059C288.819 131.893 288.336 131.811 287.799 131.811C287.261 131.811 286.779 131.893 286.351 132.059C285.924 132.238 285.552 132.472 285.235 132.762C284.931 133.051 284.697 133.389 284.532 133.775C284.366 134.161 284.284 134.567 284.284 134.995C284.284 135.422 284.366 135.822 284.532 136.194C284.697 136.58 284.931 136.911 285.235 137.187C285.538 137.476 285.903 137.703 286.331 137.869C286.772 138.034 287.261 138.117 287.799 138.117ZM287.799 154.264C287.013 154.264 286.275 154.112 285.586 153.809C284.897 153.52 284.29 153.113 283.767 152.589C283.257 152.079 282.85 151.466 282.547 150.749C282.243 150.032 282.092 149.253 282.092 148.413C282.092 147.585 282.237 146.814 282.526 146.097C282.829 145.394 283.236 144.78 283.746 144.256C284.27 143.746 284.869 143.347 285.545 143.057C286.234 142.768 286.972 142.623 287.757 142.623C288.543 142.623 289.28 142.768 289.97 143.057C290.673 143.36 291.279 143.767 291.789 144.277C292.313 144.801 292.727 145.414 293.03 146.117C293.333 146.834 293.485 147.613 293.485 148.454C293.485 149.295 293.333 150.067 293.03 150.77C292.74 151.486 292.334 152.1 291.81 152.61C291.3 153.134 290.7 153.54 290.011 153.83C289.322 154.119 288.584 154.264 287.799 154.264ZM287.757 151.762C288.24 151.762 288.695 151.679 289.122 151.514C289.549 151.349 289.921 151.114 290.239 150.811C290.569 150.522 290.824 150.17 291.004 149.757C291.197 149.357 291.293 148.909 291.293 148.413C291.293 147.916 291.197 147.461 291.004 147.048C290.824 146.648 290.576 146.303 290.259 146.014C289.942 145.725 289.57 145.504 289.143 145.352C288.729 145.201 288.281 145.125 287.799 145.125C287.316 145.125 286.854 145.208 286.413 145.373C285.986 145.538 285.614 145.766 285.297 146.055C284.98 146.359 284.725 146.71 284.532 147.11C284.352 147.523 284.263 147.971 284.263 148.454C284.263 148.964 284.352 149.419 284.532 149.819C284.725 150.232 284.98 150.584 285.297 150.873C285.614 151.163 285.979 151.383 286.393 151.535C286.82 151.686 287.275 151.762 287.757 151.762ZM288.502 159.314L282.34 159.314L282.34 156.812L293.257 156.812L293.257 159.314L291.562 159.314C291.824 159.493 292.065 159.686 292.286 159.893C292.52 160.113 292.727 160.362 292.906 160.637C293.085 160.927 293.223 161.237 293.319 161.568C293.43 161.912 293.485 162.298 293.485 162.726C293.485 163.966 293.106 164.924 292.348 165.6C291.589 166.275 290.569 166.613 289.287 166.613L282.34 166.613L282.34 164.111L288.543 164.111C289.398 164.111 290.052 163.904 290.507 163.491C290.976 163.091 291.21 162.519 291.21 161.774C291.21 161.044 290.969 160.451 290.487 159.996C290.018 159.541 289.356 159.314 288.502 159.314ZM290.425 172.322L290.425 169.572L293.257 169.572L293.257 172.322L290.425 172.322ZM282.34 172.322L282.34 169.572L285.173 169.572L285.173 172.322L282.34 172.322Z" fill="#9A9A9A"/>
<path d="M307.411 499C307.411 494.722 306.142 490.539 303.765 486.982C301.388 483.424 298.01 480.651 294.057 479.014C290.104 477.377 285.754 476.948 281.557 477.783C277.361 478.618 273.506 480.678 270.481 483.703C267.455 486.729 265.395 490.584 264.56 494.78C263.726 498.976 264.154 503.326 265.791 507.279C267.429 511.232 270.202 514.611 273.759 516.988C277.317 519.365 281.499 520.634 285.778 520.634L285.778 499H307.411Z" fill="#373737"/>
<path d="M289.506 524.369C292.346 524.369 295.16 523.81 297.784 522.722C300.409 521.635 302.794 520.042 304.803 518.033C306.811 516.024 308.405 513.639 309.492 511.015C310.579 508.39 311.139 505.577 311.139 502.736L289.506 502.736L289.506 524.369Z" fill="#B7B7B7"/>
<defs>
<filter id="filter0_d_32_21" x="0.350088" y="0.494589" width="351.787" height="769.265" filterUnits="userSpaceOnUse" color-interpolation-filters="sRGB">
<feFlood flood-opacity="0" result="BackgroundImageFix"/>
<feColorMatrix in="SourceAlpha" type="matrix" values="0 0 0 0 0 0 0 0 0 0 0 0 0 0 0 0 0 0 127 0" result="hardAlpha"/>
<feOffset dx="-7" dy="2"/>
<feGaussianBlur stdDeviation="3.25271"/>
<feComposite in2="hardAlpha" operator="out"/>
<feColorMatrix type="matrix" values="0 0 0 0 0.45 0 0 0 0 0.45 0 0 0 0 0.45 0 0 0 0.25 0"/>
<feBlend mode="normal" in2="BackgroundImageFix" result="effect1_dropShadow_32_21"/>
<feBlend mode="normal" in="SourceGraphic" in2="effect1_dropShadow_32_21" result="shape"/>
</filter>
<filter id="filter1_bd_32_21" x="230.152" y="38.2558" width="118.003" height="359.593" filterUnits="userSpaceOnUse" color-interpolation-filters="sRGB">
<feFlood flood-opacity="0" result="BackgroundImageFix"/>
<feGaussianBlur in="BackgroundImageFix" stdDeviation="10.2071"/>
<feComposite in2="SourceAlpha" operator="in" result="effect1_backgroundBlur_32_21"/>
<feColorMatrix in="SourceAlpha" type="matrix" values="0 0 0 0 0 0 0 0 0 0 0 0 0 0 0 0 0 0 127 0" result="hardAlpha"/>
<feOffset dx="1.62635" dy="1.62635"/>
<feGaussianBlur stdDeviation="3.25271"/>
<feComposite in2="hardAlpha" operator="out"/>
<feColorMatrix type="matrix" values="0 0 0 0 0 0 0 0 0 0 0 0 0 0 0 0 0 0 0.25 0"/>
<feBlend mode="normal" in2="effect1_backgroundBlur_32_21" result="effect2_dropShadow_32_21"/>
<feBlend mode="normal" in="SourceGraphic" in2="effect2_dropShadow_32_21" result="shape"/>
</filter>
</defs>
</svg>
