<svg width="39" height="39" viewBox="0 0 39 39" fill="none" xmlns="http://www.w3.org/2000/svg">
<path d="M34.1267 25.9964L34.1267 33.4572C34.1258 33.8239 33.8288 34.121 33.4621 34.1218L5.53988 34.1218C5.17317 34.1209 4.87608 33.8239 4.87525 33.4572L4.87525 25.9965C4.87525 24.6502 3.78388 23.5588 2.43762 23.5588C1.09137 23.5588 1.88136e-06 24.6502 1.70482e-06 25.9965L7.26467e-07 33.4572C0.00358058 36.5153 2.4818 38.9935 5.53988 38.9971L33.462 38.9971C36.5202 38.9935 38.9984 36.5153 39.002 33.4572L39.002 25.9965C39.002 24.6502 37.9106 23.5588 36.5643 23.5588C35.2181 23.5588 34.1267 24.6501 34.1267 25.9964Z" fill="#272727"/>
<path d="M17.0632 2.43234L17.1071 24.5985L11.4746 18.966C10.5228 18.0137 8.97923 18.0133 8.02695 18.9651C7.07468 19.9169 7.0743 21.4605 8.02612 22.4128L14.3298 28.7165C17.1856 31.5724 21.8159 31.5724 24.6717 28.7165L24.6718 28.7165L30.9755 22.4128C31.9273 21.4605 31.9269 19.917 30.9747 18.9651C30.0224 18.0133 28.4788 18.0137 27.527 18.966L21.9823 24.5124L21.9385 2.43234C21.9358 1.08609 20.8422 -0.00307223 19.496 -0.000406259C18.1497 0.00225971 17.0606 1.09584 17.0632 2.44209L17.0632 2.43234Z" fill="#272727"/>
</svg>
