<svg width="144" height="315" viewBox="0 0 144 315" fill="none" xmlns="http://www.w3.org/2000/svg">
<g filter="url(#filter0_d_19_21)">
<path fill-rule="evenodd" clip-rule="evenodd" d="M2 289.931C2 300.19 10.3172 308.508 20.5769 308.508L48.2201 308.508C48.2145 308.398 48.2116 308.289 48.2116 308.178C48.2116 304.697 51.0335 301.875 54.5145 301.875C57.9955 301.875 60.8174 304.697 60.8174 308.178C60.8174 308.289 60.8146 308.398 60.8089 308.508L64.7034 308.508C64.6978 308.398 64.695 308.289 64.695 308.178C64.695 304.697 67.5169 301.875 70.9978 301.875C74.4788 301.875 77.3007 304.697 77.3007 308.178C77.3007 308.289 77.2979 308.398 77.2923 308.508L81.1908 308.508C81.1851 308.398 81.1823 308.289 81.1823 308.178C81.1823 304.697 84.0042 301.875 87.4852 301.875C90.9662 301.875 93.7881 304.697 93.7881 308.178C93.7881 308.289 93.7852 308.398 93.7796 308.508L121.423 308.508C131.683 308.508 140 300.19 140 289.931L140 18.5748C140 8.31507 131.683 -0.00210417 121.423 -0.00210429L20.5769 -0.00210549C10.3172 -0.00210561 2 8.31506 2 18.5748L2 289.931Z" fill="#F1F0EC"/>
</g>
<path d="M93.0025 269.816L87.5266 262.642C86.833 261.748 86.2306 261.118 85.7195 260.753C85.2084 260.37 84.6608 260.178 84.0767 260.178C83.4744 260.178 82.9998 260.379 82.653 260.78C82.3062 261.164 82.1328 261.675 82.1328 262.314C82.1328 262.952 82.3335 263.564 82.7351 264.148C83.1184 264.714 83.739 265.371 84.5969 266.119L81.6125 269.706C80.9554 269.195 80.3713 268.675 79.8602 268.146C79.3491 267.616 78.9202 267.05 78.5734 266.448C78.2266 265.827 77.9619 265.152 77.7794 264.422C77.5968 263.673 77.5056 262.834 77.5056 261.903C77.5056 260.863 77.6607 259.913 77.971 259.055C78.2631 258.179 78.6738 257.431 79.2031 256.81C79.7325 256.19 80.3805 255.706 81.1471 255.359C81.8955 255.012 82.7169 254.839 83.6113 254.839L83.666 254.839C84.4327 254.839 85.1172 254.939 85.7195 255.14C86.3219 255.323 86.8877 255.606 87.4171 255.989C87.9282 256.372 88.421 256.838 88.8956 257.385C89.3702 257.933 89.863 258.563 90.3741 259.274L92.674 262.56L92.674 254.647L97 254.647L97 269.816L93.0025 269.816ZM92.674 243.613C92.674 243.083 92.5462 242.6 92.2907 242.161C92.0351 241.723 91.6792 241.358 91.2229 241.066C90.7483 240.756 90.2007 240.519 89.5801 240.354C88.9412 240.19 88.2385 240.108 87.4718 240.108L87.4171 240.108C86.6504 240.108 85.9477 240.199 85.3088 240.382C84.67 240.546 84.1224 240.783 83.666 241.094C83.1914 241.404 82.8264 241.778 82.5708 242.216C82.297 242.654 82.1601 243.138 82.1601 243.667C82.1601 244.197 82.2879 244.68 82.5435 245.118C82.799 245.538 83.1549 245.903 83.6113 246.214C84.0676 246.524 84.6152 246.761 85.2541 246.926C85.8929 247.09 86.5957 247.172 87.3623 247.172L87.4171 247.172C88.1837 247.172 88.8956 247.09 89.5527 246.926C90.1916 246.743 90.7483 246.497 91.2229 246.186C91.6792 245.876 92.0351 245.502 92.2907 245.064C92.5462 244.626 92.674 244.142 92.674 243.613ZM97.3833 243.667C97.3833 245.036 97.1278 246.268 96.6167 247.364C96.0873 248.459 95.3755 249.39 94.4811 250.156C93.5684 250.905 92.5097 251.489 91.305 251.909C90.1003 252.31 88.8226 252.511 87.4718 252.511L87.4171 252.511C86.0663 252.511 84.7886 252.301 83.5839 251.881C82.3609 251.461 81.3022 250.868 80.4078 250.102C79.4952 249.335 78.7742 248.404 78.2448 247.309C77.7155 246.214 77.4508 244.982 77.4508 243.613C77.4508 242.244 77.7155 241.021 78.2448 239.944C78.7559 238.848 79.4678 237.918 80.3805 237.151C81.2749 236.384 82.3244 235.8 83.5291 235.399C84.7338 234.979 86.0116 234.769 87.3623 234.769L87.4171 234.769C88.7678 234.769 90.0547 234.979 91.2776 235.399C92.4823 235.8 93.541 236.393 94.4537 237.178C95.3481 237.945 96.06 238.876 96.5893 239.971C97.1186 241.066 97.3833 242.298 97.3833 243.667ZM92.674 223.612C92.674 223.083 92.5462 222.599 92.2907 222.161C92.0351 221.723 91.6792 221.358 91.2229 221.066C90.7483 220.756 90.2007 220.519 89.5801 220.354C88.9412 220.19 88.2385 220.108 87.4718 220.108L87.4171 220.108C86.6504 220.108 85.9477 220.199 85.3088 220.382C84.67 220.546 84.1224 220.783 83.666 221.094C83.1914 221.404 82.8264 221.778 82.5708 222.216C82.297 222.654 82.1601 223.138 82.1601 223.667C82.1601 224.197 82.2879 224.68 82.5435 225.118C82.799 225.538 83.1549 225.903 83.6113 226.214C84.0676 226.524 84.6152 226.761 85.2541 226.925C85.8929 227.09 86.5957 227.172 87.3623 227.172L87.4171 227.172C88.1837 227.172 88.8956 227.09 89.5527 226.925C90.1916 226.743 90.7483 226.496 91.2229 226.186C91.6792 225.876 92.0351 225.502 92.2907 225.064C92.5462 224.626 92.674 224.142 92.674 223.612ZM97.3833 223.667C97.3833 225.036 97.1278 226.268 96.6167 227.364C96.0873 228.459 95.3755 229.39 94.4811 230.156C93.5684 230.905 92.5097 231.489 91.305 231.909C90.1003 232.31 88.8226 232.511 87.4718 232.511L87.4171 232.511C86.0663 232.511 84.7886 232.301 83.5839 231.881C82.3609 231.461 81.3022 230.868 80.4078 230.101C79.4952 229.335 78.7742 228.404 78.2448 227.309C77.7155 226.214 77.4508 224.981 77.4508 223.612C77.4508 222.243 77.7155 221.021 78.2448 219.944C78.7559 218.848 79.4678 217.917 80.3805 217.151C81.2749 216.384 82.3244 215.8 83.5291 215.399C84.7338 214.979 86.0116 214.769 87.3623 214.769L87.4171 214.769C88.7678 214.769 90.0547 214.979 91.2776 215.399C92.4823 215.8 93.541 216.393 94.4537 217.178C95.3481 217.945 96.06 218.876 96.5893 219.971C97.1186 221.066 97.3833 222.298 97.3833 223.667Z" fill="#343434"/>
<path d="M94.8667 204.89C94.8667 204.57 94.8067 204.278 94.6867 204.014C94.5668 203.75 94.4068 203.526 94.2068 203.342C93.9989 203.158 93.7589 203.014 93.487 202.911C93.2151 202.807 92.9271 202.755 92.6232 202.755L92.5992 202.755C92.2953 202.755 92.0073 202.807 91.7354 202.911C91.4634 203.014 91.2235 203.162 91.0155 203.354C90.8076 203.546 90.6436 203.774 90.5236 204.038C90.3957 204.302 90.3317 204.594 90.3317 204.914C90.3317 205.234 90.3917 205.526 90.5116 205.79C90.6316 206.046 90.7956 206.27 91.0035 206.462C91.2035 206.646 91.4394 206.79 91.7114 206.894C91.9833 206.99 92.2713 207.038 92.5752 207.038L92.5992 207.038C92.9031 207.038 93.1911 206.986 93.463 206.882C93.7349 206.778 93.9749 206.634 94.1828 206.45C94.3908 206.258 94.5588 206.03 94.6867 205.766C94.8067 205.502 94.8667 205.21 94.8667 204.89ZM96.9662 204.914C96.9662 205.562 96.8543 206.162 96.6303 206.714C96.3984 207.266 96.0864 207.741 95.6945 208.141C95.3026 208.541 94.8427 208.857 94.3148 209.089C93.7869 209.313 93.2231 209.425 92.6232 209.425L92.5992 209.425C91.9993 209.425 91.4354 209.313 90.9076 209.089C90.3717 208.857 89.9078 208.537 89.5159 208.129C89.1159 207.721 88.804 207.242 88.5801 206.69C88.3481 206.138 88.2321 205.538 88.2321 204.89C88.2321 204.242 88.3481 203.642 88.5801 203.09C88.804 202.539 89.1119 202.063 89.5039 201.663C89.8958 201.263 90.3557 200.951 90.8836 200.727C91.4114 200.495 91.9753 200.379 92.5752 200.379L92.5992 200.379C93.1991 200.379 93.7669 200.495 94.3028 200.727C94.8307 200.951 95.2946 201.267 95.6945 201.675C96.0864 202.083 96.3984 202.563 96.6303 203.114C96.8543 203.666 96.9662 204.266 96.9662 204.914ZM88.4001 199.167L88.4001 192.448L90.4397 192.448L90.4397 196.839L91.8673 196.839L91.8673 192.868L93.7989 192.868L93.7989 196.839L96.7983 196.839L96.7983 199.167L88.4001 199.167ZM88.4001 191.387L88.4001 184.669L90.4397 184.669L90.4397 189.06L91.8673 189.06L91.8673 185.088L93.7989 185.088L93.7989 189.06L96.7983 189.06L96.7983 191.387L88.4001 191.387Z" fill="#343434"/>
<path d="M115.755 278.219C116.279 278.219 116.774 278.314 117.241 278.505C117.708 278.696 118.119 278.965 118.473 279.312C118.819 279.659 119.095 280.069 119.301 280.544C119.506 281.018 119.608 281.541 119.608 282.115C119.608 282.688 119.509 283.212 119.311 283.686C119.106 284.16 118.83 284.567 118.483 284.906C118.136 285.246 117.73 285.512 117.262 285.703C116.795 285.894 116.3 285.989 115.776 285.989C115.253 285.989 114.757 285.894 114.29 285.703C113.823 285.512 113.416 285.243 113.069 284.896C112.716 284.549 112.436 284.139 112.231 283.664C112.026 283.19 111.923 282.667 111.923 282.093C111.923 281.52 112.026 280.996 112.231 280.522C112.429 280.048 112.701 279.641 113.048 279.302C113.395 278.962 113.802 278.696 114.269 278.505C114.736 278.314 115.231 278.219 115.755 278.219ZM115.776 279.588C115.415 279.588 115.076 279.652 114.757 279.779C114.432 279.9 114.149 280.073 113.908 280.299C113.667 280.519 113.476 280.784 113.335 281.096C113.193 281.407 113.122 281.747 113.122 282.115C113.122 282.483 113.193 282.822 113.335 283.134C113.469 283.438 113.657 283.7 113.897 283.919C114.131 284.139 114.41 284.312 114.736 284.439C115.054 284.56 115.394 284.62 115.755 284.62C116.116 284.62 116.459 284.56 116.785 284.439C117.103 284.312 117.383 284.139 117.623 283.919C117.864 283.693 118.055 283.424 118.197 283.112C118.338 282.801 118.409 282.461 118.409 282.093C118.409 281.725 118.342 281.389 118.207 281.085C118.066 280.774 117.878 280.508 117.645 280.289C117.404 280.069 117.124 279.9 116.806 279.779C116.48 279.652 116.137 279.588 115.776 279.588ZM116.318 275.505L119.481 275.505L119.481 276.79L113.876 276.79L113.876 275.505L114.747 275.505C114.612 275.413 114.488 275.314 114.375 275.208C114.255 275.095 114.149 274.968 114.057 274.826C113.965 274.677 113.894 274.518 113.844 274.348C113.788 274.171 113.759 273.973 113.759 273.754C113.759 273.117 113.954 272.625 114.343 272.278C114.732 271.932 115.256 271.758 115.914 271.758L119.481 271.758L119.481 273.043L116.296 273.043C115.858 273.043 115.522 273.149 115.288 273.361C115.047 273.566 114.927 273.86 114.927 274.242C114.927 274.617 115.051 274.922 115.299 275.155C115.539 275.389 115.879 275.505 116.318 275.505ZM119.481 262.322L119.481 263.596L118.791 263.596C119.018 263.787 119.209 264.031 119.364 264.328C119.52 264.625 119.598 264.986 119.598 265.411C119.598 265.68 119.559 265.935 119.481 266.175C119.41 266.416 119.304 266.628 119.163 266.812C119.014 266.989 118.834 267.134 118.621 267.247C118.402 267.354 118.151 267.407 117.868 267.407L117.846 267.407C117.542 267.407 117.277 267.35 117.05 267.237C116.824 267.124 116.636 266.968 116.488 266.77C116.339 266.565 116.229 266.324 116.158 266.048C116.081 265.765 116.042 265.461 116.042 265.135C116.042 264.795 116.063 264.509 116.105 264.275C116.148 264.035 116.204 263.805 116.275 263.585L116.137 263.585C115.748 263.585 115.451 263.705 115.246 263.946C115.04 264.18 114.938 264.519 114.938 264.965C114.938 265.284 114.97 265.567 115.033 265.814C115.097 266.062 115.182 266.313 115.288 266.568L114.258 266.918C114.117 266.607 114.004 266.289 113.919 265.963C113.834 265.637 113.791 265.245 113.791 264.785C113.791 263.95 114 263.33 114.418 262.927C114.828 262.524 115.408 262.322 116.158 262.322L119.481 262.322ZM117.454 263.564L117.103 263.564C117.04 263.727 116.986 263.921 116.944 264.148C116.902 264.367 116.88 264.601 116.88 264.848C116.88 265.252 116.958 265.567 117.114 265.793C117.27 266.02 117.492 266.133 117.783 266.133L117.804 266.133C118.073 266.133 118.278 266.03 118.42 265.825C118.561 265.613 118.632 265.354 118.632 265.05C118.632 264.838 118.604 264.643 118.547 264.466C118.49 264.282 118.412 264.123 118.313 263.989C118.207 263.854 118.083 263.751 117.942 263.681C117.793 263.603 117.63 263.564 117.454 263.564ZM119.481 259.435L119.481 260.72L111.732 260.72L111.732 259.435L119.481 259.435ZM119.481 256.398L119.481 257.682L111.732 257.682L111.732 256.398L119.481 256.398ZM116.679 245.868C117.082 245.868 117.461 245.946 117.814 246.102C118.168 246.25 118.48 246.459 118.749 246.728C119.01 246.99 119.219 247.305 119.375 247.673C119.531 248.041 119.608 248.441 119.608 248.872C119.608 249.297 119.534 249.693 119.386 250.061C119.23 250.422 119.021 250.737 118.759 251.006C118.49 251.268 118.182 251.473 117.836 251.622C117.482 251.77 117.103 251.845 116.7 251.845C116.296 251.845 115.918 251.77 115.564 251.622C115.203 251.466 114.892 251.257 114.63 250.995C114.361 250.727 114.149 250.412 113.993 250.051C113.837 249.683 113.759 249.283 113.759 248.851C113.759 248.419 113.837 248.023 113.993 247.662C114.142 247.294 114.35 246.979 114.619 246.717C114.881 246.449 115.189 246.24 115.543 246.091C115.897 245.943 116.275 245.868 116.679 245.868ZM116.7 247.153C116.452 247.153 116.219 247.195 115.999 247.28C115.78 247.365 115.589 247.485 115.426 247.641C115.256 247.79 115.125 247.97 115.033 248.182C114.934 248.388 114.885 248.618 114.885 248.872C114.885 249.127 114.934 249.361 115.033 249.573C115.125 249.778 115.253 249.955 115.415 250.104C115.578 250.252 115.769 250.366 115.989 250.443C116.201 250.521 116.431 250.56 116.679 250.56C116.926 250.56 117.163 250.518 117.39 250.433C117.609 250.348 117.8 250.231 117.963 250.083C118.126 249.927 118.257 249.746 118.356 249.541C118.448 249.329 118.494 249.099 118.494 248.851C118.494 248.589 118.448 248.356 118.356 248.151C118.257 247.938 118.126 247.758 117.963 247.609C117.8 247.461 117.613 247.347 117.4 247.269C117.181 247.192 116.948 247.153 116.7 247.153ZM117.347 243.276L119.481 243.276L119.481 244.56L113.876 244.56L113.876 243.276L115.139 243.276C114.715 243.099 114.375 242.848 114.12 242.522C113.866 242.196 113.749 241.786 113.77 241.291L115.129 241.291L115.129 241.365C115.129 241.648 115.175 241.906 115.267 242.14C115.359 242.373 115.497 242.575 115.681 242.745C115.865 242.915 116.098 243.046 116.381 243.138C116.657 243.23 116.979 243.276 117.347 243.276ZM119.481 234.821L119.481 236.106L118.547 236.106C118.837 236.311 119.085 236.569 119.29 236.881C119.495 237.185 119.598 237.563 119.598 238.016C119.598 238.349 119.534 238.671 119.407 238.982C119.279 239.294 119.092 239.57 118.844 239.81C118.589 240.051 118.282 240.246 117.921 240.394C117.56 240.543 117.146 240.617 116.679 240.617C116.212 240.617 115.798 240.546 115.437 240.405C115.076 240.256 114.771 240.062 114.524 239.821C114.269 239.58 114.078 239.304 113.95 238.993C113.823 238.675 113.759 238.349 113.759 238.016C113.759 237.556 113.858 237.174 114.057 236.87C114.255 236.566 114.485 236.311 114.747 236.106L111.732 236.106L111.732 234.821L119.481 234.821ZM116.679 236.084C116.403 236.084 116.155 236.13 115.936 236.222C115.716 236.307 115.529 236.424 115.373 236.573C115.21 236.721 115.086 236.895 115.001 237.093C114.916 237.291 114.874 237.496 114.874 237.709C114.874 237.928 114.916 238.137 115.001 238.335C115.079 238.526 115.196 238.696 115.352 238.844C115.507 238.993 115.698 239.11 115.925 239.195C116.144 239.28 116.396 239.322 116.679 239.322C116.955 239.322 117.206 239.28 117.432 239.195C117.652 239.11 117.839 238.993 117.995 238.844C118.151 238.696 118.271 238.526 118.356 238.335C118.441 238.137 118.483 237.928 118.483 237.709C118.483 237.496 118.441 237.291 118.356 237.093C118.271 236.895 118.151 236.721 117.995 236.573C117.832 236.424 117.641 236.307 117.422 236.222C117.202 236.13 116.955 236.084 116.679 236.084ZM117.135 232.242C117.595 232.165 117.949 231.981 118.197 231.69C118.437 231.4 118.558 231.046 118.558 230.629C118.558 230.31 118.501 230.034 118.388 229.801C118.274 229.567 118.108 229.337 117.889 229.111L118.558 228.357C118.876 228.626 119.131 228.948 119.322 229.323C119.513 229.691 119.608 230.134 119.608 230.65C119.608 231.054 119.538 231.432 119.396 231.786C119.255 232.133 119.056 232.437 118.802 232.699C118.547 232.954 118.243 233.155 117.889 233.304C117.528 233.453 117.128 233.527 116.689 233.527C116.286 233.527 115.907 233.46 115.553 233.325C115.2 233.191 114.892 233.003 114.63 232.763C114.361 232.515 114.149 232.225 113.993 231.892C113.837 231.56 113.759 231.192 113.759 230.788C113.759 230.342 113.841 229.953 114.004 229.62C114.166 229.281 114.386 229.001 114.662 228.782C114.938 228.555 115.26 228.386 115.628 228.272C115.996 228.159 116.381 228.102 116.785 228.102C116.841 228.102 116.898 228.106 116.955 228.113C117.011 228.113 117.071 228.117 117.135 228.124L117.135 232.242ZM116.286 232.253L116.286 229.376C116.081 229.398 115.89 229.444 115.713 229.514C115.529 229.585 115.373 229.681 115.246 229.801C115.111 229.921 115.005 230.066 114.927 230.236C114.849 230.399 114.81 230.586 114.81 230.799C114.81 231.195 114.948 231.524 115.224 231.786C115.493 232.041 115.847 232.196 116.286 232.253ZM117.347 225.528L119.481 225.528L119.481 226.813L113.876 226.813L113.876 225.528L115.139 225.528C114.715 225.351 114.375 225.1 114.12 224.774C113.866 224.449 113.749 224.038 113.77 223.543L115.129 223.543L115.129 223.617C115.129 223.9 115.175 224.159 115.267 224.392C115.359 224.626 115.497 224.827 115.681 224.997C115.865 225.167 116.098 225.298 116.381 225.39C116.657 225.482 116.979 225.528 117.347 225.528ZM117.825 218.425C118.122 218.425 118.381 218.479 118.6 218.585C118.819 218.691 119.003 218.839 119.152 219.031C119.294 219.215 119.403 219.434 119.481 219.689C119.552 219.943 119.587 220.216 119.587 220.506C119.587 220.909 119.516 221.32 119.375 221.737C119.233 222.148 119.025 222.53 118.749 222.884L117.878 222.311C118.105 222.006 118.278 221.699 118.398 221.387C118.512 221.069 118.568 220.764 118.568 220.474C118.568 220.198 118.515 219.986 118.409 219.837C118.296 219.682 118.147 219.604 117.963 219.604L117.942 219.604C117.836 219.604 117.744 219.639 117.666 219.71C117.588 219.774 117.521 219.866 117.464 219.986C117.4 220.099 117.347 220.234 117.305 220.389C117.255 220.538 117.206 220.694 117.156 220.856C117.093 221.062 117.022 221.27 116.944 221.483C116.866 221.688 116.767 221.875 116.647 222.045C116.519 222.208 116.367 222.343 116.19 222.449C116.006 222.555 115.78 222.608 115.511 222.608L115.49 222.608C115.228 222.608 114.991 222.558 114.778 222.459C114.566 222.353 114.386 222.212 114.237 222.035C114.088 221.851 113.975 221.638 113.897 221.398C113.82 221.15 113.781 220.888 113.781 220.612C113.781 220.258 113.837 219.901 113.95 219.54C114.064 219.179 114.219 218.85 114.418 218.553L115.33 219.062C115.168 219.331 115.04 219.604 114.948 219.88C114.849 220.156 114.8 220.411 114.8 220.644C114.8 220.892 114.853 221.086 114.959 221.228C115.065 221.362 115.2 221.43 115.362 221.43L115.384 221.43C115.483 221.43 115.571 221.394 115.649 221.323C115.72 221.253 115.787 221.161 115.851 221.047C115.907 220.927 115.964 220.793 116.02 220.644C116.07 220.488 116.12 220.329 116.169 220.166C116.233 219.961 116.307 219.756 116.392 219.551C116.477 219.345 116.583 219.161 116.71 218.999C116.831 218.829 116.979 218.691 117.156 218.585C117.333 218.479 117.549 218.425 117.804 218.425L117.825 218.425ZM116.679 208.269C117.082 208.269 117.461 208.346 117.814 208.502C118.168 208.651 118.48 208.86 118.749 209.128C119.01 209.39 119.219 209.705 119.375 210.073C119.531 210.441 119.608 210.841 119.608 211.273C119.608 211.697 119.534 212.094 119.386 212.462C119.23 212.823 119.021 213.138 118.759 213.406C118.49 213.668 118.182 213.874 117.836 214.022C117.482 214.171 117.103 214.245 116.7 214.245C116.296 214.245 115.918 214.171 115.564 214.022C115.203 213.866 114.892 213.658 114.63 213.396C114.361 213.127 114.149 212.812 113.993 212.451C113.837 212.083 113.759 211.683 113.759 211.252C113.759 210.82 113.837 210.424 113.993 210.063C114.142 209.695 114.35 209.38 114.619 209.118C114.881 208.849 115.189 208.64 115.543 208.492C115.897 208.343 116.275 208.269 116.679 208.269ZM116.7 209.553C116.452 209.553 116.219 209.596 115.999 209.68C115.78 209.765 115.589 209.886 115.426 210.041C115.256 210.19 115.125 210.37 115.033 210.583C114.934 210.788 114.885 211.018 114.885 211.273C114.885 211.528 114.934 211.761 115.033 211.973C115.125 212.179 115.253 212.356 115.415 212.504C115.578 212.653 115.769 212.766 115.989 212.844C116.201 212.922 116.431 212.961 116.679 212.961C116.926 212.961 117.163 212.918 117.39 212.833C117.609 212.748 117.8 212.632 117.963 212.483C118.126 212.327 118.257 212.147 118.356 211.942C118.448 211.729 118.494 211.499 118.494 211.252C118.494 210.99 118.448 210.756 118.356 210.551C118.257 210.339 118.126 210.158 117.963 210.01C117.8 209.861 117.613 209.748 117.4 209.67C117.181 209.592 116.948 209.553 116.7 209.553ZM117.995 204.925L113.876 203.407L113.876 202.059L119.524 204.352L119.524 205.509L113.876 207.813L113.876 206.433L117.995 204.925ZM117.135 200.313C117.595 200.236 117.949 200.052 118.197 199.761C118.437 199.471 118.558 199.117 118.558 198.7C118.558 198.381 118.501 198.105 118.388 197.872C118.274 197.638 118.108 197.408 117.889 197.182L118.558 196.428C118.876 196.697 119.131 197.019 119.322 197.394C119.513 197.762 119.608 198.204 119.608 198.721C119.608 199.124 119.538 199.503 119.396 199.857C119.255 200.204 119.056 200.508 118.802 200.77C118.547 201.025 118.243 201.226 117.889 201.375C117.528 201.524 117.128 201.598 116.689 201.598C116.286 201.598 115.907 201.531 115.553 201.396C115.2 201.262 114.892 201.074 114.63 200.834C114.361 200.586 114.149 200.296 113.993 199.963C113.837 199.63 113.759 199.262 113.759 198.859C113.759 198.413 113.841 198.024 114.004 197.691C114.166 197.352 114.386 197.072 114.662 196.853C114.938 196.626 115.26 196.456 115.628 196.343C115.996 196.23 116.381 196.173 116.785 196.173C116.841 196.173 116.898 196.177 116.955 196.184C117.011 196.184 117.071 196.188 117.135 196.195L117.135 200.313ZM116.286 200.324L116.286 197.447C116.081 197.468 115.89 197.514 115.713 197.585C115.529 197.656 115.373 197.752 115.246 197.872C115.111 197.992 115.005 198.137 114.927 198.307C114.849 198.47 114.81 198.657 114.81 198.87C114.81 199.266 114.948 199.595 115.224 199.857C115.493 200.112 115.847 200.267 116.286 200.324ZM117.347 193.599L119.481 193.599L119.481 194.883L113.876 194.883L113.876 193.599L115.139 193.599C114.715 193.422 114.375 193.171 114.12 192.845C113.866 192.52 113.749 192.109 113.77 191.614L115.129 191.614L115.129 191.688C115.129 191.971 115.175 192.23 115.267 192.463C115.359 192.697 115.497 192.898 115.681 193.068C115.865 193.238 116.098 193.369 116.381 193.461C116.657 193.553 116.979 193.599 117.347 193.599ZM119.481 185.278L115.978 187.284L115.511 187.284L115.511 187.05C115.511 186.675 115.476 186.36 115.405 186.106C115.334 185.844 115.217 185.639 115.054 185.49C114.892 185.341 114.669 185.253 114.386 185.225L114.386 187.284L113.706 187.284L113.706 185.235C113.444 185.285 113.232 185.384 113.069 185.532C112.9 185.681 112.776 185.883 112.698 186.138C112.62 186.385 112.581 186.69 112.581 187.05L112.581 187.284L111.902 187.284L111.902 182.889L112.581 182.889L112.581 184.896C112.716 184.733 112.875 184.598 113.059 184.492C113.243 184.386 113.459 184.319 113.706 184.29L113.706 182.889L114.386 182.889L114.386 184.269C114.902 184.319 115.306 184.517 115.596 184.864C115.879 185.203 116.059 185.656 116.137 186.222L119.481 184.195L119.481 185.278ZM112.634 178.589L111.997 176.594L111.997 175.681L119.481 175.681L119.481 176.976L113.324 176.976L113.696 178.313L112.634 178.589ZM115.755 167.576C116.286 167.576 116.788 167.654 117.262 167.809C117.73 167.965 118.136 168.185 118.483 168.468C118.83 168.751 119.106 169.094 119.311 169.497C119.509 169.894 119.608 170.336 119.608 170.824C119.608 171.313 119.509 171.755 119.311 172.151C119.113 172.547 118.841 172.887 118.494 173.17C118.147 173.453 117.74 173.673 117.273 173.828C116.806 173.977 116.307 174.051 115.776 174.051C115.246 174.051 114.747 173.973 114.28 173.818C113.805 173.662 113.395 173.443 113.048 173.16C112.701 172.877 112.429 172.537 112.231 172.141C112.026 171.737 111.923 171.291 111.923 170.803C111.923 170.315 112.022 169.872 112.22 169.476C112.418 169.08 112.691 168.74 113.038 168.457C113.384 168.174 113.791 167.958 114.258 167.809C114.725 167.654 115.224 167.576 115.755 167.576ZM115.776 168.924C115.408 168.924 115.062 168.97 114.736 169.062C114.41 169.147 114.127 169.274 113.887 169.444C113.646 169.607 113.455 169.805 113.314 170.039C113.172 170.272 113.101 170.534 113.101 170.824C113.101 171.114 113.172 171.376 113.314 171.61C113.448 171.836 113.636 172.031 113.876 172.194C114.11 172.356 114.389 172.484 114.715 172.576C115.04 172.661 115.387 172.703 115.755 172.703C116.13 172.703 116.48 172.661 116.806 172.576C117.124 172.484 117.408 172.356 117.655 172.194C117.896 172.024 118.087 171.822 118.228 171.589C118.363 171.355 118.43 171.093 118.43 170.803C118.43 170.513 118.363 170.255 118.228 170.028C118.087 169.795 117.896 169.596 117.655 169.434C117.415 169.271 117.135 169.147 116.817 169.062C116.491 168.97 116.144 168.924 115.776 168.924ZM115.755 159.894C116.286 159.894 116.788 159.972 117.262 160.128C117.73 160.284 118.136 160.503 118.483 160.786C118.83 161.069 119.106 161.412 119.311 161.816C119.509 162.212 119.608 162.654 119.608 163.143C119.608 163.631 119.509 164.073 119.311 164.47C119.113 164.866 118.841 165.206 118.494 165.489C118.147 165.772 117.74 165.991 117.273 166.147C116.806 166.295 116.307 166.37 115.776 166.37C115.246 166.37 114.747 166.292 114.28 166.136C113.805 165.98 113.395 165.761 113.048 165.478C112.701 165.195 112.429 164.855 112.231 164.459C112.026 164.056 111.923 163.61 111.923 163.121C111.923 162.633 112.022 162.191 112.22 161.794C112.418 161.398 112.691 161.058 113.038 160.775C113.384 160.492 113.791 160.276 114.258 160.128C114.725 159.972 115.224 159.894 115.755 159.894ZM115.776 161.242C115.408 161.242 115.062 161.288 114.736 161.38C114.41 161.465 114.127 161.593 113.887 161.763C113.646 161.925 113.455 162.124 113.314 162.357C113.172 162.591 113.101 162.852 113.101 163.143C113.101 163.433 113.172 163.695 113.314 163.928C113.448 164.155 113.636 164.349 113.876 164.512C114.11 164.675 114.389 164.802 114.715 164.894C115.04 164.979 115.387 165.022 115.755 165.022C116.13 165.022 116.48 164.979 116.806 164.894C117.124 164.802 117.408 164.675 117.655 164.512C117.896 164.342 118.087 164.14 118.228 163.907C118.363 163.673 118.43 163.412 118.43 163.121C118.43 162.831 118.363 162.573 118.228 162.346C118.087 162.113 117.896 161.915 117.655 161.752C117.415 161.589 117.135 161.465 116.817 161.38C116.491 161.288 116.144 161.242 115.776 161.242ZM115.755 152.213C116.286 152.213 116.788 152.291 117.262 152.446C117.73 152.602 118.136 152.821 118.483 153.104C118.83 153.387 119.106 153.731 119.311 154.134C119.509 154.53 119.608 154.973 119.608 155.461C119.608 155.949 119.509 156.392 119.311 156.788C119.113 157.184 118.841 157.524 118.494 157.807C118.147 158.09 117.74 158.309 117.273 158.465C116.806 158.614 116.307 158.688 115.776 158.688C115.246 158.688 114.747 158.61 114.28 158.455C113.805 158.299 113.395 158.079 113.048 157.796C112.701 157.513 112.429 157.174 112.231 156.777C112.026 156.374 111.923 155.928 111.923 155.44C111.923 154.951 112.022 154.509 112.22 154.113C112.418 153.717 112.691 153.377 113.038 153.094C113.384 152.811 113.791 152.595 114.258 152.446C114.725 152.291 115.224 152.213 115.755 152.213ZM115.776 153.561C115.408 153.561 115.062 153.607 114.736 153.699C114.41 153.784 114.127 153.911 113.887 154.081C113.646 154.244 113.455 154.442 113.314 154.675C113.172 154.909 113.101 155.171 113.101 155.461C113.101 155.751 113.172 156.013 113.314 156.247C113.448 156.473 113.636 156.668 113.876 156.83C114.11 156.993 114.389 157.121 114.715 157.213C115.04 157.297 115.387 157.34 115.755 157.34C116.13 157.34 116.48 157.297 116.806 157.213C117.124 157.121 117.408 156.993 117.655 156.83C117.896 156.661 118.087 156.459 118.228 156.225C118.363 155.992 118.43 155.73 118.43 155.44C118.43 155.15 118.363 154.891 118.228 154.665C118.087 154.431 117.896 154.233 117.655 154.07C117.415 153.908 117.135 153.784 116.817 153.699C116.491 153.607 116.144 153.561 115.776 153.561Z" fill="#9A9A9A"/>
<path d="M2.00201 82.2685L2.00201 18.5762C2.00202 8.31643 10.3192 -0.000725647 20.5789 -0.000725525L121.425 -0.000724322C131.685 -0.0007242 140.002 8.31645 140.002 18.5762L140.002 82.2685L2.00201 82.2685Z" fill="#094446"/>
<g filter="url(#filter1_bd_19_21)">
<rect x="11.9507" y="286.616" width="130.038" height="31.483" rx="15.7415" transform="rotate(-90 11.9507 286.616)" fill="white"/>
</g>
<path d="M29.9607 269.439C30.1237 269.591 30.27 269.751 30.3993 269.92C30.523 270.083 30.6327 270.26 30.7283 270.451C30.8182 270.643 30.8857 270.853 30.9307 271.084C30.9813 271.309 31.0066 271.559 31.0066 271.835C31.0066 272.268 30.9279 272.667 30.7704 273.032C30.613 273.398 30.3993 273.716 30.1294 273.986C29.8538 274.25 29.5305 274.458 29.1593 274.61C28.7882 274.762 28.3889 274.838 27.9616 274.838C27.5398 274.838 27.1434 274.764 26.7722 274.618C26.4011 274.466 26.0777 274.256 25.8022 273.986C25.521 273.716 25.3017 273.395 25.1443 273.024C24.9812 272.653 24.8996 272.242 24.8996 271.792C24.8996 271.523 24.9221 271.278 24.9671 271.059C25.0121 270.834 25.0768 270.628 25.1611 270.443C25.2399 270.257 25.3355 270.086 25.4479 269.928C25.5604 269.771 25.6841 269.622 25.8191 269.481L26.5867 270.148C26.3673 270.384 26.1902 270.634 26.0552 270.898C25.9203 271.163 25.8528 271.464 25.8528 271.801C25.8528 272.082 25.909 272.344 26.0215 272.585C26.1284 272.822 26.2774 273.027 26.4686 273.201C26.6541 273.375 26.8734 273.51 27.1265 273.606C27.3795 273.702 27.6523 273.749 27.9447 273.749C28.2371 273.749 28.5127 273.702 28.7713 273.606C29.0244 273.51 29.2465 273.375 29.4377 273.201C29.6289 273.027 29.7807 272.822 29.8932 272.585C30 272.344 30.0535 272.082 30.0535 271.801C30.0535 271.441 29.986 271.132 29.851 270.873C29.7104 270.614 29.522 270.359 29.2859 270.105L29.9607 269.439ZM28.6785 264.045C28.9991 264.045 29.2999 264.107 29.5811 264.23C29.8623 264.348 30.1097 264.514 30.3234 264.728C30.5314 264.936 30.6973 265.186 30.821 265.479C30.9448 265.771 31.0066 266.089 31.0066 266.432C31.0066 266.769 30.9476 267.084 30.8295 267.377C30.7058 267.663 30.5399 267.914 30.3318 268.127C30.1181 268.335 29.8735 268.498 29.598 268.617C29.3168 268.735 29.0159 268.794 28.6954 268.794C28.3749 268.794 28.074 268.735 27.7929 268.617C27.5061 268.493 27.2586 268.327 27.0506 268.119C26.8369 267.905 26.6682 267.655 26.5445 267.368C26.4208 267.076 26.3589 266.758 26.3589 266.415C26.3589 266.072 26.4208 265.757 26.5445 265.47C26.6626 265.178 26.8285 264.928 27.0421 264.72C27.2502 264.506 27.4948 264.34 27.776 264.222C28.0572 264.104 28.358 264.045 28.6785 264.045ZM28.6954 265.065C28.4986 265.065 28.313 265.099 28.1387 265.167C27.9644 265.234 27.8125 265.33 27.6832 265.453C27.5483 265.572 27.4442 265.715 27.3711 265.884C27.2924 266.047 27.253 266.229 27.253 266.432C27.253 266.634 27.2924 266.82 27.3711 266.989C27.4442 267.152 27.5454 267.292 27.6748 267.41C27.8041 267.528 27.9559 267.618 28.1303 267.68C28.299 267.742 28.4817 267.773 28.6785 267.773C28.8754 267.773 29.0637 267.739 29.2437 267.672C29.418 267.604 29.5698 267.512 29.6992 267.393C29.8285 267.27 29.9326 267.126 30.0113 266.963C30.0844 266.795 30.1209 266.612 30.1209 266.415C30.1209 266.207 30.0844 266.021 30.0113 265.858C29.9326 265.69 29.8285 265.546 29.6992 265.428C29.5698 265.31 29.4208 265.22 29.2521 265.158C29.0778 265.096 28.8922 265.065 28.6954 265.065ZM28.9653 260.078L26.4517 260.078L26.4517 259.058L30.9054 259.058L30.9054 260.078L30.2137 260.078C30.4274 260.225 30.613 260.407 30.7704 260.627C30.9223 260.846 30.9982 261.127 30.9982 261.47C30.9982 261.976 30.8435 262.367 30.5343 262.643C30.225 262.918 29.8088 263.056 29.2859 263.056L26.4517 263.056L26.4517 262.035L28.9822 262.035C29.3309 262.035 29.6008 261.954 29.792 261.791C29.9775 261.622 30.0703 261.386 30.0703 261.082C30.0703 260.784 29.9747 260.542 29.7835 260.357C29.5867 260.171 29.314 260.078 28.9653 260.078ZM28.6785 253.169C29.0497 253.169 29.3787 253.228 29.6654 253.346C29.9522 253.459 30.1969 253.613 30.3993 253.81C30.5961 254.001 30.7451 254.223 30.8464 254.477C30.9476 254.724 30.9982 254.98 30.9982 255.244C30.9982 255.61 30.9195 255.913 30.762 256.155C30.6045 256.397 30.4218 256.597 30.2137 256.754L32.255 256.754L32.255 257.775L26.4517 257.775L26.4517 256.754L27.194 256.754C26.9578 256.591 26.761 256.388 26.6035 256.147C26.4404 255.905 26.3589 255.604 26.3589 255.244C26.3589 254.98 26.4095 254.724 26.5107 254.477C26.612 254.229 26.7638 254.01 26.9662 253.819C27.1631 253.622 27.4049 253.464 27.6916 253.346C27.9784 253.228 28.3074 253.169 28.6785 253.169ZM28.6785 254.207C28.4592 254.207 28.2624 254.24 28.0881 254.308C27.9081 254.375 27.7563 254.468 27.6326 254.586C27.5089 254.699 27.4133 254.834 27.3458 254.991C27.2783 255.143 27.2446 255.306 27.2446 255.48C27.2446 255.655 27.2783 255.821 27.3458 255.978C27.4133 256.135 27.5117 256.273 27.641 256.391C27.7647 256.509 27.9138 256.605 28.0881 256.678C28.2624 256.746 28.4592 256.779 28.6785 256.779C28.8979 256.779 29.0947 256.746 29.269 256.678C29.4433 256.605 29.5952 256.509 29.7245 256.391C29.8482 256.273 29.9438 256.135 30.0113 255.978C30.0788 255.821 30.1125 255.655 30.1125 255.48C30.1125 255.306 30.0788 255.143 30.0113 254.991C29.9438 254.834 29.8482 254.699 29.7245 254.586C29.6008 254.468 29.4518 254.375 29.2774 254.308C29.0975 254.24 28.8979 254.207 28.6785 254.207ZM28.6785 247.62C28.9991 247.62 29.2999 247.681 29.5811 247.805C29.8623 247.923 30.1097 248.089 30.3234 248.303C30.5314 248.511 30.6973 248.761 30.821 249.053C30.9448 249.346 31.0066 249.664 31.0066 250.007C31.0066 250.344 30.9476 250.659 30.8295 250.951C30.7058 251.238 30.5399 251.488 30.3318 251.702C30.1181 251.91 29.8735 252.073 29.598 252.191C29.3168 252.309 29.0159 252.368 28.6954 252.368C28.3749 252.368 28.074 252.309 27.7929 252.191C27.5061 252.068 27.2586 251.902 27.0506 251.694C26.8369 251.48 26.6682 251.23 26.5445 250.943C26.4208 250.651 26.3589 250.333 26.3589 249.99C26.3589 249.647 26.4208 249.332 26.5445 249.045C26.6626 248.753 26.8285 248.502 27.0421 248.294C27.2502 248.081 27.4948 247.915 27.776 247.797C28.0572 247.679 28.358 247.62 28.6785 247.62ZM28.6954 248.64C28.4986 248.64 28.313 248.674 28.1387 248.741C27.9644 248.809 27.8125 248.904 27.6832 249.028C27.5483 249.146 27.4442 249.29 27.3711 249.458C27.2924 249.621 27.253 249.804 27.253 250.007C27.253 250.209 27.2924 250.395 27.3711 250.563C27.4442 250.726 27.5454 250.867 27.6748 250.985C27.8041 251.103 27.9559 251.193 28.1303 251.255C28.299 251.317 28.4817 251.348 28.6785 251.348C28.8754 251.348 29.0637 251.314 29.2437 251.247C29.418 251.179 29.5698 251.086 29.6992 250.968C29.8285 250.845 29.9326 250.701 30.0113 250.538C30.0844 250.369 30.1209 250.187 30.1209 249.99C30.1209 249.782 30.0844 249.596 30.0113 249.433C29.9326 249.264 29.8285 249.121 29.6992 249.003C29.5698 248.885 29.4208 248.795 29.2521 248.733C29.0778 248.671 28.8922 248.64 28.6954 248.64ZM28.3918 245.559L30.9054 245.559L30.9054 246.58L26.4517 246.58L26.4517 245.559L27.1434 245.559C27.0365 245.486 26.9381 245.408 26.8481 245.323C26.7525 245.233 26.6682 245.132 26.5951 245.02C26.522 244.902 26.4658 244.775 26.4264 244.64C26.3814 244.499 26.3589 244.342 26.3589 244.168C26.3589 243.662 26.5136 243.271 26.8228 242.995C27.1321 242.72 27.5483 242.582 28.0712 242.582L30.9054 242.582L30.9054 243.603L28.3749 243.603C28.0262 243.603 27.7591 243.687 27.5736 243.856C27.3824 244.019 27.2868 244.252 27.2868 244.556C27.2868 244.854 27.3852 245.096 27.582 245.281C27.7732 245.467 28.0431 245.559 28.3918 245.559ZM27.6073 240.253L27.6073 241.375L26.4517 241.375L26.4517 240.253L27.6073 240.253ZM30.9054 240.253L30.9054 241.375L29.7498 241.375L29.7498 240.253L30.9054 240.253Z" fill="#9A9A9A"/>
<path d="M24.984 230.746L26.1396 230.746L26.1396 232.315L30.9054 232.315L30.9054 233.757L26.1396 233.757L26.1396 235.326L24.984 235.326L24.984 230.746ZM30.9054 224.725L30.9054 226.167L27.253 228.579L30.9054 228.579L30.9054 230.022L24.984 230.022L24.984 228.579L28.6532 226.167L24.984 226.167L24.984 224.725L30.9054 224.725ZM26.1396 222.237L27.3374 222.237L27.3374 220.305L28.4508 220.305L28.4508 222.237L29.7498 222.237L29.7498 220.052L30.9054 220.052L30.9054 223.679L24.984 223.679L24.984 220.052L26.1396 220.052L26.1396 222.237ZM30.9054 213.818L30.9054 215.261L27.253 217.673L30.9054 217.673L30.9054 219.116L24.984 219.116L24.984 217.673L28.6532 215.261L24.984 215.261L24.984 213.818L30.9054 213.818ZM30.9054 207.476L30.9054 208.918L27.253 211.33L30.9054 211.33L30.9054 212.773L24.984 212.773L24.984 211.33L28.6532 208.918L24.984 208.918L24.984 207.476L30.9054 207.476ZM24.984 202.17L26.1396 202.17L26.1396 203.739L30.9054 203.739L30.9054 205.182L26.1396 205.182L26.1396 206.751L24.984 206.751L24.984 202.17ZM30.9644 199.304C30.9644 199.737 30.8941 200.125 30.7536 200.468C30.613 200.811 30.4049 201.087 30.1294 201.295C29.8538 201.497 29.522 201.604 29.134 201.615L29.134 200.08C29.3533 200.058 29.522 199.982 29.6401 199.852C29.7526 199.723 29.8088 199.554 29.8088 199.346C29.8088 199.133 29.761 198.964 29.6654 198.84C29.5642 198.716 29.4265 198.655 29.2521 198.655C29.1059 198.655 28.985 198.705 28.8894 198.806C28.7938 198.902 28.7151 199.023 28.6532 199.169C28.5914 199.31 28.5211 199.512 28.4424 199.776C28.3243 200.159 28.2062 200.471 28.0881 200.713C27.97 200.954 27.7957 201.163 27.5651 201.337C27.3346 201.511 27.0337 201.598 26.6626 201.598C26.1115 201.598 25.6813 201.399 25.372 200.999C25.0571 200.6 24.8996 200.08 24.8996 199.439C24.8996 198.787 25.0571 198.261 25.372 197.862C25.6813 197.462 26.1143 197.249 26.671 197.221L26.671 198.781C26.4798 198.792 26.3308 198.863 26.2239 198.992C26.1115 199.121 26.0552 199.287 26.0552 199.49C26.0552 199.664 26.103 199.805 26.1986 199.911C26.2886 200.018 26.4208 200.072 26.5951 200.072C26.7863 200.072 26.9353 199.982 27.0421 199.802C27.149 199.622 27.2643 199.341 27.388 198.958C27.5173 198.576 27.641 198.267 27.7591 198.03C27.8772 197.789 28.0487 197.58 28.2737 197.406C28.4986 197.232 28.7882 197.145 29.1425 197.145C29.4799 197.145 29.7863 197.232 30.0619 197.406C30.3374 197.575 30.5567 197.822 30.7198 198.148C30.8829 198.475 30.9644 198.86 30.9644 199.304ZM24.984 191.997L26.1396 191.997L26.1396 193.566L30.9054 193.566L30.9054 195.009L26.1396 195.009L26.1396 196.578L24.984 196.578L24.984 191.997ZM30.9644 188.473C30.9644 189.03 30.8351 189.541 30.5764 190.008C30.3178 190.469 29.9579 190.838 29.4967 191.113C29.03 191.383 28.507 191.518 27.9278 191.518C27.3486 191.518 26.8285 191.383 26.3673 191.113C25.9062 190.838 25.5463 190.469 25.2877 190.008C25.029 189.541 24.8996 189.03 24.8996 188.473C24.8996 187.916 25.029 187.407 25.2877 186.946C25.5463 186.48 25.9062 186.114 26.3673 185.85C26.8285 185.58 27.3486 185.445 27.9278 185.445C28.507 185.445 29.03 185.58 29.4967 185.85C29.9579 186.12 30.3178 186.485 30.5764 186.946C30.8351 187.407 30.9644 187.916 30.9644 188.473ZM29.6486 188.473C29.6486 188.001 29.4911 187.624 29.1762 187.343C28.8613 187.056 28.4452 186.913 27.9278 186.913C27.4049 186.913 26.9887 187.056 26.6794 187.343C26.3645 187.624 26.2071 188.001 26.2071 188.473C26.2071 188.951 26.3617 189.333 26.671 189.62C26.9803 189.901 27.3992 190.042 27.9278 190.042C28.4508 190.042 28.8697 189.901 29.1846 189.62C29.4939 189.333 29.6486 188.951 29.6486 188.473ZM30.9054 181.623L28.6701 182.854L28.6701 183.2L30.9054 183.2L30.9054 184.642L24.984 184.642L24.984 182.222C24.984 181.755 25.0655 181.358 25.2286 181.032C25.3917 180.7 25.6166 180.453 25.9034 180.29C26.1846 180.127 26.4995 180.045 26.8481 180.045C27.2418 180.045 27.5932 180.158 27.9025 180.383C28.2118 180.602 28.4311 180.928 28.5605 181.361L30.9054 179.995L30.9054 181.623ZM27.6495 183.2L27.6495 182.306C27.6495 182.042 27.5848 181.845 27.4555 181.715C27.3261 181.58 27.1434 181.513 26.9072 181.513C26.6823 181.513 26.5051 181.58 26.3758 181.715C26.2464 181.845 26.1818 182.042 26.1818 182.306L26.1818 183.2L27.6495 183.2ZM26.1396 177.697L27.3374 177.697L27.3374 175.766L28.4508 175.766L28.4508 177.697L29.7498 177.697L29.7498 175.513L30.9054 175.513L30.9054 179.14L24.984 179.14L24.984 175.513L26.1396 175.513L26.1396 177.697Z" fill="#094446"/>
<path d="M97.553 279.907L88.9558 284.836L86.9297 284.836L86.9297 283.193C86.9297 282.536 86.8384 281.961 86.6559 281.468C86.4551 280.957 86.1722 280.537 85.8071 280.209C85.442 279.862 85.004 279.625 84.4929 279.497L84.4929 284.836L82.4668 284.836L82.4668 279.524C81.9922 279.634 81.5724 279.825 81.2073 280.099C80.8422 280.355 80.5593 280.701 80.3585 281.14C80.1395 281.559 80.03 282.07 80.03 282.673L80.03 284.836L78.0039 284.836L78.0039 272.488L80.03 272.488L80.03 276.786C80.3768 276.476 80.751 276.22 81.1525 276.02C81.5541 275.801 81.9922 275.654 82.4668 275.581L82.4668 272.488L84.4929 272.488L84.4929 275.527C85.8436 275.709 86.9023 276.229 87.6689 277.087C88.4173 277.945 88.9284 279.05 89.2022 280.4L97.553 275.034L97.553 279.907Z" fill="#343434"/>
<rect x="49.8896" y="62.243" width="42.2203" height="42.2203" rx="5.38141" transform="rotate(-90 49.8896 62.243)" fill="white" stroke="#CDCDCD" stroke-width="0.241259"/>
<path d="M61.8256 41.4126C61.8256 43.5066 62.4465 45.5535 63.6098 47.2945C64.7732 49.0356 66.4267 50.3926 68.3612 51.1939C70.2958 51.9952 72.4245 52.2049 74.4783 51.7964C76.532 51.3879 78.4184 50.3795 79.8991 48.8989C81.3797 47.4182 82.3881 45.5318 82.7966 43.4781C83.2051 41.4243 82.9954 39.2956 82.1941 37.3611C81.3928 35.4265 80.0358 33.773 78.2947 32.6097C76.5537 31.4463 74.5067 30.8254 72.4128 30.8254L72.4128 41.4126L61.8256 41.4126Z" fill="#373737"/>
<path d="M70.5872 28.9998C69.1969 28.9998 67.8202 29.2737 66.5357 29.8057C65.2512 30.3378 64.084 31.1176 63.1009 32.1007C62.1178 33.0839 61.338 34.251 60.8059 35.5355C60.2738 36.82 60 38.1967 60 39.587L70.5872 39.587L70.5872 28.9998Z" fill="#B7B7B7"/>
<defs>
<filter id="filter0_d_19_21" x="0.00961548" y="-0.00210571" width="143.308" height="314.481" filterUnits="userSpaceOnUse" color-interpolation-filters="sRGB">
<feFlood flood-opacity="0" result="BackgroundImageFix"/>
<feColorMatrix in="SourceAlpha" type="matrix" values="0 0 0 0 0 0 0 0 0 0 0 0 0 0 0 0 0 0 127 0" result="hardAlpha"/>
<feOffset dx="0.663462" dy="3.31731"/>
<feGaussianBlur stdDeviation="1.32692"/>
<feComposite in2="hardAlpha" operator="out"/>
<feColorMatrix type="matrix" values="0 0 0 0 0.45 0 0 0 0 0.45 0 0 0 0 0.45 0 0 0 0.25 0"/>
<feBlend mode="normal" in2="BackgroundImageFix" result="effect1_dropShadow_19_21"/>
<feBlend mode="normal" in="SourceGraphic" in2="effect1_dropShadow_19_21" result="shape"/>
</filter>
<filter id="filter1_bd_19_21" x="3.62286" y="148.249" width="48.1386" height="146.694" filterUnits="userSpaceOnUse" color-interpolation-filters="sRGB">
<feFlood flood-opacity="0" result="BackgroundImageFix"/>
<feGaussianBlur in="BackgroundImageFix" stdDeviation="4.16391"/>
<feComposite in2="SourceAlpha" operator="in" result="effect1_backgroundBlur_19_21"/>
<feColorMatrix in="SourceAlpha" type="matrix" values="0 0 0 0 0 0 0 0 0 0 0 0 0 0 0 0 0 0 127 0" result="hardAlpha"/>
<feOffset dx="0.663462" dy="0.663462"/>
<feGaussianBlur stdDeviation="1.32692"/>
<feComposite in2="hardAlpha" operator="out"/>
<feColorMatrix type="matrix" values="0 0 0 0 0 0 0 0 0 0 0 0 0 0 0 0 0 0 0.25 0"/>
<feBlend mode="normal" in2="effect1_backgroundBlur_19_21" result="effect2_dropShadow_19_21"/>
<feBlend mode="normal" in="SourceGraphic" in2="effect2_dropShadow_19_21" result="shape"/>
</filter>
</defs>
</svg>
