<svg width="35" height="35" viewBox="0 0 35 35" fill="none" xmlns="http://www.w3.org/2000/svg">
<g clip-path="url(#clip0_404_1390)">
<path d="M17.4976 3.15292C22.1701 3.15292 22.7242 3.17042 24.569 3.255C26.4765 3.3425 28.4409 3.77708 29.8307 5.16687C31.2336 6.56979 31.6551 8.51521 31.7426 10.4285C31.8271 12.2733 31.8446 12.8275 31.8446 17.5C31.8446 22.1725 31.8271 22.7267 31.7426 24.5715C31.6565 26.4688 31.2117 28.4521 29.8307 29.8331C28.4278 31.236 26.4838 31.6575 24.569 31.745C22.7242 31.8296 22.1701 31.8471 17.4976 31.8471C12.8251 31.8471 12.2709 31.8296 10.4261 31.745C8.54339 31.659 6.53381 31.204 5.16443 29.8331C3.76881 28.4375 3.34006 26.4731 3.25256 24.5715C3.16798 22.7267 3.15048 22.1725 3.15048 17.5C3.15048 12.8275 3.16798 12.2733 3.25256 10.4285C3.3386 8.53854 3.78777 6.54354 5.16443 5.16687C6.56443 3.76688 8.51714 3.3425 10.4261 3.255C12.2709 3.17042 12.8251 3.15292 17.4976 3.15292ZM17.4976 0C12.7449 0 12.1484 0.0204167 10.2817 0.105C7.57652 0.228958 4.89027 0.981458 2.93464 2.93708C0.971725 4.9 0.226517 7.58042 0.102559 10.2842C0.0179753 12.1508 -0.00244141 12.7473 -0.00244141 17.5C-0.00244141 22.2527 0.0179753 22.8492 0.102559 24.7158C0.226517 27.4181 0.981934 30.1117 2.93464 32.0629C4.8961 34.0244 7.58089 34.771 10.2817 34.895C12.1484 34.9796 12.7449 35 17.4976 35C22.2503 35 22.8467 34.9796 24.7134 34.895C27.4171 34.771 30.1063 34.0171 32.0605 32.0629C34.0249 30.0985 34.7686 27.4196 34.8926 24.7158C34.9771 22.8492 34.9976 22.2527 34.9976 17.5C34.9976 12.7473 34.9771 12.1508 34.8926 10.2842C34.7686 7.57896 34.0146 4.89125 32.0605 2.93708C30.1019 0.978542 27.4099 0.2275 24.7134 0.105C22.8467 0.0204167 22.2503 0 17.4976 0Z" fill="#414141"/>
<path d="M17.498 8.51416C12.5353 8.51416 8.51172 12.5377 8.51172 17.5004C8.51172 22.4631 12.5353 26.4867 17.498 26.4867C22.4607 26.4867 26.4842 22.4631 26.4842 17.5004C26.4842 12.5377 22.4607 8.51416 17.498 8.51416ZM17.498 23.3337C14.2765 23.3337 11.6646 20.7219 11.6646 17.5004C11.6646 14.279 14.2765 11.6671 17.498 11.6671C20.7194 11.6671 23.3313 14.279 23.3313 17.5004C23.3313 20.7219 20.7194 23.3337 17.498 23.3337Z" fill="#414141"/>
<path d="M26.8402 10.2581C28 10.2581 28.9402 9.3179 28.9402 8.15811C28.9402 6.99831 28 6.05811 26.8402 6.05811C25.6804 6.05811 24.7402 6.99831 24.7402 8.15811C24.7402 9.3179 25.6804 10.2581 26.8402 10.2581Z" fill="#414141"/>
</g>
<defs>
<clipPath id="clip0_404_1390">
<rect width="35" height="35" fill="white"/>
</clipPath>
</defs>
</svg>
