<svg width="22" height="29" viewBox="0 0 22 29" fill="none" xmlns="http://www.w3.org/2000/svg">
<path d="M2.63636 29C1.91136 29 1.29072 28.7419 0.774432 28.2256C0.258144 27.7093 0 27.0886 0 26.3636V11.8636C0 11.1386 0.258144 10.518 0.774432 10.0017C1.29072 9.48542 1.91136 9.22727 2.63636 9.22727H6.59091V11.8636H2.63636V26.3636H18.4545V11.8636H14.5V9.22727H18.4545C19.1795 9.22727 19.8002 9.48542 20.3165 10.0017C20.8328 10.518 21.0909 11.1386 21.0909 11.8636V26.3636C21.0909 27.0886 20.8328 27.7093 20.3165 28.2256C19.8002 28.7419 19.1795 29 18.4545 29H2.63636ZM9.22727 19.7727V5.04205L7.11818 7.15114L5.27273 5.27273L10.5455 0L15.8182 5.27273L13.9727 7.15114L11.8636 5.04205V19.7727H9.22727Z" fill="#989797"/>
</svg>
