<svg width="22" height="30" viewBox="0 0 22 30" fill="none" xmlns="http://www.w3.org/2000/svg">
<path d="M2.63636 29.75C1.91136 29.75 1.29072 29.4919 0.774432 28.9756C0.258144 28.4593 0 27.8386 0 27.1136V12.6136C0 11.8886 0.258144 11.268 0.774432 10.7517C1.29072 10.2354 1.91136 9.97727 2.63636 9.97727H6.59091V12.6136H2.63636V27.1136H18.4545V12.6136H14.5V9.97727H18.4545C19.1795 9.97727 19.8002 10.2354 20.3165 10.7517C20.8328 11.268 21.0909 11.8886 21.0909 12.6136V27.1136C21.0909 27.8386 20.8328 28.4593 20.3165 28.9756C19.8002 29.4919 19.1795 29.75 18.4545 29.75H2.63636ZM9.22727 20.5227V5.79205L7.11818 7.90114L5.27273 6.02273L10.5455 0.75L15.8182 6.02273L13.9727 7.90114L11.8636 5.79205V20.5227H9.22727Z" fill="#BEBEBE"/>
</svg>
