<svg width="19" height="25" viewBox="0 0 19 25" fill="none" xmlns="http://www.w3.org/2000/svg">
<path d="M16.085 25C16.7169 25 17.2579 24.7775 17.7078 24.3324C18.1578 23.8873 18.3828 23.3523 18.3828 22.7273V10.2273C18.3828 9.60227 18.1578 9.06723 17.7078 8.62216C17.2579 8.17708 16.7169 7.95455 16.085 7.95455H12.6383V10.2273H16.085V22.7273H2.29825V10.2273H5.74494V7.95455H2.29825C1.66636 7.95455 1.12542 8.17708 0.675436 8.62216C0.225452 9.06723 0.000459671 9.60227 0.000459671 10.2273V22.7273C0.000459671 23.3523 0.225452 23.8873 0.675436 24.3324C1.12542 24.7775 1.66636 25 2.29825 25H16.085ZM10.3405 17.0455V4.34659L12.1788 6.16477L13.7872 4.54545L9.19164 0L4.59605 4.54545L6.2045 6.16477L8.04274 4.34659V17.0455H10.3405Z" fill="white"/>
</svg>
