<svg width="27" height="21" viewBox="0 0 27 21" fill="none" xmlns="http://www.w3.org/2000/svg">
<path d="M2.47059 19.7647C1.79118 19.7647 1.20956 19.5228 0.725735 19.039C0.241912 18.5551 0 17.9735 0 17.2941V2.47059C0 1.79118 0.241912 1.20956 0.725735 0.725735C1.20956 0.241912 1.79118 0 2.47059 0L4.94118 4.94118H8.64706L6.17647 0H8.64706L11.1176 4.94118H14.8235L12.3529 0H14.8235L17.2941 4.94118H21L18.5294 0H22.2353C22.9147 0 23.4963 0.241912 23.9801 0.725735C24.464 1.20956 24.7059 1.79118 24.7059 2.47059V7.41176H2.47059V17.2941H12.3529V19.7647H2.47059ZM20.1353 11.7662L21.4632 13.0941L16.6765 17.85V19.1471H17.9735L22.7603 14.3912L24.0574 15.6882L18.7456 21H14.8235V17.0779L20.1353 11.7662ZM24.0574 15.6882L20.1353 11.7662L21.9265 9.975C22.1529 9.74853 22.4412 9.63529 22.7912 9.63529C23.1412 9.63529 23.4294 9.74853 23.6559 9.975L25.8485 12.1676C26.075 12.3941 26.1882 12.6824 26.1882 13.0324C26.1882 13.3824 26.075 13.6706 25.8485 13.8971L24.0574 15.6882Z" fill="#094446"/>
</svg>
