<svg width="43" height="36" viewBox="0 0 43 36" fill="none" xmlns="http://www.w3.org/2000/svg">
<path d="M4.15468 33.0197C3.05296 33.0197 2.10983 32.6274 1.32527 31.8428C0.540715 31.0583 0.148438 30.1151 0.148438 29.0134V4.97597C0.148438 3.87425 0.540715 2.93112 1.32527 2.14656C2.10983 1.362 3.05296 0.969727 4.15468 0.969727L8.16092 8.98221H14.1703L10.164 0.969727H14.1703L18.1765 8.98221H24.1859L20.1796 0.969727H24.1859L28.1921 8.98221H34.2015L30.1953 0.969727H36.2046C37.3063 0.969727 38.2495 1.362 39.034 2.14656C39.8186 2.93112 40.2109 3.87425 40.2109 4.97597V12.9885H4.15468V29.0134H20.1796V33.0197H4.15468ZM32.7993 20.0495L34.9527 22.2028L27.1906 29.9148V32.0181H29.2938L37.0559 24.3061L39.1592 26.4094L30.5458 35.0228H24.1859V28.6629L32.7993 20.0495ZM39.1592 26.4094L32.7993 20.0495L35.7038 17.1449C36.0711 16.7777 36.5385 16.5941 37.106 16.5941C37.6736 16.5941 38.141 16.7777 38.5082 17.1449L42.0638 20.7005C42.431 21.0677 42.6146 21.5351 42.6146 22.1027C42.6146 22.6702 42.431 23.1376 42.0638 23.5048L39.1592 26.4094Z" fill="#272822"/>
</svg>
