<svg width="29" height="25" viewBox="0 0 29 25" fill="none" xmlns="http://www.w3.org/2000/svg">
<path d="M2.73585 22.8165C1.98349 22.8165 1.33943 22.5486 0.803656 22.0128C0.267885 21.4771 0 20.833 0 20.0806V3.66554C0 2.91318 0.267885 2.26911 0.803656 1.73334C1.33943 1.19757 1.98349 0.929688 2.73585 0.929688L5.4717 6.40139H9.57547L6.83962 0.929688H9.57547L12.3113 6.40139H16.4151L13.6792 0.929688H16.4151L19.1509 6.40139H23.2547L20.5189 0.929688H24.6226C25.375 0.929688 26.0191 1.19757 26.5548 1.73334C27.0906 2.26911 27.3585 2.91318 27.3585 3.66554V9.13723H2.73585V20.0806H13.6792V22.8165H2.73585ZM22.2972 13.9592L23.7677 15.4297L18.467 20.6962V22.1325H19.9033L25.204 16.866L26.6403 18.3023L20.7583 24.1844H16.4151V19.8412L22.2972 13.9592ZM26.6403 18.3023L22.2972 13.9592L24.2807 11.9757C24.5314 11.7249 24.8506 11.5995 25.2382 11.5995C25.6258 11.5995 25.945 11.7249 26.1958 11.9757L28.6238 14.4037C28.8746 14.6545 29 14.9737 29 15.3613C29 15.7489 28.8746 16.0681 28.6238 16.3188L26.6403 18.3023Z" fill="white"/>
</svg>
