<svg width="21" height="21" viewBox="0 0 21 21" fill="none" xmlns="http://www.w3.org/2000/svg">
<path d="M10.3333 10.3333C8.9125 10.3333 7.69618 9.82743 6.68437 8.81563C5.67257 7.80382 5.16667 6.5875 5.16667 5.16667C5.16667 3.74583 5.67257 2.52951 6.68437 1.51771C7.69618 0.505903 8.9125 0 10.3333 0C11.7542 0 12.9705 0.505903 13.9823 1.51771C14.9941 2.52951 15.5 3.74583 15.5 5.16667C15.5 6.5875 14.9941 7.80382 13.9823 8.81563C12.9705 9.82743 11.7542 10.3333 10.3333 10.3333ZM18.0833 20.6667H2.58333C1.87292 20.6667 1.26476 20.4137 0.758854 19.9078C0.252951 19.4019 0 18.7937 0 18.0833V17.05C0 16.3181 0.188368 15.6453 0.565104 15.0318C0.94184 14.4182 1.44236 13.95 2.06667 13.6271C3.40139 12.9597 4.75764 12.4592 6.13542 12.1255C7.51319 11.7918 8.9125 11.625 10.3333 11.625C11.7542 11.625 13.1535 11.7918 14.5312 12.1255C15.909 12.4592 17.2653 12.9597 18.6 13.6271C19.2243 13.95 19.7248 14.4182 20.1016 15.0318C20.4783 15.6453 20.6667 16.3181 20.6667 17.05V18.0833C20.6667 18.7937 20.4137 19.4019 19.9078 19.9078C19.4019 20.4137 18.7937 20.6667 18.0833 20.6667ZM2.58333 18.0833H18.0833V17.05C18.0833 16.8132 18.0241 16.5979 17.9057 16.4042C17.7873 16.2104 17.6313 16.0597 17.4375 15.9521C16.275 15.3708 15.1017 14.9349 13.9177 14.6443C12.7337 14.3536 11.5389 14.2083 10.3333 14.2083C9.12778 14.2083 7.93299 14.3536 6.74896 14.6443C5.56493 14.9349 4.39167 15.3708 3.22917 15.9521C3.03542 16.0597 2.87934 16.2104 2.76094 16.4042C2.64253 16.5979 2.58333 16.8132 2.58333 17.05V18.0833ZM10.3333 7.75C11.0437 7.75 11.6519 7.49705 12.1578 6.99115C12.6637 6.48524 12.9167 5.87708 12.9167 5.16667C12.9167 4.45625 12.6637 3.84809 12.1578 3.34219C11.6519 2.83628 11.0437 2.58333 10.3333 2.58333C9.62292 2.58333 9.01476 2.83628 8.50885 3.34219C8.00295 3.84809 7.75 4.45625 7.75 5.16667C7.75 5.87708 8.00295 6.48524 8.50885 6.99115C9.01476 7.49705 9.62292 7.75 10.3333 7.75Z" fill="#094446"/>
</svg>
