<svg width="20" height="20" viewBox="0 0 20 20" fill="none" xmlns="http://www.w3.org/2000/svg">
<mask id="path-1-inside-1_1879_3251" fill="white">
<path d="M9.87914 10.0471C8.56157 10.0471 7.43366 9.57797 6.4954 8.63971C5.55714 7.70145 5.08801 6.57353 5.08801 5.25597C5.08801 3.93841 5.55714 2.8105 6.4954 1.87224C7.43366 0.933975 8.56157 0.464844 9.87914 0.464844C11.1967 0.464844 12.3246 0.933975 13.2629 1.87224C14.2011 2.8105 14.6703 3.93841 14.6703 5.25597C14.6703 6.57353 14.2011 7.70145 13.2629 8.63971C12.3246 9.57797 11.1967 10.0471 9.87914 10.0471ZM17.0658 19.6294H2.69244C2.03366 19.6294 1.4697 19.3948 1.00057 18.9257C0.531441 18.4565 0.296875 17.8926 0.296875 17.2338V16.2756C0.296875 15.5968 0.471552 14.973 0.820905 14.404C1.17026 13.8351 1.6344 13.4009 2.21333 13.1014C3.45104 12.4826 4.70871 12.0185 5.98634 11.709C7.26398 11.3996 8.56157 11.2449 9.87914 11.2449C11.1967 11.2449 12.4943 11.3996 13.7719 11.709C15.0496 12.0185 16.3072 12.4826 17.5449 13.1014C18.1239 13.4009 18.588 13.8351 18.9374 14.404C19.2867 14.973 19.4614 15.5968 19.4614 16.2756V17.2338C19.4614 17.8926 19.2268 18.4565 18.7577 18.9257C18.2886 19.3948 17.7246 19.6294 17.0658 19.6294ZM2.69244 17.2338H17.0658V16.2756C17.0658 16.056 17.0109 15.8563 16.9011 15.6767C16.7913 15.497 16.6466 15.3573 16.4669 15.2575C15.3889 14.7185 14.301 14.3142 13.203 14.0447C12.105 13.7752 10.9971 13.6405 9.87914 13.6405C8.7612 13.6405 7.65326 13.7752 6.55529 14.0447C5.45732 14.3142 4.36934 14.7185 3.29133 15.2575C3.11166 15.3573 2.96693 15.497 2.85714 15.6767C2.74734 15.8563 2.69244 16.056 2.69244 16.2756V17.2338ZM9.87914 7.65154C10.5379 7.65154 11.1019 7.41697 11.571 6.94784C12.0401 6.47871 12.2747 5.91475 12.2747 5.25597C12.2747 4.59719 12.0401 4.03324 11.571 3.56411C11.1019 3.09497 10.5379 2.86041 9.87914 2.86041C9.22036 2.86041 8.6564 3.09497 8.18727 3.56411C7.71814 4.03324 7.48357 4.59719 7.48357 5.25597C7.48357 5.91475 7.71814 6.47871 8.18727 6.94784C8.6564 7.41697 9.22036 7.65154 9.87914 7.65154Z"/>
</mask>
<path d="M2.21333 13.1014L-0.0481908 8.57841L-0.079169 8.5939L-0.109932 8.60981L2.21333 13.1014ZM17.5449 13.1014L19.8682 8.60981L19.8374 8.5939L19.8065 8.57841L17.5449 13.1014ZM2.69244 17.2338H-2.36447V22.2907H2.69244V17.2338ZM17.0658 17.2338V22.2907H22.1227V17.2338H17.0658ZM16.4669 15.2575L18.9228 10.8369L18.8267 10.7836L18.7285 10.7344L16.4669 15.2575ZM3.29133 15.2575L1.02981 10.7344L0.931533 10.7836L0.83548 10.8369L3.29133 15.2575ZM9.87914 4.9902C9.85099 4.9902 9.8533 4.98781 9.87925 4.99279C9.90609 4.99794 9.9442 5.00829 9.98706 5.02612C10.0299 5.04392 10.0622 5.06287 10.0815 5.07601C10.1 5.08861 10.0958 5.08857 10.0712 5.06394L2.91963 12.2155C4.79868 14.0945 7.20974 15.104 9.87914 15.104V4.9902ZM10.0712 5.06394C10.0465 5.0393 10.0465 5.03509 10.0591 5.05359C10.0722 5.07288 10.0912 5.10524 10.109 5.14805C10.1268 5.19091 10.1372 5.22902 10.1423 5.25586C10.1473 5.28181 10.1449 5.28412 10.1449 5.25597H0.0310974C0.0310974 7.92537 1.04057 10.3364 2.91963 12.2155L10.0712 5.06394ZM10.1449 5.25597C10.1449 5.22783 10.1473 5.23013 10.1423 5.25609C10.1372 5.28293 10.1268 5.32104 10.109 5.3639C10.0912 5.40671 10.0722 5.43907 10.0591 5.45836C10.0465 5.47686 10.0465 5.47265 10.0712 5.44801L2.91963 -1.70354C1.04058 0.175515 0.0310974 2.58658 0.0310974 5.25597H10.1449ZM10.0712 5.44801C10.0958 5.42338 10.1 5.42334 10.0815 5.43594C10.0622 5.44908 10.0299 5.46802 9.98706 5.48583C9.9442 5.50365 9.90609 5.51401 9.87925 5.51916C9.8533 5.52413 9.85099 5.52175 9.87914 5.52175V-4.59206C7.20974 -4.59206 4.79868 -3.58259 2.91963 -1.70354L10.0712 5.44801ZM9.87914 5.52175C9.90728 5.52175 9.90497 5.52413 9.87902 5.51916C9.85218 5.51401 9.81407 5.50365 9.77121 5.48583C9.7284 5.46802 9.69604 5.44908 9.67675 5.43594C9.65825 5.42334 9.66246 5.42338 9.6871 5.44801L16.8386 -1.70354C14.9596 -3.58259 12.5485 -4.59206 9.87914 -4.59206V5.52175ZM9.6871 5.44801C9.71173 5.47265 9.71177 5.47686 9.69917 5.45836C9.68603 5.43907 9.66709 5.40671 9.64928 5.3639C9.63145 5.32104 9.6211 5.28293 9.61595 5.25609C9.61097 5.23013 9.61336 5.22783 9.61336 5.25597H19.7272C19.7272 2.58658 18.7177 0.175515 16.8386 -1.70354L9.6871 5.44801ZM9.61336 5.25597C9.61336 5.28412 9.61097 5.28181 9.61595 5.25586C9.6211 5.22902 9.63145 5.19091 9.64928 5.14805C9.66708 5.10524 9.68603 5.07288 9.69917 5.05359C9.71177 5.03509 9.71173 5.0393 9.6871 5.06394L16.8386 12.2155C18.7177 10.3364 19.7272 7.92537 19.7272 5.25597H9.61336ZM9.6871 5.06394C9.66246 5.08857 9.65825 5.08861 9.67675 5.07601C9.69604 5.06287 9.7284 5.04392 9.77121 5.02612C9.81407 5.00829 9.85218 4.99794 9.87902 4.99279C9.90497 4.98781 9.90728 4.9902 9.87914 4.9902V15.104C12.5485 15.104 14.9596 14.0945 16.8386 12.2155L9.6871 5.06394ZM17.0658 14.5725H2.69244V24.6863H17.0658V14.5725ZM2.69244 14.5725C2.97675 14.5725 3.33693 14.626 3.71742 14.7843C4.09719 14.9423 4.38372 15.1573 4.57635 15.3499L-2.5752 22.5014C-1.16528 23.9114 0.681825 24.6863 2.69244 24.6863V14.5725ZM4.57635 15.3499C4.76897 15.5425 4.98398 15.829 5.14194 16.2088C5.30019 16.5893 5.35378 16.9495 5.35378 17.2338H-4.76003C-4.76003 19.2444 -3.98512 21.0915 -2.5752 22.5014L4.57635 15.3499ZM5.35378 17.2338V16.2756H-4.76003V17.2338H5.35378ZM5.35378 16.2756C5.35378 16.3751 5.34024 16.5095 5.2975 16.6621C5.25461 16.8153 5.19333 16.9474 5.13026 17.0501L-3.48845 11.7579C-4.33511 13.1368 -4.76003 14.6791 -4.76003 16.2756H5.35378ZM5.13026 17.0501C5.08011 17.1318 5.00035 17.2373 4.88569 17.3446C4.77044 17.4524 4.64851 17.5352 4.53659 17.5931L-0.109932 8.60981C-1.5272 9.34288 -2.66971 10.4246 -3.48845 11.7579L5.13026 17.0501ZM4.47484 17.6245C5.3893 17.1673 6.28868 16.8389 7.17665 16.6238L4.79603 6.7942C3.12874 7.198 1.51277 7.79793 -0.0481908 8.57841L4.47484 17.6245ZM7.17665 16.6238C8.06366 16.409 8.96165 16.3018 9.87914 16.3018V6.18798C8.1615 6.18798 6.4643 6.39017 4.79603 6.7942L7.17665 16.6238ZM9.87914 16.3018C10.7966 16.3018 11.6946 16.409 12.5816 16.6238L14.9622 6.7942C13.294 6.39017 11.5968 6.18798 9.87914 6.18798V16.3018ZM12.5816 16.6238C13.4696 16.8389 14.369 17.1673 15.2834 17.6245L19.8065 8.57841C18.2455 7.79793 16.6295 7.198 14.9622 6.7942L12.5816 16.6238ZM15.2217 17.5931C15.1098 17.5352 14.9878 17.4524 14.8726 17.3446C14.7579 17.2373 14.6782 17.1318 14.628 17.0501L23.2467 11.7579C22.428 10.4246 21.2855 9.34288 19.8682 8.60981L15.2217 17.5931ZM14.628 17.0501C14.5649 16.9474 14.5037 16.8153 14.4608 16.6621C14.418 16.5095 14.4045 16.3751 14.4045 16.2756H24.5183C24.5183 14.6791 24.0934 13.1368 23.2467 11.7579L14.628 17.0501ZM14.4045 16.2756V17.2338H24.5183V16.2756H14.4045ZM14.4045 17.2338C14.4045 16.9495 14.4581 16.5893 14.6163 16.2088C14.7743 15.829 14.9893 15.5425 15.1819 15.3499L22.3335 22.5014C23.7434 21.0915 24.5183 19.2444 24.5183 17.2338H14.4045ZM15.1819 15.3499C15.3746 15.1573 15.6611 14.9423 16.0409 14.7843C16.4213 14.626 16.7815 14.5725 17.0658 14.5725V24.6863C19.0764 24.6863 20.9235 23.9114 22.3335 22.5014L15.1819 15.3499ZM2.69244 22.2907H17.0658V12.1769H2.69244V22.2907ZM22.1227 17.2338V16.2756H12.0089V17.2338H22.1227ZM22.1227 16.2756C22.1227 15.1673 21.8325 14.0483 21.2161 13.0398L12.5862 18.3136C12.1894 17.6644 12.0089 16.9447 12.0089 16.2756H22.1227ZM21.2161 13.0398C20.6626 12.1341 19.885 11.3715 18.9228 10.8369L14.0111 19.678C13.4082 19.343 12.9201 18.86 12.5862 18.3136L21.2161 13.0398ZM18.7285 10.7344C17.336 10.0382 15.895 9.49845 14.4084 9.13358L11.9975 18.9558C12.7069 19.13 13.4418 19.3987 14.2054 19.7805L18.7285 10.7344ZM14.4084 9.13358C12.9205 8.76834 11.4079 8.58354 9.87914 8.58354V18.6974C10.5862 18.6974 11.2896 18.7821 11.9975 18.9558L14.4084 9.13358ZM9.87914 8.58354C8.35039 8.58354 6.83781 8.76834 5.34983 9.13358L7.76075 18.9558C8.4687 18.7821 9.17202 18.6974 9.87914 18.6974V8.58354ZM5.34983 9.13358C3.8633 9.49845 2.42224 10.0382 1.02981 10.7344L5.55285 19.7805C6.31643 19.3987 7.05135 19.13 7.76075 18.9558L5.34983 9.13358ZM0.83548 10.8369C-0.126768 11.3715 -0.904353 12.1341 -1.45783 13.0398L7.1721 18.3136C6.83822 18.86 6.3501 19.343 5.74718 19.678L0.83548 10.8369ZM-1.45783 13.0398C-2.07419 14.0483 -2.36447 15.1673 -2.36447 16.2756H7.74935C7.74935 16.9447 7.56887 17.6644 7.1721 18.3136L-1.45783 13.0398ZM-2.36447 16.2756V17.2338H7.74935V16.2756H-2.36447ZM9.87914 12.7084C11.8898 12.7084 13.7369 11.9335 15.1468 10.5236L7.99523 3.37207C8.18786 3.17944 8.47438 2.96444 8.85416 2.80648C9.23465 2.64822 9.59482 2.59463 9.87914 2.59463V12.7084ZM15.1468 10.5236C16.5567 9.11369 17.3316 7.26659 17.3316 5.25597H7.21779C7.21779 4.97166 7.27138 4.61149 7.42964 4.231C7.5876 3.85122 7.8026 3.5647 7.99523 3.37207L15.1468 10.5236ZM17.3316 5.25597C17.3316 3.24536 16.5567 1.39825 15.1468 -0.0116676L7.99523 7.13988C7.8026 6.94725 7.5876 6.66073 7.42964 6.28095C7.27138 5.90046 7.21779 5.54028 7.21779 5.25597H17.3316ZM15.1468 -0.0116676C13.7369 -1.42159 11.8898 -2.1965 9.87914 -2.1965V7.91732C9.59482 7.91732 9.23465 7.86373 8.85416 7.70547C8.47438 7.54751 8.18786 7.33251 7.99523 7.13988L15.1468 -0.0116676ZM9.87914 -2.1965C7.86852 -2.1965 6.02141 -1.42159 4.61149 -0.0116676L11.763 7.13988C11.5704 7.33251 11.2839 7.54751 10.9041 7.70547C10.5236 7.86373 10.1634 7.91732 9.87914 7.91732V-2.1965ZM4.61149 -0.0116676C3.20157 1.39825 2.42666 3.24536 2.42666 5.25597H12.5405C12.5405 5.54029 12.4869 5.90046 12.3286 6.28095C12.1707 6.66073 11.9557 6.94725 11.763 7.13988L4.61149 -0.0116676ZM2.42666 5.25597C2.42666 7.26659 3.20157 9.1137 4.61149 10.5236L11.763 3.37207C11.9557 3.5647 12.1707 3.85122 12.3286 4.231C12.4869 4.61148 12.5405 4.97166 12.5405 5.25597H2.42666ZM4.61149 10.5236C6.02141 11.9335 7.86852 12.7084 9.87914 12.7084V2.59463C10.1634 2.59463 10.5236 2.64822 10.9041 2.80648C11.2839 2.96444 11.5704 3.17944 11.763 3.37207L4.61149 10.5236Z" fill="#00F0FF" mask="url(#path-1-inside-1_1879_3251)"/>
</svg>
