<svg width="44" height="40" viewBox="0 0 44 40" fill="none" xmlns="http://www.w3.org/2000/svg">
<path d="M21.8789 31.7244C24.6138 31.7244 26.9384 30.7672 28.8528 28.8528C30.7672 26.9384 31.7244 24.6138 31.7244 21.8789C31.7244 19.144 30.7672 16.8194 28.8528 14.905C26.9384 12.9906 24.6138 12.0334 21.8789 12.0334C19.144 12.0334 16.8194 12.9906 14.905 14.905C12.9906 16.8194 12.0334 19.144 12.0334 21.8789C12.0334 24.6138 12.9906 26.9384 14.905 28.8528C16.8194 30.7672 19.144 31.7244 21.8789 31.7244ZM21.8789 27.3486C20.3474 27.3486 19.0529 26.8199 17.9954 25.7624C16.9379 24.7049 16.4092 23.4104 16.4092 21.8789C16.4092 20.3474 16.9379 19.0529 17.9954 17.9954C19.0529 16.9379 20.3474 16.4092 21.8789 16.4092C23.4104 16.4092 24.7049 16.9379 25.7624 17.9954C26.8199 19.0529 27.3486 20.3474 27.3486 21.8789C27.3486 23.4104 26.8199 24.7049 25.7624 25.7624C24.7049 26.8199 23.4104 27.3486 21.8789 27.3486ZM4.37578 39.382C3.17244 39.382 2.14231 38.9536 1.28539 38.0966C0.428462 37.2397 0 36.2096 0 35.0062V8.75156C0 7.54822 0.428462 6.51809 1.28539 5.66117C2.14231 4.80424 3.17244 4.37578 4.37578 4.37578H11.2676L15.3152 0H28.4426L32.4902 4.37578H39.382C40.5854 4.37578 41.6155 4.80424 42.4724 5.66117C43.3293 6.51809 43.7578 7.54822 43.7578 8.75156V35.0062C43.7578 36.2096 43.3293 37.2397 42.4724 38.0966C41.6155 38.9536 40.5854 39.382 39.382 39.382H4.37578ZM4.37578 35.0062H39.382V8.75156H30.5211L26.5282 4.37578H17.2296L13.2367 8.75156H4.37578V35.0062Z" fill="#272727"/>
</svg>
