<svg width="18" height="27" viewBox="0 0 18 27" fill="none" xmlns="http://www.w3.org/2000/svg">
<path d="M7.05482 27L0.402298 15.3951V12.6601H2.6198C3.50681 12.6601 4.28293 12.5369 4.94819 12.2905C5.63808 12.0195 6.20477 11.6376 6.64827 11.1448C7.11641 10.6521 7.43672 10.0607 7.60919 9.37083H0.402298V6.6359H7.57223C7.4244 5.99529 7.16569 5.42859 6.79611 4.93581C6.45116 4.44303 5.98302 4.06113 5.39169 3.7901C4.82499 3.49443 4.1351 3.3466 3.32201 3.3466H0.402298V0.611676H17.0706V3.3466H11.2681C11.6869 3.81474 12.0319 4.31984 12.3029 4.8619C12.5986 5.40395 12.7957 5.99529 12.8943 6.6359H17.0706V9.37083H12.9682C12.7218 11.1941 12.0196 12.6232 10.8615 13.658C9.70351 14.6682 8.21285 15.3581 6.38957 15.7277L13.6334 27H7.05482Z" fill="#272822"/>
</svg>
