<svg width="30" height="30" viewBox="0 0 30 30" fill="none" xmlns="http://www.w3.org/2000/svg">
<path d="M11.4484 29.4727L10.8712 24.8327C10.5586 24.7118 10.2641 24.5668 9.98753 24.3977C9.711 24.2285 9.44048 24.0472 9.17597 23.8539L4.88368 25.6664L0.916016 18.7789L4.63119 15.9514C4.60714 15.7822 4.59512 15.6191 4.59512 15.462V14.4833C4.59512 14.3262 4.60714 14.1631 4.63119 13.9939L0.916016 11.1664L4.88368 4.27891L9.17597 6.09141C9.44048 5.89807 9.71701 5.71682 10.0056 5.54766C10.2941 5.37849 10.5827 5.23349 10.8712 5.11266L11.4484 0.472656H19.3837L19.9608 5.11266C20.2734 5.23349 20.568 5.37849 20.8445 5.54766C21.121 5.71682 21.3916 5.89807 21.6561 6.09141L25.9484 4.27891L29.916 11.1664L26.2008 13.9939C26.2249 14.1631 26.2369 14.3262 26.2369 14.4833V15.462C26.2369 15.6191 26.2129 15.7822 26.1648 15.9514L29.8799 18.7789L25.9123 25.6664L21.6561 23.8539C21.3916 24.0472 21.115 24.2285 20.8265 24.3977C20.5379 24.5668 20.2493 24.7118 19.9608 24.8327L19.3837 29.4727H11.4484ZM15.4882 20.0477C16.8828 20.0477 18.0731 19.5522 19.059 18.5614C20.045 17.5706 20.5379 16.3743 20.5379 14.9727C20.5379 13.571 20.045 12.3747 19.059 11.3839C18.0731 10.3931 16.8828 9.89766 15.4882 9.89766C14.0694 9.89766 12.8731 10.3931 11.8992 11.3839C10.9253 12.3747 10.4384 13.571 10.4384 14.9727C10.4384 16.3743 10.9253 17.5706 11.8992 18.5614C12.8731 19.5522 14.0694 20.0477 15.4882 20.0477ZM15.4882 17.1477C14.887 17.1477 14.376 16.9362 13.9552 16.5133C13.5344 16.0904 13.324 15.5768 13.324 14.9727C13.324 14.3685 13.5344 13.8549 13.9552 13.432C14.376 13.0091 14.887 12.7977 15.4882 12.7977C16.0893 12.7977 16.6003 13.0091 17.0211 13.432C17.4419 13.8549 17.6523 14.3685 17.6523 14.9727C17.6523 15.5768 17.4419 16.0904 17.0211 16.5133C16.6003 16.9362 16.0893 17.1477 15.4882 17.1477ZM13.9732 26.5727H16.8227L17.3277 22.7302C18.0731 22.5368 18.7645 22.2529 19.4017 21.8783C20.0389 21.5037 20.6221 21.0506 21.1511 20.5189L24.722 22.0052L26.1287 19.5402L23.0267 17.1839C23.1469 16.8456 23.2311 16.4891 23.2792 16.1145C23.3273 15.7399 23.3513 15.3593 23.3513 14.9727C23.3513 14.586 23.3273 14.2054 23.2792 13.8308C23.2311 13.4562 23.1469 13.0997 23.0267 12.7614L26.1287 10.4052L24.722 7.94016L21.1511 9.46266C20.6221 8.90682 20.0389 8.44162 19.4017 8.06703C18.7645 7.69245 18.0731 7.40849 17.3277 7.21516L16.8588 3.37266H14.0093L13.5043 7.21516C12.7589 7.40849 12.0675 7.69245 11.4303 8.06703C10.7931 8.44162 10.21 8.89474 9.68094 9.42641L6.11005 7.94016L4.70333 10.4052L7.80532 12.7252C7.68509 13.0877 7.60092 13.4502 7.55283 13.8127C7.50474 14.1752 7.48069 14.5618 7.48069 14.9727C7.48069 15.3593 7.50474 15.7339 7.55283 16.0964C7.60092 16.4589 7.68509 16.8214 7.80532 17.1839L4.70333 19.5402L6.11005 22.0052L9.68094 20.4827C10.21 21.0385 10.7931 21.5037 11.4303 21.8783C12.0675 22.2529 12.7589 22.5368 13.5043 22.7302L13.9732 26.5727Z" fill="#7D7D7D"/>
</svg>
