<svg width="35" height="35" viewBox="0 0 35 35" fill="none" xmlns="http://www.w3.org/2000/svg">
<g clip-path="url(#clip0_404_1395)">
<path fill-rule="evenodd" clip-rule="evenodd" d="M17.5 0.000244141C7.83563 0.000244141 0 7.83587 0 17.5002C0 27.1646 7.83563 35.0002 17.5 35.0002C27.1644 35.0002 35 27.1646 35 17.5002C35 7.83587 27.1644 0.000244141 17.5 0.000244141ZM25.6113 11.9017C25.3488 14.6682 24.2083 21.3838 23.6294 24.4827C23.3844 25.7952 22.9002 26.2342 22.4335 26.2765C21.4171 26.3698 20.6456 25.6042 19.6613 24.9596C18.1213 23.9505 17.2506 23.3219 15.7558 22.3361C14.0277 21.1971 15.1477 20.5715 16.1321 19.5492C16.3902 19.2809 20.8673 15.2077 20.9548 14.8388C20.965 14.7921 20.9767 14.62 20.8731 14.5296C20.7696 14.4392 20.6194 14.4698 20.5115 14.4946C20.3569 14.5296 17.8967 16.1557 13.1294 19.3727C12.4308 19.8525 11.7979 20.0859 11.2306 20.0742C10.6065 20.0611 9.40479 19.7213 8.51083 19.4296C7.41563 19.0738 6.54354 18.8842 6.61938 18.2805C6.65875 17.9655 7.09188 17.6432 7.92021 17.3136C13.0215 15.0911 16.4237 13.6255 18.1256 12.9167C22.9862 10.8955 23.9954 10.544 24.6546 10.5323C25.48 10.5207 25.6783 11.2017 25.6113 11.9017Z" fill="#414141"/>
</g>
<defs>
<clipPath id="clip0_404_1395">
<rect width="35" height="35" fill="white"/>
</clipPath>
</defs>
</svg>
