<svg width="28" height="34" viewBox="0 0 28 34" fill="none" xmlns="http://www.w3.org/2000/svg">
<path d="M25.9725 6.2398H21.7983C21.154 3.10719 18.3983 0.857677 15.2001 0.853638H12.507C9.30884 0.857677 6.55317 3.10719 5.90898 6.2398H1.73471C0.991036 6.2398 0.388184 6.84265 0.388184 7.58632C0.388184 8.32999 0.991036 8.93291 1.73471 8.93291H3.08123V26.438C3.08571 30.1545 6.09745 33.1663 9.81398 33.1707H17.8933C21.6098 33.1663 24.6215 30.1545 24.626 26.438V8.93291H25.9725C26.7162 8.93291 27.319 8.33006 27.319 7.58639C27.319 6.84271 26.7162 6.2398 25.9725 6.2398ZM12.5071 23.7449C12.5071 24.4886 11.9042 25.0915 11.1606 25.0915C10.4168 25.0915 9.81398 24.4886 9.81398 23.7449V15.6657C9.81398 14.922 10.4168 14.3191 11.1605 14.3191C11.9042 14.3191 12.507 14.922 12.507 15.6657V23.7449H12.5071ZM17.8933 23.7449C17.8933 24.4886 17.2904 25.0915 16.5467 25.0915C15.8031 25.0915 15.2002 24.4886 15.2002 23.7449V15.6657C15.2002 14.922 15.8031 14.3191 16.5467 14.3191C17.2904 14.3191 17.8933 14.922 17.8933 15.6657V23.7449ZM8.69771 6.2398C9.27046 4.62704 10.7957 3.54877 12.5071 3.54669H15.2002C16.9116 3.54877 18.4368 4.62704 19.0096 6.2398H8.69771Z" fill="white"/>
</svg>
