<svg width="31" height="31" viewBox="0 0 31 31" fill="none" xmlns="http://www.w3.org/2000/svg">
<path d="M30.5838 6.57361C30.3728 7.49257 29.9094 8.33437 29.2458 9.00418L15.205 23.0388C14.5163 23.7311 13.6971 24.28 12.7949 24.6536C11.8927 25.0272 10.9253 25.2182 9.94872 25.2154H8.28498C7.62787 25.2154 6.99767 24.9544 6.53302 24.4897C6.06837 24.0251 5.80734 23.3949 5.80734 22.7378V21.074C5.80462 20.0976 5.99573 19.1303 6.36957 18.2282C6.74341 17.3261 7.29255 16.5072 7.98519 15.8189L22.0186 1.78433C22.6833 1.11975 23.5204 0.653825 24.4355 0.438965C24.4194 0.438965 24.4058 0.438965 24.3897 0.438965H7.04616C5.40398 0.440932 3.82963 1.09416 2.66844 2.25535C1.50724 3.41654 0.854018 4.9909 0.852051 6.63307L0.852051 23.9766C0.854018 25.6188 1.50724 27.1931 2.66844 28.3543C3.82963 29.5155 5.40398 30.1687 7.04616 30.1707H20.6732V23.9766C20.6732 22.9909 21.0648 22.0456 21.7617 21.3486C22.4587 20.6517 23.404 20.2601 24.3897 20.2601H30.5838V6.63307C30.5838 6.61325 30.5838 6.59467 30.5838 6.57361Z" fill="white"/>
</svg>
