<svg width="56" height="57" viewBox="0 0 56 57" fill="none" xmlns="http://www.w3.org/2000/svg">
<path d="M27.9886 55.4478L1.88532 22.559C1.8849 22.5584 1.88448 22.5579 1.88406 22.5574C1.01967 21.4494 0.534995 20.0926 0.501824 18.6877C0.468646 17.2825 0.888929 15.904 1.70041 14.7563C1.70063 14.756 1.70085 14.7557 1.70107 14.7554L9.93872 3.22363L9.93882 3.2235C10.54 2.38136 11.3335 1.6949 12.2534 1.2212C13.1732 0.747516 14.1929 0.500264 15.2275 0.5C15.2276 0.5 15.2276 0.5 15.2277 0.5H40.7494L27.9886 55.4478ZM27.9886 55.4478L54.0986 22.5591C54.099 22.5586 54.0995 22.5581 54.0999 22.5575C54.9639 21.4492 55.4478 20.092 55.4798 18.687C55.5119 17.2816 55.09 15.9033 54.2768 14.7566C54.2767 14.7564 54.2765 14.7561 54.2764 14.7559L46.0383 3.22363L46.0382 3.2235C45.4371 2.38136 44.6436 1.6949 43.7237 1.2212C42.8038 0.747515 41.7842 0.500264 40.7495 0.5L27.9886 55.4478ZM17.3915 20.8577L17.2853 20.5H16.9122H5.96653H4.93092L5.575 21.311L23.054 43.319L23.9249 42.8657L17.3915 20.8577ZM50.4022 21.3108L51.0457 20.5H50.0105H39.0649H38.6915L38.5855 20.8579L32.0638 42.8659L32.9348 43.3188L50.4022 21.3108ZM34.6769 21.1421L34.8672 20.5H34.1975H21.7795H21.1099L21.3001 21.1421L27.5091 42.0931L27.9885 43.7107L28.4679 42.0931L34.6769 21.1421ZM21.2684 16.196L21.0864 16.8333H21.7492H34.2279H34.8907L34.7086 16.196L31.3766 4.52936L31.2731 4.16667H30.8959H25.0812H24.704L24.6004 4.52936L21.2684 16.196ZM50.6904 16.0427L43.0558 5.35384C43.0558 5.3538 43.0558 5.35376 43.0557 5.35372C42.7936 4.98655 42.4476 4.68729 42.0465 4.48082L41.8177 4.92538L42.0465 4.48082C41.6453 4.27433 41.2007 4.16662 40.7495 4.16667H35.7492H35.0863L35.2684 4.80407L38.6028 16.4707L38.7064 16.8333H39.0835H50.2835H51.2551L50.6904 16.0427ZM20.7086 4.80398L20.8907 4.16667H20.2279H15.2276C15.2276 4.16667 15.2275 4.16667 15.2275 4.16667C14.7764 4.16663 14.3317 4.27434 13.9306 4.48082C13.5294 4.68731 13.1834 4.98662 12.9212 5.35383L5.28895 16.0428L4.72447 16.8333H5.69587H16.8959H17.2731L17.3766 16.4706L20.7086 4.80398Z" stroke="#585858"/>
</svg>
