<svg width="20" height="20" viewBox="0 0 20 20" fill="none" xmlns="http://www.w3.org/2000/svg">
<path d="M17.4978 16.6396L17.4741 16.6652L17.4487 16.6892C16.4832 17.5986 15.1923 18.0793 13.8424 18.0793C10.9361 18.0793 7.74098 16.3018 5.32758 14.0293C2.92449 11.7665 0.999718 8.73112 0.999718 5.9241V5.91782C0.999718 4.5889 1.5369 3.34535 2.53737 2.41081L2.56175 2.38804L2.5876 2.36694L3.26299 1.81557C4.4567 0.719374 6.34394 0.728213 7.52646 1.84209L6.84341 2.56724L7.52647 1.84209C7.55232 1.86645 7.57165 1.88741 7.57562 1.89172L7.57601 1.89214C7.58305 1.89976 7.58864 1.90604 7.59169 1.90948L7.60628 1.92628L7.62539 1.94893L7.67169 2.00478C7.70846 2.04934 7.75917 2.11108 7.81859 2.18359C7.93764 2.32887 8.09417 2.52042 8.24971 2.71092L8.67634 3.2338L8.81647 3.40568L8.83701 3.43088C9.94922 4.56102 9.94705 6.34162 8.83049 7.46921L8.51356 7.84495C9.28749 9.23175 10.3644 10.2395 11.8056 10.9233L12.2815 10.564C13.4441 9.54777 15.226 9.54934 16.3934 10.5555L16.4246 10.5781L16.6071 10.7101L17.1621 11.1119C17.3644 11.2584 17.5677 11.4059 17.7219 11.518C17.7989 11.5739 17.8644 11.6217 17.9116 11.6562L17.9707 11.6997L17.9944 11.7174L18.0117 11.7308C18.0153 11.7336 18.0218 11.7387 18.0297 11.7452L18.0301 11.7456C18.0345 11.7492 18.0565 11.7671 18.0822 11.7913C19.2867 12.9259 19.3196 14.8028 18.1434 15.9402L17.4978 16.6396Z" fill="white" stroke="#094446" stroke-width="2"/>
</svg>
