<svg width="19" height="19" viewBox="0 0 19 19" fill="none" xmlns="http://www.w3.org/2000/svg">
<path d="M15.0417 1.58333H14.25V0.791667C14.25 0.354667 13.8961 0 13.4583 0C13.0205 0 12.6667 0.354667 12.6667 0.791667V1.58333H6.33333V0.791667C6.33333 0.354667 5.97946 0 5.54167 0C5.10388 0 4.75 0.354667 4.75 0.791667V1.58333H3.95833C1.77571 1.58333 0 3.35904 0 5.54167V15.0417C0 17.2243 1.77571 19 3.95833 19H7.125C7.56279 19 7.91667 18.6453 7.91667 18.2083C7.91667 17.7713 7.56279 17.4167 7.125 17.4167H3.95833C2.64892 17.4167 1.58333 16.3511 1.58333 15.0417V7.91667H18.2083C18.6461 7.91667 19 7.562 19 7.125V5.54167C19 3.35904 17.2243 1.58333 15.0417 1.58333ZM17.4167 6.33333H1.58333V5.54167C1.58333 4.23225 2.64892 3.16667 3.95833 3.16667H15.0417C16.3511 3.16667 17.4167 4.23225 17.4167 5.54167V6.33333ZM14.9459 10.1959L10.4278 14.7139C9.82933 15.3116 9.5 16.1073 9.5 16.9527V18.2083C9.5 18.6453 9.85388 19 10.2917 19H11.5473C12.3928 19 13.1884 18.6699 13.7861 18.0722L18.3041 13.5541C18.7522 13.1053 19 12.5091 19 11.8742C19 11.2393 18.7522 10.6432 18.3041 10.1951C17.3779 9.26883 15.8721 9.26962 14.9459 10.1959ZM17.1847 12.4347L12.6667 16.9527C12.3674 17.252 11.97 17.4167 11.5473 17.4167H11.0833V16.9527C11.0833 16.5363 11.2528 16.1278 11.5473 15.8333L16.0653 11.3153C16.3748 11.0065 16.8752 11.0065 17.1847 11.3153C17.3343 11.4641 17.4167 11.6628 17.4167 11.875C17.4167 12.0872 17.3343 12.2851 17.1847 12.4347Z" fill="white"/>
</svg>
