<svg width="43" height="43" viewBox="0 0 43 43" fill="none" xmlns="http://www.w3.org/2000/svg">
<path d="M33.9514 0.15332H9.04755C6.68952 0.156145 4.42888 1.09412 2.7615 2.7615C1.09412 4.42888 0.156145 6.68952 0.15332 9.04755L0.15332 33.9514C0.156145 36.3094 1.09412 38.5701 2.7615 40.2374C4.42888 41.9048 6.68952 42.8428 9.04755 42.8456H33.9514C36.3094 42.8428 38.5701 41.9048 40.2374 40.2374C41.9048 38.5701 42.8428 36.3094 42.8456 33.9514V9.04755C42.8428 6.68952 41.9048 4.42888 40.2374 2.7615C38.5701 1.09412 36.3094 0.156145 33.9514 0.15332ZM9.04755 3.71101H33.9514C35.3667 3.71101 36.7241 4.27325 37.7249 5.27405C38.7257 6.27484 39.2879 7.63221 39.2879 9.04755V33.9514C39.2849 34.7439 39.1024 35.5253 38.7543 36.2372L22.4547 19.9376C21.6288 19.1115 20.6482 18.4561 19.5689 18.009C18.4897 17.5619 17.3329 17.3318 16.1647 17.3318C14.9965 17.3318 13.8397 17.5619 12.7605 18.009C11.6812 18.4561 10.7007 19.1115 9.87471 19.9376L3.71101 26.0996V9.04755C3.71101 7.63221 4.27325 6.27484 5.27405 5.27405C6.27484 4.27325 7.63221 3.71101 9.04755 3.71101ZM9.04755 39.2879C7.63221 39.2879 6.27484 38.7257 5.27405 37.7249C4.27325 36.7241 3.71101 35.3667 3.71101 33.9514V31.1301L12.3882 22.4529C12.8838 21.957 13.4723 21.5636 14.1199 21.2952C14.7676 21.0268 15.4618 20.8887 16.1629 20.8887C16.864 20.8887 17.5582 21.0268 18.2059 21.2952C18.8536 21.5636 19.4421 21.957 19.9376 22.4529L36.2372 38.7543C35.5253 39.1024 34.7439 39.2849 33.9514 39.2879H9.04755Z" fill="#545454"/>
</svg>
