<svg width="53" height="53" viewBox="0 0 53 53" fill="none" xmlns="http://www.w3.org/2000/svg">
<path d="M3.13407 52.5322C2.56012 52.5322 2.00967 52.3042 1.60382 51.8984C1.19797 51.4925 0.969971 50.9421 0.969971 50.3681V9.25016C0.969971 6.95434 1.88198 4.75255 3.50537 3.12915C5.12877 1.50576 7.33056 0.59375 9.62638 0.59375L24.7751 0.59375C27.0709 0.59375 29.2727 1.50576 30.8961 3.12915C32.5195 4.75255 33.4315 6.95434 33.4315 9.25016V20.0707C33.4315 22.3665 32.5195 24.5683 30.8961 26.1917C29.2727 27.8151 27.0709 28.7271 24.7751 28.7271H5.29818V50.3681C5.29818 50.9421 5.07017 51.4925 4.66432 51.8984C4.25848 52.3042 3.70803 52.5322 3.13407 52.5322ZM44.252 9.25016H37.7597V20.0707C37.7563 23.5134 36.3872 26.814 33.9528 29.2484C31.5185 31.6827 28.2178 33.0518 24.7751 33.0553H23.8142C24.5681 34.3668 25.6536 35.457 26.9617 36.2167C28.2698 36.9763 29.7547 37.3787 31.2674 37.3835H44.252C46.5478 37.3835 48.7496 36.4715 50.373 34.8481C51.9964 33.2247 52.9084 31.0229 52.9084 28.7271V17.9066C52.9084 15.6107 51.9964 13.409 50.373 11.7856C48.7496 10.1622 46.5478 9.25016 44.252 9.25016Z" fill="#FF0000"/>
</svg>
