<svg width="22" height="22" viewBox="0 0 22 22" fill="none" xmlns="http://www.w3.org/2000/svg">
<path d="M11 0C4.93442 0 0 4.93442 0 11C0 17.0656 4.93442 22 11 22C17.0656 22 22 17.0656 22 11C22 4.93442 17.0656 0 11 0ZM7.33333 19.4003V17.4167C7.33333 16.9107 7.74492 16.5 8.25 16.5H13.75C14.2551 16.5 14.6667 16.9107 14.6667 17.4167V19.4003C13.5428 19.8926 12.3035 20.1667 11 20.1667C9.6965 20.1667 8.45717 19.8926 7.33333 19.4003ZM16.5 18.3288V17.4167C16.5 15.9005 15.2662 14.6667 13.75 14.6667H8.25C6.73383 14.6667 5.5 15.9005 5.5 17.4167V18.3288C3.27525 16.6549 1.83333 13.9929 1.83333 11C1.83333 5.9455 5.9455 1.83333 11 1.83333C16.0545 1.83333 20.1667 5.9455 20.1667 11C20.1667 13.992 18.7248 16.6549 16.5 18.3288ZM11 5.5C8.97783 5.5 7.33333 7.1445 7.33333 9.16667C7.33333 11.1888 8.97783 12.8333 11 12.8333C13.0222 12.8333 14.6667 11.1888 14.6667 9.16667C14.6667 7.1445 13.0222 5.5 11 5.5ZM11 11C9.98892 11 9.16667 10.1778 9.16667 9.16667C9.16667 8.15558 9.98892 7.33333 11 7.33333C12.0111 7.33333 12.8333 8.15558 12.8333 9.16667C12.8333 10.1778 12.0111 11 11 11Z" fill="white"/>
</svg>
