<svg width="39" height="16" viewBox="0 0 39 16" fill="none" xmlns="http://www.w3.org/2000/svg">
<path d="M34.1267 2.99639L34.1267 10.4572C34.1258 10.8239 33.8288 11.121 33.4621 11.1218L5.53988 11.1218C5.17317 11.1209 4.87608 10.8239 4.87525 10.4572L4.87525 2.99647C4.87525 1.65021 3.78388 0.558845 2.43762 0.558845C1.09137 0.558845 1.88136e-06 1.65021 1.70482e-06 2.99647L7.26467e-07 10.4572C0.00358058 13.5153 2.4818 15.9935 5.53988 15.9971L33.462 15.9971C36.5202 15.9935 38.9984 13.5153 39.002 10.4572L39.002 2.99647C39.002 1.65022 37.9106 0.55885 36.5643 0.558849C35.2181 0.558849 34.1267 1.65014 34.1267 2.99639Z" fill="#272727"/>
</svg>
