<svg width="26" height="25" viewBox="0 0 26 25" fill="none" xmlns="http://www.w3.org/2000/svg">
<path d="M13.0723 0.147705C10.6506 0.147705 8.28338 0.865804 6.26986 2.21119C4.25634 3.55659 2.68699 5.46884 1.76027 7.70614C0.833552 9.94345 0.59108 12.4053 1.06352 14.7804C1.53596 17.1555 2.70209 19.3372 4.41444 21.0496C6.1268 22.7619 8.30848 23.928 10.6836 24.4005C13.0587 24.8729 15.5206 24.6304 17.7579 23.7037C19.9952 22.777 21.9074 21.2077 23.2528 19.1941C24.5982 17.1806 25.3163 14.8134 25.3163 12.3917C25.3128 9.14549 24.0217 6.03321 21.7262 3.73777C19.4308 1.44234 16.3185 0.151216 13.0723 0.147705ZM13.0723 22.5951C11.0542 22.5951 9.08153 21.9967 7.4036 20.8755C5.72566 19.7543 4.41787 18.1608 3.64561 16.2964C2.87334 14.432 2.67128 12.3804 3.06498 10.4012C3.45868 8.4219 4.43045 6.60383 5.85741 5.17687C7.28438 3.7499 9.10244 2.77813 11.0817 2.38443C13.061 1.99073 15.1125 2.19279 16.9769 2.96506C18.8413 3.73733 20.4349 5.04512 21.556 6.72305C22.6772 8.40098 23.2756 10.3737 23.2756 12.3917C23.2727 15.0969 22.1967 17.6904 20.2839 19.6033C18.371 21.5162 15.7775 22.5921 13.0723 22.5951Z" fill="white"/>
</svg>
