<svg width="20" height="19" viewBox="0 0 20 19" fill="none" xmlns="http://www.w3.org/2000/svg">
<path d="M11.6825 2.34167C12.425 1.64417 13.5858 1.47333 14.4942 1.92917L17.3033 3.33417H20V1.6675H17.6967L15.24 0.438333C13.72 -0.3225 11.7792 -0.0399999 10.5392 1.12833L10.0242 1.61333L9.44083 1.08167C8.675 0.384167 7.68333 0 6.61583 0C5.97333 0 5.3325 0.151667 4.76 0.4375L2.3025 1.66667H0V3.33333H2.69667L5.50667 1.92833C6.35833 1.5 7.555 1.61583 8.31833 2.31333L8.8075 2.75917L6.6025 4.83583C5.70833 5.72917 5.56583 7.14167 6.27083 8.1175C6.70417 8.72 7.43667 9.16667 8.3075 9.16667C8.96833 9.16667 9.6025 8.90667 10.0608 8.4475L10.8992 7.645L16.185 11.6092L10 16.2342L2.7775 10.8333H0V12.5H2.2225L10 18.3158L17.7775 12.5H20V10.8333H17.9275L12.1192 6.4775L13.5258 5.13083L12.3733 3.92667L8.89583 7.25583C8.7225 7.42917 8.48667 7.51833 8.23917 7.4975C7.99083 7.4775 7.7725 7.35167 7.62333 7.14333C7.395 6.82667 7.465 6.33083 7.76333 6.03167L11.6825 2.34167Z" fill="white"/>
</svg>
