<svg width="29" height="22" viewBox="0 0 29 22" fill="none" xmlns="http://www.w3.org/2000/svg">
<path d="M12.0757 1.98673L0.0497014 1.95608L0.0546875 0L12.0807 0.0306545L12.0757 1.98673ZM9.66555 3.93668L0.0447154 3.91216L0.0397293 5.86824L9.66056 5.89276L9.66555 3.93668ZM7.25037 7.84271L0.0347432 7.82432L0.0297572 9.7804L7.24538 9.79879L7.25037 7.84271ZM14.4859 0.0367854L14.476 3.94895L12.0708 3.94281L12.0608 7.85497L9.65558 7.84884L9.6456 11.761L0.0247711 11.7365L0.0123059 16.6267L18.0514 16.6727L18.0863 2.9801C18.0904 1.36242 16.475 0.0418556 14.4859 0.0367854ZM23.4506 21.5767C25.1114 21.5809 26.4599 20.4899 26.4634 19.1392C26.4638 18.971 26.4353 18.8086 26.3949 18.65L20.5201 18.635C20.4788 18.7934 20.4496 18.9557 20.4491 19.1239C20.4457 20.4746 21.7898 21.5724 23.4506 21.5767ZM6.61296 21.5337C8.27376 21.538 9.62226 20.447 9.6257 19.0963C9.62613 18.9281 9.59768 18.7656 9.5572 18.6071L3.68488 18.5921C3.64359 18.7505 3.61431 18.9128 3.61389 19.081C3.61044 20.4317 4.95216 21.5295 6.61296 21.5337ZM20.4566 16.6788L28.8748 16.7003L28.8873 11.8101L20.469 11.7886L20.4566 16.6788ZM22.8942 3.9704L20.489 3.96427L20.474 9.83251L28.8923 9.85397L28.8947 8.87593C28.9016 6.17947 26.2098 3.97886 22.8942 3.9704Z" fill="#094446"/>
</svg>
