<svg width="27" height="33" viewBox="0 0 27 33" fill="none" xmlns="http://www.w3.org/2000/svg">
<path d="M25.65 5.39999H21.465C20.8191 2.25933 18.0564 0.00405001 14.85 0H12.15C8.94355 0.00405001 6.18082 2.25933 5.53497 5.39999H1.34998C0.6044 5.39999 0 6.00439 0 6.74997C0 7.49555 0.6044 8.10001 1.34998 8.10001H2.69996V25.65C2.70445 29.3761 5.72392 32.3956 9.44999 32.4001H17.55C21.2761 32.3956 24.2955 29.3761 24.3 25.65V8.10001H25.65C26.3956 8.10001 27 7.49561 27 6.75003C27 6.00445 26.3956 5.39999 25.65 5.39999ZM12.15 22.9501C12.15 23.6956 11.5456 24.3 10.8 24.3C10.0544 24.3 9.44999 23.6956 9.44999 22.9501V14.85C9.44999 14.1045 10.0544 13.5001 10.8 13.5001C11.5456 13.5001 12.15 14.1045 12.15 14.85L12.15 22.9501ZM17.55 22.9501C17.55 23.6956 16.9456 24.3 16.2 24.3C15.4544 24.3 14.85 23.6956 14.85 22.9501V14.85C14.85 14.1045 15.4544 13.5001 16.2 13.5001C16.9456 13.5001 17.55 14.1045 17.55 14.85V22.9501ZM8.33086 5.39999C8.90508 3.78309 10.4342 2.70205 12.15 2.69996H14.85C16.5659 2.70205 18.095 3.78309 18.6692 5.39999H8.33086Z" fill="#F87878"/>
</svg>
