<svg width="12" height="11" viewBox="0 0 12 11" fill="none" xmlns="http://www.w3.org/2000/svg">
<path d="M10.3321 6.63203L10.1492 6.88497L10.136 6.87546L10.1239 6.86463C9.68026 6.46762 8.97559 6.4688 8.53789 6.86376L8.52774 6.87292L8.51683 6.88116L7.83347 7.39699L7.69291 7.5031L7.52941 7.43764C5.95799 6.80856 4.83599 5.74699 4.11911 4.21607L4.03439 4.03516L4.16319 3.88245L4.70614 3.23876L4.71596 3.22712L4.72686 3.21649C5.13944 2.81434 5.13944 2.17868 4.72686 1.77654L4.71406 1.76406L4.70277 1.7502L4.94473 1.55302L4.70276 1.75019L4.70273 1.75015L4.70261 1.75001L4.70214 1.74944L4.70029 1.74716L4.69305 1.73828L4.66556 1.70455L4.56731 1.58405L4.26824 1.2175C4.15915 1.08389 4.04974 0.950011 3.96677 0.848762L3.86588 0.725947L3.83907 0.693602C3.39196 0.284254 2.67097 0.287876 2.22871 0.704462L2.22066 0.71205L2.21209 0.719049L1.72892 1.11349C1.23461 1.57881 0.978827 2.1815 0.978827 2.82718V2.83159C0.978827 4.38853 2.0905 6.26911 3.69779 7.78255C5.30186 9.29297 7.30684 10.3496 8.97938 10.3496C9.68345 10.3496 10.3321 10.1011 10.8077 9.65698L11.2682 9.15821L11.2756 9.1502L11.2835 9.14272C11.6884 8.76136 11.6992 8.11326 11.2715 7.69895L11.2366 7.67332L11.1062 7.57826C10.9987 7.5001 10.8566 7.39703 10.7147 7.29428L10.3256 7.01256L10.1976 6.92002L10.1618 6.89412L10.1524 6.8873L10.15 6.88556L10.1494 6.88511L10.1492 6.885L10.1492 6.88498L10.3321 6.63203ZM11.281 7.70605L11.2807 7.70582C11.2847 7.70903 11.2858 7.70969 11.281 7.70605ZM3.83128 0.684323C3.8274 0.679775 3.82813 0.680809 3.83157 0.684664L3.83128 0.684323Z" fill="#727272" stroke="#727272" stroke-width="0.624271"/>
</svg>
