<svg width="23" height="23" viewBox="0 0 23 23" fill="none" xmlns="http://www.w3.org/2000/svg">
<path d="M1.72793 22.4144C1.48867 22.4144 1.25921 22.3194 1.09003 22.1502C0.920851 21.981 0.825806 21.7516 0.825806 21.5123V4.37188C0.825806 3.41484 1.20599 2.497 1.88271 1.82028C2.55944 1.14355 3.47728 0.763367 4.43432 0.763367L10.7492 0.763367C11.7062 0.763367 12.6241 1.14355 13.3008 1.82028C13.9775 2.497 14.3577 3.41484 14.3577 4.37188V8.88252C14.3577 9.83955 13.9775 10.7574 13.3008 11.4341C12.6241 12.1108 11.7062 12.491 10.7492 12.491H2.63006V21.5123C2.63006 21.7516 2.53502 21.981 2.36583 22.1502C2.19665 22.3194 1.96719 22.4144 1.72793 22.4144ZM18.8684 4.37188H16.162V8.88252C16.1605 10.3176 15.5898 11.6936 14.575 12.7083C13.5603 13.7231 12.1843 14.2938 10.7492 14.2953H10.3487C10.6629 14.842 11.1154 15.2965 11.6607 15.6131C12.206 15.9298 12.825 16.0975 13.4556 16.0995H18.8684C19.8254 16.0995 20.7432 15.7194 21.42 15.0426C22.0967 14.3659 22.4769 13.4481 22.4769 12.491V7.98039C22.4769 7.02335 22.0967 6.10551 21.42 5.42879C20.7432 4.75206 19.8254 4.37188 18.8684 4.37188Z" fill="#094446"/>
</svg>
