<svg width="37" height="36" viewBox="0 0 37 36" fill="none" xmlns="http://www.w3.org/2000/svg">
<path d="M18.4465 0.109375C8.52974 0.109375 0.462891 8.15977 0.462891 18.0556C0.462891 27.9515 8.51329 36.0019 18.4092 36.0019C28.305 36.0019 36.3554 27.9515 36.3554 18.0556C36.3554 8.15977 28.3215 0.109375 18.4465 0.109375ZM19.9421 28.5243H16.951V22.5422L13.96 19.5512V16.5601L12.4645 15.0646H7.97789L4.84327 11.77C7.22863 6.65527 12.4286 3.10042 18.4465 3.10042C18.7561 3.10042 19.0627 3.11089 19.3678 3.13033C18.0547 5.12386 16.951 6.83922 16.951 6.83922L19.1943 10.578L17.6988 12.0736L14.7077 10.578L12.4645 12.8213L14.7077 15.0646H18.4465L24.4286 18.8034L19.9421 28.5243ZM28.9152 18.0556L27.4197 12.0736L31.0104 10.0008C32.5 12.3263 33.3629 15.0915 33.3629 18.0556C33.3629 18.7795 33.3105 19.4913 33.2103 20.1883L28.9152 18.0556Z" fill="#094446"/>
</svg>
