<svg width="37" height="36" viewBox="0 0 37 36" fill="none" xmlns="http://www.w3.org/2000/svg">
<path d="M18.9465 0.109375C9.02974 0.109375 0.962891 8.15977 0.962891 18.0556C0.962891 27.9515 9.01329 36.0019 18.9092 36.0019C28.805 36.0019 36.8554 27.9515 36.8554 18.0556C36.8554 8.15977 28.8215 0.109375 18.9465 0.109375ZM20.4421 28.5243H17.451V22.5422L14.46 19.5512V16.5601L12.9645 15.0646H8.47789L5.34328 11.77C7.72863 6.65527 12.9286 3.10042 18.9465 3.10042C19.2561 3.10042 19.5627 3.11089 19.8678 3.13033C18.5547 5.12386 17.451 6.83922 17.451 6.83922L19.6943 10.578L18.1988 12.0736L15.2077 10.578L12.9645 12.8213L15.2077 15.0646H18.9465L24.9286 18.8034L20.4421 28.5243ZM29.4152 18.0556L27.9197 12.0736L31.5104 10.0008C33 12.3263 33.8629 15.0915 33.8629 18.0556C33.8629 18.7795 33.8105 19.4913 33.7103 20.1883L29.4152 18.0556Z" fill="white"/>
</svg>
