<svg width="38" height="28" viewBox="0 0 38 28" fill="none" xmlns="http://www.w3.org/2000/svg">
<path d="M29.5556 0H7.77778C5.71574 0.00247 3.73887 0.822705 2.28079 2.28079C0.822705 3.73887 0.00247 5.71574 0 7.77778L0 20.2222C0.00247 22.2843 0.822705 24.2611 2.28079 25.7192C3.73887 27.1773 5.71574 27.9975 7.77778 28H29.5556C31.6176 27.9975 33.5945 27.1773 35.0526 25.7192C36.5106 24.2611 37.3309 22.2843 37.3333 20.2222V7.77778C37.3309 5.71574 36.5106 3.73887 35.0526 2.28079C33.5945 0.822705 31.6176 0.00247 29.5556 0ZM7.77778 3.11111H29.5556C30.7932 3.11111 31.9802 3.60278 32.8554 4.47795C33.7306 5.35312 34.2222 6.5401 34.2222 7.77778H3.11111C3.11111 6.5401 3.60278 5.35312 4.47795 4.47795C5.35312 3.60278 6.5401 3.11111 7.77778 3.11111ZM29.5556 24.8889H7.77778C6.5401 24.8889 5.35312 24.3972 4.47795 23.5221C3.60278 22.6469 3.11111 21.4599 3.11111 20.2222V10.8889H34.2222V20.2222C34.2222 21.4599 33.7306 22.6469 32.8554 23.5221C31.9802 24.3972 30.7932 24.8889 29.5556 24.8889Z" fill="#272822"/>
</svg>
