<svg width="19" height="23" viewBox="0 0 19 23" fill="none" xmlns="http://www.w3.org/2000/svg">
<path d="M9.5 14.3753C9.24804 14.3753 9.00641 14.2743 8.82825 14.0946C8.65009 13.9149 8.55 13.6711 8.55 13.417V5.75052C8.55 5.49636 8.65009 5.25262 8.82825 5.0729C9.00641 4.89318 9.24804 4.79222 9.5 4.79222C9.75196 4.79222 9.99359 4.89318 10.1718 5.0729C10.3499 5.25262 10.45 5.49636 10.45 5.75052V13.417C10.45 13.6711 10.3499 13.9149 10.1718 14.0946C9.99359 14.2743 9.75196 14.3753 9.5 14.3753ZM10.2534 22.77C12.3053 21.9382 19 18.6675 19 11.5416V6.58616C19.001 5.579 18.687 4.59718 18.1026 3.78055C17.5182 2.96392 16.6933 2.35414 15.7453 2.03805L9.79925 0.0495694C9.60513 -0.0165231 9.39487 -0.0165231 9.20075 0.0495694L3.2547 2.03805C2.30671 2.35414 1.48176 2.96392 0.897373 3.78055C0.312983 4.59718 -0.00105018 5.579 2.63862e-06 6.58616V11.5416C2.63862e-06 17.8299 6.65475 21.6766 8.69535 22.7058C8.95344 22.83 9.22294 22.9286 9.5 23C9.75759 22.9469 10.0098 22.8699 10.2534 22.77ZM15.1468 3.85691C15.7154 4.04706 16.2101 4.41309 16.5608 4.90303C16.9114 5.39297 17.1001 5.9819 17.1 6.58616V11.5416C17.1 17.4668 11.3173 20.2727 9.54465 20.9914C7.75105 20.0868 1.9 16.7317 1.9 11.5416V6.58616C1.89992 5.9819 2.0886 5.39297 2.43922 4.90303C2.78985 4.41309 3.2846 4.04706 3.8532 3.85691L9.5 1.96905L15.1468 3.85691ZM9.5 16.2919C9.31211 16.2919 9.12844 16.3481 8.97221 16.4534C8.81598 16.5587 8.69422 16.7083 8.62231 16.8834C8.55041 17.0586 8.5316 17.2512 8.56825 17.4371C8.60491 17.623 8.69539 17.7938 8.82825 17.9278C8.96111 18.0618 9.13038 18.1531 9.31466 18.1901C9.49895 18.227 9.68996 18.2081 9.86355 18.1355C10.0371 18.063 10.1855 17.9402 10.2899 17.7826C10.3943 17.625 10.45 17.4397 10.45 17.2502C10.45 16.996 10.3499 16.7523 10.1718 16.5725C9.99359 16.3928 9.75196 16.2919 9.5 16.2919Z" fill="white"/>
</svg>
