<svg width="24" height="28" viewBox="0 0 24 28" fill="none" xmlns="http://www.w3.org/2000/svg">
<path d="M22.1666 4.66665H18.55C17.9918 1.95251 15.6043 0.0035 12.8333 0H10.4999C7.72898 0.0035 5.34144 1.95251 4.7833 4.66665H1.16665C0.52232 4.66665 0 5.18897 0 5.8333C0 6.47762 0.52232 7 1.16665 7H2.3333V22.1666C2.33718 25.3867 4.94659 27.9962 8.16665 28H15.1666C18.3867 27.9962 20.9961 25.3867 21 22.1666V7H22.1666C22.811 7 23.3333 6.47768 23.3333 5.83335C23.3333 5.18902 22.811 4.66665 22.1666 4.66665ZM10.5 19.8334C10.5 20.4777 9.97768 21 9.33335 21C8.68897 21 8.16665 20.4777 8.16665 19.8334V12.8334C8.16665 12.189 8.68897 11.6667 9.3333 11.6667C9.97762 11.6667 10.4999 12.189 10.4999 12.8334L10.5 19.8334ZM15.1666 19.8334C15.1666 20.4777 14.6443 21 14 21C13.3557 21 12.8334 20.4777 12.8334 19.8334V12.8334C12.8334 12.189 13.3557 11.6667 14 11.6667C14.6443 11.6667 15.1666 12.189 15.1666 12.8334V19.8334ZM7.1995 4.66665C7.69573 3.26933 9.0172 2.3351 10.5 2.3333H12.8334C14.3161 2.3351 15.6376 3.26933 16.1339 4.66665H7.1995Z" fill="#F10000" fill-opacity="0.53"/>
</svg>
