<svg width="21" height="21" viewBox="0 0 21 21" fill="none" xmlns="http://www.w3.org/2000/svg">
<path d="M10.5219 0C4.71975 0 0 4.71012 0 10.5C0 16.2899 4.71012 21 10.5 21C16.2899 21 21 16.2899 21 10.5C21 4.71012 16.2995 0 10.5219 0ZM11.3969 16.625H9.64687V13.125L7.89687 11.375V9.625L7.02187 8.75H4.39687L2.56288 6.82237C3.9585 3.82987 7.00087 1.75 10.5219 1.75C10.703 1.75 10.8824 1.75612 11.0609 1.7675C10.2926 2.93387 9.64687 3.9375 9.64687 3.9375L10.9594 6.125L10.0844 7L8.33437 6.125L7.02187 7.4375L8.33437 8.75H10.5219L14.0219 10.9375L11.3969 16.625ZM16.6469 10.5L15.7719 7L17.8727 5.78725C18.7442 7.14787 19.2491 8.76575 19.2491 10.5C19.2491 10.9235 19.2185 11.34 19.1599 11.7477L16.6469 10.5Z" fill="#094446"/>
</svg>
