<svg width="17" height="17" viewBox="0 0 17 17" fill="none" xmlns="http://www.w3.org/2000/svg">
<path d="M8.51771 0C3.82075 0 0 3.81296 0 8.5C0 13.187 3.81296 17 8.5 17C13.187 17 17 13.187 17 8.5C17 3.81296 13.1948 0 8.51771 0ZM9.22604 13.4583H7.80937V10.625L6.39271 9.20833V7.79167L5.68437 7.08333H3.55938L2.07471 5.52287C3.2045 3.10037 5.66737 1.41667 8.51771 1.41667C8.66433 1.41667 8.80954 1.42162 8.95404 1.43083C8.33212 2.37504 7.80937 3.1875 7.80937 3.1875L8.87187 4.95833L8.16354 5.66667L6.74687 4.95833L5.68437 6.02083L6.74687 7.08333H8.51771L11.351 8.85417L9.22604 13.4583ZM13.476 8.5L12.7677 5.66667L14.4684 4.68492C15.1739 5.78637 15.5826 7.09608 15.5826 8.5C15.5826 8.84283 15.5578 9.18 15.5104 9.51008L13.476 8.5Z" fill="#00F0FF"/>
</svg>
