<svg width="21" height="22" viewBox="0 0 21 22" fill="none" xmlns="http://www.w3.org/2000/svg">
<path d="M21 5.75H18.375V18.4375C18.375 20.1262 17.0012 21.5 15.3125 21.5H12.25V18.875H15.3125C15.554 18.875 15.75 18.679 15.75 18.4375V5.75H7V4C7 3.51787 6.60712 3.125 6.125 3.125C5.64288 3.125 5.25 3.51787 5.25 4V7.5H2.625V4C2.625 2.06975 4.19475 0.5 6.125 0.5H17.9375C19.6262 0.5 21 1.87375 21 3.5625V5.75ZM10.5 11V21.5H0V11C0 10.0331 0.783125 9.25 1.75 9.25H8.75C9.71688 9.25 10.5 10.0331 10.5 11ZM4.375 16.25H1.75V18.875H4.375V16.25ZM8.75 16.25H6.125V18.875H8.75V16.25ZM8.75 11.875H1.75V14.5H8.75V11.875Z" fill="#094446"/>
</svg>
