<svg width="30" height="30" viewBox="0 0 30 30" fill="none" xmlns="http://www.w3.org/2000/svg">
<path d="M1.60039 29.0998C1.28213 29.0998 0.976906 28.9734 0.751862 28.7483C0.526819 28.5233 0.400391 28.2181 0.400391 27.8998V5.0998C0.400391 3.82677 0.906103 2.60587 1.80628 1.70569C2.70645 0.805518 3.92735 0.299805 5.20039 0.299805L13.6004 0.299805C14.8734 0.299805 16.0943 0.805518 16.9945 1.70569C17.8947 2.60587 18.4004 3.82677 18.4004 5.0998V11.0998C18.4004 12.3728 17.8947 13.5937 16.9945 14.4939C16.0943 15.3941 14.8734 15.8998 13.6004 15.8998H2.80039V27.8998C2.80039 28.2181 2.67396 28.5233 2.44892 28.7483C2.22388 28.9734 1.91865 29.0998 1.60039 29.0998ZM24.4004 5.0998H20.8004V11.0998C20.7985 13.0088 20.0393 14.839 18.6895 16.1889C17.3396 17.5387 15.5094 18.2979 13.6004 18.2998H13.0676C13.4856 19.027 14.0875 19.6316 14.8129 20.0528C15.5382 20.474 16.3616 20.6972 17.2004 20.6998H24.4004C25.6734 20.6998 26.8943 20.1941 27.7945 19.2939C28.6947 18.3937 29.2004 17.1728 29.2004 15.8998V9.8998C29.2004 8.62677 28.6947 7.40587 27.7945 6.50569C26.8943 5.60552 25.6734 5.0998 24.4004 5.0998Z" fill="#BEBEBE"/>
</svg>
