<svg width="27" height="36" viewBox="0 0 27 36" fill="none" xmlns="http://www.w3.org/2000/svg">
<path d="M19.3636 0.0950623H19.174C18.5214 0.101263 17.8892 0.32404 17.3769 0.728415C16.8646 1.13279 16.501 1.69586 16.3434 2.32923C16.1746 2.94587 15.8078 3.48995 15.2995 3.87777C14.7912 4.26559 14.1696 4.47565 13.5303 4.47565C12.8909 4.47565 12.2693 4.26559 11.761 3.87777C11.2528 3.48995 10.886 2.94587 10.7171 2.32923C10.5595 1.69586 10.196 1.13279 9.68364 0.728415C9.1713 0.32404 8.53918 0.101263 7.88652 0.0950623L7.69694 0.0950623C5.76378 0.0973779 3.91046 0.866349 2.54351 2.2333C1.17656 3.60025 0.407589 5.45357 0.405273 7.38673V30.7201C0.405273 31.8804 0.86621 32.9932 1.68668 33.8137C2.50715 34.6341 3.61995 35.0951 4.78027 35.0951H7.88652C8.53918 35.0889 9.1713 34.8661 9.68364 34.4617C10.196 34.0573 10.5595 33.4943 10.7171 32.8609C10.886 32.2443 11.2528 31.7002 11.761 31.3124C12.2693 30.9245 12.8909 30.7145 13.5303 30.7145C14.1696 30.7145 14.7912 30.9245 15.2995 31.3124C15.8078 31.7002 16.1746 32.2443 16.3434 32.8609C16.501 33.4943 16.8646 34.0573 17.3769 34.4617C17.8892 34.8661 18.5214 35.0889 19.174 35.0951H22.2803C23.4406 35.0951 24.5534 34.6341 25.3739 33.8137C26.1943 32.9932 26.6553 31.8804 26.6553 30.7201V7.38673C26.653 5.45357 25.884 3.60025 24.517 2.2333C23.1501 0.866349 21.2968 0.0973779 19.3636 0.0950623ZM22.2803 32.1784L19.1551 32.0865C18.8125 30.849 18.0713 29.7591 17.0462 28.9858C16.0211 28.2125 14.7695 27.799 13.4855 27.8095C12.2015 27.8199 10.9569 28.2538 9.94455 29.0437C8.93223 29.8336 8.20883 30.9355 7.88652 32.1784H4.78027C4.3935 32.1784 4.02257 32.0248 3.74908 31.7513C3.47559 31.4778 3.32194 31.1068 3.32194 30.7201V24.8867H6.23861C6.62538 24.8867 6.99631 24.7331 7.2698 24.4596C7.54329 24.1861 7.69694 23.8152 7.69694 23.4284C7.69694 23.0416 7.54329 22.6707 7.2698 22.3972C6.99631 22.1237 6.62538 21.9701 6.23861 21.9701H3.32194V7.38673C3.32194 6.22641 3.78288 5.11361 4.60335 4.29314C5.42382 3.47267 6.53662 3.01173 7.69694 3.01173L7.90548 3.1036C8.24706 4.3336 8.98172 5.41804 9.99734 6.19141C11.013 6.96477 12.2537 7.38457 13.5303 7.38673C14.824 7.37572 16.0788 6.94238 17.1036 6.15263C18.1285 5.36289 18.8672 4.25998 19.2076 3.01173H19.3636C20.5239 3.01173 21.6367 3.47267 22.4572 4.29314C23.2777 5.11361 23.7386 6.22641 23.7386 7.38673V21.9701H20.8219C20.4352 21.9701 20.0642 22.1237 19.7907 22.3972C19.5173 22.6707 19.3636 23.0416 19.3636 23.4284C19.3636 23.8152 19.5173 24.1861 19.7907 24.4596C20.0642 24.7331 20.4352 24.8867 20.8219 24.8867H23.7386V30.7201C23.7386 31.1068 23.585 31.4778 23.3115 31.7513C23.038 32.0248 22.667 32.1784 22.2803 32.1784Z" fill="#272822"/>
</svg>
