<svg width="18" height="21" viewBox="0 0 18 21" fill="none" xmlns="http://www.w3.org/2000/svg">
<path d="M1.79999 6.25H2.09998L2.09998 16.0417L2.09998 16.0423C2.10298 18.5079 4.12061 20.4971 6.59941 20.5H6.6H11.4H11.4006C13.8794 20.4971 15.897 18.5079 15.9 16.0423V16.0417V6.25H16.2C16.913 6.25 17.5 5.67664 17.5 4.95835C17.5 4.24009 16.9131 3.66665 16.2 3.66665H14.1075C13.5363 1.80071 11.7949 0.502493 9.80061 0.5H9.79999L8.19997 0.5L8.19935 0.5C6.2051 0.502493 4.46361 1.80071 3.8925 3.66665H1.79999C1.08697 3.66665 0.5 4.24002 0.5 4.95831C0.5 5.67657 1.08694 6.25 1.79999 6.25ZM7.70001 14.4583C7.70001 14.6145 7.57065 14.75 7.40002 14.75C7.22934 14.75 7.1 14.6145 7.1 14.4583V9.70835C7.1 9.55219 7.22935 9.41669 7.39998 9.41669C7.57062 9.41669 7.69997 9.55219 7.69997 9.70835L7.70001 14.4583ZM10.9 14.4583C10.9 14.6145 10.7706 14.75 10.6 14.75C10.4294 14.75 10.3 14.6145 10.3 14.4583V9.70835C10.3 9.55219 10.4294 9.41669 10.6 9.41669C10.7706 9.41669 10.9 9.55219 10.9 9.70835V14.4583ZM9.79979 3.08331C10.3327 3.08405 10.8256 3.30329 11.1764 3.66665H6.82361C7.17445 3.30329 7.6673 3.08405 8.20025 3.08331H9.79979Z" stroke="white"/>
</svg>
