<svg width="36" height="35" viewBox="0 0 36 35" fill="none" xmlns="http://www.w3.org/2000/svg">
<g clip-path="url(#clip0_404_1398)">
<path fill-rule="evenodd" clip-rule="evenodd" d="M30.5835 5.08667C27.308 1.80833 22.9535 0.00145833 18.3145 0C8.75512 0 0.974915 7.77875 0.97054 17.3425C0.969082 20.3992 1.76825 23.3829 3.28637 26.0138L0.824707 35L10.018 32.5879C12.5512 33.9704 15.4037 34.6981 18.3057 34.6996H18.313C27.871 34.6996 35.6526 26.9194 35.657 17.3556C35.6599 12.7225 33.8574 8.36354 30.5835 5.08667ZM18.3145 31.7698H18.3087C15.7216 31.7698 13.1855 31.0742 10.9718 29.7602L10.4453 29.4481L4.98971 30.8787L6.44658 25.5588L6.10387 25.0133C4.66012 22.7179 3.89887 20.0652 3.90033 17.3425C3.90325 9.39458 10.371 2.92833 18.3218 2.92833C22.1718 2.92833 25.7914 4.43042 28.5126 7.15458C31.2339 9.88021 32.7316 13.5013 32.7301 17.3527C32.7257 25.3035 26.2595 31.7698 18.3145 31.7698ZM26.2216 20.9738C25.7885 20.7565 23.6578 19.7079 23.2597 19.5635C22.863 19.4192 22.5743 19.3463 22.2841 19.7794C21.9939 20.2125 21.1655 21.1896 20.9118 21.4798C20.6595 21.7685 20.4057 21.805 19.9726 21.5877C19.5395 21.3704 18.1424 20.914 16.4872 19.4367C15.1995 18.2875 14.3289 16.8685 14.0766 16.434C13.8243 15.9994 14.0503 15.766 14.2662 15.5502C14.4616 15.3563 14.6993 15.0442 14.9166 14.7904C15.1353 14.5396 15.2068 14.3588 15.3526 14.0685C15.497 13.7798 15.4255 13.526 15.3162 13.3088C15.2068 13.0929 14.3405 10.9594 13.9803 10.0917C13.6289 9.24583 13.2716 9.36104 13.0047 9.34792C12.7524 9.33479 12.4637 9.33333 12.1735 9.33333C11.8847 9.33333 11.4151 9.44125 11.0185 9.87583C10.6218 10.3104 9.50179 11.359 9.50179 13.491C9.50179 15.6246 11.0549 17.6852 11.2707 17.974C11.4866 18.2627 14.326 22.6406 18.6732 24.5175C19.7072 24.9638 20.5151 25.2306 21.1437 25.4304C22.182 25.76 23.127 25.7133 23.8737 25.6025C24.7064 25.4785 26.4374 24.554 26.7991 23.5419C27.1607 22.5298 27.1607 21.6606 27.0514 21.4813C26.9435 21.299 26.6547 21.191 26.2216 20.9738Z" fill="#414141"/>
</g>
<defs>
<clipPath id="clip0_404_1398">
<rect width="35" height="35" fill="white" transform="translate(0.738281)"/>
</clipPath>
</defs>
</svg>
